%TF.GenerationSoftware,KiCad,Pcbnew,9.0.0*%
%TF.CreationDate,2025-05-05T09:11:19-07:00*%
%TF.ProjectId,DC33_Cnet_Badge_SAO,44433333-5f43-46e6-9574-5f4261646765,rev?*%
%TF.SameCoordinates,Original*%
%TF.FileFunction,Legend,Bot*%
%TF.FilePolarity,Positive*%
%FSLAX46Y46*%
G04 Gerber Fmt 4.6, Leading zero omitted, Abs format (unit mm)*
G04 Created by KiCad (PCBNEW 9.0.0) date 2025-05-05 09:11:19*
%MOMM*%
%LPD*%
G01*
G04 APERTURE LIST*
%ADD10C,0.150000*%
%ADD11C,0.120000*%
G04 APERTURE END LIST*
D10*
X151204696Y-104178755D02*
X150298388Y-103756137D01*
X150298388Y-103756137D02*
X150197765Y-103971925D01*
X150197765Y-103971925D02*
X150180548Y-104121522D01*
X150180548Y-104121522D02*
X150226614Y-104248086D01*
X150226614Y-104248086D02*
X150292804Y-104331493D01*
X150292804Y-104331493D02*
X150445310Y-104455149D01*
X150445310Y-104455149D02*
X150574782Y-104515523D01*
X150574782Y-104515523D02*
X150767537Y-104552865D01*
X150767537Y-104552865D02*
X150873977Y-104549956D01*
X150873977Y-104549956D02*
X151000541Y-104503891D01*
X151000541Y-104503891D02*
X151104072Y-104394543D01*
X151104072Y-104394543D02*
X151204696Y-104178755D01*
X149982210Y-104659537D02*
X149918927Y-104682570D01*
X149918927Y-104682570D02*
X149835520Y-104748760D01*
X149835520Y-104748760D02*
X149734897Y-104964547D01*
X149734897Y-104964547D02*
X149737805Y-105070987D01*
X149737805Y-105070987D02*
X149760838Y-105134269D01*
X149760838Y-105134269D02*
X149827028Y-105217676D01*
X149827028Y-105217676D02*
X149913343Y-105257926D01*
X149913343Y-105257926D02*
X150062941Y-105275142D01*
X150062941Y-105275142D02*
X150822327Y-104998748D01*
X150822327Y-104998748D02*
X150560706Y-105559796D01*
X158723490Y-99478728D02*
X158464671Y-98512802D01*
X158464671Y-98512802D02*
X158234689Y-98574426D01*
X158234689Y-98574426D02*
X158109024Y-98657396D01*
X158109024Y-98657396D02*
X158041681Y-98774039D01*
X158041681Y-98774039D02*
X158020334Y-98878356D01*
X158020334Y-98878356D02*
X158023636Y-99074667D01*
X158023636Y-99074667D02*
X158060610Y-99212656D01*
X158060610Y-99212656D02*
X158155905Y-99384318D01*
X158155905Y-99384318D02*
X158226551Y-99463986D01*
X158226551Y-99463986D02*
X158343194Y-99531329D01*
X158343194Y-99531329D02*
X158493508Y-99540352D01*
X158493508Y-99540352D02*
X158723490Y-99478728D01*
X157251603Y-99873119D02*
X157803561Y-99725222D01*
X157527582Y-99799171D02*
X157268763Y-98833245D01*
X157268763Y-98833245D02*
X157397730Y-98946585D01*
X157397730Y-98946585D02*
X157514372Y-99013928D01*
X157514372Y-99013928D02*
X157618690Y-99035275D01*
X161114411Y-107051264D02*
X160495821Y-107408407D01*
X160495821Y-107408407D02*
X160395913Y-107521075D01*
X160395913Y-107521075D02*
X160361053Y-107651173D01*
X160361053Y-107651173D02*
X160391243Y-107798700D01*
X160391243Y-107798700D02*
X160438862Y-107881179D01*
X159748385Y-106685239D02*
X160034100Y-107180110D01*
X159891242Y-106932675D02*
X160757268Y-106432675D01*
X160757268Y-106432675D02*
X160681169Y-106586582D01*
X160681169Y-106586582D02*
X160646309Y-106716679D01*
X160646309Y-106716679D02*
X160652689Y-106822967D01*
D11*
%TO.C,D2*%
X146159790Y-104361945D02*
X146018406Y-104296016D01*
X148258799Y-105340728D02*
X148117415Y-105274800D01*
X146379146Y-103891535D02*
G75*
G02*
X147259223Y-102004589I1418741J487003D01*
G01*
X149482197Y-102344721D02*
G75*
G02*
X148258360Y-105340524I-1684310J-1059811D01*
G01*
X146018845Y-104296221D02*
G75*
G02*
X147527096Y-101433042I1779042J891689D01*
G01*
X149216552Y-102917307D02*
G75*
G02*
X148336770Y-104804391I-1418665J-487225D01*
G01*
%TO.C,D1*%
X155340357Y-95731858D02*
X155299981Y-95581173D01*
X155939782Y-97968942D02*
X155899406Y-97818257D01*
X155300106Y-95581641D02*
G75*
G02*
X158462913Y-94896612I1826620J-789659D01*
G01*
X158411863Y-97144878D02*
G75*
G02*
X156400759Y-97683920I-1285137J773578D01*
G01*
X159021242Y-96980323D02*
G75*
G02*
X155939657Y-97968474I-1894516J609023D01*
G01*
X155841710Y-95597520D02*
G75*
G02*
X157852898Y-95058793I1285016J-773780D01*
G01*
%TO.C,J1*%
X160528528Y-110006846D02*
X153825491Y-113876846D01*
X156976862Y-109055180D02*
X155676862Y-106803514D01*
X158593528Y-106655328D02*
X157928528Y-105503514D01*
X155676862Y-106803514D02*
X151225491Y-109373514D01*
X153825491Y-113876846D02*
X151225491Y-109373514D01*
X160528528Y-110006846D02*
X159228528Y-107755180D01*
X157928528Y-105503514D02*
X156776714Y-106168514D01*
X159228528Y-107755180D02*
X156976862Y-109055180D01*
%TD*%
M02*
