%TF.GenerationSoftware,KiCad,Pcbnew,9.0.0*%
%TF.CreationDate,2025-05-05T09:11:19-07:00*%
%TF.ProjectId,DC33_Cnet_Badge_SAO,44433333-5f43-46e6-9574-5f4261646765,rev?*%
%TF.SameCoordinates,Original*%
%TF.FileFunction,Soldermask,Bot*%
%TF.FilePolarity,Negative*%
%FSLAX46Y46*%
G04 Gerber Fmt 4.6, Leading zero omitted, Abs format (unit mm)*
G04 Created by KiCad (PCBNEW 9.0.0) date 2025-05-05 09:11:19*
%MOMM*%
%LPD*%
G01*
G04 APERTURE LIST*
G04 Aperture macros list*
%AMHorizOval*
0 Thick line with rounded ends*
0 $1 width*
0 $2 $3 position (X,Y) of the first rounded end (center of the circle)*
0 $4 $5 position (X,Y) of the second rounded end (center of the circle)*
0 Add line between two ends*
20,1,$1,$2,$3,$4,$5,0*
0 Add two circle primitives to create the rounded ends*
1,1,$1,$2,$3*
1,1,$1,$4,$5*%
%AMRotRect*
0 Rectangle, with rotation*
0 The origin of the aperture is its center*
0 $1 length*
0 $2 width*
0 $3 Rotation angle, in degrees counterclockwise*
0 Add horizontal line*
21,1,$1,$2,0,0,$3*%
G04 Aperture macros list end*
%ADD10C,0.000000*%
%ADD11RotRect,1.800000X1.800000X65.000000*%
%ADD12C,1.800000*%
%ADD13RotRect,1.800000X1.800000X15.000000*%
%ADD14RotRect,1.700000X1.700000X120.000000*%
%ADD15HorizOval,1.700000X0.000000X0.000000X0.000000X0.000000X0*%
G04 APERTURE END LIST*
D10*
%TO.C,G\u002A\u002A\u002A*%
G36*
X144150347Y-101739715D02*
G01*
X144167975Y-101741528D01*
X144185328Y-101744468D01*
X144202357Y-101748505D01*
X144219012Y-101753613D01*
X144235243Y-101759761D01*
X144251003Y-101766922D01*
X144266241Y-101775067D01*
X144280907Y-101784167D01*
X144294953Y-101794195D01*
X144308329Y-101805122D01*
X144320986Y-101816919D01*
X144332874Y-101829558D01*
X144343944Y-101843010D01*
X144354147Y-101857248D01*
X144363433Y-101872242D01*
X144369278Y-101882953D01*
X144374479Y-101893572D01*
X144379032Y-101904088D01*
X144382938Y-101914493D01*
X144386196Y-101924778D01*
X144388804Y-101934933D01*
X144390762Y-101944950D01*
X144392069Y-101954819D01*
X144392724Y-101964532D01*
X144392726Y-101974078D01*
X144392074Y-101983450D01*
X144390767Y-101992637D01*
X144388805Y-102001632D01*
X144386186Y-102010424D01*
X144382909Y-102019004D01*
X144378974Y-102027364D01*
X144377143Y-102030461D01*
X144374619Y-102034043D01*
X144371444Y-102038069D01*
X144367665Y-102042495D01*
X144363326Y-102047278D01*
X144358472Y-102052375D01*
X144353147Y-102057743D01*
X144347398Y-102063340D01*
X144341268Y-102069121D01*
X144334802Y-102075045D01*
X144328046Y-102081068D01*
X144321044Y-102087147D01*
X144313841Y-102093239D01*
X144306481Y-102099301D01*
X144299011Y-102105290D01*
X144291474Y-102111164D01*
X144261554Y-102135115D01*
X144233724Y-102159435D01*
X144207938Y-102184209D01*
X144184150Y-102209526D01*
X144162314Y-102235472D01*
X144142383Y-102262135D01*
X144124311Y-102289600D01*
X144108051Y-102317956D01*
X144093557Y-102347289D01*
X144080783Y-102377686D01*
X144069682Y-102409235D01*
X144060207Y-102442022D01*
X144052314Y-102476134D01*
X144045954Y-102511658D01*
X144041082Y-102548682D01*
X144037651Y-102587291D01*
X144035218Y-102621183D01*
X144032864Y-102647357D01*
X144031550Y-102658076D01*
X144030058Y-102667497D01*
X144028320Y-102675832D01*
X144026272Y-102683290D01*
X144023846Y-102690082D01*
X144020977Y-102696419D01*
X144017598Y-102702511D01*
X144013644Y-102708570D01*
X144009048Y-102714806D01*
X144003744Y-102721428D01*
X143990749Y-102736679D01*
X143975145Y-102755036D01*
X143960941Y-102772491D01*
X143948055Y-102789231D01*
X143936405Y-102805442D01*
X143925908Y-102821311D01*
X143916484Y-102837025D01*
X143908049Y-102852770D01*
X143900521Y-102868732D01*
X143893819Y-102885099D01*
X143887860Y-102902057D01*
X143882562Y-102919792D01*
X143877843Y-102938491D01*
X143873621Y-102958340D01*
X143869814Y-102979526D01*
X143866339Y-103002237D01*
X143863115Y-103026657D01*
X143857764Y-103069183D01*
X143855361Y-103086641D01*
X143852984Y-103101946D01*
X143850518Y-103115387D01*
X143847847Y-103127250D01*
X143844855Y-103137825D01*
X143841427Y-103147400D01*
X143837447Y-103156262D01*
X143832799Y-103164700D01*
X143827367Y-103173002D01*
X143821036Y-103181456D01*
X143813690Y-103190350D01*
X143805213Y-103199972D01*
X143784403Y-103222553D01*
X143765381Y-103243592D01*
X143747959Y-103264144D01*
X143732085Y-103284336D01*
X143717706Y-103304295D01*
X143704773Y-103324149D01*
X143693234Y-103344024D01*
X143683037Y-103364046D01*
X143674131Y-103384344D01*
X143666465Y-103405043D01*
X143659988Y-103426272D01*
X143654648Y-103448155D01*
X143650394Y-103470822D01*
X143647174Y-103494398D01*
X143644938Y-103519010D01*
X143643634Y-103544786D01*
X143643211Y-103571851D01*
X143643211Y-103661241D01*
X143564773Y-103842540D01*
X143531755Y-103920824D01*
X143499837Y-103999956D01*
X143472660Y-104070704D01*
X143461986Y-104100050D01*
X143453862Y-104123838D01*
X143446442Y-104145835D01*
X143437786Y-104170045D01*
X143428208Y-104195676D01*
X143418021Y-104221934D01*
X143407539Y-104248024D01*
X143397075Y-104273153D01*
X143386941Y-104296528D01*
X143377453Y-104317354D01*
X143352813Y-104366692D01*
X143326728Y-104413024D01*
X143299347Y-104456239D01*
X143270815Y-104496226D01*
X143241281Y-104532874D01*
X143210891Y-104566071D01*
X143179792Y-104595707D01*
X143148132Y-104621671D01*
X143132137Y-104633240D01*
X143116058Y-104643850D01*
X143099911Y-104653486D01*
X143083716Y-104662135D01*
X143067491Y-104669781D01*
X143051255Y-104676413D01*
X143035026Y-104682015D01*
X143018821Y-104686574D01*
X143002660Y-104690075D01*
X142986562Y-104692506D01*
X142970543Y-104693852D01*
X142954624Y-104694099D01*
X142938821Y-104693233D01*
X142923155Y-104691241D01*
X142907642Y-104688108D01*
X142892301Y-104683820D01*
X142892299Y-104683824D01*
X142879839Y-104679377D01*
X142867486Y-104674044D01*
X142855281Y-104667863D01*
X142843260Y-104660868D01*
X142831463Y-104653098D01*
X142819929Y-104644589D01*
X142808695Y-104635378D01*
X142797801Y-104625501D01*
X142787285Y-104614995D01*
X142777185Y-104603896D01*
X142767541Y-104592242D01*
X142758389Y-104580070D01*
X142749770Y-104567415D01*
X142741722Y-104554314D01*
X142734283Y-104540805D01*
X142727491Y-104526924D01*
X142723251Y-104517524D01*
X142719424Y-104508659D01*
X142715993Y-104500234D01*
X142712936Y-104492156D01*
X142710235Y-104484332D01*
X142707870Y-104476668D01*
X142705820Y-104469072D01*
X142704067Y-104461449D01*
X142702591Y-104453707D01*
X142701373Y-104445752D01*
X142700392Y-104437490D01*
X142699629Y-104428829D01*
X142699064Y-104419675D01*
X142698678Y-104409935D01*
X142698364Y-104388323D01*
X142698559Y-104365336D01*
X142698895Y-104355245D01*
X142699438Y-104345895D01*
X142700223Y-104337139D01*
X142701286Y-104328831D01*
X142702662Y-104320826D01*
X142704389Y-104312977D01*
X142706500Y-104305140D01*
X142709032Y-104297167D01*
X142712021Y-104288913D01*
X142715502Y-104280232D01*
X142719511Y-104270979D01*
X142724084Y-104261007D01*
X142735064Y-104238323D01*
X142743631Y-104222009D01*
X142753415Y-104205199D01*
X142764351Y-104187965D01*
X142776374Y-104170382D01*
X142789418Y-104152522D01*
X142803420Y-104134460D01*
X142818314Y-104116268D01*
X142834036Y-104098020D01*
X142850519Y-104079789D01*
X142867701Y-104061650D01*
X142885516Y-104043675D01*
X142903898Y-104025939D01*
X142922783Y-104008513D01*
X142942107Y-103991473D01*
X142961804Y-103974891D01*
X142981809Y-103958841D01*
X142998544Y-103945560D01*
X143013381Y-103933267D01*
X143026442Y-103921678D01*
X143032344Y-103916057D01*
X143037848Y-103910505D01*
X143042968Y-103904985D01*
X143047721Y-103899462D01*
X143052121Y-103893900D01*
X143056183Y-103888264D01*
X143059923Y-103882517D01*
X143063357Y-103876623D01*
X143066498Y-103870548D01*
X143069363Y-103864254D01*
X143071967Y-103857707D01*
X143074324Y-103850871D01*
X143076451Y-103843709D01*
X143078363Y-103836187D01*
X143080074Y-103828268D01*
X143081600Y-103819916D01*
X143082956Y-103811096D01*
X143084158Y-103801772D01*
X143086158Y-103781468D01*
X143087723Y-103758719D01*
X143088974Y-103733238D01*
X143090034Y-103704738D01*
X143092140Y-103654752D01*
X143094977Y-103610909D01*
X143098657Y-103572526D01*
X143103292Y-103538920D01*
X143106002Y-103523694D01*
X143108993Y-103509407D01*
X143112279Y-103495972D01*
X143115874Y-103483304D01*
X143119791Y-103471318D01*
X143124045Y-103459928D01*
X143128649Y-103449048D01*
X143133619Y-103438595D01*
X143139348Y-103428290D01*
X143146339Y-103417612D01*
X143154489Y-103406650D01*
X143163696Y-103395491D01*
X143173858Y-103384223D01*
X143184874Y-103372935D01*
X143196640Y-103361714D01*
X143209056Y-103350647D01*
X143222019Y-103339824D01*
X143235427Y-103329332D01*
X143249179Y-103319258D01*
X143263172Y-103309692D01*
X143277305Y-103300720D01*
X143291475Y-103292430D01*
X143305580Y-103284912D01*
X143319519Y-103278251D01*
X143385759Y-103248531D01*
X143379309Y-103166181D01*
X143373292Y-103086364D01*
X143368942Y-103020493D01*
X143366246Y-102966414D01*
X143365192Y-102921969D01*
X143365767Y-102885001D01*
X143367958Y-102853355D01*
X143371753Y-102824874D01*
X143377140Y-102797401D01*
X143381390Y-102779272D01*
X143385926Y-102761806D01*
X143390808Y-102744883D01*
X143396093Y-102728382D01*
X143401840Y-102712182D01*
X143408108Y-102696163D01*
X143414956Y-102680205D01*
X143422441Y-102664188D01*
X143430623Y-102647989D01*
X143439559Y-102631491D01*
X143449310Y-102614571D01*
X143459932Y-102597109D01*
X143471486Y-102578985D01*
X143484029Y-102560078D01*
X143512317Y-102519436D01*
X143529291Y-102494577D01*
X143547688Y-102465595D01*
X143567314Y-102432842D01*
X143587970Y-102396671D01*
X143609460Y-102357434D01*
X143631587Y-102315483D01*
X143654154Y-102271170D01*
X143676965Y-102224847D01*
X143710489Y-102156847D01*
X143742283Y-102094991D01*
X143772572Y-102039040D01*
X143801584Y-101988751D01*
X143829545Y-101943883D01*
X143856680Y-101904195D01*
X143883218Y-101869444D01*
X143909383Y-101839390D01*
X143935403Y-101813792D01*
X143961505Y-101792406D01*
X143987913Y-101774993D01*
X144014856Y-101761311D01*
X144042559Y-101751117D01*
X144071248Y-101744172D01*
X144101151Y-101740232D01*
X144132494Y-101739057D01*
X144150347Y-101739715D01*
G37*
G36*
X159425812Y-103161601D02*
G01*
X159484647Y-103165090D01*
X159538951Y-103171507D01*
X159588495Y-103180846D01*
X159633050Y-103193099D01*
X159672386Y-103208259D01*
X159706274Y-103226318D01*
X159734486Y-103247268D01*
X159756792Y-103271103D01*
X159762717Y-103279227D01*
X159767841Y-103287050D01*
X159770102Y-103290867D01*
X159772162Y-103294633D01*
X159774022Y-103298354D01*
X159775680Y-103302038D01*
X159777137Y-103305693D01*
X159778393Y-103309327D01*
X159779448Y-103312946D01*
X159780301Y-103316560D01*
X159780953Y-103320175D01*
X159781403Y-103323800D01*
X159781651Y-103327441D01*
X159781698Y-103331107D01*
X159781542Y-103334805D01*
X159781184Y-103338544D01*
X159780624Y-103342330D01*
X159779862Y-103346171D01*
X159778897Y-103350076D01*
X159777730Y-103354051D01*
X159776360Y-103358105D01*
X159774787Y-103362245D01*
X159771033Y-103370814D01*
X159766467Y-103379819D01*
X159761086Y-103389323D01*
X159754892Y-103399387D01*
X159743160Y-103416498D01*
X159729331Y-103434250D01*
X159713291Y-103452734D01*
X159694927Y-103472040D01*
X159674125Y-103492259D01*
X159650771Y-103513482D01*
X159624752Y-103535799D01*
X159595954Y-103559302D01*
X159564264Y-103584081D01*
X159529567Y-103610226D01*
X159491751Y-103637829D01*
X159450701Y-103666979D01*
X159406305Y-103697769D01*
X159358447Y-103730287D01*
X159307015Y-103764626D01*
X159251896Y-103800876D01*
X159213947Y-103825946D01*
X159197696Y-103837087D01*
X159182753Y-103847789D01*
X159168738Y-103858418D01*
X159155270Y-103869341D01*
X159141970Y-103880923D01*
X159128455Y-103893532D01*
X159114346Y-103907534D01*
X159099263Y-103923296D01*
X159082824Y-103941185D01*
X159064650Y-103961567D01*
X159021573Y-104011276D01*
X158966987Y-104075357D01*
X158898658Y-104155692D01*
X158845198Y-104217666D01*
X158801778Y-104266049D01*
X158782323Y-104286633D01*
X158763567Y-104305607D01*
X158744906Y-104323567D01*
X158725736Y-104341109D01*
X158705453Y-104358829D01*
X158683453Y-104377323D01*
X158631890Y-104419016D01*
X158566215Y-104470956D01*
X158499057Y-104523462D01*
X158441554Y-104567282D01*
X158392465Y-104603242D01*
X158350543Y-104632165D01*
X158314546Y-104654876D01*
X158298380Y-104664159D01*
X158283228Y-104672199D01*
X158268936Y-104679098D01*
X158255346Y-104684959D01*
X158242305Y-104689886D01*
X158229656Y-104693981D01*
X158217175Y-104697571D01*
X158205607Y-104700631D01*
X158194839Y-104703152D01*
X158184757Y-104705127D01*
X158175247Y-104706547D01*
X158166197Y-104707406D01*
X158157493Y-104707694D01*
X158149021Y-104707406D01*
X158140668Y-104706531D01*
X158132321Y-104705063D01*
X158123866Y-104702995D01*
X158115190Y-104700317D01*
X158106180Y-104697023D01*
X158096722Y-104693104D01*
X158086702Y-104688552D01*
X158076008Y-104683361D01*
X158075987Y-104683355D01*
X158065606Y-104678109D01*
X158056214Y-104673077D01*
X158051804Y-104670537D01*
X158047540Y-104667926D01*
X158043387Y-104665202D01*
X158039312Y-104662323D01*
X158035282Y-104659249D01*
X158031261Y-104655937D01*
X158027216Y-104652346D01*
X158023114Y-104648435D01*
X158018921Y-104644161D01*
X158014602Y-104639483D01*
X158010125Y-104634360D01*
X158005454Y-104628750D01*
X158000556Y-104622612D01*
X157995398Y-104615903D01*
X157984164Y-104600609D01*
X157971482Y-104582536D01*
X157957079Y-104561352D01*
X157940686Y-104536723D01*
X157922032Y-104508317D01*
X157876856Y-104438844D01*
X157832839Y-104370432D01*
X157796133Y-104312015D01*
X157765714Y-104261733D01*
X157740556Y-104217725D01*
X157719634Y-104178132D01*
X157701922Y-104141092D01*
X157686395Y-104104747D01*
X157672027Y-104067236D01*
X157661568Y-104036818D01*
X157652821Y-104007542D01*
X157645791Y-103979375D01*
X157640479Y-103952284D01*
X157636890Y-103926236D01*
X157635028Y-103901197D01*
X157634896Y-103877137D01*
X157636497Y-103854020D01*
X157639836Y-103831814D01*
X157644915Y-103810487D01*
X157651739Y-103790006D01*
X157660310Y-103770337D01*
X157670633Y-103751448D01*
X157682711Y-103733305D01*
X157696548Y-103715877D01*
X157712146Y-103699129D01*
X157741557Y-103673248D01*
X157779167Y-103645793D01*
X157824356Y-103617021D01*
X157876505Y-103587189D01*
X157934993Y-103556554D01*
X157999200Y-103525373D01*
X158068508Y-103493903D01*
X158142296Y-103462401D01*
X158219943Y-103431124D01*
X158300832Y-103400328D01*
X158384340Y-103370271D01*
X158469850Y-103341210D01*
X158556741Y-103313402D01*
X158644392Y-103287103D01*
X158732185Y-103262571D01*
X158819500Y-103240062D01*
X158906336Y-103219843D01*
X158990475Y-103202613D01*
X159071686Y-103188366D01*
X159149741Y-103177094D01*
X159224410Y-103168789D01*
X159295464Y-103163444D01*
X159362674Y-103161050D01*
X159425812Y-103161601D01*
G37*
G36*
X160000000Y-88400000D02*
G01*
X160245887Y-88611576D01*
X160489279Y-88830789D01*
X160729622Y-89057084D01*
X160966368Y-89289908D01*
X161198963Y-89528706D01*
X161426857Y-89772925D01*
X161649500Y-90022011D01*
X161866338Y-90275410D01*
X161913329Y-90331759D01*
X161932140Y-90354854D01*
X161948036Y-90375132D01*
X161961172Y-90393017D01*
X161971706Y-90408937D01*
X161976045Y-90416292D01*
X161979791Y-90423316D01*
X161982965Y-90430062D01*
X161985585Y-90436582D01*
X161987671Y-90442930D01*
X161989243Y-90449160D01*
X161990319Y-90455324D01*
X161990920Y-90461476D01*
X161991065Y-90467669D01*
X161990773Y-90473957D01*
X161990064Y-90480392D01*
X161988958Y-90487027D01*
X161985629Y-90501115D01*
X161980944Y-90516644D01*
X161968126Y-90553734D01*
X161960531Y-90573994D01*
X161952134Y-90594005D01*
X161942949Y-90613756D01*
X161932989Y-90633237D01*
X161922266Y-90652438D01*
X161910794Y-90671348D01*
X161885651Y-90708251D01*
X161857665Y-90743865D01*
X161826936Y-90778103D01*
X161793569Y-90810882D01*
X161757665Y-90842118D01*
X161719328Y-90871726D01*
X161678661Y-90899621D01*
X161635766Y-90925721D01*
X161590747Y-90949940D01*
X161543705Y-90972195D01*
X161494745Y-90992400D01*
X161443968Y-91010472D01*
X161391477Y-91026326D01*
X161374185Y-91030291D01*
X161353109Y-91033790D01*
X161328862Y-91036818D01*
X161302058Y-91039368D01*
X161243239Y-91043009D01*
X161181563Y-91044662D01*
X161121945Y-91044275D01*
X161069296Y-91041798D01*
X161047121Y-91039759D01*
X161028531Y-91037179D01*
X161014140Y-91034050D01*
X161004562Y-91030366D01*
X161000410Y-91028157D01*
X160996166Y-91026205D01*
X160991821Y-91024513D01*
X160987368Y-91023084D01*
X160982800Y-91021919D01*
X160978109Y-91021022D01*
X160973287Y-91020393D01*
X160968327Y-91020037D01*
X160963222Y-91019956D01*
X160957962Y-91020151D01*
X160952542Y-91020625D01*
X160946953Y-91021382D01*
X160941189Y-91022422D01*
X160935240Y-91023749D01*
X160929100Y-91025364D01*
X160922761Y-91027271D01*
X160916215Y-91029472D01*
X160909455Y-91031969D01*
X160895263Y-91037862D01*
X160880123Y-91044968D01*
X160863975Y-91053307D01*
X160846757Y-91062899D01*
X160828410Y-91073763D01*
X160808871Y-91085919D01*
X160788082Y-91099385D01*
X160752231Y-91122671D01*
X160718502Y-91143838D01*
X160686715Y-91162953D01*
X160656689Y-91180083D01*
X160628245Y-91195295D01*
X160601202Y-91208656D01*
X160575381Y-91220232D01*
X160550600Y-91230091D01*
X160526680Y-91238299D01*
X160503440Y-91244923D01*
X160480701Y-91250030D01*
X160458282Y-91253687D01*
X160436004Y-91255960D01*
X160413685Y-91256917D01*
X160391145Y-91256624D01*
X160368206Y-91255148D01*
X160348481Y-91253145D01*
X160329212Y-91250641D01*
X160310326Y-91247611D01*
X160291751Y-91244028D01*
X160273413Y-91239866D01*
X160255240Y-91235100D01*
X160237159Y-91229705D01*
X160219096Y-91223654D01*
X160200979Y-91216921D01*
X160182736Y-91209482D01*
X160164292Y-91201309D01*
X160145576Y-91192378D01*
X160126514Y-91182663D01*
X160107034Y-91172137D01*
X160087062Y-91160776D01*
X160066526Y-91148553D01*
X160051156Y-91139761D01*
X160031999Y-91129684D01*
X160009820Y-91118679D01*
X159985382Y-91107098D01*
X159959448Y-91095298D01*
X159932783Y-91083632D01*
X159906150Y-91072455D01*
X159880314Y-91062121D01*
X159843294Y-91047922D01*
X159812831Y-91036831D01*
X159799559Y-91032333D01*
X159787326Y-91028470D01*
X159775933Y-91025195D01*
X159765180Y-91022462D01*
X159754866Y-91020222D01*
X159744793Y-91018429D01*
X159734761Y-91017036D01*
X159724568Y-91015994D01*
X159714016Y-91015258D01*
X159702905Y-91014780D01*
X159678205Y-91014408D01*
X159653864Y-91014598D01*
X159643079Y-91014947D01*
X159633002Y-91015513D01*
X159623469Y-91016333D01*
X159614319Y-91017443D01*
X159605391Y-91018880D01*
X159596520Y-91020680D01*
X159587547Y-91022879D01*
X159578307Y-91025513D01*
X159568639Y-91028619D01*
X159558382Y-91032233D01*
X159547371Y-91036392D01*
X159535447Y-91041132D01*
X159508205Y-91052498D01*
X159426891Y-91086664D01*
X159357774Y-91115001D01*
X159335621Y-91124560D01*
X159314853Y-91134957D01*
X159295462Y-91146200D01*
X159286282Y-91152142D01*
X159277442Y-91158300D01*
X159268944Y-91164674D01*
X159260785Y-91171266D01*
X159252965Y-91178077D01*
X159245483Y-91185109D01*
X159238339Y-91192363D01*
X159231530Y-91199839D01*
X159225056Y-91207540D01*
X159218917Y-91215466D01*
X159213110Y-91223619D01*
X159207637Y-91231999D01*
X159202494Y-91240609D01*
X159197682Y-91249450D01*
X159193200Y-91258522D01*
X159189046Y-91267827D01*
X159185220Y-91277366D01*
X159181721Y-91287141D01*
X159178548Y-91297152D01*
X159175699Y-91307401D01*
X159170974Y-91328619D01*
X159167536Y-91350803D01*
X159165380Y-91373964D01*
X159164740Y-91404859D01*
X159166649Y-91436289D01*
X159170972Y-91467999D01*
X159177573Y-91499733D01*
X159186318Y-91531237D01*
X159197072Y-91562254D01*
X159209698Y-91592530D01*
X159224062Y-91621808D01*
X159240030Y-91649835D01*
X159257465Y-91676353D01*
X159276232Y-91701109D01*
X159296197Y-91723847D01*
X159317224Y-91744311D01*
X159339179Y-91762246D01*
X159361925Y-91777397D01*
X159373553Y-91783848D01*
X159385328Y-91789508D01*
X159393345Y-91792955D01*
X159401185Y-91796084D01*
X159408965Y-91798913D01*
X159416803Y-91801460D01*
X159424816Y-91803745D01*
X159433123Y-91805785D01*
X159441842Y-91807600D01*
X159451089Y-91809209D01*
X159460982Y-91810629D01*
X159471640Y-91811879D01*
X159483179Y-91812978D01*
X159495719Y-91813945D01*
X159509375Y-91814799D01*
X159524267Y-91815557D01*
X159558225Y-91816862D01*
X159607641Y-91817739D01*
X159631173Y-91817487D01*
X159654450Y-91816697D01*
X159677868Y-91815312D01*
X159701825Y-91813275D01*
X159726715Y-91810528D01*
X159752937Y-91807014D01*
X159780886Y-91802675D01*
X159810959Y-91797454D01*
X159879063Y-91784135D01*
X159960421Y-91766597D01*
X160058204Y-91744380D01*
X160146711Y-91724339D01*
X160220738Y-91708829D01*
X160285475Y-91697278D01*
X160315981Y-91692808D01*
X160346110Y-91689111D01*
X160376512Y-91686118D01*
X160407834Y-91683755D01*
X160475835Y-91680637D01*
X160555303Y-91679182D01*
X160651428Y-91678818D01*
X160795627Y-91677835D01*
X160920327Y-91674534D01*
X161030299Y-91668345D01*
X161130316Y-91658696D01*
X161178083Y-91652396D01*
X161225151Y-91645016D01*
X161319574Y-91626733D01*
X161418358Y-91603277D01*
X161526275Y-91574074D01*
X161615393Y-91550527D01*
X161700243Y-91531502D01*
X161780811Y-91516995D01*
X161857081Y-91507004D01*
X161929039Y-91501527D01*
X161996670Y-91500560D01*
X162059959Y-91504101D01*
X162118891Y-91512147D01*
X162173452Y-91524696D01*
X162223627Y-91541745D01*
X162269401Y-91563291D01*
X162310759Y-91589332D01*
X162347686Y-91619864D01*
X162380169Y-91654886D01*
X162408191Y-91694394D01*
X162431738Y-91738386D01*
X162437550Y-91752450D01*
X162442670Y-91767812D01*
X162447092Y-91784311D01*
X162450813Y-91801785D01*
X162453828Y-91820072D01*
X162456133Y-91839012D01*
X162457725Y-91858444D01*
X162458599Y-91878206D01*
X162458750Y-91898137D01*
X162458175Y-91918076D01*
X162456870Y-91937861D01*
X162454829Y-91957332D01*
X162452050Y-91976326D01*
X162448528Y-91994684D01*
X162444258Y-92012243D01*
X162439237Y-92028842D01*
X162428216Y-92059050D01*
X162415662Y-92088703D01*
X162401636Y-92117731D01*
X162386199Y-92146063D01*
X162369413Y-92173627D01*
X162351338Y-92200354D01*
X162332036Y-92226171D01*
X162311568Y-92251010D01*
X162289996Y-92274797D01*
X162267380Y-92297464D01*
X162243782Y-92318938D01*
X162219264Y-92339149D01*
X162193885Y-92358027D01*
X162167709Y-92375500D01*
X162140795Y-92391498D01*
X162113205Y-92405949D01*
X162028206Y-92447538D01*
X161828205Y-92453498D01*
X161740650Y-92456681D01*
X161652261Y-92461048D01*
X161562586Y-92466638D01*
X161471171Y-92473486D01*
X161377561Y-92481630D01*
X161281303Y-92491107D01*
X161181943Y-92501953D01*
X161079029Y-92514206D01*
X160857644Y-92540022D01*
X160760876Y-92549800D01*
X160668623Y-92557874D01*
X160577306Y-92564530D01*
X160483349Y-92570056D01*
X160273204Y-92578867D01*
X160038866Y-92588031D01*
X159937136Y-92593565D01*
X159833208Y-92600674D01*
X159717718Y-92610060D01*
X159581298Y-92622429D01*
X159208204Y-92658930D01*
X158775594Y-92701509D01*
X158536804Y-92722012D01*
X158467494Y-92725492D01*
X158419523Y-92725263D01*
X158383851Y-92721926D01*
X158351440Y-92716086D01*
X158333337Y-92711837D01*
X158310918Y-92705667D01*
X158285068Y-92697869D01*
X158256673Y-92688736D01*
X158226621Y-92678561D01*
X158195797Y-92667637D01*
X158165087Y-92656255D01*
X158135378Y-92644709D01*
X158049732Y-92611468D01*
X157973855Y-92584139D01*
X157905890Y-92562270D01*
X157874295Y-92553242D01*
X157843982Y-92545409D01*
X157814720Y-92538714D01*
X157786276Y-92533102D01*
X157758420Y-92528516D01*
X157730918Y-92524899D01*
X157703540Y-92522194D01*
X157676052Y-92520345D01*
X157648224Y-92519296D01*
X157619823Y-92518990D01*
X157577336Y-92520074D01*
X157536675Y-92523226D01*
X157497730Y-92528510D01*
X157460393Y-92535988D01*
X157424555Y-92545724D01*
X157390107Y-92557779D01*
X157356939Y-92572217D01*
X157324944Y-92589101D01*
X157294011Y-92608493D01*
X157264033Y-92630456D01*
X157234900Y-92655053D01*
X157206504Y-92682347D01*
X157178735Y-92712400D01*
X157151484Y-92745275D01*
X157124643Y-92781036D01*
X157098102Y-92819744D01*
X157083720Y-92841544D01*
X157070833Y-92860614D01*
X157059033Y-92877123D01*
X157053414Y-92884470D01*
X157047915Y-92891240D01*
X157042486Y-92897454D01*
X157037074Y-92903133D01*
X157031630Y-92908299D01*
X157026104Y-92912973D01*
X157020443Y-92917175D01*
X157014597Y-92920927D01*
X157008516Y-92924250D01*
X157002149Y-92927165D01*
X156995445Y-92929694D01*
X156988354Y-92931857D01*
X156980824Y-92933675D01*
X156972805Y-92935170D01*
X156964246Y-92936363D01*
X156955097Y-92937275D01*
X156945307Y-92937927D01*
X156934824Y-92938340D01*
X156911579Y-92938535D01*
X156884958Y-92938028D01*
X156819959Y-92935585D01*
X156732653Y-92930639D01*
X156648435Y-92923219D01*
X156567491Y-92913392D01*
X156490006Y-92901226D01*
X156416164Y-92886790D01*
X156346151Y-92870149D01*
X156280152Y-92851374D01*
X156218352Y-92830531D01*
X156160936Y-92807688D01*
X156108089Y-92782912D01*
X156059996Y-92756273D01*
X156016842Y-92727837D01*
X155978813Y-92697673D01*
X155946092Y-92665848D01*
X155918866Y-92632430D01*
X155897319Y-92597486D01*
X155892147Y-92586467D01*
X155887807Y-92574845D01*
X155884294Y-92562680D01*
X155881605Y-92550034D01*
X155879735Y-92536964D01*
X155878680Y-92523532D01*
X155878437Y-92509798D01*
X155879001Y-92495821D01*
X155880367Y-92481661D01*
X155882533Y-92467379D01*
X155885494Y-92453034D01*
X155889246Y-92438687D01*
X155893784Y-92424397D01*
X155899105Y-92410224D01*
X155905205Y-92396229D01*
X155912079Y-92382471D01*
X155920312Y-92367864D01*
X155929494Y-92353152D01*
X155939609Y-92338345D01*
X155950642Y-92323452D01*
X155975407Y-92293455D01*
X156003670Y-92263243D01*
X156035316Y-92232899D01*
X156070227Y-92202506D01*
X156108286Y-92172147D01*
X156149377Y-92141903D01*
X156193382Y-92111859D01*
X156240185Y-92082097D01*
X156289669Y-92052700D01*
X156341716Y-92023751D01*
X156396211Y-91995332D01*
X156453035Y-91967527D01*
X156512072Y-91940418D01*
X156573206Y-91914087D01*
X156586820Y-91908117D01*
X156600599Y-91901530D01*
X156614163Y-91894543D01*
X156627135Y-91887374D01*
X156639136Y-91880240D01*
X156649787Y-91873357D01*
X156654488Y-91870077D01*
X156658709Y-91866942D01*
X156662404Y-91863977D01*
X156665525Y-91861211D01*
X156672897Y-91853755D01*
X156679797Y-91845760D01*
X156686210Y-91837269D01*
X156692121Y-91828328D01*
X156697515Y-91818981D01*
X156702377Y-91809273D01*
X156706693Y-91799250D01*
X156710447Y-91788955D01*
X156713624Y-91778433D01*
X156716210Y-91767729D01*
X156718190Y-91756888D01*
X156719549Y-91745954D01*
X156720272Y-91734972D01*
X156720344Y-91723988D01*
X156719750Y-91713045D01*
X156719014Y-91706781D01*
X157112345Y-91706781D01*
X157112636Y-91723155D01*
X157113797Y-91738906D01*
X157115838Y-91753894D01*
X157118765Y-91767982D01*
X157122588Y-91781034D01*
X157127314Y-91792910D01*
X157132951Y-91803475D01*
X157138199Y-91811382D01*
X157144327Y-91819586D01*
X157151260Y-91828020D01*
X157158921Y-91836620D01*
X157167232Y-91845319D01*
X157176118Y-91854052D01*
X157185501Y-91862753D01*
X157195305Y-91871357D01*
X157205452Y-91879798D01*
X157215867Y-91888011D01*
X157226473Y-91895930D01*
X157237192Y-91903490D01*
X157247948Y-91910624D01*
X157258664Y-91917268D01*
X157269264Y-91923356D01*
X157279670Y-91928823D01*
X157288819Y-91932962D01*
X157298630Y-91936601D01*
X157309029Y-91939738D01*
X157319938Y-91942371D01*
X157331283Y-91944497D01*
X157342987Y-91946114D01*
X157354975Y-91947221D01*
X157367170Y-91947816D01*
X157379498Y-91947895D01*
X157391883Y-91947458D01*
X157404247Y-91946501D01*
X157416517Y-91945024D01*
X157428615Y-91943024D01*
X157440466Y-91940498D01*
X157451995Y-91937445D01*
X157463125Y-91933863D01*
X157463155Y-91933862D01*
X157475402Y-91929105D01*
X157488265Y-91923267D01*
X157501705Y-91916378D01*
X157515685Y-91908467D01*
X157530164Y-91899565D01*
X157545105Y-91889701D01*
X157560468Y-91878905D01*
X157576215Y-91867205D01*
X157592307Y-91854632D01*
X157608704Y-91841215D01*
X157625369Y-91826984D01*
X157642262Y-91811969D01*
X157659345Y-91796198D01*
X157676578Y-91779702D01*
X157693923Y-91762510D01*
X157711342Y-91744652D01*
X157794471Y-91657996D01*
X157951341Y-91707647D01*
X158076337Y-91746619D01*
X158119442Y-91759331D01*
X158152208Y-91768175D01*
X158176578Y-91773638D01*
X158194495Y-91776206D01*
X158201641Y-91776556D01*
X158207902Y-91776366D01*
X158218742Y-91774604D01*
X158220120Y-91774092D01*
X158221856Y-91773163D01*
X158226363Y-91770096D01*
X158232181Y-91765484D01*
X158239228Y-91759411D01*
X158247422Y-91751958D01*
X158256682Y-91743208D01*
X158278072Y-91722144D01*
X158302742Y-91696877D01*
X158330040Y-91668066D01*
X158359311Y-91636368D01*
X158389900Y-91602441D01*
X158428841Y-91558440D01*
X158460784Y-91521624D01*
X158486231Y-91491339D01*
X158505685Y-91466929D01*
X158519647Y-91447738D01*
X158524726Y-91439895D01*
X158528620Y-91433111D01*
X158531393Y-91427305D01*
X158533107Y-91422393D01*
X158533825Y-91418295D01*
X158533609Y-91414928D01*
X158532403Y-91408057D01*
X158531407Y-91399504D01*
X158530618Y-91389428D01*
X158530033Y-91377990D01*
X158529462Y-91351661D01*
X158529672Y-91321792D01*
X158530635Y-91289659D01*
X158532329Y-91256536D01*
X158534729Y-91223699D01*
X158537809Y-91192424D01*
X158540314Y-91169625D01*
X158541221Y-91160247D01*
X158541873Y-91152073D01*
X158542248Y-91144995D01*
X158542328Y-91138903D01*
X158542092Y-91133691D01*
X158541521Y-91129250D01*
X158540595Y-91125471D01*
X158539294Y-91122246D01*
X158537598Y-91119468D01*
X158535488Y-91117028D01*
X158532944Y-91114818D01*
X158529946Y-91112729D01*
X158526474Y-91110654D01*
X158522508Y-91108484D01*
X158513357Y-91105802D01*
X158497580Y-91103719D01*
X158475939Y-91102210D01*
X158449192Y-91101254D01*
X158383425Y-91100903D01*
X158306357Y-91102479D01*
X158224069Y-91105796D01*
X158142640Y-91110666D01*
X158068150Y-91116903D01*
X158035407Y-91120475D01*
X158006679Y-91124319D01*
X157956239Y-91133130D01*
X157895936Y-91145636D01*
X157829488Y-91160887D01*
X157760613Y-91177930D01*
X157693029Y-91195815D01*
X157630454Y-91213588D01*
X157576606Y-91230299D01*
X157535204Y-91244997D01*
X157502995Y-91258428D01*
X157471246Y-91273127D01*
X157440085Y-91288989D01*
X157409642Y-91305910D01*
X157380047Y-91323789D01*
X157351431Y-91342521D01*
X157323921Y-91362002D01*
X157297649Y-91382130D01*
X157272744Y-91402800D01*
X157249336Y-91423911D01*
X157227554Y-91445357D01*
X157207528Y-91467036D01*
X157189388Y-91488844D01*
X157173264Y-91510678D01*
X157159285Y-91532434D01*
X157147581Y-91554009D01*
X157140398Y-91569813D01*
X157134014Y-91586230D01*
X157128435Y-91603124D01*
X157123671Y-91620356D01*
X157119729Y-91637789D01*
X157116617Y-91655286D01*
X157114344Y-91672708D01*
X157112917Y-91689919D01*
X157112345Y-91706781D01*
X156719014Y-91706781D01*
X156718475Y-91702188D01*
X156716746Y-91692158D01*
X156714516Y-91681744D01*
X156711832Y-91671057D01*
X156708741Y-91660209D01*
X156705292Y-91649311D01*
X156701532Y-91638475D01*
X156697509Y-91627812D01*
X156693269Y-91617435D01*
X156688861Y-91607455D01*
X156684332Y-91597983D01*
X156679730Y-91589131D01*
X156675102Y-91581012D01*
X156670496Y-91573735D01*
X156665960Y-91567414D01*
X156661540Y-91562160D01*
X156657285Y-91558084D01*
X156654052Y-91555655D01*
X156650552Y-91553526D01*
X156646771Y-91551701D01*
X156642694Y-91550186D01*
X156638305Y-91548985D01*
X156633589Y-91548102D01*
X156628530Y-91547542D01*
X156623113Y-91547309D01*
X156617323Y-91547410D01*
X156611144Y-91547847D01*
X156604561Y-91548626D01*
X156597559Y-91549751D01*
X156590122Y-91551227D01*
X156582235Y-91553059D01*
X156573883Y-91555251D01*
X156565049Y-91557807D01*
X156545878Y-91564034D01*
X156524600Y-91571776D01*
X156501091Y-91581069D01*
X156475228Y-91591952D01*
X156446889Y-91604462D01*
X156415951Y-91618634D01*
X156382290Y-91634508D01*
X156345785Y-91652118D01*
X156261451Y-91692823D01*
X156226319Y-91709249D01*
X156195134Y-91723219D01*
X156167342Y-91734854D01*
X156142386Y-91744274D01*
X156119709Y-91751600D01*
X156098756Y-91756954D01*
X156078970Y-91760456D01*
X156059795Y-91762227D01*
X156040676Y-91762388D01*
X156021056Y-91761060D01*
X156000379Y-91758363D01*
X155978089Y-91754420D01*
X155926445Y-91743273D01*
X155891439Y-91735660D01*
X155858692Y-91729415D01*
X155826391Y-91724349D01*
X155792727Y-91720274D01*
X155755886Y-91717001D01*
X155714059Y-91714341D01*
X155665434Y-91712105D01*
X155608200Y-91710105D01*
X155408199Y-91703845D01*
X155313200Y-91759697D01*
X155160607Y-91845624D01*
X154999505Y-91928901D01*
X154829162Y-92009836D01*
X154648846Y-92088737D01*
X154457824Y-92165911D01*
X154255364Y-92241667D01*
X154040733Y-92316312D01*
X153813200Y-92390154D01*
X153720896Y-92419918D01*
X153635903Y-92448737D01*
X153567658Y-92473321D01*
X153542764Y-92482998D01*
X153525596Y-92490382D01*
X153510448Y-92497955D01*
X153494672Y-92506640D01*
X153478320Y-92516399D01*
X153461441Y-92527188D01*
X153444088Y-92538969D01*
X153426310Y-92551701D01*
X153408158Y-92565343D01*
X153389682Y-92579853D01*
X153370934Y-92595193D01*
X153351964Y-92611321D01*
X153332823Y-92628196D01*
X153313561Y-92645778D01*
X153294229Y-92664026D01*
X153274878Y-92682900D01*
X153255558Y-92702359D01*
X153236320Y-92722362D01*
X153198431Y-92763870D01*
X153164647Y-92803971D01*
X153134984Y-92842600D01*
X153109455Y-92879693D01*
X153088076Y-92915186D01*
X153070861Y-92949017D01*
X153063820Y-92965288D01*
X153057825Y-92981120D01*
X153052879Y-92996503D01*
X153048983Y-93011432D01*
X153046138Y-93025896D01*
X153044348Y-93039888D01*
X153043613Y-93053401D01*
X153043936Y-93066426D01*
X153045319Y-93078955D01*
X153047762Y-93090981D01*
X153051269Y-93102495D01*
X153055840Y-93113489D01*
X153061478Y-93123955D01*
X153068185Y-93133886D01*
X153075962Y-93143273D01*
X153084811Y-93152109D01*
X153094734Y-93160385D01*
X153105733Y-93168093D01*
X153117810Y-93175226D01*
X153130966Y-93181775D01*
X153137918Y-93184846D01*
X153144722Y-93187627D01*
X153151456Y-93190130D01*
X153158199Y-93192368D01*
X153165028Y-93194351D01*
X153172022Y-93196093D01*
X153179259Y-93197605D01*
X153186816Y-93198899D01*
X153194773Y-93199988D01*
X153203206Y-93200882D01*
X153212195Y-93201594D01*
X153221817Y-93202137D01*
X153232150Y-93202522D01*
X153243273Y-93202760D01*
X153268200Y-93202848D01*
X153311177Y-93201019D01*
X153355081Y-93196067D01*
X153399722Y-93188087D01*
X153444907Y-93177177D01*
X153490445Y-93163433D01*
X153536145Y-93146953D01*
X153581814Y-93127834D01*
X153627261Y-93106172D01*
X153672295Y-93082064D01*
X153716724Y-93055607D01*
X153760356Y-93026899D01*
X153803001Y-92996035D01*
X153844465Y-92963113D01*
X153884559Y-92928230D01*
X153923089Y-92891483D01*
X153959865Y-92852968D01*
X153980369Y-92830906D01*
X153989973Y-92820951D01*
X153999206Y-92811663D01*
X154008113Y-92803005D01*
X154016741Y-92794938D01*
X154025133Y-92787425D01*
X154033337Y-92780428D01*
X154041396Y-92773910D01*
X154049358Y-92767832D01*
X154057266Y-92762156D01*
X154065167Y-92756846D01*
X154073105Y-92751863D01*
X154081128Y-92747169D01*
X154089279Y-92742727D01*
X154097604Y-92738499D01*
X154125573Y-92725776D01*
X154155891Y-92713867D01*
X154188449Y-92702787D01*
X154223139Y-92692553D01*
X154259851Y-92683180D01*
X154298476Y-92674685D01*
X154338905Y-92667082D01*
X154381029Y-92660389D01*
X154424739Y-92654620D01*
X154469926Y-92649792D01*
X154516481Y-92645920D01*
X154564295Y-92643021D01*
X154613259Y-92641109D01*
X154663264Y-92640202D01*
X154714201Y-92640314D01*
X154765960Y-92641462D01*
X154833383Y-92644227D01*
X154862262Y-92646019D01*
X154888290Y-92648193D01*
X154911746Y-92650831D01*
X154932909Y-92654015D01*
X154952055Y-92657827D01*
X154969465Y-92662349D01*
X154985416Y-92667663D01*
X155000186Y-92673852D01*
X155014054Y-92680998D01*
X155027298Y-92689182D01*
X155040197Y-92698486D01*
X155053028Y-92708994D01*
X155066071Y-92720786D01*
X155079603Y-92733945D01*
X155089952Y-92744588D01*
X155099776Y-92755327D01*
X155109142Y-92766283D01*
X155118118Y-92777575D01*
X155126771Y-92789325D01*
X155135170Y-92801651D01*
X155143383Y-92814676D01*
X155151476Y-92828518D01*
X155159519Y-92843300D01*
X155167579Y-92859140D01*
X155175724Y-92876160D01*
X155184022Y-92894479D01*
X155192540Y-92914219D01*
X155201347Y-92935499D01*
X155210511Y-92958441D01*
X155220098Y-92983164D01*
X155228596Y-93004581D01*
X155239466Y-93030750D01*
X155266529Y-93093281D01*
X155297702Y-93162635D01*
X155329403Y-93230691D01*
X155349344Y-93273257D01*
X155366584Y-93311645D01*
X155381115Y-93346189D01*
X155392927Y-93377226D01*
X155402011Y-93405089D01*
X155408356Y-93430115D01*
X155410500Y-93441669D01*
X155411955Y-93452639D01*
X155412721Y-93463067D01*
X155412798Y-93472996D01*
X155412182Y-93482466D01*
X155410874Y-93491520D01*
X155408873Y-93500201D01*
X155406176Y-93508549D01*
X155402784Y-93516606D01*
X155398694Y-93524416D01*
X155393906Y-93532018D01*
X155388418Y-93539457D01*
X155382230Y-93546772D01*
X155375339Y-93554007D01*
X155359448Y-93568401D01*
X155340736Y-93582976D01*
X155319193Y-93598065D01*
X155277137Y-93625354D01*
X155229786Y-93654144D01*
X155177018Y-93684491D01*
X155118713Y-93716454D01*
X154985009Y-93785453D01*
X154827707Y-93861594D01*
X154645841Y-93945333D01*
X154438445Y-94037126D01*
X154204554Y-94137428D01*
X153943201Y-94246694D01*
X153553956Y-94407144D01*
X153324279Y-94499829D01*
X153253654Y-94526889D01*
X153204174Y-94544363D01*
X153169587Y-94554703D01*
X153143644Y-94560360D01*
X153128013Y-94562607D01*
X153109493Y-94564455D01*
X153088629Y-94565886D01*
X153065963Y-94566881D01*
X153042039Y-94567423D01*
X153017400Y-94567494D01*
X152992590Y-94567075D01*
X152968151Y-94566149D01*
X152917942Y-94562374D01*
X152870231Y-94556132D01*
X152825050Y-94547447D01*
X152782433Y-94536342D01*
X152742414Y-94522841D01*
X152705025Y-94506967D01*
X152670302Y-94488745D01*
X152638276Y-94468199D01*
X152608981Y-94445351D01*
X152595369Y-94433071D01*
X152582452Y-94420226D01*
X152570235Y-94406816D01*
X152558721Y-94392847D01*
X152547915Y-94378319D01*
X152537822Y-94363238D01*
X152528445Y-94347604D01*
X152519788Y-94331422D01*
X152504654Y-94297424D01*
X152492451Y-94261267D01*
X152483215Y-94222975D01*
X152480673Y-94208883D01*
X152478771Y-94195509D01*
X152477542Y-94182727D01*
X152477020Y-94170413D01*
X152477238Y-94158438D01*
X152478228Y-94146678D01*
X152480024Y-94135007D01*
X152482659Y-94123297D01*
X152486166Y-94111424D01*
X152490577Y-94099260D01*
X152495926Y-94086681D01*
X152502246Y-94073559D01*
X152509570Y-94059769D01*
X152517931Y-94045185D01*
X152527361Y-94029680D01*
X152537895Y-94013129D01*
X152546913Y-93998672D01*
X152555336Y-93984143D01*
X152562978Y-93969934D01*
X152569653Y-93956439D01*
X152575177Y-93944049D01*
X152577449Y-93938391D01*
X152579363Y-93933157D01*
X152580897Y-93928395D01*
X152582028Y-93924155D01*
X152582731Y-93920486D01*
X152582985Y-93917436D01*
X152582843Y-93913658D01*
X152582366Y-93909664D01*
X152581562Y-93905468D01*
X152580443Y-93901085D01*
X152577300Y-93891810D01*
X152573019Y-93881949D01*
X152567682Y-93871610D01*
X152561371Y-93860903D01*
X152554169Y-93849938D01*
X152546158Y-93838825D01*
X152537421Y-93827672D01*
X152528040Y-93816590D01*
X152518098Y-93805688D01*
X152507676Y-93795076D01*
X152496858Y-93784863D01*
X152485726Y-93775159D01*
X152474362Y-93766072D01*
X152462848Y-93757714D01*
X152435892Y-93740620D01*
X152407902Y-93725666D01*
X152379036Y-93712858D01*
X152349455Y-93702199D01*
X152319317Y-93693695D01*
X152288781Y-93687350D01*
X152258006Y-93683169D01*
X152227153Y-93681158D01*
X152196379Y-93681320D01*
X152165844Y-93683660D01*
X152135708Y-93688184D01*
X152106129Y-93694896D01*
X152077267Y-93703801D01*
X152049281Y-93714903D01*
X152022329Y-93728208D01*
X151996572Y-93743720D01*
X151980692Y-93754796D01*
X151965747Y-93766396D01*
X151951717Y-93778557D01*
X151938580Y-93791315D01*
X151926315Y-93804708D01*
X151914899Y-93818771D01*
X151904312Y-93833541D01*
X151894532Y-93849055D01*
X151885537Y-93865348D01*
X151877305Y-93882458D01*
X151869816Y-93900422D01*
X151863048Y-93919275D01*
X151856978Y-93939054D01*
X151851586Y-93959796D01*
X151846850Y-93981537D01*
X151842748Y-94004314D01*
X151841042Y-94015545D01*
X151839645Y-94026697D01*
X151838577Y-94038083D01*
X151837855Y-94050014D01*
X151837495Y-94062803D01*
X151837516Y-94076761D01*
X151837935Y-94092200D01*
X151838770Y-94109432D01*
X151840038Y-94128770D01*
X151841757Y-94150524D01*
X151846617Y-94202534D01*
X151853491Y-94267955D01*
X151862518Y-94349285D01*
X151873515Y-94449088D01*
X151881102Y-94526400D01*
X151885133Y-94584540D01*
X151885768Y-94607459D01*
X151885458Y-94626830D01*
X151884185Y-94643068D01*
X151881930Y-94656588D01*
X151878675Y-94667805D01*
X151874401Y-94677135D01*
X151869090Y-94684992D01*
X151862723Y-94691791D01*
X151855282Y-94697947D01*
X151846748Y-94703876D01*
X151831231Y-94713259D01*
X151814919Y-94721533D01*
X151797660Y-94728705D01*
X151779301Y-94734783D01*
X151759691Y-94739774D01*
X151738678Y-94743685D01*
X151716108Y-94746525D01*
X151691830Y-94748300D01*
X151665692Y-94749019D01*
X151637540Y-94748689D01*
X151607224Y-94747317D01*
X151574591Y-94744910D01*
X151539488Y-94741478D01*
X151501764Y-94737026D01*
X151461265Y-94731563D01*
X151417841Y-94725095D01*
X151314666Y-94709876D01*
X151217720Y-94697403D01*
X151123008Y-94687401D01*
X151026538Y-94679596D01*
X150924316Y-94673711D01*
X150812348Y-94669472D01*
X150686642Y-94666604D01*
X150543202Y-94664831D01*
X150519090Y-94664822D01*
X150496684Y-94665245D01*
X150475858Y-94666139D01*
X150456484Y-94667538D01*
X150438435Y-94669480D01*
X150421583Y-94672001D01*
X150405803Y-94675137D01*
X150390965Y-94678926D01*
X150376943Y-94683402D01*
X150363610Y-94688604D01*
X150350838Y-94694566D01*
X150338500Y-94701327D01*
X150326468Y-94708922D01*
X150314616Y-94717387D01*
X150302817Y-94726760D01*
X150290942Y-94737076D01*
X150278524Y-94748610D01*
X150267370Y-94759712D01*
X150257417Y-94770560D01*
X150252871Y-94775945D01*
X150248602Y-94781331D01*
X150244602Y-94786743D01*
X150240863Y-94792201D01*
X150237378Y-94797729D01*
X150234138Y-94803347D01*
X150231135Y-94809079D01*
X150228363Y-94814945D01*
X150225812Y-94820969D01*
X150223476Y-94827173D01*
X150221345Y-94833578D01*
X150219414Y-94840206D01*
X150217673Y-94847080D01*
X150216115Y-94854222D01*
X150214732Y-94861654D01*
X150213516Y-94869397D01*
X150211555Y-94885908D01*
X150210168Y-94903932D01*
X150209294Y-94923645D01*
X150208869Y-94945224D01*
X150208831Y-94968845D01*
X150209263Y-94993410D01*
X150210306Y-95017187D01*
X150211989Y-95040291D01*
X150214345Y-95062837D01*
X150217405Y-95084941D01*
X150221199Y-95106717D01*
X150225758Y-95128281D01*
X150231113Y-95149748D01*
X150237294Y-95171232D01*
X150244334Y-95192850D01*
X150252263Y-95214715D01*
X150261112Y-95236944D01*
X150270911Y-95259651D01*
X150281692Y-95282952D01*
X150293485Y-95306961D01*
X150306322Y-95331794D01*
X150317270Y-95352901D01*
X150325928Y-95370578D01*
X150329439Y-95378254D01*
X150332425Y-95385221D01*
X150334903Y-95391529D01*
X150336888Y-95397227D01*
X150338397Y-95402364D01*
X150339445Y-95406991D01*
X150340048Y-95411156D01*
X150340222Y-95414909D01*
X150339984Y-95418300D01*
X150339349Y-95421379D01*
X150338333Y-95424194D01*
X150336952Y-95426795D01*
X150334516Y-95430034D01*
X150331237Y-95433239D01*
X150327092Y-95436415D01*
X150322059Y-95439565D01*
X150316114Y-95442693D01*
X150309236Y-95445805D01*
X150292588Y-95451990D01*
X150271931Y-95458153D01*
X150247085Y-95464325D01*
X150217867Y-95470539D01*
X150184096Y-95476826D01*
X150145590Y-95483218D01*
X150102168Y-95489747D01*
X150053647Y-95496445D01*
X149999847Y-95503344D01*
X149940584Y-95510476D01*
X149875678Y-95517872D01*
X149728209Y-95533585D01*
X149577601Y-95549476D01*
X149457514Y-95563326D01*
X149364108Y-95575901D01*
X149293544Y-95587969D01*
X149265627Y-95594053D01*
X149241980Y-95600297D01*
X149222124Y-95606799D01*
X149205578Y-95613653D01*
X149191862Y-95620956D01*
X149180496Y-95628804D01*
X149171000Y-95637292D01*
X149162894Y-95646517D01*
X149160680Y-95649680D01*
X149158173Y-95653898D01*
X149155399Y-95659099D01*
X149152387Y-95665212D01*
X149145761Y-95679893D01*
X149138521Y-95697378D01*
X149130893Y-95717102D01*
X149123100Y-95738501D01*
X149115369Y-95761011D01*
X149107924Y-95784068D01*
X149096148Y-95820175D01*
X149084257Y-95852823D01*
X149071875Y-95882311D01*
X149065383Y-95895964D01*
X149058629Y-95908940D01*
X149051565Y-95921277D01*
X149044145Y-95933011D01*
X149036321Y-95944182D01*
X149028048Y-95954825D01*
X149019278Y-95964979D01*
X149009965Y-95974681D01*
X149000062Y-95983970D01*
X148989521Y-95992881D01*
X148978297Y-96001454D01*
X148966343Y-96009725D01*
X148953611Y-96017733D01*
X148940055Y-96025514D01*
X148925629Y-96033107D01*
X148910285Y-96040548D01*
X148876657Y-96055128D01*
X148838798Y-96069553D01*
X148796334Y-96084126D01*
X148748890Y-96099146D01*
X148696092Y-96114915D01*
X148637733Y-96132328D01*
X148589027Y-96147720D01*
X148549177Y-96161425D01*
X148517388Y-96173779D01*
X148504268Y-96179553D01*
X148492864Y-96185116D01*
X148483077Y-96190508D01*
X148474807Y-96195772D01*
X148467956Y-96200949D01*
X148462423Y-96206081D01*
X148458109Y-96211210D01*
X148454915Y-96216379D01*
X148453974Y-96218546D01*
X148452994Y-96221416D01*
X148451983Y-96224942D01*
X148450950Y-96229076D01*
X148448845Y-96238979D01*
X148446744Y-96250745D01*
X148444709Y-96263995D01*
X148442806Y-96278348D01*
X148441096Y-96293426D01*
X148439644Y-96308849D01*
X148436273Y-96339938D01*
X148431430Y-96370495D01*
X148425107Y-96400526D01*
X148417298Y-96430036D01*
X148407996Y-96459032D01*
X148397195Y-96487519D01*
X148384889Y-96515502D01*
X148371069Y-96542989D01*
X148355730Y-96569984D01*
X148338865Y-96596494D01*
X148320468Y-96622524D01*
X148300531Y-96648081D01*
X148279048Y-96673169D01*
X148256011Y-96697795D01*
X148231416Y-96721965D01*
X148205254Y-96745685D01*
X148177519Y-96768960D01*
X148148205Y-96791796D01*
X148117305Y-96814199D01*
X148084811Y-96836175D01*
X148050718Y-96857729D01*
X148015019Y-96878868D01*
X147938774Y-96919923D01*
X147856023Y-96959386D01*
X147766714Y-96997304D01*
X147670791Y-97033723D01*
X147568203Y-97068690D01*
X147538280Y-97078846D01*
X147509979Y-97089451D01*
X147483254Y-97100539D01*
X147458057Y-97112147D01*
X147434344Y-97124308D01*
X147412069Y-97137058D01*
X147391184Y-97150432D01*
X147371646Y-97164465D01*
X147353406Y-97179192D01*
X147336421Y-97194648D01*
X147320643Y-97210867D01*
X147306026Y-97227885D01*
X147292526Y-97245737D01*
X147280095Y-97264458D01*
X147268688Y-97284082D01*
X147258259Y-97304645D01*
X147253717Y-97315070D01*
X147248741Y-97328000D01*
X147237700Y-97360583D01*
X147225560Y-97400802D01*
X147212746Y-97447063D01*
X147199684Y-97497774D01*
X147186799Y-97551344D01*
X147174515Y-97606178D01*
X147163258Y-97660684D01*
X147161322Y-97670264D01*
X147159433Y-97678857D01*
X147157489Y-97686606D01*
X147155386Y-97693653D01*
X147153022Y-97700141D01*
X147151708Y-97703220D01*
X147150291Y-97706213D01*
X147148756Y-97709138D01*
X147147091Y-97712012D01*
X147145283Y-97714854D01*
X147143319Y-97717680D01*
X147141186Y-97720510D01*
X147138872Y-97723361D01*
X147133645Y-97729197D01*
X147127535Y-97735331D01*
X147120439Y-97741905D01*
X147112254Y-97749063D01*
X147102876Y-97756948D01*
X147080128Y-97775466D01*
X147025358Y-97820759D01*
X146969837Y-97868955D01*
X146913783Y-97919811D01*
X146857415Y-97973083D01*
X146800951Y-98028531D01*
X146744609Y-98085911D01*
X146688607Y-98144982D01*
X146633165Y-98205500D01*
X146578499Y-98267224D01*
X146524829Y-98329911D01*
X146472373Y-98393319D01*
X146421349Y-98457206D01*
X146371975Y-98521328D01*
X146324469Y-98585445D01*
X146279051Y-98649312D01*
X146235938Y-98712689D01*
X146169592Y-98810677D01*
X146101591Y-98907364D01*
X146031682Y-99003082D01*
X145959607Y-99098161D01*
X145885112Y-99192933D01*
X145807941Y-99287726D01*
X145727840Y-99382873D01*
X145644552Y-99478704D01*
X145612302Y-99515419D01*
X145587728Y-99544086D01*
X145577994Y-99555918D01*
X145569789Y-99566358D01*
X145562983Y-99575612D01*
X145557445Y-99583886D01*
X145553046Y-99591387D01*
X145549656Y-99598322D01*
X145547143Y-99604897D01*
X145545380Y-99611318D01*
X145544234Y-99617792D01*
X145543577Y-99624526D01*
X145543279Y-99631726D01*
X145543208Y-99639598D01*
X145542844Y-99651197D01*
X145541785Y-99664198D01*
X145540082Y-99678398D01*
X145537787Y-99693596D01*
X145534949Y-99709591D01*
X145531619Y-99726182D01*
X145523689Y-99760344D01*
X145514402Y-99794472D01*
X145504163Y-99826953D01*
X145498814Y-99842073D01*
X145493380Y-99856178D01*
X145487911Y-99869066D01*
X145482458Y-99880535D01*
X145473334Y-99897579D01*
X145463700Y-99913770D01*
X145453560Y-99929105D01*
X145442917Y-99943581D01*
X145431777Y-99957193D01*
X145420142Y-99969939D01*
X145408018Y-99981815D01*
X145395408Y-99992817D01*
X145382318Y-100002942D01*
X145368750Y-100012187D01*
X145354709Y-100020549D01*
X145340199Y-100028023D01*
X145325225Y-100034606D01*
X145309791Y-100040296D01*
X145293901Y-100045088D01*
X145277558Y-100048978D01*
X145223208Y-100060259D01*
X145223208Y-100123829D01*
X145222778Y-100154606D01*
X145221499Y-100184305D01*
X145219387Y-100212870D01*
X145216459Y-100240246D01*
X145212730Y-100266380D01*
X145208217Y-100291218D01*
X145202937Y-100314705D01*
X145196904Y-100336786D01*
X145190137Y-100357409D01*
X145182651Y-100376517D01*
X145174462Y-100394058D01*
X145165587Y-100409977D01*
X145156041Y-100424219D01*
X145145842Y-100436730D01*
X145135005Y-100447456D01*
X145123546Y-100456343D01*
X145115435Y-100461399D01*
X145111255Y-100463678D01*
X145106976Y-100465790D01*
X145102583Y-100467736D01*
X145098064Y-100469517D01*
X145093404Y-100471131D01*
X145088592Y-100472579D01*
X145083614Y-100473862D01*
X145078456Y-100474979D01*
X145073105Y-100475931D01*
X145067549Y-100476717D01*
X145055765Y-100477794D01*
X145042998Y-100478210D01*
X145029143Y-100477966D01*
X145014093Y-100477062D01*
X144997743Y-100475501D01*
X144979988Y-100473282D01*
X144960720Y-100470406D01*
X144939834Y-100466873D01*
X144917225Y-100462686D01*
X144892786Y-100457843D01*
X144867384Y-100452901D01*
X144843433Y-100448743D01*
X144820862Y-100445374D01*
X144799601Y-100442798D01*
X144779580Y-100441020D01*
X144760728Y-100440044D01*
X144742975Y-100439875D01*
X144726251Y-100440517D01*
X144710486Y-100441975D01*
X144695609Y-100444254D01*
X144681550Y-100447358D01*
X144668239Y-100451292D01*
X144655606Y-100456059D01*
X144643580Y-100461666D01*
X144632092Y-100468115D01*
X144621070Y-100475413D01*
X144616221Y-100479175D01*
X144610561Y-100484093D01*
X144604161Y-100490088D01*
X144597088Y-100497081D01*
X144589414Y-100504992D01*
X144581208Y-100513742D01*
X144563478Y-100533443D01*
X144544454Y-100555549D01*
X144524695Y-100579427D01*
X144504758Y-100604442D01*
X144485200Y-100629962D01*
X144450176Y-100676231D01*
X144418130Y-100717395D01*
X144388334Y-100753912D01*
X144360064Y-100786236D01*
X144332595Y-100814825D01*
X144318934Y-100827861D01*
X144305202Y-100840135D01*
X144291306Y-100851702D01*
X144277158Y-100862621D01*
X144262666Y-100872947D01*
X144247739Y-100882739D01*
X144232287Y-100892053D01*
X144216220Y-100900947D01*
X144199445Y-100909476D01*
X144181874Y-100917699D01*
X144143978Y-100933453D01*
X144101805Y-100948664D01*
X144054631Y-100963788D01*
X144001729Y-100979282D01*
X143942376Y-100995602D01*
X143875845Y-101013204D01*
X143800220Y-101033307D01*
X143737289Y-101050864D01*
X143685430Y-101066455D01*
X143643023Y-101080663D01*
X143608449Y-101094067D01*
X143593592Y-101100649D01*
X143580086Y-101107249D01*
X143567727Y-101113938D01*
X143556314Y-101120790D01*
X143535513Y-101135271D01*
X143526552Y-101142299D01*
X143518448Y-101149132D01*
X143514693Y-101152526D01*
X143511125Y-101155932D01*
X143507734Y-101159371D01*
X143504511Y-101162862D01*
X143501446Y-101166426D01*
X143498531Y-101170083D01*
X143495756Y-101173854D01*
X143493111Y-101177758D01*
X143490588Y-101181816D01*
X143488178Y-101186049D01*
X143485870Y-101190476D01*
X143483656Y-101195117D01*
X143481527Y-101199994D01*
X143479473Y-101205126D01*
X143477485Y-101210533D01*
X143475554Y-101216237D01*
X143473671Y-101222256D01*
X143471826Y-101228612D01*
X143468214Y-101242413D01*
X143464644Y-101257803D01*
X143461043Y-101274943D01*
X143457336Y-101293996D01*
X143453450Y-101315124D01*
X143446309Y-101352504D01*
X143438521Y-101388837D01*
X143430044Y-101424225D01*
X143420836Y-101458772D01*
X143410856Y-101492580D01*
X143400061Y-101525752D01*
X143388410Y-101558392D01*
X143375861Y-101590601D01*
X143362372Y-101622484D01*
X143347901Y-101654143D01*
X143332407Y-101685681D01*
X143315848Y-101717200D01*
X143298182Y-101748805D01*
X143279366Y-101780597D01*
X143259360Y-101812681D01*
X143238121Y-101845157D01*
X143225082Y-101865145D01*
X143212917Y-101884727D01*
X143201893Y-101903409D01*
X143192276Y-101920694D01*
X143184334Y-101936088D01*
X143178330Y-101949095D01*
X143176139Y-101954549D01*
X143174533Y-101959220D01*
X143173545Y-101963047D01*
X143173208Y-101965967D01*
X143173308Y-101969706D01*
X143173610Y-101973535D01*
X143174118Y-101977458D01*
X143174835Y-101981483D01*
X143176914Y-101989859D01*
X143179875Y-101998710D01*
X143183749Y-102008083D01*
X143188566Y-102018025D01*
X143194355Y-102028584D01*
X143201146Y-102039807D01*
X143208969Y-102051741D01*
X143217854Y-102064434D01*
X143227831Y-102077931D01*
X143238929Y-102092282D01*
X143251178Y-102107533D01*
X143264608Y-102123730D01*
X143279249Y-102140923D01*
X143295131Y-102159156D01*
X143328996Y-102198345D01*
X143343107Y-102215339D01*
X143355432Y-102230785D01*
X143366039Y-102244823D01*
X143375001Y-102257592D01*
X143382388Y-102269232D01*
X143388269Y-102279882D01*
X143392716Y-102289683D01*
X143395799Y-102298773D01*
X143397588Y-102307292D01*
X143398154Y-102315380D01*
X143397567Y-102323177D01*
X143395899Y-102330821D01*
X143393218Y-102338452D01*
X143389597Y-102346210D01*
X143382376Y-102359367D01*
X143374223Y-102372643D01*
X143365027Y-102386149D01*
X143354676Y-102399994D01*
X143343058Y-102414289D01*
X143330062Y-102429144D01*
X143315577Y-102444670D01*
X143299490Y-102460977D01*
X143281691Y-102478174D01*
X143262068Y-102496372D01*
X143240509Y-102515683D01*
X143216903Y-102536214D01*
X143191138Y-102558078D01*
X143163103Y-102581384D01*
X143099777Y-102632765D01*
X143026416Y-102692413D01*
X142962935Y-102745982D01*
X142908813Y-102793989D01*
X142863530Y-102836947D01*
X142844041Y-102856694D01*
X142826565Y-102875371D01*
X142811040Y-102893044D01*
X142797399Y-102909776D01*
X142785577Y-102925633D01*
X142775510Y-102940678D01*
X142767132Y-102954975D01*
X142760378Y-102968589D01*
X142757158Y-102975962D01*
X142754322Y-102982973D01*
X142751858Y-102989821D01*
X142749749Y-102996701D01*
X142747983Y-103003813D01*
X142746545Y-103011351D01*
X142745421Y-103019514D01*
X142744597Y-103028499D01*
X142744059Y-103038501D01*
X142743792Y-103049720D01*
X142743783Y-103062351D01*
X142744017Y-103076591D01*
X142744480Y-103092638D01*
X142745158Y-103110689D01*
X142747103Y-103153589D01*
X142750360Y-103214908D01*
X142754228Y-103278144D01*
X142758221Y-103335852D01*
X142761854Y-103380583D01*
X142763437Y-103399786D01*
X142764601Y-103418355D01*
X142765351Y-103436246D01*
X142765691Y-103453414D01*
X142765626Y-103469815D01*
X142765161Y-103485403D01*
X142764301Y-103500134D01*
X142763050Y-103513963D01*
X142761414Y-103526847D01*
X142759396Y-103538740D01*
X142757003Y-103549597D01*
X142754238Y-103559375D01*
X142751107Y-103568028D01*
X142747614Y-103575512D01*
X142743764Y-103581782D01*
X142739562Y-103586794D01*
X142738204Y-103588089D01*
X142736782Y-103589320D01*
X142735284Y-103590488D01*
X142733699Y-103591595D01*
X142732013Y-103592644D01*
X142730216Y-103593634D01*
X142728296Y-103594567D01*
X142726239Y-103595446D01*
X142724036Y-103596272D01*
X142721673Y-103597046D01*
X142719140Y-103597769D01*
X142716423Y-103598444D01*
X142713511Y-103599072D01*
X142710392Y-103599654D01*
X142707055Y-103600192D01*
X142703487Y-103600687D01*
X142695611Y-103601557D01*
X142686670Y-103602274D01*
X142676569Y-103602852D01*
X142665212Y-103603302D01*
X142652503Y-103603637D01*
X142638349Y-103603869D01*
X142622653Y-103604011D01*
X142605321Y-103604074D01*
X142581029Y-103604339D01*
X142558034Y-103605076D01*
X142536203Y-103606323D01*
X142515401Y-103608114D01*
X142495492Y-103610484D01*
X142476342Y-103613469D01*
X142457817Y-103617104D01*
X142439781Y-103621424D01*
X142422100Y-103626464D01*
X142404639Y-103632261D01*
X142387264Y-103638848D01*
X142369840Y-103646262D01*
X142352231Y-103654537D01*
X142334304Y-103663709D01*
X142315924Y-103673813D01*
X142296956Y-103684885D01*
X142275200Y-103698538D01*
X142254439Y-103712843D01*
X142234668Y-103727819D01*
X142215882Y-103743488D01*
X142198075Y-103759868D01*
X142181242Y-103776980D01*
X142165378Y-103794844D01*
X142150478Y-103813479D01*
X142136535Y-103832905D01*
X142123545Y-103853142D01*
X142111503Y-103874210D01*
X142100403Y-103896130D01*
X142090240Y-103918920D01*
X142081008Y-103942602D01*
X142072703Y-103967194D01*
X142065319Y-103992716D01*
X142058850Y-104019189D01*
X142053292Y-104046633D01*
X142048639Y-104075067D01*
X142044886Y-104104511D01*
X142042027Y-104134986D01*
X142040057Y-104166510D01*
X142038971Y-104199105D01*
X142038764Y-104232789D01*
X142039430Y-104267583D01*
X142040964Y-104303507D01*
X142046615Y-104378823D01*
X142055674Y-104458897D01*
X142068098Y-104543888D01*
X142076810Y-104595534D01*
X142086993Y-104651253D01*
X142098826Y-104711899D01*
X142112489Y-104778324D01*
X142146024Y-104931927D01*
X142189031Y-105118889D01*
X142213503Y-105226583D01*
X142231403Y-105314798D01*
X142237933Y-105352821D01*
X142242874Y-105387441D01*
X142246245Y-105419145D01*
X142248063Y-105448421D01*
X142248347Y-105475759D01*
X142247115Y-105501647D01*
X142244385Y-105526574D01*
X142240175Y-105551028D01*
X142234503Y-105575498D01*
X142227387Y-105600472D01*
X142218846Y-105626440D01*
X142208898Y-105653888D01*
X142162208Y-105780111D01*
X142122284Y-105892402D01*
X142088408Y-105993180D01*
X142059864Y-106084858D01*
X142035934Y-106169852D01*
X142015899Y-106250578D01*
X141999044Y-106329451D01*
X141984650Y-106408888D01*
X141978706Y-106443197D01*
X141973082Y-106471826D01*
X141970245Y-106484447D01*
X141967312Y-106496175D01*
X141964224Y-106507182D01*
X141960925Y-106517646D01*
X141957354Y-106527740D01*
X141953453Y-106537641D01*
X141949165Y-106547523D01*
X141944429Y-106557561D01*
X141939189Y-106567931D01*
X141933384Y-106578809D01*
X141919849Y-106602785D01*
X141894209Y-106649340D01*
X141870423Y-106697163D01*
X141848506Y-106746174D01*
X141828476Y-106796294D01*
X141810348Y-106847446D01*
X141794140Y-106899550D01*
X141779867Y-106952527D01*
X141767547Y-107006299D01*
X141757195Y-107060786D01*
X141748829Y-107115911D01*
X141742464Y-107171593D01*
X141738118Y-107227756D01*
X141735806Y-107284318D01*
X141735546Y-107341203D01*
X141737353Y-107398331D01*
X141741245Y-107455623D01*
X141744344Y-107486846D01*
X141748600Y-107522636D01*
X141753823Y-107561734D01*
X141759822Y-107602881D01*
X141766407Y-107644817D01*
X141773386Y-107686283D01*
X141780568Y-107726018D01*
X141787764Y-107762764D01*
X141802349Y-107831288D01*
X141809060Y-107860037D01*
X141815586Y-107885492D01*
X141822083Y-107907936D01*
X141828701Y-107927657D01*
X141835596Y-107944939D01*
X141842918Y-107960068D01*
X141850823Y-107973330D01*
X141859462Y-107985009D01*
X141868990Y-107995392D01*
X141879558Y-108004763D01*
X141891321Y-108013409D01*
X141904431Y-108021614D01*
X141919041Y-108029664D01*
X141935304Y-108037845D01*
X141958874Y-108048792D01*
X141982781Y-108058813D01*
X142007222Y-108067939D01*
X142032394Y-108076201D01*
X142058493Y-108083629D01*
X142085716Y-108090252D01*
X142114258Y-108096101D01*
X142144317Y-108101206D01*
X142176088Y-108105596D01*
X142209769Y-108109304D01*
X142245555Y-108112357D01*
X142283644Y-108114787D01*
X142324231Y-108116624D01*
X142367512Y-108117897D01*
X142413686Y-108118638D01*
X142462947Y-108118875D01*
X142565721Y-108117501D01*
X142668715Y-108113320D01*
X142772766Y-108106240D01*
X142878713Y-108096173D01*
X142987393Y-108083028D01*
X143099643Y-108066715D01*
X143216303Y-108047144D01*
X143338209Y-108024225D01*
X143419076Y-108008510D01*
X143484402Y-107996847D01*
X143512934Y-107992437D01*
X143539616Y-107988923D01*
X143565126Y-107986264D01*
X143590145Y-107984423D01*
X143615350Y-107983358D01*
X143641419Y-107983032D01*
X143669032Y-107983405D01*
X143698867Y-107984437D01*
X143767917Y-107988323D01*
X143853998Y-107994375D01*
X143975359Y-108002236D01*
X144027405Y-108004397D01*
X144074939Y-108005113D01*
X144118894Y-108004187D01*
X144160205Y-108001420D01*
X144199805Y-107996613D01*
X144238626Y-107989570D01*
X144277603Y-107980091D01*
X144317669Y-107967978D01*
X144359757Y-107953033D01*
X144404802Y-107935057D01*
X144453736Y-107913853D01*
X144507493Y-107889223D01*
X144633209Y-107828888D01*
X144726256Y-107784372D01*
X144813273Y-107744252D01*
X144884516Y-107712927D01*
X144911176Y-107701939D01*
X144930236Y-107694799D01*
X145002265Y-107670398D01*
X145130237Y-107689058D01*
X145289750Y-107711010D01*
X145426369Y-107726559D01*
X145487507Y-107731925D01*
X145544620Y-107735681D01*
X145598273Y-107737823D01*
X145649032Y-107738348D01*
X145697464Y-107737253D01*
X145744134Y-107734536D01*
X145789608Y-107730191D01*
X145834452Y-107724217D01*
X145879232Y-107716610D01*
X145924515Y-107707366D01*
X146018851Y-107683958D01*
X146084930Y-107664259D01*
X146160092Y-107638686D01*
X146244426Y-107607201D01*
X146338021Y-107569768D01*
X146440965Y-107526352D01*
X146553347Y-107476914D01*
X146675255Y-107421419D01*
X146806779Y-107359831D01*
X146935347Y-107298881D01*
X147111778Y-107298782D01*
X147218228Y-107297556D01*
X147266307Y-107295938D01*
X147311562Y-107293541D01*
X147354449Y-107290281D01*
X147395422Y-107286077D01*
X147434935Y-107280845D01*
X147473445Y-107274503D01*
X147511405Y-107266969D01*
X147549272Y-107258160D01*
X147587499Y-107247994D01*
X147626542Y-107236387D01*
X147666856Y-107223258D01*
X147708895Y-107208524D01*
X147799971Y-107173910D01*
X147864733Y-107148756D01*
X147921077Y-107127862D01*
X147969530Y-107111073D01*
X148010616Y-107098239D01*
X148044860Y-107089207D01*
X148059581Y-107086069D01*
X148072788Y-107083824D01*
X148084548Y-107082454D01*
X148094926Y-107081940D01*
X148103987Y-107082261D01*
X148111797Y-107083400D01*
X148119428Y-107084717D01*
X148131040Y-107086301D01*
X148146057Y-107088093D01*
X148163904Y-107090033D01*
X148205787Y-107094113D01*
X148252084Y-107098060D01*
X148310343Y-107101491D01*
X148366630Y-107102423D01*
X148420906Y-107100869D01*
X148473130Y-107096844D01*
X148523263Y-107090362D01*
X148571264Y-107081438D01*
X148617094Y-107070084D01*
X148660712Y-107056316D01*
X148702078Y-107040147D01*
X148741152Y-107021592D01*
X148777894Y-107000665D01*
X148812264Y-106977380D01*
X148844222Y-106951751D01*
X148873727Y-106923792D01*
X148900741Y-106893518D01*
X148925222Y-106860943D01*
X148928485Y-106856377D01*
X148931988Y-106851802D01*
X148935701Y-106847245D01*
X148939590Y-106842738D01*
X148943624Y-106838308D01*
X148947770Y-106833987D01*
X148951996Y-106829802D01*
X148956271Y-106825784D01*
X148960561Y-106821962D01*
X148964835Y-106818366D01*
X148969060Y-106815024D01*
X148973205Y-106811967D01*
X148977237Y-106809224D01*
X148981123Y-106806824D01*
X148984833Y-106804797D01*
X148988332Y-106803173D01*
X149001346Y-106798513D01*
X149017180Y-106794283D01*
X149036046Y-106790472D01*
X149058154Y-106787073D01*
X149083716Y-106784076D01*
X149112943Y-106781472D01*
X149146045Y-106779253D01*
X149183234Y-106777410D01*
X149224722Y-106775933D01*
X149270718Y-106774815D01*
X149377083Y-106773616D01*
X149504016Y-106773743D01*
X149653207Y-106775123D01*
X149861437Y-106776995D01*
X150004368Y-106776448D01*
X150055932Y-106775191D01*
X150096673Y-106773239D01*
X150128426Y-106770560D01*
X150153024Y-106767124D01*
X150227844Y-106753874D01*
X150266064Y-106683874D01*
X150289676Y-106642889D01*
X150315167Y-106603021D01*
X150342588Y-106564225D01*
X150371992Y-106526458D01*
X150403427Y-106489675D01*
X150436947Y-106453832D01*
X150472601Y-106418886D01*
X150510440Y-106384792D01*
X150550515Y-106351506D01*
X150592877Y-106318984D01*
X150637577Y-106287182D01*
X150684667Y-106256057D01*
X150734196Y-106225564D01*
X150786216Y-106195658D01*
X150840778Y-106166297D01*
X150897932Y-106137436D01*
X150969496Y-106102665D01*
X150999757Y-106088559D01*
X151027518Y-106076393D01*
X151053666Y-106065982D01*
X151079086Y-106057142D01*
X151104665Y-106049689D01*
X151131289Y-106043438D01*
X151159843Y-106038205D01*
X151191215Y-106033805D01*
X151226289Y-106030055D01*
X151265952Y-106026768D01*
X151311090Y-106023763D01*
X151362589Y-106020852D01*
X151488214Y-106014581D01*
X151742913Y-106003299D01*
X151837233Y-105999895D01*
X151891872Y-105998691D01*
X151965532Y-105998871D01*
X152031871Y-106067571D01*
X152046050Y-106081900D01*
X152060922Y-106096291D01*
X152076046Y-106110356D01*
X152090978Y-106123707D01*
X152105275Y-106135955D01*
X152118494Y-106146712D01*
X152130192Y-106155590D01*
X152135333Y-106159203D01*
X152139927Y-106162201D01*
X152170222Y-106179349D01*
X152201903Y-106194078D01*
X152234773Y-106206392D01*
X152268636Y-106216297D01*
X152303293Y-106223796D01*
X152338549Y-106228895D01*
X152374207Y-106231599D01*
X152410070Y-106231912D01*
X152445942Y-106229839D01*
X152481625Y-106225385D01*
X152516923Y-106218555D01*
X152551638Y-106209354D01*
X152585576Y-106197786D01*
X152618537Y-106183856D01*
X152650327Y-106167570D01*
X152680748Y-106148931D01*
X152693689Y-106140013D01*
X152705790Y-106131073D01*
X152717117Y-106122025D01*
X152727732Y-106112781D01*
X152737699Y-106103254D01*
X152747082Y-106093357D01*
X152755946Y-106083002D01*
X152764353Y-106072103D01*
X152772368Y-106060572D01*
X152780055Y-106048322D01*
X152787476Y-106035267D01*
X152794697Y-106021318D01*
X152801781Y-106006389D01*
X152808792Y-105990392D01*
X152815793Y-105973240D01*
X152822849Y-105954847D01*
X152830067Y-105936068D01*
X152837379Y-105918223D01*
X152844851Y-105901215D01*
X152852548Y-105884946D01*
X152860535Y-105869319D01*
X152868879Y-105854237D01*
X152877644Y-105839604D01*
X152886896Y-105825320D01*
X152896700Y-105811291D01*
X152907122Y-105797417D01*
X152918228Y-105783603D01*
X152930082Y-105769750D01*
X152942750Y-105755762D01*
X152956297Y-105741541D01*
X152970790Y-105726991D01*
X152986293Y-105712013D01*
X153008704Y-105691306D01*
X153031767Y-105671137D01*
X153055512Y-105651487D01*
X153079968Y-105632340D01*
X153105164Y-105613678D01*
X153131129Y-105595482D01*
X153157891Y-105577736D01*
X153185480Y-105560422D01*
X153213924Y-105543521D01*
X153243253Y-105527017D01*
X153273495Y-105510892D01*
X153304679Y-105495128D01*
X153336834Y-105479707D01*
X153369989Y-105464612D01*
X153404173Y-105449825D01*
X153439415Y-105435329D01*
X153493901Y-105414527D01*
X153548332Y-105395782D01*
X153601826Y-105379315D01*
X153653499Y-105365346D01*
X153702469Y-105354098D01*
X153747856Y-105345790D01*
X153768930Y-105342807D01*
X153788776Y-105340643D01*
X153807286Y-105339324D01*
X153824348Y-105338878D01*
X153847068Y-105337450D01*
X153885706Y-105333355D01*
X153938170Y-105326881D01*
X154002368Y-105318316D01*
X154157591Y-105296058D01*
X154334633Y-105268879D01*
X154778688Y-105198879D01*
X154778800Y-105198810D01*
X154778928Y-105198607D01*
X154779231Y-105197808D01*
X154779593Y-105196509D01*
X154780009Y-105194737D01*
X154780986Y-105189882D01*
X154782126Y-105183459D01*
X154783392Y-105175681D01*
X154784749Y-105166766D01*
X154786160Y-105156926D01*
X154787588Y-105146379D01*
X154789489Y-105134303D01*
X154792253Y-105120082D01*
X154795750Y-105104238D01*
X154799848Y-105087295D01*
X154804414Y-105069775D01*
X154809318Y-105052200D01*
X154814426Y-105035093D01*
X154819608Y-105018976D01*
X154827529Y-104996482D01*
X154835973Y-104974716D01*
X154844941Y-104953676D01*
X154854435Y-104933363D01*
X154864455Y-104913775D01*
X154875003Y-104894910D01*
X154886080Y-104876770D01*
X154897687Y-104859352D01*
X154909826Y-104842656D01*
X154922496Y-104826682D01*
X154935700Y-104811428D01*
X154949439Y-104796893D01*
X154963714Y-104783077D01*
X154978525Y-104769979D01*
X154993875Y-104757598D01*
X155009763Y-104745934D01*
X155026192Y-104734985D01*
X155043162Y-104724751D01*
X155060675Y-104715231D01*
X155078732Y-104706424D01*
X155097333Y-104698329D01*
X155116481Y-104690946D01*
X155136176Y-104684274D01*
X155156418Y-104678312D01*
X155177211Y-104673059D01*
X155198554Y-104668515D01*
X155220448Y-104664678D01*
X155242895Y-104661548D01*
X155265897Y-104659124D01*
X155289453Y-104657405D01*
X155338236Y-104656080D01*
X155386543Y-104657089D01*
X155410362Y-104658324D01*
X155434125Y-104660075D01*
X155457959Y-104662363D01*
X155481988Y-104665211D01*
X155506337Y-104668640D01*
X155531133Y-104672672D01*
X155556501Y-104677329D01*
X155582566Y-104682632D01*
X155637291Y-104695264D01*
X155696312Y-104710742D01*
X155760633Y-104729240D01*
X155893032Y-104768711D01*
X156120634Y-104717880D01*
X156340919Y-104666930D01*
X156546755Y-104615879D01*
X156730053Y-104566810D01*
X156810723Y-104543668D01*
X156882726Y-104521803D01*
X156940969Y-104503691D01*
X156991983Y-104488152D01*
X157030270Y-104476841D01*
X157050331Y-104471412D01*
X157056194Y-104470589D01*
X157062478Y-104470508D01*
X157069157Y-104471145D01*
X157076203Y-104472476D01*
X157083588Y-104474478D01*
X157091285Y-104477126D01*
X157099266Y-104480399D01*
X157107504Y-104484271D01*
X157124641Y-104493719D01*
X157142474Y-104505281D01*
X157160784Y-104518770D01*
X157179352Y-104533993D01*
X157197956Y-104550764D01*
X157216377Y-104568891D01*
X157234395Y-104588186D01*
X157251789Y-104608460D01*
X157268341Y-104629522D01*
X157283829Y-104651184D01*
X157298034Y-104673256D01*
X157310735Y-104695549D01*
X157322136Y-104718015D01*
X157326979Y-104728519D01*
X157331218Y-104738582D01*
X157334830Y-104748236D01*
X157337790Y-104757514D01*
X157340074Y-104766450D01*
X157341657Y-104775077D01*
X157342517Y-104783428D01*
X157342628Y-104791536D01*
X157341966Y-104799434D01*
X157340508Y-104807156D01*
X157338228Y-104814734D01*
X157335104Y-104822202D01*
X157331111Y-104829593D01*
X157326224Y-104836940D01*
X157320421Y-104844275D01*
X157313675Y-104851633D01*
X157305964Y-104859047D01*
X157297263Y-104866549D01*
X157287549Y-104874173D01*
X157276796Y-104881951D01*
X157264981Y-104889918D01*
X157252080Y-104898105D01*
X157238068Y-104906547D01*
X157222922Y-104915277D01*
X157189129Y-104933730D01*
X157150508Y-104953731D01*
X157106867Y-104975544D01*
X157045377Y-105006640D01*
X156992797Y-105034918D01*
X156969684Y-105048115D01*
X156948600Y-105060746D01*
X156929482Y-105072857D01*
X156912262Y-105084493D01*
X156896874Y-105095701D01*
X156883254Y-105106527D01*
X156871335Y-105117017D01*
X156861051Y-105127217D01*
X156852336Y-105137173D01*
X156845126Y-105146931D01*
X156839353Y-105156538D01*
X156834953Y-105166038D01*
X156833760Y-105169522D01*
X156832440Y-105174181D01*
X156829475Y-105186710D01*
X156826169Y-105202998D01*
X156822632Y-105222418D01*
X156818974Y-105244344D01*
X156815307Y-105268147D01*
X156811740Y-105293202D01*
X156808384Y-105318882D01*
X156800286Y-105378407D01*
X156791345Y-105433425D01*
X156781450Y-105484384D01*
X156770486Y-105531727D01*
X156758342Y-105575903D01*
X156744905Y-105617357D01*
X156730063Y-105656534D01*
X156713703Y-105693882D01*
X156705285Y-105711215D01*
X156696722Y-105727608D01*
X156687981Y-105743095D01*
X156679031Y-105757710D01*
X156669841Y-105771487D01*
X156660379Y-105784460D01*
X156650613Y-105796662D01*
X156640513Y-105808129D01*
X156630047Y-105818893D01*
X156619183Y-105828989D01*
X156607890Y-105838450D01*
X156596137Y-105847312D01*
X156583892Y-105855607D01*
X156571124Y-105863369D01*
X156557801Y-105870634D01*
X156543892Y-105877433D01*
X156535216Y-105881371D01*
X156527036Y-105884894D01*
X156519224Y-105888024D01*
X156511654Y-105890783D01*
X156504197Y-105893193D01*
X156496726Y-105895274D01*
X156489113Y-105897048D01*
X156481233Y-105898536D01*
X156472956Y-105899760D01*
X156464155Y-105900742D01*
X156454704Y-105901502D01*
X156444475Y-105902062D01*
X156433340Y-105902444D01*
X156421171Y-105902669D01*
X156393226Y-105902733D01*
X156371564Y-105902292D01*
X156346371Y-105901211D01*
X156318554Y-105899561D01*
X156289021Y-105897414D01*
X156258681Y-105894839D01*
X156228440Y-105891909D01*
X156199207Y-105888693D01*
X156171890Y-105885263D01*
X156132913Y-105879837D01*
X156101363Y-105874857D01*
X156087825Y-105872372D01*
X156075487Y-105869803D01*
X156064129Y-105867084D01*
X156053533Y-105864151D01*
X156043479Y-105860939D01*
X156033748Y-105857381D01*
X156024122Y-105853414D01*
X156014380Y-105848971D01*
X156004306Y-105843988D01*
X155993678Y-105838399D01*
X155969888Y-105825143D01*
X155943140Y-105810538D01*
X155916020Y-105796974D01*
X155888618Y-105784473D01*
X155861026Y-105773056D01*
X155833334Y-105762744D01*
X155805633Y-105753558D01*
X155778013Y-105745518D01*
X155750565Y-105738645D01*
X155723379Y-105732960D01*
X155696547Y-105728484D01*
X155670159Y-105725238D01*
X155644305Y-105723243D01*
X155619077Y-105722519D01*
X155594564Y-105723087D01*
X155570858Y-105724968D01*
X155548050Y-105728183D01*
X155521916Y-105733192D01*
X155496662Y-105738985D01*
X155472199Y-105745613D01*
X155448434Y-105753128D01*
X155425276Y-105761580D01*
X155402633Y-105771021D01*
X155380416Y-105781500D01*
X155358531Y-105793070D01*
X155336889Y-105805781D01*
X155315397Y-105819684D01*
X155293965Y-105834830D01*
X155272501Y-105851270D01*
X155250914Y-105869054D01*
X155229113Y-105888235D01*
X155207005Y-105908862D01*
X155184501Y-105930986D01*
X155168758Y-105947382D01*
X155151750Y-105966060D01*
X155134018Y-105986370D01*
X155116098Y-106007662D01*
X155098530Y-106029285D01*
X155081851Y-106050589D01*
X155066599Y-106070922D01*
X155053314Y-106089636D01*
X155035219Y-106115525D01*
X155017944Y-106139065D01*
X155001203Y-106160453D01*
X154984711Y-106179886D01*
X154968182Y-106197562D01*
X154951332Y-106213678D01*
X154942696Y-106221213D01*
X154933873Y-106228432D01*
X154924827Y-106235360D01*
X154915522Y-106242021D01*
X154905922Y-106248441D01*
X154895991Y-106254644D01*
X154874997Y-106266497D01*
X154852254Y-106277777D01*
X154827475Y-106288684D01*
X154800376Y-106299413D01*
X154770672Y-106310163D01*
X154738076Y-106321130D01*
X154702303Y-106332514D01*
X154669681Y-106342920D01*
X154642282Y-106352301D01*
X154630272Y-106356736D01*
X154619244Y-106361069D01*
X154609090Y-106365350D01*
X154599704Y-106369632D01*
X154590976Y-106373965D01*
X154582800Y-106378401D01*
X154575068Y-106382991D01*
X154567672Y-106387786D01*
X154560503Y-106392837D01*
X154553455Y-106398197D01*
X154546420Y-106403915D01*
X154539289Y-106410043D01*
X154526593Y-106421900D01*
X154514477Y-106434626D01*
X154502918Y-106448271D01*
X154491895Y-106462883D01*
X154481386Y-106478510D01*
X154471369Y-106495203D01*
X154461821Y-106513009D01*
X154452720Y-106531976D01*
X154444044Y-106552154D01*
X154435772Y-106573592D01*
X154427880Y-106596338D01*
X154420347Y-106620440D01*
X154413151Y-106645948D01*
X154406269Y-106672909D01*
X154399680Y-106701374D01*
X154393362Y-106731390D01*
X154389820Y-106748184D01*
X154388165Y-106755222D01*
X154386546Y-106761422D01*
X154384934Y-106766833D01*
X154383298Y-106771508D01*
X154381607Y-106775496D01*
X154379831Y-106778849D01*
X154377939Y-106781617D01*
X154376941Y-106782798D01*
X154375902Y-106783852D01*
X154374819Y-106784784D01*
X154373688Y-106785603D01*
X154372506Y-106786313D01*
X154371268Y-106786922D01*
X154368611Y-106787859D01*
X154365686Y-106788466D01*
X154362463Y-106788793D01*
X154358911Y-106788891D01*
X154307895Y-106785696D01*
X154185911Y-106776998D01*
X153802120Y-106748411D01*
X153584223Y-106732653D01*
X153405170Y-106721201D01*
X153278996Y-106714872D01*
X153240123Y-106713883D01*
X153219734Y-106714481D01*
X153204134Y-106717147D01*
X153187930Y-106720983D01*
X153171206Y-106725942D01*
X153154047Y-106731976D01*
X153136536Y-106739037D01*
X153118758Y-106747077D01*
X153100798Y-106756049D01*
X153082739Y-106765904D01*
X153064665Y-106776594D01*
X153046662Y-106788073D01*
X153028812Y-106800291D01*
X153011201Y-106813201D01*
X152993912Y-106826755D01*
X152977030Y-106840906D01*
X152960640Y-106855604D01*
X152944824Y-106870804D01*
X152919512Y-106897279D01*
X152893922Y-106926553D01*
X152868102Y-106958543D01*
X152842099Y-106993165D01*
X152815962Y-107030338D01*
X152789738Y-107069978D01*
X152763474Y-107112002D01*
X152737219Y-107156329D01*
X152711021Y-107202875D01*
X152684926Y-107251557D01*
X152658983Y-107302293D01*
X152633240Y-107355001D01*
X152607744Y-107409596D01*
X152582543Y-107465998D01*
X152557685Y-107524122D01*
X152533218Y-107583887D01*
X152522445Y-107610354D01*
X152511790Y-107635728D01*
X152501529Y-107659404D01*
X152491940Y-107680779D01*
X152483299Y-107699247D01*
X152475882Y-107714206D01*
X152469966Y-107725050D01*
X152467658Y-107728741D01*
X152465828Y-107731176D01*
X152463183Y-107733934D01*
X152460149Y-107736682D01*
X152452955Y-107742139D01*
X152444321Y-107747522D01*
X152434322Y-107752810D01*
X152423033Y-107757981D01*
X152410530Y-107763010D01*
X152396887Y-107767876D01*
X152382181Y-107772556D01*
X152366486Y-107777027D01*
X152349877Y-107781266D01*
X152332431Y-107785252D01*
X152314222Y-107788961D01*
X152295325Y-107792371D01*
X152275817Y-107795458D01*
X152255771Y-107798201D01*
X152235264Y-107800577D01*
X152211927Y-107802654D01*
X152186348Y-107804199D01*
X152128345Y-107805682D01*
X152061027Y-107805017D01*
X151984164Y-107802192D01*
X151897530Y-107797198D01*
X151800894Y-107790024D01*
X151694030Y-107780660D01*
X151576708Y-107769096D01*
X151427780Y-107754516D01*
X151300519Y-107743909D01*
X151193206Y-107737258D01*
X151104125Y-107734548D01*
X151031559Y-107735762D01*
X151000933Y-107737836D01*
X150973792Y-107740886D01*
X150949922Y-107744908D01*
X150929107Y-107749902D01*
X150911134Y-107755865D01*
X150895788Y-107762796D01*
X150891936Y-107765135D01*
X150886145Y-107769091D01*
X150869211Y-107781484D01*
X150845924Y-107799240D01*
X150817223Y-107821621D01*
X150784046Y-107847890D01*
X150747330Y-107877312D01*
X150708015Y-107909150D01*
X150667038Y-107942667D01*
X150617099Y-107984050D01*
X150573754Y-108020700D01*
X150536671Y-108052922D01*
X150505518Y-108081023D01*
X150479963Y-108105310D01*
X150459675Y-108126088D01*
X150444322Y-108143665D01*
X150438393Y-108151348D01*
X150433573Y-108158346D01*
X150419498Y-108179024D01*
X150404324Y-108198915D01*
X150388081Y-108217998D01*
X150370800Y-108236256D01*
X150352510Y-108253667D01*
X150333241Y-108270212D01*
X150313022Y-108285871D01*
X150291884Y-108300626D01*
X150269855Y-108314455D01*
X150246966Y-108327340D01*
X150223246Y-108339261D01*
X150198725Y-108350198D01*
X150173433Y-108360131D01*
X150147399Y-108369041D01*
X150120654Y-108376908D01*
X150093226Y-108383712D01*
X150074072Y-108387502D01*
X150052534Y-108390798D01*
X150028849Y-108393599D01*
X150003257Y-108395905D01*
X149947305Y-108399027D01*
X149886586Y-108400161D01*
X149823008Y-108399301D01*
X149758481Y-108396443D01*
X149694913Y-108391581D01*
X149664085Y-108388398D01*
X149634213Y-108384712D01*
X149520200Y-108369432D01*
X149487631Y-108398033D01*
X149479564Y-108404707D01*
X149470959Y-108411014D01*
X149461742Y-108416977D01*
X149451841Y-108422619D01*
X149441182Y-108427963D01*
X149429694Y-108433035D01*
X149417304Y-108437855D01*
X149403940Y-108442450D01*
X149389528Y-108446841D01*
X149373996Y-108451052D01*
X149357273Y-108455107D01*
X149339284Y-108459030D01*
X149319958Y-108462843D01*
X149299223Y-108466571D01*
X149277004Y-108470237D01*
X149253231Y-108473863D01*
X149174472Y-108486502D01*
X149139846Y-108493031D01*
X149108018Y-108499857D01*
X149078709Y-108507098D01*
X149051641Y-108514873D01*
X149026535Y-108523299D01*
X149003114Y-108532495D01*
X148981097Y-108542579D01*
X148960208Y-108553669D01*
X148940168Y-108565883D01*
X148920698Y-108579340D01*
X148901520Y-108594157D01*
X148882356Y-108610453D01*
X148862926Y-108628346D01*
X148842953Y-108647955D01*
X148828134Y-108663400D01*
X148813826Y-108679339D01*
X148800030Y-108695769D01*
X148786747Y-108712692D01*
X148773977Y-108730105D01*
X148761719Y-108748008D01*
X148749975Y-108766401D01*
X148738746Y-108785283D01*
X148728030Y-108804653D01*
X148717829Y-108824510D01*
X148708144Y-108844854D01*
X148698973Y-108865684D01*
X148690319Y-108886999D01*
X148682181Y-108908799D01*
X148674560Y-108931083D01*
X148667455Y-108953849D01*
X148663657Y-108966142D01*
X148659688Y-108978071D01*
X148655669Y-108989343D01*
X148651715Y-108999665D01*
X148647946Y-109008741D01*
X148644477Y-109016279D01*
X148641428Y-109021983D01*
X148640097Y-109024056D01*
X148638916Y-109025560D01*
X148629987Y-109031099D01*
X148610910Y-109039771D01*
X148546312Y-109065147D01*
X148453120Y-109098958D01*
X148339334Y-109138471D01*
X148212952Y-109180957D01*
X148081975Y-109223683D01*
X147954401Y-109263919D01*
X147838230Y-109298933D01*
X147702364Y-109336946D01*
X147545809Y-109378060D01*
X147213558Y-109459515D01*
X147059326Y-109494821D01*
X146927330Y-109523157D01*
X146828302Y-109542005D01*
X146772974Y-109548847D01*
X146769078Y-109548981D01*
X146764108Y-109549376D01*
X146751251Y-109550891D01*
X146735012Y-109553287D01*
X146716002Y-109556457D01*
X146694830Y-109560294D01*
X146672105Y-109564692D01*
X146648436Y-109569545D01*
X146624434Y-109574747D01*
X146547402Y-109593748D01*
X146460313Y-109618538D01*
X146259560Y-109684012D01*
X146029361Y-109768227D01*
X145776904Y-109868241D01*
X145509375Y-109981111D01*
X145233962Y-110103896D01*
X144957851Y-110233652D01*
X144688229Y-110367439D01*
X144598252Y-110413378D01*
X144522889Y-110453173D01*
X144485363Y-110474117D01*
X144445102Y-110497547D01*
X144399973Y-110524803D01*
X144347849Y-110557225D01*
X144214092Y-110642931D01*
X144026790Y-110765388D01*
X143423391Y-111163452D01*
X142823383Y-111558691D01*
X142567179Y-111725631D01*
X142566533Y-111725766D01*
X142565768Y-111725723D01*
X142564890Y-111725506D01*
X142563903Y-111725120D01*
X142562809Y-111724568D01*
X142561614Y-111723854D01*
X142560320Y-111722984D01*
X142558932Y-111721959D01*
X142555888Y-111719467D01*
X142552513Y-111716411D01*
X142548836Y-111712823D01*
X142544890Y-111708736D01*
X142540704Y-111704183D01*
X142536309Y-111699196D01*
X142531737Y-111693808D01*
X142527017Y-111688051D01*
X142522180Y-111681958D01*
X142517258Y-111675562D01*
X142512280Y-111668895D01*
X142507277Y-111661991D01*
X142507256Y-111661989D01*
X142476420Y-111620145D01*
X142440876Y-111574465D01*
X142400500Y-111524802D01*
X142355165Y-111471008D01*
X142304746Y-111412937D01*
X142249116Y-111350441D01*
X142188149Y-111283374D01*
X142121720Y-111211588D01*
X142041541Y-111125177D01*
X141974102Y-111051386D01*
X141917452Y-110987896D01*
X141869639Y-110932389D01*
X141828708Y-110882547D01*
X141792708Y-110836053D01*
X141759685Y-110790588D01*
X141727688Y-110743833D01*
X141696838Y-110695980D01*
X141667896Y-110647733D01*
X141640776Y-110598920D01*
X141615394Y-110549369D01*
X141591666Y-110498908D01*
X141569506Y-110447365D01*
X141548830Y-110394568D01*
X141529555Y-110340345D01*
X141515474Y-110299670D01*
X141503021Y-110265440D01*
X141497826Y-110251865D01*
X141493544Y-110241250D01*
X141490345Y-110234044D01*
X141489203Y-110231860D01*
X141488395Y-110230697D01*
X141487131Y-110229334D01*
X141486548Y-110228730D01*
X141485938Y-110228220D01*
X141485610Y-110228010D01*
X141485260Y-110227834D01*
X141484881Y-110227697D01*
X141484468Y-110227603D01*
X141484016Y-110227556D01*
X141483520Y-110227558D01*
X141482973Y-110227615D01*
X141482371Y-110227730D01*
X141481708Y-110227907D01*
X141480979Y-110228149D01*
X141480178Y-110228462D01*
X141479300Y-110228847D01*
X141478339Y-110229310D01*
X141477289Y-110229854D01*
X141474905Y-110231202D01*
X141472102Y-110232920D01*
X141468838Y-110235041D01*
X141465068Y-110237594D01*
X141460751Y-110240610D01*
X141455840Y-110244121D01*
X141450294Y-110248158D01*
X141444069Y-110252751D01*
X141437120Y-110257930D01*
X141429405Y-110263728D01*
X141420880Y-110270175D01*
X141401225Y-110285137D01*
X141377807Y-110303065D01*
X141350276Y-110324205D01*
X141281486Y-110377109D01*
X141214782Y-110428419D01*
X141187690Y-110448753D01*
X141163973Y-110465699D01*
X141143030Y-110479377D01*
X141133412Y-110485027D01*
X141124262Y-110489905D01*
X141115506Y-110494026D01*
X141107069Y-110497405D01*
X141098876Y-110500056D01*
X141090851Y-110501994D01*
X141082921Y-110503235D01*
X141075009Y-110503793D01*
X141067042Y-110503683D01*
X141058943Y-110502921D01*
X141050638Y-110501521D01*
X141042053Y-110499497D01*
X141033111Y-110496866D01*
X141023739Y-110493642D01*
X141003402Y-110485474D01*
X140980442Y-110475113D01*
X140924254Y-110448290D01*
X140851419Y-110412184D01*
X140772445Y-110370086D01*
X140683048Y-110319404D01*
X140578949Y-110257548D01*
X140455864Y-110181925D01*
X140309513Y-110089946D01*
X140135613Y-109979018D01*
X139929884Y-109846552D01*
X139658591Y-109672500D01*
X139560018Y-109610601D01*
X139480999Y-109562365D01*
X139417662Y-109525480D01*
X139366136Y-109497629D01*
X139322549Y-109476497D01*
X139283029Y-109459770D01*
X139192630Y-109420576D01*
X139079812Y-109366400D01*
X138953959Y-109302334D01*
X138824454Y-109233470D01*
X138700682Y-109164900D01*
X138592026Y-109101716D01*
X138507871Y-109049010D01*
X138477913Y-109028177D01*
X138457599Y-109011873D01*
X138441534Y-108995411D01*
X138420061Y-108970641D01*
X138362749Y-108898766D01*
X138289385Y-108801422D01*
X138203690Y-108683788D01*
X138109385Y-108551037D01*
X138010190Y-108408345D01*
X137909826Y-108260890D01*
X137845805Y-108164644D01*
X138420816Y-108164644D01*
X138497661Y-108246334D01*
X138523779Y-108273419D01*
X138548389Y-108297425D01*
X138571711Y-108318412D01*
X138593967Y-108336440D01*
X138604764Y-108344363D01*
X138615377Y-108351568D01*
X138625833Y-108358064D01*
X138636161Y-108363857D01*
X138646388Y-108368954D01*
X138656542Y-108373364D01*
X138666649Y-108377094D01*
X138676739Y-108380151D01*
X138686837Y-108382543D01*
X138696973Y-108384276D01*
X138707173Y-108385360D01*
X138717466Y-108385800D01*
X138727878Y-108385605D01*
X138738437Y-108384782D01*
X138749171Y-108383338D01*
X138760108Y-108381281D01*
X138771275Y-108378618D01*
X138782700Y-108375357D01*
X138794411Y-108371505D01*
X138806434Y-108367069D01*
X138831529Y-108356478D01*
X138858208Y-108343643D01*
X138897243Y-108324125D01*
X138912851Y-108315892D01*
X138919795Y-108311916D01*
X138926210Y-108307942D01*
X138932128Y-108303901D01*
X138937585Y-108299724D01*
X138942613Y-108295341D01*
X138947244Y-108290685D01*
X138951514Y-108285685D01*
X138955455Y-108280274D01*
X138959101Y-108274382D01*
X138962484Y-108267939D01*
X138965639Y-108260879D01*
X138968598Y-108253130D01*
X138971395Y-108244625D01*
X138974064Y-108235295D01*
X138976638Y-108225070D01*
X138979149Y-108213882D01*
X138984121Y-108188339D01*
X138989246Y-108158116D01*
X138994791Y-108122660D01*
X139008210Y-108033846D01*
X139023557Y-107937107D01*
X139038332Y-107851127D01*
X139050854Y-107785256D01*
X139055746Y-107762784D01*
X139059443Y-107748846D01*
X139068648Y-107716228D01*
X139075382Y-107682601D01*
X139079703Y-107648215D01*
X139081668Y-107613318D01*
X139081335Y-107578157D01*
X139078762Y-107542982D01*
X139074006Y-107508041D01*
X139067125Y-107473583D01*
X139058177Y-107439855D01*
X139047219Y-107407108D01*
X139034309Y-107375588D01*
X139019505Y-107345545D01*
X139002864Y-107317227D01*
X138984445Y-107290882D01*
X138964304Y-107266759D01*
X138942500Y-107245107D01*
X138932461Y-107236475D01*
X138922215Y-107228439D01*
X138911768Y-107221000D01*
X138901126Y-107214157D01*
X138890296Y-107207909D01*
X138879282Y-107202257D01*
X138868092Y-107197201D01*
X138856731Y-107192739D01*
X138845205Y-107188871D01*
X138833521Y-107185599D01*
X138821685Y-107182920D01*
X138809702Y-107180835D01*
X138797579Y-107179343D01*
X138785322Y-107178445D01*
X138772937Y-107178140D01*
X138760430Y-107178427D01*
X138747806Y-107179307D01*
X138735073Y-107180779D01*
X138722237Y-107182842D01*
X138709302Y-107185498D01*
X138696276Y-107188744D01*
X138683164Y-107192581D01*
X138669973Y-107197010D01*
X138656708Y-107202028D01*
X138643377Y-107207637D01*
X138629983Y-107213835D01*
X138616535Y-107220623D01*
X138603038Y-107228001D01*
X138575921Y-107244522D01*
X138548680Y-107263397D01*
X138494853Y-107302957D01*
X138488513Y-107408403D01*
X138486712Y-107433359D01*
X138484014Y-107463941D01*
X138476456Y-107537215D01*
X138466891Y-107618694D01*
X138456375Y-107698847D01*
X138451093Y-107738874D01*
X138445972Y-107781757D01*
X138436721Y-107870744D01*
X138429626Y-107955133D01*
X138427202Y-107992266D01*
X138425696Y-108024246D01*
X138420816Y-108164644D01*
X137845805Y-108164644D01*
X137812015Y-108113846D01*
X137682900Y-107918506D01*
X137640593Y-107855464D01*
X137621458Y-107828012D01*
X137619965Y-107826276D01*
X137618578Y-107824731D01*
X137616093Y-107821987D01*
X137614982Y-107820673D01*
X137613950Y-107819321D01*
X137612989Y-107817875D01*
X137612093Y-107816277D01*
X137611254Y-107814471D01*
X137610467Y-107812398D01*
X137609724Y-107810002D01*
X137609018Y-107807226D01*
X137608342Y-107804013D01*
X137607690Y-107800305D01*
X137607055Y-107796045D01*
X137606430Y-107791176D01*
X137605808Y-107785642D01*
X137605182Y-107779384D01*
X137604545Y-107772346D01*
X137603890Y-107764470D01*
X137602502Y-107745979D01*
X137600960Y-107723451D01*
X137599212Y-107696431D01*
X137597201Y-107664462D01*
X137592173Y-107583845D01*
X137586724Y-107469624D01*
X137582796Y-107330780D01*
X137579522Y-107013736D01*
X137582395Y-106701747D01*
X137586150Y-106569220D01*
X137591459Y-106463844D01*
X137606880Y-106269428D01*
X137626644Y-106072468D01*
X137650533Y-105874946D01*
X137678327Y-105678844D01*
X137694032Y-105571057D01*
X137711447Y-105443905D01*
X137728453Y-105313263D01*
X137742930Y-105195009D01*
X137766734Y-104997491D01*
X137788390Y-104833560D01*
X137809487Y-104695412D01*
X137831616Y-104575241D01*
X137856367Y-104465243D01*
X137885328Y-104357613D01*
X137920090Y-104244547D01*
X137962241Y-104118238D01*
X138003284Y-104001226D01*
X138046658Y-103883327D01*
X138092570Y-103764041D01*
X138141223Y-103642865D01*
X138192824Y-103519299D01*
X138247578Y-103392842D01*
X138305689Y-103262993D01*
X138367363Y-103129251D01*
X138402042Y-103053654D01*
X138432659Y-102984276D01*
X138455898Y-102928807D01*
X138463714Y-102908691D01*
X138468442Y-102894935D01*
X138471913Y-102882279D01*
X138474888Y-102869353D01*
X138477365Y-102856146D01*
X138479346Y-102842647D01*
X138480829Y-102828845D01*
X138481815Y-102814728D01*
X138482303Y-102800287D01*
X138482294Y-102785508D01*
X138481786Y-102770383D01*
X138480780Y-102754898D01*
X138479276Y-102739045D01*
X138477273Y-102722810D01*
X138474772Y-102706183D01*
X138471771Y-102689154D01*
X138468271Y-102671711D01*
X138464272Y-102653843D01*
X138457191Y-102622839D01*
X138451181Y-102594350D01*
X138446270Y-102568024D01*
X138442484Y-102543506D01*
X138439852Y-102520443D01*
X138438401Y-102498482D01*
X138438160Y-102477268D01*
X138439155Y-102456449D01*
X138441414Y-102435672D01*
X138444965Y-102414581D01*
X138449836Y-102392825D01*
X138456055Y-102370049D01*
X138463648Y-102345899D01*
X138472644Y-102320024D01*
X138483070Y-102292068D01*
X138494954Y-102261678D01*
X138527314Y-102184044D01*
X138565539Y-102100345D01*
X138612620Y-102004992D01*
X138671549Y-101892393D01*
X138745317Y-101756957D01*
X138836914Y-101593093D01*
X138949332Y-101395211D01*
X139085562Y-101157718D01*
X139159938Y-101027336D01*
X139232223Y-100898632D01*
X139294154Y-100786442D01*
X139337464Y-100705600D01*
X139367278Y-100647126D01*
X139379208Y-100622259D01*
X139389234Y-100599611D01*
X139397415Y-100578657D01*
X139403812Y-100558875D01*
X139406360Y-100549261D01*
X139408485Y-100539744D01*
X139410193Y-100530259D01*
X139411493Y-100520740D01*
X139412392Y-100511122D01*
X139412897Y-100501341D01*
X139413016Y-100491330D01*
X139412756Y-100481025D01*
X139411131Y-100459268D01*
X139408082Y-100435549D01*
X139403668Y-100409346D01*
X139397950Y-100380134D01*
X139382842Y-100310600D01*
X139364548Y-100224672D01*
X139357624Y-100187894D01*
X139352218Y-100154812D01*
X139348359Y-100125103D01*
X139346074Y-100098445D01*
X139345392Y-100074516D01*
X139346341Y-100052995D01*
X139348948Y-100033558D01*
X139353242Y-100015885D01*
X139359250Y-99999653D01*
X139367000Y-99984540D01*
X139376521Y-99970225D01*
X139387840Y-99956385D01*
X139400985Y-99942698D01*
X139415985Y-99928842D01*
X139462730Y-99887071D01*
X139506393Y-99846838D01*
X139547148Y-99807920D01*
X139585173Y-99770091D01*
X139620643Y-99733124D01*
X139653735Y-99696794D01*
X139684625Y-99660876D01*
X139713490Y-99625145D01*
X139740505Y-99589374D01*
X139765848Y-99553337D01*
X139789693Y-99516811D01*
X139812218Y-99479568D01*
X139833600Y-99441383D01*
X139854013Y-99402031D01*
X139873635Y-99361285D01*
X139892641Y-99318922D01*
X139901847Y-99298178D01*
X139911015Y-99278603D01*
X139920334Y-99259944D01*
X139929995Y-99241946D01*
X139940184Y-99224355D01*
X139951092Y-99206920D01*
X139962908Y-99189385D01*
X139975820Y-99171497D01*
X139990017Y-99153004D01*
X140005688Y-99133650D01*
X140023023Y-99113183D01*
X140042210Y-99091349D01*
X140063437Y-99067894D01*
X140086895Y-99042565D01*
X140141256Y-98985271D01*
X140174381Y-98950367D01*
X140202481Y-98919864D01*
X140226098Y-98893081D01*
X140245776Y-98869337D01*
X140254307Y-98858391D01*
X140262057Y-98847950D01*
X140269094Y-98837927D01*
X140275484Y-98828239D01*
X140281297Y-98818800D01*
X140286600Y-98809524D01*
X140291461Y-98800327D01*
X140295947Y-98791123D01*
X140305479Y-98770359D01*
X140309344Y-98761404D01*
X140312648Y-98753134D01*
X140315422Y-98745349D01*
X140317695Y-98737850D01*
X140319498Y-98730436D01*
X140320861Y-98722907D01*
X140321815Y-98715065D01*
X140322388Y-98706708D01*
X140322611Y-98697638D01*
X140322514Y-98687654D01*
X140322128Y-98676557D01*
X140321483Y-98664147D01*
X140319533Y-98634587D01*
X140317916Y-98601634D01*
X140317725Y-98569115D01*
X140318959Y-98537038D01*
X140321616Y-98505407D01*
X140325693Y-98474231D01*
X140331189Y-98443517D01*
X140338102Y-98413269D01*
X140346429Y-98383496D01*
X140356169Y-98354205D01*
X140367319Y-98325401D01*
X140379877Y-98297091D01*
X140393842Y-98269282D01*
X140409211Y-98241982D01*
X140425982Y-98215196D01*
X140444153Y-98188931D01*
X140463723Y-98163193D01*
X140479048Y-98144857D01*
X140495693Y-98126656D01*
X140513516Y-98108686D01*
X140532376Y-98091044D01*
X140552133Y-98073826D01*
X140572647Y-98057130D01*
X140593777Y-98041052D01*
X140615382Y-98025688D01*
X140637322Y-98011135D01*
X140659456Y-97997489D01*
X140681643Y-97984848D01*
X140703743Y-97973308D01*
X140725615Y-97962966D01*
X140747119Y-97953917D01*
X140768114Y-97946260D01*
X140788459Y-97940090D01*
X140792570Y-97938897D01*
X140796687Y-97937542D01*
X140800784Y-97936040D01*
X140804834Y-97934406D01*
X140808811Y-97932656D01*
X140812689Y-97930804D01*
X140816440Y-97928868D01*
X140820038Y-97926861D01*
X140823457Y-97924800D01*
X140826671Y-97922699D01*
X140829652Y-97920574D01*
X140832374Y-97918441D01*
X140834811Y-97916314D01*
X140836936Y-97914210D01*
X140838723Y-97912144D01*
X140840146Y-97910130D01*
X140859927Y-97876998D01*
X140882369Y-97837092D01*
X140907154Y-97791030D01*
X140933967Y-97739430D01*
X140962490Y-97682909D01*
X140992407Y-97622088D01*
X141023402Y-97557583D01*
X141055159Y-97490013D01*
X141148775Y-97292906D01*
X141234285Y-97123845D01*
X141275562Y-97047463D01*
X141316689Y-96975248D01*
X141358288Y-96906254D01*
X141400986Y-96839533D01*
X141445407Y-96774136D01*
X141492177Y-96709117D01*
X141541920Y-96643526D01*
X141595261Y-96576418D01*
X141715238Y-96433853D01*
X141857107Y-96273842D01*
X141890579Y-96237034D01*
X141921487Y-96203802D01*
X141950329Y-96173798D01*
X141977601Y-96146674D01*
X142003800Y-96122081D01*
X142029422Y-96099671D01*
X142054965Y-96079096D01*
X142080924Y-96060008D01*
X142107797Y-96042059D01*
X142136080Y-96024900D01*
X142166269Y-96008183D01*
X142198863Y-95991561D01*
X142234357Y-95974684D01*
X142273247Y-95957205D01*
X142316031Y-95938775D01*
X142363206Y-95919046D01*
X142402262Y-95902578D01*
X142438518Y-95886605D01*
X142472183Y-95870983D01*
X142503464Y-95855565D01*
X142532569Y-95840203D01*
X142559705Y-95824752D01*
X142585079Y-95809065D01*
X142608900Y-95792997D01*
X142631374Y-95776399D01*
X142652710Y-95759126D01*
X142673115Y-95741032D01*
X142692796Y-95721970D01*
X142711960Y-95701793D01*
X142730817Y-95680356D01*
X142749572Y-95657511D01*
X142768434Y-95633113D01*
X142862806Y-95512284D01*
X142964086Y-95391221D01*
X143071713Y-95270394D01*
X143185128Y-95150271D01*
X143303772Y-95031322D01*
X143427085Y-94914015D01*
X143554509Y-94798820D01*
X143685484Y-94686205D01*
X143819451Y-94576640D01*
X143955849Y-94470593D01*
X144094121Y-94368534D01*
X144233707Y-94270931D01*
X144374048Y-94178254D01*
X144514583Y-94090972D01*
X144654755Y-94009553D01*
X144794003Y-93934467D01*
X144836372Y-93912147D01*
X144855263Y-93901803D01*
X144873034Y-93891716D01*
X144889991Y-93881673D01*
X144906440Y-93871458D01*
X144922686Y-93860856D01*
X144939036Y-93849654D01*
X144955797Y-93837636D01*
X144973274Y-93824587D01*
X144991773Y-93810293D01*
X145011601Y-93794540D01*
X145056466Y-93757795D01*
X145110319Y-93712635D01*
X145324105Y-93534633D01*
X145357825Y-93507326D01*
X146708484Y-93507326D01*
X146709131Y-93517744D01*
X146710472Y-93527734D01*
X146712513Y-93537334D01*
X146715261Y-93546586D01*
X146718723Y-93555528D01*
X146722906Y-93564202D01*
X146727817Y-93572647D01*
X146733462Y-93580902D01*
X146739848Y-93589008D01*
X146746983Y-93597006D01*
X146756295Y-93606419D01*
X146766081Y-93615442D01*
X146776324Y-93624074D01*
X146787011Y-93632311D01*
X146798125Y-93640148D01*
X146809651Y-93647585D01*
X146833880Y-93661241D01*
X146859576Y-93673253D01*
X146886618Y-93683598D01*
X146914882Y-93692250D01*
X146944247Y-93699184D01*
X146974592Y-93704377D01*
X147005794Y-93707802D01*
X147037732Y-93709436D01*
X147070284Y-93709253D01*
X147103327Y-93707229D01*
X147136741Y-93703339D01*
X147170403Y-93697558D01*
X147204191Y-93689862D01*
X147204109Y-93689860D01*
X147231352Y-93682415D01*
X147258118Y-93674155D01*
X147284447Y-93665055D01*
X147310378Y-93655094D01*
X147335952Y-93644248D01*
X147361207Y-93632495D01*
X147386185Y-93619811D01*
X147410924Y-93606175D01*
X147435465Y-93591562D01*
X147459848Y-93575951D01*
X147484112Y-93559318D01*
X147508297Y-93541640D01*
X147532443Y-93522895D01*
X147556590Y-93503060D01*
X147580778Y-93482112D01*
X147605047Y-93460028D01*
X147627245Y-93439738D01*
X147637246Y-93430983D01*
X147646722Y-93423028D01*
X147655831Y-93415777D01*
X147664727Y-93409136D01*
X147673567Y-93403007D01*
X147682507Y-93397297D01*
X147691702Y-93391910D01*
X147701308Y-93386749D01*
X147711482Y-93381721D01*
X147722379Y-93376729D01*
X147734155Y-93371678D01*
X147746967Y-93366472D01*
X147776318Y-93355216D01*
X147826951Y-93335815D01*
X147849149Y-93326850D01*
X147869552Y-93318210D01*
X147888370Y-93309772D01*
X147905815Y-93301413D01*
X147922099Y-93293010D01*
X147937433Y-93284439D01*
X147952029Y-93275577D01*
X147966099Y-93266301D01*
X147979854Y-93256487D01*
X147993507Y-93246013D01*
X148007267Y-93234755D01*
X148021348Y-93222590D01*
X148051318Y-93195044D01*
X148068805Y-93179113D01*
X148089064Y-93161743D01*
X148111370Y-93143493D01*
X148134997Y-93124922D01*
X148159220Y-93106591D01*
X148183314Y-93089058D01*
X148206552Y-93072884D01*
X148228209Y-93058627D01*
X148331338Y-92992989D01*
X148331482Y-92992806D01*
X148331597Y-92992473D01*
X148331741Y-92991373D01*
X148331774Y-92989721D01*
X148331699Y-92987547D01*
X148331520Y-92984883D01*
X148331241Y-92981760D01*
X148330400Y-92974261D01*
X148329208Y-92965300D01*
X148327695Y-92955127D01*
X148325895Y-92943990D01*
X148323838Y-92932140D01*
X148322424Y-92923804D01*
X148321220Y-92915514D01*
X148320228Y-92907201D01*
X148319449Y-92898798D01*
X148318885Y-92890235D01*
X148318538Y-92881443D01*
X148318409Y-92872356D01*
X148318500Y-92862903D01*
X148318813Y-92853016D01*
X148319349Y-92842627D01*
X148320109Y-92831667D01*
X148321096Y-92820067D01*
X148323754Y-92794675D01*
X148327338Y-92765903D01*
X148331371Y-92733547D01*
X148334319Y-92704970D01*
X148335975Y-92679968D01*
X148336253Y-92668744D01*
X148336130Y-92658338D01*
X148335580Y-92648724D01*
X148334576Y-92639876D01*
X148333093Y-92631769D01*
X148331104Y-92624378D01*
X148328584Y-92617676D01*
X148325507Y-92611639D01*
X148321846Y-92606242D01*
X148317575Y-92601458D01*
X148312669Y-92597262D01*
X148307101Y-92593629D01*
X148300846Y-92590533D01*
X148293877Y-92587948D01*
X148286168Y-92585850D01*
X148277694Y-92584213D01*
X148268427Y-92583011D01*
X148258343Y-92582219D01*
X148235618Y-92581762D01*
X148209308Y-92582639D01*
X148179207Y-92584646D01*
X148145105Y-92587578D01*
X148087156Y-92593495D01*
X148061309Y-92596682D01*
X148037179Y-92600125D01*
X148014491Y-92603900D01*
X147992967Y-92608086D01*
X147972334Y-92612758D01*
X147952314Y-92617995D01*
X147932632Y-92623874D01*
X147913013Y-92630472D01*
X147893179Y-92637866D01*
X147872856Y-92646134D01*
X147851768Y-92655352D01*
X147829638Y-92665598D01*
X147781152Y-92689483D01*
X147755728Y-92701947D01*
X147728345Y-92714599D01*
X147699865Y-92727089D01*
X147671148Y-92739067D01*
X147643057Y-92750183D01*
X147616453Y-92760086D01*
X147592198Y-92768427D01*
X147571152Y-92774855D01*
X147523797Y-92789522D01*
X147474234Y-92807548D01*
X147422955Y-92828626D01*
X147370456Y-92852449D01*
X147317228Y-92878707D01*
X147263765Y-92907095D01*
X147210561Y-92937304D01*
X147158110Y-92969025D01*
X147106904Y-93001952D01*
X147057437Y-93035777D01*
X147010203Y-93070192D01*
X146965695Y-93104889D01*
X146924406Y-93139561D01*
X146886830Y-93173899D01*
X146853461Y-93207596D01*
X146824791Y-93240345D01*
X146813723Y-93254149D01*
X146803421Y-93267408D01*
X146793846Y-93280190D01*
X146784962Y-93292562D01*
X146776731Y-93304592D01*
X146769117Y-93316346D01*
X146762083Y-93327893D01*
X146755592Y-93339299D01*
X146749607Y-93350633D01*
X146744091Y-93361960D01*
X146739007Y-93373349D01*
X146734318Y-93384868D01*
X146729987Y-93396582D01*
X146725977Y-93408561D01*
X146722252Y-93420870D01*
X146718774Y-93433578D01*
X146715405Y-93447407D01*
X146712690Y-93460568D01*
X146710633Y-93473101D01*
X146709241Y-93485045D01*
X146708523Y-93496440D01*
X146708484Y-93507326D01*
X145357825Y-93507326D01*
X145542499Y-93357777D01*
X145767565Y-93180505D01*
X146001366Y-93001256D01*
X146245965Y-92818468D01*
X146503427Y-92630580D01*
X146775816Y-92436029D01*
X147065194Y-92233253D01*
X147318208Y-92057486D01*
X147803208Y-91815324D01*
X148268660Y-91587070D01*
X148729786Y-91369404D01*
X149189308Y-91161172D01*
X149649951Y-90961216D01*
X150114439Y-90768381D01*
X150585495Y-90581509D01*
X151065844Y-90399444D01*
X151558208Y-90221030D01*
X151794567Y-90138537D01*
X152024552Y-90061890D01*
X152299922Y-89974265D01*
X152672437Y-89858835D01*
X153116280Y-89720747D01*
X153445896Y-89614665D01*
X153677724Y-89535153D01*
X153762106Y-89503662D01*
X153828207Y-89476776D01*
X153845738Y-89468818D01*
X153868800Y-89457708D01*
X153896410Y-89443954D01*
X153927581Y-89428062D01*
X153996675Y-89391890D01*
X154068206Y-89353246D01*
X154178669Y-89293660D01*
X154226619Y-89269073D01*
X154270869Y-89247658D01*
X154312288Y-89229191D01*
X154351741Y-89213447D01*
X154390095Y-89200203D01*
X154428217Y-89189234D01*
X154466973Y-89180317D01*
X154507230Y-89173226D01*
X154549854Y-89167738D01*
X154595713Y-89163628D01*
X154645673Y-89160673D01*
X154700601Y-89158648D01*
X154828825Y-89156491D01*
X155109443Y-89153842D01*
X155188823Y-89110929D01*
X155255169Y-89075641D01*
X155317559Y-89043632D01*
X155375699Y-89015033D01*
X155429298Y-88989978D01*
X155478064Y-88968599D01*
X155521705Y-88951028D01*
X155559928Y-88937398D01*
X155592441Y-88927842D01*
X155610122Y-88923702D01*
X155628252Y-88920127D01*
X155646912Y-88917117D01*
X155666188Y-88914672D01*
X155686161Y-88912792D01*
X155706914Y-88911477D01*
X155728531Y-88910729D01*
X155751095Y-88910548D01*
X155774688Y-88910933D01*
X155799394Y-88911885D01*
X155825296Y-88913405D01*
X155852477Y-88915493D01*
X155881019Y-88918150D01*
X155911006Y-88921375D01*
X155975647Y-88929532D01*
X156073087Y-88942871D01*
X156420646Y-88865765D01*
X156731580Y-88798204D01*
X156991085Y-88744049D01*
X157068967Y-88728180D01*
X157131454Y-88714540D01*
X157181752Y-88702051D01*
X157203332Y-88695901D01*
X157223066Y-88689635D01*
X157241356Y-88683118D01*
X157258603Y-88676216D01*
X157275207Y-88668792D01*
X157291569Y-88660714D01*
X157308089Y-88651846D01*
X157325169Y-88642052D01*
X157362610Y-88619153D01*
X157376273Y-88610785D01*
X157390424Y-88602500D01*
X157404653Y-88594513D01*
X157418549Y-88587040D01*
X157431703Y-88580296D01*
X157443705Y-88574498D01*
X157454144Y-88569861D01*
X157462610Y-88566599D01*
X157468352Y-88565062D01*
X157476289Y-88563626D01*
X157486474Y-88562288D01*
X157498962Y-88561047D01*
X157531065Y-88558848D01*
X157573030Y-88557014D01*
X157625293Y-88555529D01*
X157688287Y-88554379D01*
X157762446Y-88553548D01*
X157848205Y-88553020D01*
X158198206Y-88551570D01*
X158423206Y-88504785D01*
X158589281Y-88471355D01*
X158762773Y-88438474D01*
X159116721Y-88376872D01*
X159454469Y-88324995D01*
X159607711Y-88304272D01*
X159745435Y-88287862D01*
X159852667Y-88276159D01*
X160000000Y-88400000D01*
G37*
G36*
X155926750Y-92951753D02*
G01*
X155953224Y-92954111D01*
X155979652Y-92957792D01*
X156005861Y-92962742D01*
X156031679Y-92968905D01*
X156056935Y-92976229D01*
X156081455Y-92984658D01*
X156105070Y-92994138D01*
X156127606Y-93004614D01*
X156148892Y-93016033D01*
X156168756Y-93028339D01*
X156187026Y-93041479D01*
X156203531Y-93055398D01*
X156218097Y-93070041D01*
X156228764Y-93082233D01*
X156238549Y-93094248D01*
X156247479Y-93106156D01*
X156255580Y-93118030D01*
X156262880Y-93129941D01*
X156269404Y-93141960D01*
X156275179Y-93154160D01*
X156280233Y-93166610D01*
X156284592Y-93179384D01*
X156288283Y-93192552D01*
X156291332Y-93206185D01*
X156293766Y-93220356D01*
X156295612Y-93235136D01*
X156296896Y-93250597D01*
X156297646Y-93266808D01*
X156297887Y-93283844D01*
X156297421Y-93307426D01*
X156295918Y-93329321D01*
X156293225Y-93349732D01*
X156291384Y-93359446D01*
X156289188Y-93368866D01*
X156286617Y-93378017D01*
X156283652Y-93386925D01*
X156280274Y-93395617D01*
X156276464Y-93404116D01*
X156272202Y-93412450D01*
X156267469Y-93420644D01*
X156262246Y-93428722D01*
X156256513Y-93436712D01*
X156250252Y-93444637D01*
X156243443Y-93452525D01*
X156236066Y-93460400D01*
X156228103Y-93468289D01*
X156219534Y-93476216D01*
X156210340Y-93484208D01*
X156190000Y-93500487D01*
X156166928Y-93517330D01*
X156140971Y-93534943D01*
X156111975Y-93553530D01*
X156079784Y-93573295D01*
X156058329Y-93585962D01*
X156038287Y-93597152D01*
X156019477Y-93606894D01*
X156001713Y-93615215D01*
X155984811Y-93622141D01*
X155968588Y-93627699D01*
X155952860Y-93631918D01*
X155937442Y-93634823D01*
X155922151Y-93636442D01*
X155906803Y-93636802D01*
X155891214Y-93635930D01*
X155875199Y-93633854D01*
X155858576Y-93630599D01*
X155841159Y-93626195D01*
X155822765Y-93620666D01*
X155803211Y-93614042D01*
X155803209Y-93614043D01*
X155791914Y-93610004D01*
X155781871Y-93606270D01*
X155772888Y-93602666D01*
X155764772Y-93599015D01*
X155760978Y-93597117D01*
X155757330Y-93595141D01*
X155753802Y-93593065D01*
X155750371Y-93590868D01*
X155747012Y-93588527D01*
X155743702Y-93586019D01*
X155740416Y-93583324D01*
X155737131Y-93580419D01*
X155733822Y-93577282D01*
X155730465Y-93573891D01*
X155723513Y-93566259D01*
X155716081Y-93557347D01*
X155707977Y-93546979D01*
X155699010Y-93534977D01*
X155688986Y-93521167D01*
X155665001Y-93487416D01*
X155635102Y-93444222D01*
X155608973Y-93404396D01*
X155586584Y-93367635D01*
X155567910Y-93333638D01*
X155552922Y-93302102D01*
X155546802Y-93287164D01*
X155541593Y-93272727D01*
X155537293Y-93258756D01*
X155533896Y-93245211D01*
X155531401Y-93232055D01*
X155529803Y-93219250D01*
X155529099Y-93206759D01*
X155529286Y-93194544D01*
X155530361Y-93182567D01*
X155532319Y-93170791D01*
X155535158Y-93159177D01*
X155538873Y-93147689D01*
X155543463Y-93136287D01*
X155548922Y-93124935D01*
X155555248Y-93113595D01*
X155562438Y-93102229D01*
X155579392Y-93079268D01*
X155599759Y-93055751D01*
X155623510Y-93031375D01*
X155633478Y-93021834D01*
X155643003Y-93013259D01*
X155652297Y-93005573D01*
X155656924Y-93002042D01*
X155661573Y-92998705D01*
X155666270Y-92995554D01*
X155671043Y-92992580D01*
X155675917Y-92989773D01*
X155680919Y-92987124D01*
X155686077Y-92984624D01*
X155691415Y-92982264D01*
X155696961Y-92980035D01*
X155702742Y-92977926D01*
X155708783Y-92975930D01*
X155715112Y-92974036D01*
X155721755Y-92972236D01*
X155728738Y-92970521D01*
X155743833Y-92967306D01*
X155760608Y-92964318D01*
X155779276Y-92961483D01*
X155800049Y-92958728D01*
X155823141Y-92955979D01*
X155848762Y-92953161D01*
X155874347Y-92951224D01*
X155900400Y-92950773D01*
X155926750Y-92951753D01*
G37*
%TD*%
D11*
%TO.C,D2*%
X147261162Y-104555543D03*
D12*
X148334612Y-102253521D03*
%TD*%
D13*
%TO.C,D1*%
X155900000Y-96700000D03*
D12*
X158353452Y-96042600D03*
%TD*%
D14*
%TO.C,J1*%
X157441714Y-107320328D03*
D15*
X158711714Y-109520033D03*
X155242009Y-108590328D03*
X156512009Y-110790033D03*
X153042305Y-109860328D03*
X154312305Y-112060033D03*
%TD*%
M02*
