%TF.GenerationSoftware,KiCad,Pcbnew,9.0.0*%
%TF.CreationDate,2025-03-22T20:49:06-07:00*%
%TF.ProjectId,DC33_Cnet_Badge_Main,44433333-5f43-46e6-9574-5f4261646765,rev?*%
%TF.SameCoordinates,Original*%
%TF.FileFunction,Legend,Bot*%
%TF.FilePolarity,Positive*%
%FSLAX46Y46*%
G04 Gerber Fmt 4.6, Leading zero omitted, Abs format (unit mm)*
G04 Created by KiCad (PCBNEW 9.0.0) date 2025-03-22 20:49:06*
%MOMM*%
%LPD*%
G01*
G04 APERTURE LIST*
%ADD10C,0.150000*%
%ADD11C,0.100000*%
%ADD12C,0.120000*%
G04 APERTURE END LIST*
D10*
X197607200Y-101686667D02*
X197654819Y-101829524D01*
X197654819Y-101829524D02*
X197654819Y-102067619D01*
X197654819Y-102067619D02*
X197607200Y-102162857D01*
X197607200Y-102162857D02*
X197559580Y-102210476D01*
X197559580Y-102210476D02*
X197464342Y-102258095D01*
X197464342Y-102258095D02*
X197369104Y-102258095D01*
X197369104Y-102258095D02*
X197273866Y-102210476D01*
X197273866Y-102210476D02*
X197226247Y-102162857D01*
X197226247Y-102162857D02*
X197178628Y-102067619D01*
X197178628Y-102067619D02*
X197131009Y-101877143D01*
X197131009Y-101877143D02*
X197083390Y-101781905D01*
X197083390Y-101781905D02*
X197035771Y-101734286D01*
X197035771Y-101734286D02*
X196940533Y-101686667D01*
X196940533Y-101686667D02*
X196845295Y-101686667D01*
X196845295Y-101686667D02*
X196750057Y-101734286D01*
X196750057Y-101734286D02*
X196702438Y-101781905D01*
X196702438Y-101781905D02*
X196654819Y-101877143D01*
X196654819Y-101877143D02*
X196654819Y-102115238D01*
X196654819Y-102115238D02*
X196702438Y-102258095D01*
X196654819Y-102591429D02*
X197654819Y-102829524D01*
X197654819Y-102829524D02*
X196940533Y-103020000D01*
X196940533Y-103020000D02*
X197654819Y-103210476D01*
X197654819Y-103210476D02*
X196654819Y-103448572D01*
X197654819Y-104353333D02*
X197654819Y-103781905D01*
X197654819Y-104067619D02*
X196654819Y-104067619D01*
X196654819Y-104067619D02*
X196797676Y-103972381D01*
X196797676Y-103972381D02*
X196892914Y-103877143D01*
X196892914Y-103877143D02*
X196940533Y-103781905D01*
D11*
X152880952Y-94957419D02*
X153357142Y-94957419D01*
X153357142Y-94957419D02*
X153357142Y-93957419D01*
X152547618Y-94957419D02*
X152547618Y-94290752D01*
X152547618Y-93957419D02*
X152595237Y-94005038D01*
X152595237Y-94005038D02*
X152547618Y-94052657D01*
X152547618Y-94052657D02*
X152499999Y-94005038D01*
X152499999Y-94005038D02*
X152547618Y-93957419D01*
X152547618Y-93957419D02*
X152547618Y-94052657D01*
X152071428Y-94957419D02*
X152071428Y-93957419D01*
X152071428Y-93957419D02*
X151690476Y-93957419D01*
X151690476Y-93957419D02*
X151595238Y-94005038D01*
X151595238Y-94005038D02*
X151547619Y-94052657D01*
X151547619Y-94052657D02*
X151500000Y-94147895D01*
X151500000Y-94147895D02*
X151500000Y-94290752D01*
X151500000Y-94290752D02*
X151547619Y-94385990D01*
X151547619Y-94385990D02*
X151595238Y-94433609D01*
X151595238Y-94433609D02*
X151690476Y-94481228D01*
X151690476Y-94481228D02*
X152071428Y-94481228D01*
X150928571Y-94957419D02*
X151023809Y-94909800D01*
X151023809Y-94909800D02*
X151071428Y-94862180D01*
X151071428Y-94862180D02*
X151119047Y-94766942D01*
X151119047Y-94766942D02*
X151119047Y-94481228D01*
X151119047Y-94481228D02*
X151071428Y-94385990D01*
X151071428Y-94385990D02*
X151023809Y-94338371D01*
X151023809Y-94338371D02*
X150928571Y-94290752D01*
X150928571Y-94290752D02*
X150785714Y-94290752D01*
X150785714Y-94290752D02*
X150690476Y-94338371D01*
X150690476Y-94338371D02*
X150642857Y-94385990D01*
X150642857Y-94385990D02*
X150595238Y-94481228D01*
X150595238Y-94481228D02*
X150595238Y-94766942D01*
X150595238Y-94766942D02*
X150642857Y-94862180D01*
X150642857Y-94862180D02*
X150690476Y-94909800D01*
X150690476Y-94909800D02*
X150785714Y-94957419D01*
X150785714Y-94957419D02*
X150928571Y-94957419D01*
D12*
%TO.C,SW1*%
X198020000Y-99790000D02*
X198020000Y-106250000D01*
X198020000Y-106250000D02*
X198050000Y-106250000D01*
X198050000Y-99790000D02*
X198020000Y-99790000D01*
X199950000Y-99790000D02*
X202550000Y-99790000D01*
X199950000Y-106250000D02*
X202550000Y-106250000D01*
X204480000Y-99790000D02*
X204450000Y-99790000D01*
X204480000Y-99790000D02*
X204480000Y-106250000D01*
X204480000Y-106250000D02*
X204450000Y-106250000D01*
%TO.C,LiPo*%
D11*
X131545000Y-81800000D02*
X173455000Y-81800000D01*
X173455000Y-107200000D01*
X131545000Y-107200000D01*
X131545000Y-81800000D01*
%TD*%
M02*
