%TF.GenerationSoftware,KiCad,Pcbnew,8.0.4*%
%TF.CreationDate,2024-12-05T13:36:44-08:00*%
%TF.ProjectId,DC33_Cnet_Badge_Main,44433333-5f43-46e6-9574-5f4261646765,rev?*%
%TF.SameCoordinates,Original*%
%TF.FileFunction,Copper,L2,Bot*%
%TF.FilePolarity,Positive*%
%FSLAX46Y46*%
G04 Gerber Fmt 4.6, Leading zero omitted, Abs format (unit mm)*
G04 Created by KiCad (PCBNEW 8.0.4) date 2024-12-05 13:36:44*
%MOMM*%
%LPD*%
G01*
G04 APERTURE LIST*
%TA.AperFunction,ComponentPad*%
%ADD10C,1.524000*%
%TD*%
%TA.AperFunction,ComponentPad*%
%ADD11O,1.700000X1.700000*%
%TD*%
%TA.AperFunction,ComponentPad*%
%ADD12R,1.700000X1.700000*%
%TD*%
%TA.AperFunction,ComponentPad*%
%ADD13C,1.700000*%
%TD*%
G04 APERTURE END LIST*
D10*
%TO.P,VIBRA1,2,NEG*%
%TO.N,GND*%
X172500000Y-76770000D03*
%TO.P,VIBRA1,1,POS*%
%TO.N,Net-(U1-GPIO45)*%
X172500000Y-74230000D03*
%TD*%
D11*
%TO.P,J1,6,GPIO2*%
%TO.N,unconnected-(J1-GPIO2-Pad6)*%
X190260000Y-82700000D03*
%TO.P,J1,5,GPIO1*%
%TO.N,unconnected-(J1-GPIO1-Pad5)*%
X192800000Y-82700000D03*
%TO.P,J1,4,SCL*%
%TO.N,unconnected-(J1-SCL-Pad4)*%
X190260000Y-80160000D03*
%TO.P,J1,3,SDA*%
%TO.N,unconnected-(J1-SDA-Pad3)*%
X192800000Y-80160000D03*
%TO.P,J1,2,GND*%
%TO.N,GND*%
X190260000Y-77620000D03*
D12*
%TO.P,J1,1,+3.3V*%
%TO.N,3V3*%
X192800000Y-77620000D03*
%TD*%
D10*
%TO.P,BUZZ1,1,POS*%
%TO.N,Net-(BUZZ1-POS)*%
X178500000Y-57880000D03*
%TO.P,BUZZ1,2,NEG*%
%TO.N,GND*%
X178500000Y-65500000D03*
%TD*%
D13*
%TO.P,U1,1,GND*%
%TO.N,GND*%
X123860000Y-79500000D03*
%TO.P,U1,2,5V*%
%TO.N,unconnected-(U1-5V-Pad2)*%
X126400000Y-79500000D03*
%TO.P,U1,3,Ve*%
%TO.N,unconnected-(U1-Ve-Pad3)*%
X128940000Y-79500000D03*
%TO.P,U1,4,Ve*%
%TO.N,unconnected-(U1-Ve-Pad4)*%
X131480000Y-79500000D03*
%TO.P,U1,5,RX*%
%TO.N,unconnected-(U1-RX-Pad5)*%
X134020000Y-79500000D03*
%TO.P,U1,6,TX*%
%TO.N,unconnected-(U1-TX-Pad6)*%
X136560000Y-79500000D03*
%TO.P,U1,7,RST*%
%TO.N,unconnected-(U1-RST-Pad7)*%
X139100000Y-79500000D03*
%TO.P,U1,8,GPIO0*%
%TO.N,unconnected-(U1-GPIO0-Pad8)*%
X141640000Y-79500000D03*
%TO.P,U1,9,GPIO36*%
%TO.N,unconnected-(U1-GPIO36-Pad9)*%
X144180000Y-79500000D03*
%TO.P,U1,10,GPIO35*%
%TO.N,unconnected-(U1-GPIO35-Pad10)*%
X146720000Y-79500000D03*
%TO.P,U1,11,GPIO34*%
%TO.N,unconnected-(U1-GPIO34-Pad11)*%
X149260000Y-79500000D03*
%TO.P,U1,12,GPIO33*%
%TO.N,unconnected-(U1-GPIO33-Pad12)*%
X151800000Y-79500000D03*
%TO.P,U1,13,GPIO47*%
%TO.N,Net-(GPS1-RX)*%
X154340000Y-79500000D03*
%TO.P,U1,14,GPIO48*%
%TO.N,Net-(GPS1-TX)*%
X156880000Y-79500000D03*
%TO.P,U1,15,GPIO26*%
%TO.N,unconnected-(U1-GPIO26-Pad15)*%
X159420000Y-79500000D03*
%TO.P,U1,16,GPIO21*%
%TO.N,unconnected-(U1-GPIO21-Pad16)*%
X161960000Y-79500000D03*
%TO.P,U1,17,GPIO20*%
%TO.N,unconnected-(U1-GPIO20-Pad17)*%
X164500000Y-79500000D03*
%TO.P,U1,18,GPIO19*%
%TO.N,unconnected-(U1-GPIO19-Pad18)*%
X167040000Y-79500000D03*
%TO.P,U1,19,GPIO7*%
%TO.N,unconnected-(U1-GPIO7-Pad19)*%
X167040000Y-56640000D03*
%TO.P,U1,20,GPIO6*%
%TO.N,unconnected-(U1-GPIO6-Pad20)*%
X164500000Y-56640000D03*
%TO.P,U1,21,GPIO5*%
%TO.N,unconnected-(U1-GPIO5-Pad21)*%
X161960000Y-56640000D03*
%TO.P,U1,22,GPIO4*%
%TO.N,unconnected-(U1-GPIO4-Pad22)*%
X159420000Y-56640000D03*
%TO.P,U1,23,GPIO3*%
%TO.N,unconnected-(U1-GPIO3-Pad23)*%
X156880000Y-56640000D03*
%TO.P,U1,24,GPIO2*%
%TO.N,unconnected-(U1-GPIO2-Pad24)*%
X154340000Y-56640000D03*
%TO.P,U1,25,GPIO1*%
%TO.N,unconnected-(U1-GPIO1-Pad25)*%
X151800000Y-56640000D03*
%TO.P,U1,26,GPIO38*%
%TO.N,unconnected-(U1-GPIO38-Pad26)*%
X149260000Y-56640000D03*
%TO.P,U1,27,GPIO39*%
%TO.N,unconnected-(U1-GPIO39-Pad27)*%
X146720000Y-56640000D03*
%TO.P,U1,28,GPIO40*%
%TO.N,unconnected-(U1-GPIO40-Pad28)*%
X144180000Y-56640000D03*
%TO.P,U1,29,GPIO41*%
%TO.N,unconnected-(U1-GPIO41-Pad29)*%
X141640000Y-56640000D03*
%TO.P,U1,30,GPIO42*%
%TO.N,unconnected-(U1-GPIO42-Pad30)*%
X139100000Y-56640000D03*
%TO.P,U1,31,GPIO45*%
%TO.N,Net-(U1-GPIO45)*%
X136560000Y-56640000D03*
%TO.P,U1,32,GPIO46*%
%TO.N,Net-(BUZZ1-POS)*%
X134020000Y-56640000D03*
%TO.P,U1,33,GPIO37*%
%TO.N,unconnected-(U1-GPIO37-Pad33)*%
X131480000Y-56640000D03*
%TO.P,U1,34,3V3*%
%TO.N,unconnected-(U1-3V3-Pad34)*%
X128940000Y-56640000D03*
%TO.P,U1,35,3V3*%
%TO.N,3V3*%
X126400000Y-56640000D03*
%TO.P,U1,36,GND*%
%TO.N,unconnected-(U1-GND-Pad36)*%
X123860000Y-56640000D03*
%TD*%
%TO.P,GPS1,1,VCC*%
%TO.N,3V3*%
X183510000Y-90690000D03*
%TO.P,GPS1,2,RX*%
%TO.N,Net-(GPS1-RX)*%
X183510000Y-93230000D03*
%TO.P,GPS1,3,TX*%
%TO.N,Net-(GPS1-TX)*%
X183510000Y-95770000D03*
%TO.P,GPS1,4,GND*%
%TO.N,GND*%
X183510000Y-98310000D03*
%TD*%
%TA.AperFunction,Conductor*%
%TO.N,GND*%
G36*
X208002506Y-52000601D02*
G01*
X208477773Y-52019754D01*
X208487700Y-52020554D01*
X208957445Y-52077591D01*
X208967266Y-52079188D01*
X209430894Y-52173838D01*
X209440560Y-52176221D01*
X209783364Y-52275515D01*
X209895047Y-52307865D01*
X209904519Y-52311027D01*
X210346929Y-52478810D01*
X210356116Y-52482724D01*
X210783595Y-52685566D01*
X210792438Y-52690207D01*
X211202210Y-52926789D01*
X211210628Y-52932112D01*
X211308981Y-53000000D01*
X211600041Y-53200905D01*
X211608024Y-53206904D01*
X211735643Y-53311101D01*
X211974542Y-53506157D01*
X211981995Y-53512759D01*
X212323254Y-53840542D01*
X212330171Y-53847744D01*
X212643924Y-54201899D01*
X212650240Y-54209634D01*
X212934486Y-54587896D01*
X212940159Y-54596114D01*
X213193053Y-54996035D01*
X213198045Y-55004683D01*
X213417928Y-55423634D01*
X213422209Y-55432656D01*
X213607666Y-55867940D01*
X213611208Y-55877277D01*
X213761046Y-56326098D01*
X213763824Y-56335690D01*
X213877059Y-56795099D01*
X213879056Y-56804883D01*
X213954954Y-57271903D01*
X213956158Y-57281816D01*
X213994232Y-57753444D01*
X213994634Y-57763422D01*
X213994634Y-58236577D01*
X213994232Y-58246555D01*
X213956158Y-58718183D01*
X213954954Y-58728096D01*
X213879056Y-59195116D01*
X213877059Y-59204900D01*
X213763824Y-59664309D01*
X213761046Y-59673901D01*
X213611208Y-60122722D01*
X213607666Y-60132059D01*
X213422209Y-60567343D01*
X213417928Y-60576365D01*
X213198045Y-60995316D01*
X213193053Y-61003964D01*
X212940159Y-61403885D01*
X212934486Y-61412103D01*
X212650240Y-61790365D01*
X212643924Y-61798100D01*
X212330171Y-62152255D01*
X212323254Y-62159457D01*
X211982006Y-62487230D01*
X211974531Y-62493852D01*
X211608024Y-62793095D01*
X211600041Y-62799094D01*
X211210639Y-63067880D01*
X211202199Y-63073217D01*
X210792437Y-63309792D01*
X210783595Y-63314433D01*
X210356116Y-63517275D01*
X210346929Y-63521189D01*
X209904519Y-63688972D01*
X209895047Y-63692134D01*
X209440575Y-63823774D01*
X209430879Y-63826164D01*
X208967284Y-63920808D01*
X208957427Y-63922410D01*
X208487713Y-63979443D01*
X208477760Y-63980246D01*
X208002506Y-63999399D01*
X207997513Y-63999500D01*
X198868872Y-63999500D01*
X198637772Y-64029926D01*
X198608884Y-64033730D01*
X198355581Y-64101602D01*
X198355571Y-64101605D01*
X198113309Y-64201953D01*
X198113299Y-64201958D01*
X197886196Y-64333075D01*
X197678148Y-64492718D01*
X197492718Y-64678148D01*
X197333075Y-64886196D01*
X197201958Y-65113299D01*
X197201953Y-65113309D01*
X197101605Y-65355571D01*
X197101602Y-65355581D01*
X197033730Y-65608885D01*
X196999500Y-65868872D01*
X196999500Y-107994586D01*
X196999028Y-108005394D01*
X196985260Y-108162753D01*
X196981507Y-108184038D01*
X196942030Y-108331369D01*
X196934637Y-108351681D01*
X196870177Y-108489915D01*
X196859370Y-108508633D01*
X196771880Y-108633582D01*
X196757986Y-108650140D01*
X196650140Y-108757986D01*
X196633582Y-108771880D01*
X196508633Y-108859370D01*
X196489915Y-108870177D01*
X196351681Y-108934637D01*
X196331369Y-108942030D01*
X196184038Y-108981507D01*
X196162753Y-108985260D01*
X196005395Y-108999028D01*
X195994587Y-108999500D01*
X115005413Y-108999500D01*
X114994605Y-108999028D01*
X114837246Y-108985260D01*
X114815961Y-108981507D01*
X114668630Y-108942030D01*
X114648318Y-108934637D01*
X114510084Y-108870177D01*
X114491366Y-108859370D01*
X114366417Y-108771880D01*
X114349859Y-108757986D01*
X114242013Y-108650140D01*
X114228119Y-108633582D01*
X114140629Y-108508633D01*
X114129822Y-108489915D01*
X114065362Y-108351681D01*
X114057969Y-108331369D01*
X114018492Y-108184038D01*
X114014739Y-108162752D01*
X114000972Y-108005393D01*
X114000500Y-107994586D01*
X114000500Y-104499994D01*
X115494556Y-104499994D01*
X115494556Y-104500005D01*
X115514310Y-104814004D01*
X115514311Y-104814011D01*
X115573270Y-105123083D01*
X115670497Y-105422316D01*
X115670499Y-105422321D01*
X115804461Y-105707003D01*
X115804464Y-105707009D01*
X115973051Y-105972661D01*
X115973054Y-105972665D01*
X116173606Y-106215090D01*
X116173608Y-106215092D01*
X116402968Y-106430476D01*
X116402978Y-106430484D01*
X116657504Y-106615408D01*
X116657509Y-106615410D01*
X116657516Y-106615416D01*
X116933234Y-106766994D01*
X116933239Y-106766996D01*
X116933241Y-106766997D01*
X116933242Y-106766998D01*
X117225771Y-106882818D01*
X117225774Y-106882819D01*
X117530523Y-106961065D01*
X117530527Y-106961066D01*
X117596010Y-106969338D01*
X117842670Y-107000499D01*
X117842679Y-107000499D01*
X117842682Y-107000500D01*
X117842684Y-107000500D01*
X118157316Y-107000500D01*
X118157318Y-107000500D01*
X118157321Y-107000499D01*
X118157329Y-107000499D01*
X118343593Y-106976968D01*
X118469473Y-106961066D01*
X118774225Y-106882819D01*
X118774228Y-106882818D01*
X119066757Y-106766998D01*
X119066758Y-106766997D01*
X119066756Y-106766997D01*
X119066766Y-106766994D01*
X119342484Y-106615416D01*
X119597030Y-106430478D01*
X119826390Y-106215094D01*
X120026947Y-105972663D01*
X120195537Y-105707007D01*
X120329503Y-105422315D01*
X120426731Y-105123079D01*
X120485688Y-104814015D01*
X120505444Y-104500000D01*
X120505444Y-104499994D01*
X189994556Y-104499994D01*
X189994556Y-104500005D01*
X190014310Y-104814004D01*
X190014311Y-104814011D01*
X190073270Y-105123083D01*
X190170497Y-105422316D01*
X190170499Y-105422321D01*
X190304461Y-105707003D01*
X190304464Y-105707009D01*
X190473051Y-105972661D01*
X190473054Y-105972665D01*
X190673606Y-106215090D01*
X190673608Y-106215092D01*
X190902968Y-106430476D01*
X190902978Y-106430484D01*
X191157504Y-106615408D01*
X191157509Y-106615410D01*
X191157516Y-106615416D01*
X191433234Y-106766994D01*
X191433239Y-106766996D01*
X191433241Y-106766997D01*
X191433242Y-106766998D01*
X191725771Y-106882818D01*
X191725774Y-106882819D01*
X192030523Y-106961065D01*
X192030527Y-106961066D01*
X192096010Y-106969338D01*
X192342670Y-107000499D01*
X192342679Y-107000499D01*
X192342682Y-107000500D01*
X192342684Y-107000500D01*
X192657316Y-107000500D01*
X192657318Y-107000500D01*
X192657321Y-107000499D01*
X192657329Y-107000499D01*
X192843593Y-106976968D01*
X192969473Y-106961066D01*
X193274225Y-106882819D01*
X193274228Y-106882818D01*
X193566757Y-106766998D01*
X193566758Y-106766997D01*
X193566756Y-106766997D01*
X193566766Y-106766994D01*
X193842484Y-106615416D01*
X194097030Y-106430478D01*
X194326390Y-106215094D01*
X194526947Y-105972663D01*
X194695537Y-105707007D01*
X194829503Y-105422315D01*
X194926731Y-105123079D01*
X194985688Y-104814015D01*
X195005444Y-104500000D01*
X194989916Y-104253190D01*
X194985689Y-104185995D01*
X194985688Y-104185988D01*
X194985688Y-104185985D01*
X194926731Y-103876921D01*
X194829503Y-103577685D01*
X194695537Y-103292993D01*
X194526947Y-103027337D01*
X194508983Y-103005622D01*
X194326393Y-102784909D01*
X194326391Y-102784907D01*
X194097031Y-102569523D01*
X194097021Y-102569515D01*
X193842495Y-102384591D01*
X193842488Y-102384586D01*
X193842484Y-102384584D01*
X193566766Y-102233006D01*
X193566763Y-102233004D01*
X193566758Y-102233002D01*
X193566757Y-102233001D01*
X193274228Y-102117181D01*
X193274225Y-102117180D01*
X192969476Y-102038934D01*
X192969463Y-102038932D01*
X192657329Y-101999500D01*
X192657318Y-101999500D01*
X192342682Y-101999500D01*
X192342670Y-101999500D01*
X192030536Y-102038932D01*
X192030523Y-102038934D01*
X191725774Y-102117180D01*
X191725771Y-102117181D01*
X191433242Y-102233001D01*
X191433241Y-102233002D01*
X191157516Y-102384584D01*
X191157504Y-102384591D01*
X190902978Y-102569515D01*
X190902968Y-102569523D01*
X190673608Y-102784907D01*
X190673606Y-102784909D01*
X190473054Y-103027334D01*
X190473051Y-103027338D01*
X190304464Y-103292990D01*
X190304461Y-103292996D01*
X190170499Y-103577678D01*
X190170497Y-103577683D01*
X190073270Y-103876916D01*
X190014311Y-104185988D01*
X190014310Y-104185995D01*
X189994556Y-104499994D01*
X120505444Y-104499994D01*
X120489916Y-104253190D01*
X120485689Y-104185995D01*
X120485688Y-104185988D01*
X120485688Y-104185985D01*
X120426731Y-103876921D01*
X120329503Y-103577685D01*
X120195537Y-103292993D01*
X120026947Y-103027337D01*
X120008983Y-103005622D01*
X119826393Y-102784909D01*
X119826391Y-102784907D01*
X119597031Y-102569523D01*
X119597021Y-102569515D01*
X119342495Y-102384591D01*
X119342488Y-102384586D01*
X119342484Y-102384584D01*
X119066766Y-102233006D01*
X119066763Y-102233004D01*
X119066758Y-102233002D01*
X119066757Y-102233001D01*
X118774228Y-102117181D01*
X118774225Y-102117180D01*
X118469476Y-102038934D01*
X118469463Y-102038932D01*
X118157329Y-101999500D01*
X118157318Y-101999500D01*
X117842682Y-101999500D01*
X117842670Y-101999500D01*
X117530536Y-102038932D01*
X117530523Y-102038934D01*
X117225774Y-102117180D01*
X117225771Y-102117181D01*
X116933242Y-102233001D01*
X116933241Y-102233002D01*
X116657516Y-102384584D01*
X116657504Y-102384591D01*
X116402978Y-102569515D01*
X116402968Y-102569523D01*
X116173608Y-102784907D01*
X116173606Y-102784909D01*
X115973054Y-103027334D01*
X115973051Y-103027338D01*
X115804464Y-103292990D01*
X115804461Y-103292996D01*
X115670499Y-103577678D01*
X115670497Y-103577683D01*
X115573270Y-103876916D01*
X115514311Y-104185988D01*
X115514310Y-104185995D01*
X115494556Y-104499994D01*
X114000500Y-104499994D01*
X114000500Y-90689999D01*
X182154341Y-90689999D01*
X182154341Y-90690000D01*
X182174936Y-90925403D01*
X182174938Y-90925413D01*
X182236094Y-91153655D01*
X182236096Y-91153659D01*
X182236097Y-91153663D01*
X182335965Y-91367830D01*
X182335967Y-91367834D01*
X182471501Y-91561395D01*
X182471506Y-91561402D01*
X182638597Y-91728493D01*
X182638603Y-91728498D01*
X182824158Y-91858425D01*
X182867783Y-91913002D01*
X182874977Y-91982500D01*
X182843454Y-92044855D01*
X182824158Y-92061575D01*
X182638597Y-92191505D01*
X182471505Y-92358597D01*
X182335965Y-92552169D01*
X182335964Y-92552171D01*
X182236098Y-92766335D01*
X182236094Y-92766344D01*
X182174938Y-92994586D01*
X182174936Y-92994596D01*
X182154341Y-93229999D01*
X182154341Y-93230000D01*
X182174936Y-93465403D01*
X182174938Y-93465413D01*
X182236094Y-93693655D01*
X182236096Y-93693659D01*
X182236097Y-93693663D01*
X182335965Y-93907830D01*
X182335967Y-93907834D01*
X182471501Y-94101395D01*
X182471506Y-94101402D01*
X182638597Y-94268493D01*
X182638603Y-94268498D01*
X182824158Y-94398425D01*
X182867783Y-94453002D01*
X182874977Y-94522500D01*
X182843454Y-94584855D01*
X182824158Y-94601575D01*
X182638597Y-94731505D01*
X182471505Y-94898597D01*
X182335965Y-95092169D01*
X182335964Y-95092171D01*
X182236098Y-95306335D01*
X182236094Y-95306344D01*
X182174938Y-95534586D01*
X182174936Y-95534596D01*
X182154341Y-95769999D01*
X182154341Y-95770000D01*
X182174936Y-96005403D01*
X182174938Y-96005413D01*
X182236094Y-96233655D01*
X182236096Y-96233659D01*
X182236097Y-96233663D01*
X182335965Y-96447830D01*
X182335967Y-96447834D01*
X182444281Y-96602521D01*
X182471505Y-96641401D01*
X182638599Y-96808495D01*
X182824594Y-96938730D01*
X182868218Y-96993307D01*
X182875411Y-97062806D01*
X182843889Y-97125160D01*
X182824593Y-97141880D01*
X182748626Y-97195072D01*
X182748625Y-97195072D01*
X183380590Y-97827037D01*
X183317007Y-97844075D01*
X183202993Y-97909901D01*
X183109901Y-98002993D01*
X183044075Y-98117007D01*
X183027037Y-98180589D01*
X182395073Y-97548625D01*
X182395072Y-97548625D01*
X182336401Y-97632419D01*
X182236570Y-97846507D01*
X182236566Y-97846516D01*
X182175432Y-98074673D01*
X182175430Y-98074684D01*
X182154843Y-98309998D01*
X182154843Y-98310001D01*
X182175430Y-98545315D01*
X182175432Y-98545326D01*
X182236566Y-98773483D01*
X182236570Y-98773492D01*
X182336400Y-98987579D01*
X182336402Y-98987583D01*
X182395072Y-99071373D01*
X182395073Y-99071373D01*
X183027037Y-98439409D01*
X183044075Y-98502993D01*
X183109901Y-98617007D01*
X183202993Y-98710099D01*
X183317007Y-98775925D01*
X183380590Y-98792962D01*
X182748625Y-99424925D01*
X182832421Y-99483599D01*
X183046507Y-99583429D01*
X183046516Y-99583433D01*
X183274673Y-99644567D01*
X183274684Y-99644569D01*
X183509998Y-99665157D01*
X183510002Y-99665157D01*
X183745315Y-99644569D01*
X183745326Y-99644567D01*
X183973483Y-99583433D01*
X183973492Y-99583429D01*
X184187578Y-99483600D01*
X184187582Y-99483598D01*
X184271373Y-99424926D01*
X184271373Y-99424925D01*
X183639409Y-98792962D01*
X183702993Y-98775925D01*
X183817007Y-98710099D01*
X183910099Y-98617007D01*
X183975925Y-98502993D01*
X183992962Y-98439410D01*
X184624925Y-99071373D01*
X184624926Y-99071373D01*
X184683598Y-98987582D01*
X184683600Y-98987578D01*
X184783429Y-98773492D01*
X184783433Y-98773483D01*
X184844567Y-98545326D01*
X184844569Y-98545315D01*
X184865157Y-98310001D01*
X184865157Y-98309998D01*
X184844569Y-98074684D01*
X184844567Y-98074673D01*
X184783433Y-97846516D01*
X184783429Y-97846507D01*
X184683600Y-97632423D01*
X184683599Y-97632421D01*
X184624925Y-97548626D01*
X184624925Y-97548625D01*
X183992962Y-98180589D01*
X183975925Y-98117007D01*
X183910099Y-98002993D01*
X183817007Y-97909901D01*
X183702993Y-97844075D01*
X183639410Y-97827037D01*
X184271373Y-97195073D01*
X184271373Y-97195072D01*
X184195405Y-97141880D01*
X184151780Y-97087304D01*
X184144586Y-97017805D01*
X184176108Y-96955451D01*
X184195399Y-96938734D01*
X184381401Y-96808495D01*
X184548495Y-96641401D01*
X184684035Y-96447830D01*
X184783903Y-96233663D01*
X184845063Y-96005408D01*
X184865659Y-95770000D01*
X184845063Y-95534592D01*
X184783903Y-95306337D01*
X184684035Y-95092171D01*
X184548495Y-94898599D01*
X184548494Y-94898597D01*
X184381402Y-94731506D01*
X184381396Y-94731501D01*
X184195842Y-94601575D01*
X184152217Y-94546998D01*
X184145023Y-94477500D01*
X184176546Y-94415145D01*
X184195842Y-94398425D01*
X184218026Y-94382891D01*
X184381401Y-94268495D01*
X184548495Y-94101401D01*
X184684035Y-93907830D01*
X184783903Y-93693663D01*
X184845063Y-93465408D01*
X184865659Y-93230000D01*
X184845063Y-92994592D01*
X184783903Y-92766337D01*
X184684035Y-92552171D01*
X184548495Y-92358599D01*
X184548494Y-92358597D01*
X184381402Y-92191506D01*
X184381396Y-92191501D01*
X184195842Y-92061575D01*
X184152217Y-92006998D01*
X184145023Y-91937500D01*
X184176546Y-91875145D01*
X184195842Y-91858425D01*
X184218026Y-91842891D01*
X184381401Y-91728495D01*
X184548495Y-91561401D01*
X184684035Y-91367830D01*
X184783903Y-91153663D01*
X184845063Y-90925408D01*
X184865659Y-90690000D01*
X184845063Y-90454592D01*
X184783903Y-90226337D01*
X184684035Y-90012171D01*
X184548495Y-89818599D01*
X184548494Y-89818597D01*
X184381402Y-89651506D01*
X184381395Y-89651501D01*
X184187834Y-89515967D01*
X184187830Y-89515965D01*
X184187828Y-89515964D01*
X183973663Y-89416097D01*
X183973659Y-89416096D01*
X183973655Y-89416094D01*
X183745413Y-89354938D01*
X183745403Y-89354936D01*
X183510001Y-89334341D01*
X183509999Y-89334341D01*
X183274596Y-89354936D01*
X183274586Y-89354938D01*
X183046344Y-89416094D01*
X183046335Y-89416098D01*
X182832171Y-89515964D01*
X182832169Y-89515965D01*
X182638597Y-89651505D01*
X182471505Y-89818597D01*
X182335965Y-90012169D01*
X182335964Y-90012171D01*
X182236098Y-90226335D01*
X182236094Y-90226344D01*
X182174938Y-90454586D01*
X182174936Y-90454596D01*
X182154341Y-90689999D01*
X114000500Y-90689999D01*
X114000500Y-79499998D01*
X122504843Y-79499998D01*
X122504843Y-79500001D01*
X122525430Y-79735315D01*
X122525432Y-79735326D01*
X122586566Y-79963483D01*
X122586570Y-79963492D01*
X122686400Y-80177579D01*
X122686402Y-80177583D01*
X122745072Y-80261373D01*
X122745073Y-80261373D01*
X123377037Y-79629409D01*
X123394075Y-79692993D01*
X123459901Y-79807007D01*
X123552993Y-79900099D01*
X123667007Y-79965925D01*
X123730590Y-79982962D01*
X123098625Y-80614925D01*
X123182421Y-80673599D01*
X123396507Y-80773429D01*
X123396516Y-80773433D01*
X123624673Y-80834567D01*
X123624684Y-80834569D01*
X123859998Y-80855157D01*
X123860002Y-80855157D01*
X124095315Y-80834569D01*
X124095326Y-80834567D01*
X124323483Y-80773433D01*
X124323492Y-80773429D01*
X124537578Y-80673600D01*
X124537582Y-80673598D01*
X124621373Y-80614926D01*
X124621373Y-80614925D01*
X123989409Y-79982962D01*
X124052993Y-79965925D01*
X124167007Y-79900099D01*
X124260099Y-79807007D01*
X124325925Y-79692993D01*
X124342962Y-79629410D01*
X124974925Y-80261373D01*
X125028119Y-80185405D01*
X125082696Y-80141781D01*
X125152195Y-80134588D01*
X125214549Y-80166110D01*
X125231269Y-80185405D01*
X125361505Y-80371401D01*
X125528599Y-80538495D01*
X125625384Y-80606265D01*
X125722165Y-80674032D01*
X125722167Y-80674033D01*
X125722170Y-80674035D01*
X125936337Y-80773903D01*
X126164592Y-80835063D01*
X126352918Y-80851539D01*
X126399999Y-80855659D01*
X126400000Y-80855659D01*
X126400001Y-80855659D01*
X126439234Y-80852226D01*
X126635408Y-80835063D01*
X126863663Y-80773903D01*
X127077830Y-80674035D01*
X127271401Y-80538495D01*
X127438495Y-80371401D01*
X127568425Y-80185842D01*
X127623002Y-80142217D01*
X127692500Y-80135023D01*
X127754855Y-80166546D01*
X127771575Y-80185842D01*
X127901500Y-80371395D01*
X127901505Y-80371401D01*
X128068599Y-80538495D01*
X128165384Y-80606265D01*
X128262165Y-80674032D01*
X128262167Y-80674033D01*
X128262170Y-80674035D01*
X128476337Y-80773903D01*
X128704592Y-80835063D01*
X128892918Y-80851539D01*
X128939999Y-80855659D01*
X128940000Y-80855659D01*
X128940001Y-80855659D01*
X128979234Y-80852226D01*
X129175408Y-80835063D01*
X129403663Y-80773903D01*
X129617830Y-80674035D01*
X129811401Y-80538495D01*
X129978495Y-80371401D01*
X130108425Y-80185842D01*
X130163002Y-80142217D01*
X130232500Y-80135023D01*
X130294855Y-80166546D01*
X130311575Y-80185842D01*
X130441500Y-80371395D01*
X130441505Y-80371401D01*
X130608599Y-80538495D01*
X130705384Y-80606265D01*
X130802165Y-80674032D01*
X130802167Y-80674033D01*
X130802170Y-80674035D01*
X131016337Y-80773903D01*
X131244592Y-80835063D01*
X131432918Y-80851539D01*
X131479999Y-80855659D01*
X131480000Y-80855659D01*
X131480001Y-80855659D01*
X131519234Y-80852226D01*
X131715408Y-80835063D01*
X131943663Y-80773903D01*
X132157830Y-80674035D01*
X132351401Y-80538495D01*
X132518495Y-80371401D01*
X132648425Y-80185842D01*
X132703002Y-80142217D01*
X132772500Y-80135023D01*
X132834855Y-80166546D01*
X132851575Y-80185842D01*
X132981500Y-80371395D01*
X132981505Y-80371401D01*
X133148599Y-80538495D01*
X133245384Y-80606265D01*
X133342165Y-80674032D01*
X133342167Y-80674033D01*
X133342170Y-80674035D01*
X133556337Y-80773903D01*
X133784592Y-80835063D01*
X133972918Y-80851539D01*
X134019999Y-80855659D01*
X134020000Y-80855659D01*
X134020001Y-80855659D01*
X134059234Y-80852226D01*
X134255408Y-80835063D01*
X134483663Y-80773903D01*
X134697830Y-80674035D01*
X134891401Y-80538495D01*
X135058495Y-80371401D01*
X135188425Y-80185842D01*
X135243002Y-80142217D01*
X135312500Y-80135023D01*
X135374855Y-80166546D01*
X135391575Y-80185842D01*
X135521500Y-80371395D01*
X135521505Y-80371401D01*
X135688599Y-80538495D01*
X135785384Y-80606265D01*
X135882165Y-80674032D01*
X135882167Y-80674033D01*
X135882170Y-80674035D01*
X136096337Y-80773903D01*
X136324592Y-80835063D01*
X136512918Y-80851539D01*
X136559999Y-80855659D01*
X136560000Y-80855659D01*
X136560001Y-80855659D01*
X136599234Y-80852226D01*
X136795408Y-80835063D01*
X137023663Y-80773903D01*
X137237830Y-80674035D01*
X137431401Y-80538495D01*
X137598495Y-80371401D01*
X137728425Y-80185842D01*
X137783002Y-80142217D01*
X137852500Y-80135023D01*
X137914855Y-80166546D01*
X137931575Y-80185842D01*
X138061500Y-80371395D01*
X138061505Y-80371401D01*
X138228599Y-80538495D01*
X138325384Y-80606265D01*
X138422165Y-80674032D01*
X138422167Y-80674033D01*
X138422170Y-80674035D01*
X138636337Y-80773903D01*
X138864592Y-80835063D01*
X139052918Y-80851539D01*
X139099999Y-80855659D01*
X139100000Y-80855659D01*
X139100001Y-80855659D01*
X139139234Y-80852226D01*
X139335408Y-80835063D01*
X139563663Y-80773903D01*
X139777830Y-80674035D01*
X139971401Y-80538495D01*
X140138495Y-80371401D01*
X140268425Y-80185842D01*
X140323002Y-80142217D01*
X140392500Y-80135023D01*
X140454855Y-80166546D01*
X140471575Y-80185842D01*
X140601500Y-80371395D01*
X140601505Y-80371401D01*
X140768599Y-80538495D01*
X140865384Y-80606265D01*
X140962165Y-80674032D01*
X140962167Y-80674033D01*
X140962170Y-80674035D01*
X141176337Y-80773903D01*
X141404592Y-80835063D01*
X141592918Y-80851539D01*
X141639999Y-80855659D01*
X141640000Y-80855659D01*
X141640001Y-80855659D01*
X141679234Y-80852226D01*
X141875408Y-80835063D01*
X142103663Y-80773903D01*
X142317830Y-80674035D01*
X142511401Y-80538495D01*
X142678495Y-80371401D01*
X142808425Y-80185842D01*
X142863002Y-80142217D01*
X142932500Y-80135023D01*
X142994855Y-80166546D01*
X143011575Y-80185842D01*
X143141500Y-80371395D01*
X143141505Y-80371401D01*
X143308599Y-80538495D01*
X143405384Y-80606265D01*
X143502165Y-80674032D01*
X143502167Y-80674033D01*
X143502170Y-80674035D01*
X143716337Y-80773903D01*
X143944592Y-80835063D01*
X144132918Y-80851539D01*
X144179999Y-80855659D01*
X144180000Y-80855659D01*
X144180001Y-80855659D01*
X144219234Y-80852226D01*
X144415408Y-80835063D01*
X144643663Y-80773903D01*
X144857830Y-80674035D01*
X145051401Y-80538495D01*
X145218495Y-80371401D01*
X145348425Y-80185842D01*
X145403002Y-80142217D01*
X145472500Y-80135023D01*
X145534855Y-80166546D01*
X145551575Y-80185842D01*
X145681500Y-80371395D01*
X145681505Y-80371401D01*
X145848599Y-80538495D01*
X145945384Y-80606265D01*
X146042165Y-80674032D01*
X146042167Y-80674033D01*
X146042170Y-80674035D01*
X146256337Y-80773903D01*
X146484592Y-80835063D01*
X146672918Y-80851539D01*
X146719999Y-80855659D01*
X146720000Y-80855659D01*
X146720001Y-80855659D01*
X146759234Y-80852226D01*
X146955408Y-80835063D01*
X147183663Y-80773903D01*
X147397830Y-80674035D01*
X147591401Y-80538495D01*
X147758495Y-80371401D01*
X147888425Y-80185842D01*
X147943002Y-80142217D01*
X148012500Y-80135023D01*
X148074855Y-80166546D01*
X148091575Y-80185842D01*
X148221500Y-80371395D01*
X148221505Y-80371401D01*
X148388599Y-80538495D01*
X148485384Y-80606265D01*
X148582165Y-80674032D01*
X148582167Y-80674033D01*
X148582170Y-80674035D01*
X148796337Y-80773903D01*
X149024592Y-80835063D01*
X149212918Y-80851539D01*
X149259999Y-80855659D01*
X149260000Y-80855659D01*
X149260001Y-80855659D01*
X149299234Y-80852226D01*
X149495408Y-80835063D01*
X149723663Y-80773903D01*
X149937830Y-80674035D01*
X150131401Y-80538495D01*
X150298495Y-80371401D01*
X150428425Y-80185842D01*
X150483002Y-80142217D01*
X150552500Y-80135023D01*
X150614855Y-80166546D01*
X150631575Y-80185842D01*
X150761500Y-80371395D01*
X150761505Y-80371401D01*
X150928599Y-80538495D01*
X151025384Y-80606265D01*
X151122165Y-80674032D01*
X151122167Y-80674033D01*
X151122170Y-80674035D01*
X151336337Y-80773903D01*
X151564592Y-80835063D01*
X151752918Y-80851539D01*
X151799999Y-80855659D01*
X151800000Y-80855659D01*
X151800001Y-80855659D01*
X151839234Y-80852226D01*
X152035408Y-80835063D01*
X152263663Y-80773903D01*
X152477830Y-80674035D01*
X152671401Y-80538495D01*
X152838495Y-80371401D01*
X152968425Y-80185842D01*
X153023002Y-80142217D01*
X153092500Y-80135023D01*
X153154855Y-80166546D01*
X153171575Y-80185842D01*
X153301500Y-80371395D01*
X153301505Y-80371401D01*
X153468599Y-80538495D01*
X153565384Y-80606265D01*
X153662165Y-80674032D01*
X153662167Y-80674033D01*
X153662170Y-80674035D01*
X153876337Y-80773903D01*
X154104592Y-80835063D01*
X154292918Y-80851539D01*
X154339999Y-80855659D01*
X154340000Y-80855659D01*
X154340001Y-80855659D01*
X154379234Y-80852226D01*
X154575408Y-80835063D01*
X154803663Y-80773903D01*
X155017830Y-80674035D01*
X155211401Y-80538495D01*
X155378495Y-80371401D01*
X155508425Y-80185842D01*
X155563002Y-80142217D01*
X155632500Y-80135023D01*
X155694855Y-80166546D01*
X155711575Y-80185842D01*
X155841500Y-80371395D01*
X155841505Y-80371401D01*
X156008599Y-80538495D01*
X156105384Y-80606265D01*
X156202165Y-80674032D01*
X156202167Y-80674033D01*
X156202170Y-80674035D01*
X156416337Y-80773903D01*
X156644592Y-80835063D01*
X156832918Y-80851539D01*
X156879999Y-80855659D01*
X156880000Y-80855659D01*
X156880001Y-80855659D01*
X156919234Y-80852226D01*
X157115408Y-80835063D01*
X157343663Y-80773903D01*
X157557830Y-80674035D01*
X157751401Y-80538495D01*
X157918495Y-80371401D01*
X158048425Y-80185842D01*
X158103002Y-80142217D01*
X158172500Y-80135023D01*
X158234855Y-80166546D01*
X158251575Y-80185842D01*
X158381500Y-80371395D01*
X158381505Y-80371401D01*
X158548599Y-80538495D01*
X158645384Y-80606265D01*
X158742165Y-80674032D01*
X158742167Y-80674033D01*
X158742170Y-80674035D01*
X158956337Y-80773903D01*
X159184592Y-80835063D01*
X159372918Y-80851539D01*
X159419999Y-80855659D01*
X159420000Y-80855659D01*
X159420001Y-80855659D01*
X159459234Y-80852226D01*
X159655408Y-80835063D01*
X159883663Y-80773903D01*
X160097830Y-80674035D01*
X160291401Y-80538495D01*
X160458495Y-80371401D01*
X160588425Y-80185842D01*
X160643002Y-80142217D01*
X160712500Y-80135023D01*
X160774855Y-80166546D01*
X160791575Y-80185842D01*
X160921500Y-80371395D01*
X160921505Y-80371401D01*
X161088599Y-80538495D01*
X161185384Y-80606265D01*
X161282165Y-80674032D01*
X161282167Y-80674033D01*
X161282170Y-80674035D01*
X161496337Y-80773903D01*
X161724592Y-80835063D01*
X161912918Y-80851539D01*
X161959999Y-80855659D01*
X161960000Y-80855659D01*
X161960001Y-80855659D01*
X161999234Y-80852226D01*
X162195408Y-80835063D01*
X162423663Y-80773903D01*
X162637830Y-80674035D01*
X162831401Y-80538495D01*
X162998495Y-80371401D01*
X163128425Y-80185842D01*
X163183002Y-80142217D01*
X163252500Y-80135023D01*
X163314855Y-80166546D01*
X163331575Y-80185842D01*
X163461500Y-80371395D01*
X163461505Y-80371401D01*
X163628599Y-80538495D01*
X163725384Y-80606265D01*
X163822165Y-80674032D01*
X163822167Y-80674033D01*
X163822170Y-80674035D01*
X164036337Y-80773903D01*
X164264592Y-80835063D01*
X164452918Y-80851539D01*
X164499999Y-80855659D01*
X164500000Y-80855659D01*
X164500001Y-80855659D01*
X164539234Y-80852226D01*
X164735408Y-80835063D01*
X164963663Y-80773903D01*
X165177830Y-80674035D01*
X165371401Y-80538495D01*
X165538495Y-80371401D01*
X165668425Y-80185842D01*
X165723002Y-80142217D01*
X165792500Y-80135023D01*
X165854855Y-80166546D01*
X165871575Y-80185842D01*
X166001500Y-80371395D01*
X166001505Y-80371401D01*
X166168599Y-80538495D01*
X166265384Y-80606265D01*
X166362165Y-80674032D01*
X166362167Y-80674033D01*
X166362170Y-80674035D01*
X166576337Y-80773903D01*
X166804592Y-80835063D01*
X166992918Y-80851539D01*
X167039999Y-80855659D01*
X167040000Y-80855659D01*
X167040001Y-80855659D01*
X167079234Y-80852226D01*
X167275408Y-80835063D01*
X167503663Y-80773903D01*
X167717830Y-80674035D01*
X167911401Y-80538495D01*
X168078495Y-80371401D01*
X168214035Y-80177830D01*
X168222350Y-80159999D01*
X188904341Y-80159999D01*
X188904341Y-80160000D01*
X188924936Y-80395403D01*
X188924938Y-80395413D01*
X188986094Y-80623655D01*
X188986096Y-80623659D01*
X188986097Y-80623663D01*
X189009586Y-80674035D01*
X189085965Y-80837830D01*
X189085967Y-80837834D01*
X189194281Y-80992521D01*
X189221501Y-81031396D01*
X189221506Y-81031402D01*
X189388597Y-81198493D01*
X189388603Y-81198498D01*
X189574158Y-81328425D01*
X189617783Y-81383002D01*
X189624977Y-81452500D01*
X189593454Y-81514855D01*
X189574158Y-81531575D01*
X189388597Y-81661505D01*
X189221505Y-81828597D01*
X189085965Y-82022169D01*
X189085964Y-82022171D01*
X188986098Y-82236335D01*
X188986094Y-82236344D01*
X188924938Y-82464586D01*
X188924936Y-82464596D01*
X188904341Y-82699999D01*
X188904341Y-82700000D01*
X188924936Y-82935403D01*
X188924938Y-82935413D01*
X188986094Y-83163655D01*
X188986096Y-83163659D01*
X188986097Y-83163663D01*
X188990000Y-83172032D01*
X189085965Y-83377830D01*
X189085967Y-83377834D01*
X189194281Y-83532521D01*
X189221505Y-83571401D01*
X189388599Y-83738495D01*
X189485384Y-83806265D01*
X189582165Y-83874032D01*
X189582167Y-83874033D01*
X189582170Y-83874035D01*
X189796337Y-83973903D01*
X190024592Y-84035063D01*
X190212918Y-84051539D01*
X190259999Y-84055659D01*
X190260000Y-84055659D01*
X190260001Y-84055659D01*
X190299234Y-84052226D01*
X190495408Y-84035063D01*
X190723663Y-83973903D01*
X190937830Y-83874035D01*
X191131401Y-83738495D01*
X191298495Y-83571401D01*
X191428425Y-83385842D01*
X191483002Y-83342217D01*
X191552500Y-83335023D01*
X191614855Y-83366546D01*
X191631575Y-83385842D01*
X191761500Y-83571395D01*
X191761505Y-83571401D01*
X191928599Y-83738495D01*
X192025384Y-83806265D01*
X192122165Y-83874032D01*
X192122167Y-83874033D01*
X192122170Y-83874035D01*
X192336337Y-83973903D01*
X192564592Y-84035063D01*
X192752918Y-84051539D01*
X192799999Y-84055659D01*
X192800000Y-84055659D01*
X192800001Y-84055659D01*
X192839234Y-84052226D01*
X193035408Y-84035063D01*
X193263663Y-83973903D01*
X193477830Y-83874035D01*
X193671401Y-83738495D01*
X193838495Y-83571401D01*
X193974035Y-83377830D01*
X194073903Y-83163663D01*
X194135063Y-82935408D01*
X194155659Y-82700000D01*
X194135063Y-82464592D01*
X194073903Y-82236337D01*
X193974035Y-82022171D01*
X193968425Y-82014158D01*
X193838494Y-81828597D01*
X193671402Y-81661506D01*
X193671396Y-81661501D01*
X193485842Y-81531575D01*
X193442217Y-81476998D01*
X193435023Y-81407500D01*
X193466546Y-81345145D01*
X193485842Y-81328425D01*
X193508026Y-81312891D01*
X193671401Y-81198495D01*
X193838495Y-81031401D01*
X193974035Y-80837830D01*
X194073903Y-80623663D01*
X194135063Y-80395408D01*
X194155659Y-80160000D01*
X194135063Y-79924592D01*
X194073903Y-79696337D01*
X193974035Y-79482171D01*
X193968424Y-79474158D01*
X193838496Y-79288600D01*
X193814482Y-79264586D01*
X193716567Y-79166671D01*
X193683084Y-79105351D01*
X193688068Y-79035659D01*
X193729939Y-78979725D01*
X193760915Y-78962810D01*
X193892331Y-78913796D01*
X194007546Y-78827546D01*
X194093796Y-78712331D01*
X194144091Y-78577483D01*
X194150500Y-78517873D01*
X194150499Y-76722128D01*
X194144091Y-76662517D01*
X194143002Y-76659598D01*
X194093797Y-76527671D01*
X194093793Y-76527664D01*
X194007547Y-76412455D01*
X194007544Y-76412452D01*
X193892335Y-76326206D01*
X193892328Y-76326202D01*
X193757482Y-76275908D01*
X193757483Y-76275908D01*
X193697883Y-76269501D01*
X193697881Y-76269500D01*
X193697873Y-76269500D01*
X193697864Y-76269500D01*
X191902129Y-76269500D01*
X191902123Y-76269501D01*
X191842516Y-76275908D01*
X191707671Y-76326202D01*
X191707664Y-76326206D01*
X191592455Y-76412452D01*
X191592452Y-76412455D01*
X191506206Y-76527664D01*
X191506202Y-76527671D01*
X191456997Y-76659598D01*
X191415126Y-76715532D01*
X191349661Y-76739949D01*
X191281388Y-76725097D01*
X191253134Y-76703946D01*
X191131082Y-76581894D01*
X190937578Y-76446399D01*
X190723492Y-76346570D01*
X190723486Y-76346567D01*
X190510000Y-76289364D01*
X190510000Y-77186988D01*
X190452993Y-77154075D01*
X190325826Y-77120000D01*
X190194174Y-77120000D01*
X190067007Y-77154075D01*
X190010000Y-77186988D01*
X190010000Y-76289364D01*
X190009999Y-76289364D01*
X189796513Y-76346567D01*
X189796507Y-76346570D01*
X189582422Y-76446399D01*
X189582420Y-76446400D01*
X189388926Y-76581886D01*
X189388920Y-76581891D01*
X189221891Y-76748920D01*
X189221886Y-76748926D01*
X189086400Y-76942420D01*
X189086399Y-76942422D01*
X188986570Y-77156507D01*
X188986567Y-77156513D01*
X188929364Y-77369999D01*
X188929364Y-77370000D01*
X189826988Y-77370000D01*
X189794075Y-77427007D01*
X189760000Y-77554174D01*
X189760000Y-77685826D01*
X189794075Y-77812993D01*
X189826988Y-77870000D01*
X188929364Y-77870000D01*
X188986567Y-78083486D01*
X188986570Y-78083492D01*
X189086399Y-78297578D01*
X189221894Y-78491082D01*
X189388917Y-78658105D01*
X189574595Y-78788119D01*
X189618219Y-78842696D01*
X189625412Y-78912195D01*
X189593890Y-78974549D01*
X189574595Y-78991269D01*
X189388594Y-79121508D01*
X189221505Y-79288597D01*
X189085965Y-79482169D01*
X189085964Y-79482171D01*
X188986098Y-79696335D01*
X188986094Y-79696344D01*
X188924938Y-79924586D01*
X188924936Y-79924596D01*
X188904341Y-80159999D01*
X168222350Y-80159999D01*
X168313903Y-79963663D01*
X168375063Y-79735408D01*
X168395659Y-79500000D01*
X168375063Y-79264592D01*
X168313903Y-79036337D01*
X168214035Y-78822171D01*
X168208731Y-78814595D01*
X168078494Y-78628597D01*
X167911402Y-78461506D01*
X167911395Y-78461501D01*
X167717834Y-78325967D01*
X167717830Y-78325965D01*
X167656954Y-78297578D01*
X167503663Y-78226097D01*
X167503659Y-78226096D01*
X167503655Y-78226094D01*
X167275413Y-78164938D01*
X167275403Y-78164936D01*
X167040001Y-78144341D01*
X167039999Y-78144341D01*
X166804596Y-78164936D01*
X166804586Y-78164938D01*
X166576344Y-78226094D01*
X166576335Y-78226098D01*
X166362171Y-78325964D01*
X166362169Y-78325965D01*
X166168597Y-78461505D01*
X166001505Y-78628597D01*
X165871575Y-78814158D01*
X165816998Y-78857783D01*
X165747500Y-78864977D01*
X165685145Y-78833454D01*
X165668425Y-78814158D01*
X165538494Y-78628597D01*
X165371402Y-78461506D01*
X165371395Y-78461501D01*
X165177834Y-78325967D01*
X165177830Y-78325965D01*
X165116954Y-78297578D01*
X164963663Y-78226097D01*
X164963659Y-78226096D01*
X164963655Y-78226094D01*
X164735413Y-78164938D01*
X164735403Y-78164936D01*
X164500001Y-78144341D01*
X164499999Y-78144341D01*
X164264596Y-78164936D01*
X164264586Y-78164938D01*
X164036344Y-78226094D01*
X164036335Y-78226098D01*
X163822171Y-78325964D01*
X163822169Y-78325965D01*
X163628597Y-78461505D01*
X163461505Y-78628597D01*
X163331575Y-78814158D01*
X163276998Y-78857783D01*
X163207500Y-78864977D01*
X163145145Y-78833454D01*
X163128425Y-78814158D01*
X162998494Y-78628597D01*
X162831402Y-78461506D01*
X162831395Y-78461501D01*
X162637834Y-78325967D01*
X162637830Y-78325965D01*
X162576954Y-78297578D01*
X162423663Y-78226097D01*
X162423659Y-78226096D01*
X162423655Y-78226094D01*
X162195413Y-78164938D01*
X162195403Y-78164936D01*
X161960001Y-78144341D01*
X161959999Y-78144341D01*
X161724596Y-78164936D01*
X161724586Y-78164938D01*
X161496344Y-78226094D01*
X161496335Y-78226098D01*
X161282171Y-78325964D01*
X161282169Y-78325965D01*
X161088597Y-78461505D01*
X160921505Y-78628597D01*
X160791575Y-78814158D01*
X160736998Y-78857783D01*
X160667500Y-78864977D01*
X160605145Y-78833454D01*
X160588425Y-78814158D01*
X160458494Y-78628597D01*
X160291402Y-78461506D01*
X160291395Y-78461501D01*
X160097834Y-78325967D01*
X160097830Y-78325965D01*
X160036954Y-78297578D01*
X159883663Y-78226097D01*
X159883659Y-78226096D01*
X159883655Y-78226094D01*
X159655413Y-78164938D01*
X159655403Y-78164936D01*
X159420001Y-78144341D01*
X159419999Y-78144341D01*
X159184596Y-78164936D01*
X159184586Y-78164938D01*
X158956344Y-78226094D01*
X158956335Y-78226098D01*
X158742171Y-78325964D01*
X158742169Y-78325965D01*
X158548597Y-78461505D01*
X158381505Y-78628597D01*
X158251575Y-78814158D01*
X158196998Y-78857783D01*
X158127500Y-78864977D01*
X158065145Y-78833454D01*
X158048425Y-78814158D01*
X157918494Y-78628597D01*
X157751402Y-78461506D01*
X157751395Y-78461501D01*
X157557834Y-78325967D01*
X157557830Y-78325965D01*
X157496954Y-78297578D01*
X157343663Y-78226097D01*
X157343659Y-78226096D01*
X157343655Y-78226094D01*
X157115413Y-78164938D01*
X157115403Y-78164936D01*
X156880001Y-78144341D01*
X156879999Y-78144341D01*
X156644596Y-78164936D01*
X156644586Y-78164938D01*
X156416344Y-78226094D01*
X156416335Y-78226098D01*
X156202171Y-78325964D01*
X156202169Y-78325965D01*
X156008597Y-78461505D01*
X155841505Y-78628597D01*
X155711575Y-78814158D01*
X155656998Y-78857783D01*
X155587500Y-78864977D01*
X155525145Y-78833454D01*
X155508425Y-78814158D01*
X155378494Y-78628597D01*
X155211402Y-78461506D01*
X155211395Y-78461501D01*
X155017834Y-78325967D01*
X155017830Y-78325965D01*
X154956954Y-78297578D01*
X154803663Y-78226097D01*
X154803659Y-78226096D01*
X154803655Y-78226094D01*
X154575413Y-78164938D01*
X154575403Y-78164936D01*
X154340001Y-78144341D01*
X154339999Y-78144341D01*
X154104596Y-78164936D01*
X154104586Y-78164938D01*
X153876344Y-78226094D01*
X153876335Y-78226098D01*
X153662171Y-78325964D01*
X153662169Y-78325965D01*
X153468597Y-78461505D01*
X153301505Y-78628597D01*
X153171575Y-78814158D01*
X153116998Y-78857783D01*
X153047500Y-78864977D01*
X152985145Y-78833454D01*
X152968425Y-78814158D01*
X152838494Y-78628597D01*
X152671402Y-78461506D01*
X152671395Y-78461501D01*
X152477834Y-78325967D01*
X152477830Y-78325965D01*
X152416954Y-78297578D01*
X152263663Y-78226097D01*
X152263659Y-78226096D01*
X152263655Y-78226094D01*
X152035413Y-78164938D01*
X152035403Y-78164936D01*
X151800001Y-78144341D01*
X151799999Y-78144341D01*
X151564596Y-78164936D01*
X151564586Y-78164938D01*
X151336344Y-78226094D01*
X151336335Y-78226098D01*
X151122171Y-78325964D01*
X151122169Y-78325965D01*
X150928597Y-78461505D01*
X150761505Y-78628597D01*
X150631575Y-78814158D01*
X150576998Y-78857783D01*
X150507500Y-78864977D01*
X150445145Y-78833454D01*
X150428425Y-78814158D01*
X150298494Y-78628597D01*
X150131402Y-78461506D01*
X150131395Y-78461501D01*
X149937834Y-78325967D01*
X149937830Y-78325965D01*
X149876954Y-78297578D01*
X149723663Y-78226097D01*
X149723659Y-78226096D01*
X149723655Y-78226094D01*
X149495413Y-78164938D01*
X149495403Y-78164936D01*
X149260001Y-78144341D01*
X149259999Y-78144341D01*
X149024596Y-78164936D01*
X149024586Y-78164938D01*
X148796344Y-78226094D01*
X148796335Y-78226098D01*
X148582171Y-78325964D01*
X148582169Y-78325965D01*
X148388597Y-78461505D01*
X148221505Y-78628597D01*
X148091575Y-78814158D01*
X148036998Y-78857783D01*
X147967500Y-78864977D01*
X147905145Y-78833454D01*
X147888425Y-78814158D01*
X147758494Y-78628597D01*
X147591402Y-78461506D01*
X147591395Y-78461501D01*
X147397834Y-78325967D01*
X147397830Y-78325965D01*
X147336954Y-78297578D01*
X147183663Y-78226097D01*
X147183659Y-78226096D01*
X147183655Y-78226094D01*
X146955413Y-78164938D01*
X146955403Y-78164936D01*
X146720001Y-78144341D01*
X146719999Y-78144341D01*
X146484596Y-78164936D01*
X146484586Y-78164938D01*
X146256344Y-78226094D01*
X146256335Y-78226098D01*
X146042171Y-78325964D01*
X146042169Y-78325965D01*
X145848597Y-78461505D01*
X145681505Y-78628597D01*
X145551575Y-78814158D01*
X145496998Y-78857783D01*
X145427500Y-78864977D01*
X145365145Y-78833454D01*
X145348425Y-78814158D01*
X145218494Y-78628597D01*
X145051402Y-78461506D01*
X145051395Y-78461501D01*
X144857834Y-78325967D01*
X144857830Y-78325965D01*
X144796954Y-78297578D01*
X144643663Y-78226097D01*
X144643659Y-78226096D01*
X144643655Y-78226094D01*
X144415413Y-78164938D01*
X144415403Y-78164936D01*
X144180001Y-78144341D01*
X144179999Y-78144341D01*
X143944596Y-78164936D01*
X143944586Y-78164938D01*
X143716344Y-78226094D01*
X143716335Y-78226098D01*
X143502171Y-78325964D01*
X143502169Y-78325965D01*
X143308597Y-78461505D01*
X143141505Y-78628597D01*
X143011575Y-78814158D01*
X142956998Y-78857783D01*
X142887500Y-78864977D01*
X142825145Y-78833454D01*
X142808425Y-78814158D01*
X142678494Y-78628597D01*
X142511402Y-78461506D01*
X142511395Y-78461501D01*
X142317834Y-78325967D01*
X142317830Y-78325965D01*
X142256954Y-78297578D01*
X142103663Y-78226097D01*
X142103659Y-78226096D01*
X142103655Y-78226094D01*
X141875413Y-78164938D01*
X141875403Y-78164936D01*
X141640001Y-78144341D01*
X141639999Y-78144341D01*
X141404596Y-78164936D01*
X141404586Y-78164938D01*
X141176344Y-78226094D01*
X141176335Y-78226098D01*
X140962171Y-78325964D01*
X140962169Y-78325965D01*
X140768597Y-78461505D01*
X140601505Y-78628597D01*
X140471575Y-78814158D01*
X140416998Y-78857783D01*
X140347500Y-78864977D01*
X140285145Y-78833454D01*
X140268425Y-78814158D01*
X140138494Y-78628597D01*
X139971402Y-78461506D01*
X139971395Y-78461501D01*
X139777834Y-78325967D01*
X139777830Y-78325965D01*
X139716954Y-78297578D01*
X139563663Y-78226097D01*
X139563659Y-78226096D01*
X139563655Y-78226094D01*
X139335413Y-78164938D01*
X139335403Y-78164936D01*
X139100001Y-78144341D01*
X139099999Y-78144341D01*
X138864596Y-78164936D01*
X138864586Y-78164938D01*
X138636344Y-78226094D01*
X138636335Y-78226098D01*
X138422171Y-78325964D01*
X138422169Y-78325965D01*
X138228597Y-78461505D01*
X138061505Y-78628597D01*
X137931575Y-78814158D01*
X137876998Y-78857783D01*
X137807500Y-78864977D01*
X137745145Y-78833454D01*
X137728425Y-78814158D01*
X137598494Y-78628597D01*
X137431402Y-78461506D01*
X137431395Y-78461501D01*
X137237834Y-78325967D01*
X137237830Y-78325965D01*
X137176954Y-78297578D01*
X137023663Y-78226097D01*
X137023659Y-78226096D01*
X137023655Y-78226094D01*
X136795413Y-78164938D01*
X136795403Y-78164936D01*
X136560001Y-78144341D01*
X136559999Y-78144341D01*
X136324596Y-78164936D01*
X136324586Y-78164938D01*
X136096344Y-78226094D01*
X136096335Y-78226098D01*
X135882171Y-78325964D01*
X135882169Y-78325965D01*
X135688597Y-78461505D01*
X135521505Y-78628597D01*
X135391575Y-78814158D01*
X135336998Y-78857783D01*
X135267500Y-78864977D01*
X135205145Y-78833454D01*
X135188425Y-78814158D01*
X135058494Y-78628597D01*
X134891402Y-78461506D01*
X134891395Y-78461501D01*
X134697834Y-78325967D01*
X134697830Y-78325965D01*
X134636954Y-78297578D01*
X134483663Y-78226097D01*
X134483659Y-78226096D01*
X134483655Y-78226094D01*
X134255413Y-78164938D01*
X134255403Y-78164936D01*
X134020001Y-78144341D01*
X134019999Y-78144341D01*
X133784596Y-78164936D01*
X133784586Y-78164938D01*
X133556344Y-78226094D01*
X133556335Y-78226098D01*
X133342171Y-78325964D01*
X133342169Y-78325965D01*
X133148597Y-78461505D01*
X132981505Y-78628597D01*
X132851575Y-78814158D01*
X132796998Y-78857783D01*
X132727500Y-78864977D01*
X132665145Y-78833454D01*
X132648425Y-78814158D01*
X132518494Y-78628597D01*
X132351402Y-78461506D01*
X132351395Y-78461501D01*
X132157834Y-78325967D01*
X132157830Y-78325965D01*
X132096954Y-78297578D01*
X131943663Y-78226097D01*
X131943659Y-78226096D01*
X131943655Y-78226094D01*
X131715413Y-78164938D01*
X131715403Y-78164936D01*
X131480001Y-78144341D01*
X131479999Y-78144341D01*
X131244596Y-78164936D01*
X131244586Y-78164938D01*
X131016344Y-78226094D01*
X131016335Y-78226098D01*
X130802171Y-78325964D01*
X130802169Y-78325965D01*
X130608597Y-78461505D01*
X130441505Y-78628597D01*
X130311575Y-78814158D01*
X130256998Y-78857783D01*
X130187500Y-78864977D01*
X130125145Y-78833454D01*
X130108425Y-78814158D01*
X129978494Y-78628597D01*
X129811402Y-78461506D01*
X129811395Y-78461501D01*
X129617834Y-78325967D01*
X129617830Y-78325965D01*
X129556954Y-78297578D01*
X129403663Y-78226097D01*
X129403659Y-78226096D01*
X129403655Y-78226094D01*
X129175413Y-78164938D01*
X129175403Y-78164936D01*
X128940001Y-78144341D01*
X128939999Y-78144341D01*
X128704596Y-78164936D01*
X128704586Y-78164938D01*
X128476344Y-78226094D01*
X128476335Y-78226098D01*
X128262171Y-78325964D01*
X128262169Y-78325965D01*
X128068597Y-78461505D01*
X127901505Y-78628597D01*
X127771575Y-78814158D01*
X127716998Y-78857783D01*
X127647500Y-78864977D01*
X127585145Y-78833454D01*
X127568425Y-78814158D01*
X127438494Y-78628597D01*
X127271402Y-78461506D01*
X127271395Y-78461501D01*
X127077834Y-78325967D01*
X127077830Y-78325965D01*
X127016954Y-78297578D01*
X126863663Y-78226097D01*
X126863659Y-78226096D01*
X126863655Y-78226094D01*
X126635413Y-78164938D01*
X126635403Y-78164936D01*
X126400001Y-78144341D01*
X126399999Y-78144341D01*
X126164596Y-78164936D01*
X126164586Y-78164938D01*
X125936344Y-78226094D01*
X125936335Y-78226098D01*
X125722171Y-78325964D01*
X125722169Y-78325965D01*
X125528597Y-78461505D01*
X125361505Y-78628597D01*
X125231269Y-78814595D01*
X125176692Y-78858220D01*
X125107194Y-78865414D01*
X125044839Y-78833891D01*
X125028119Y-78814595D01*
X124974925Y-78738626D01*
X124974925Y-78738625D01*
X124342962Y-79370589D01*
X124325925Y-79307007D01*
X124260099Y-79192993D01*
X124167007Y-79099901D01*
X124052993Y-79034075D01*
X123989410Y-79017037D01*
X124621373Y-78385073D01*
X124621373Y-78385072D01*
X124537583Y-78326402D01*
X124537579Y-78326400D01*
X124323492Y-78226570D01*
X124323483Y-78226566D01*
X124095326Y-78165432D01*
X124095315Y-78165430D01*
X123860002Y-78144843D01*
X123859998Y-78144843D01*
X123624684Y-78165430D01*
X123624673Y-78165432D01*
X123396516Y-78226566D01*
X123396507Y-78226570D01*
X123182419Y-78326401D01*
X123098625Y-78385072D01*
X123730590Y-79017037D01*
X123667007Y-79034075D01*
X123552993Y-79099901D01*
X123459901Y-79192993D01*
X123394075Y-79307007D01*
X123377037Y-79370590D01*
X122745072Y-78738625D01*
X122686401Y-78822419D01*
X122586570Y-79036507D01*
X122586566Y-79036516D01*
X122525432Y-79264673D01*
X122525430Y-79264684D01*
X122504843Y-79499998D01*
X114000500Y-79499998D01*
X114000500Y-60384108D01*
X125899500Y-60384108D01*
X125899500Y-75755891D01*
X125933608Y-75883187D01*
X125966554Y-75940250D01*
X125999500Y-75997314D01*
X126092686Y-76090500D01*
X126206814Y-76156392D01*
X126334108Y-76190500D01*
X126334110Y-76190500D01*
X144245890Y-76190500D01*
X144245892Y-76190500D01*
X144373186Y-76156392D01*
X144487314Y-76090500D01*
X144580500Y-75997314D01*
X144646392Y-75883186D01*
X144680500Y-75755892D01*
X144680500Y-74229997D01*
X171232677Y-74229997D01*
X171232677Y-74230002D01*
X171251929Y-74450062D01*
X171251930Y-74450070D01*
X171309104Y-74663445D01*
X171309105Y-74663447D01*
X171309106Y-74663450D01*
X171402466Y-74863662D01*
X171402468Y-74863666D01*
X171529170Y-75044615D01*
X171529175Y-75044621D01*
X171685378Y-75200824D01*
X171685384Y-75200829D01*
X171866333Y-75327531D01*
X171866335Y-75327532D01*
X171866338Y-75327534D01*
X171995781Y-75387894D01*
X172048220Y-75434066D01*
X172067372Y-75501260D01*
X172047156Y-75568141D01*
X171995781Y-75612658D01*
X171866590Y-75672901D01*
X171801811Y-75718258D01*
X172472553Y-76389000D01*
X172449840Y-76389000D01*
X172352939Y-76414964D01*
X172266060Y-76465124D01*
X172195124Y-76536060D01*
X172144964Y-76622939D01*
X172119000Y-76719840D01*
X172119000Y-76742553D01*
X171448258Y-76071811D01*
X171402901Y-76136590D01*
X171309579Y-76336720D01*
X171309575Y-76336729D01*
X171252426Y-76550013D01*
X171252424Y-76550023D01*
X171233179Y-76769999D01*
X171233179Y-76770000D01*
X171252424Y-76989976D01*
X171252426Y-76989986D01*
X171309575Y-77203270D01*
X171309580Y-77203284D01*
X171402898Y-77403405D01*
X171402901Y-77403411D01*
X171448258Y-77468187D01*
X171448259Y-77468188D01*
X172119000Y-76797447D01*
X172119000Y-76820160D01*
X172144964Y-76917061D01*
X172195124Y-77003940D01*
X172266060Y-77074876D01*
X172352939Y-77125036D01*
X172449840Y-77151000D01*
X172472553Y-77151000D01*
X171801810Y-77821740D01*
X171866590Y-77867099D01*
X171866592Y-77867100D01*
X172066715Y-77960419D01*
X172066729Y-77960424D01*
X172280013Y-78017573D01*
X172280023Y-78017575D01*
X172499999Y-78036821D01*
X172500001Y-78036821D01*
X172719976Y-78017575D01*
X172719986Y-78017573D01*
X172933270Y-77960424D01*
X172933284Y-77960419D01*
X173133407Y-77867100D01*
X173133417Y-77867094D01*
X173198188Y-77821741D01*
X172527448Y-77151000D01*
X172550160Y-77151000D01*
X172647061Y-77125036D01*
X172733940Y-77074876D01*
X172804876Y-77003940D01*
X172855036Y-76917061D01*
X172881000Y-76820160D01*
X172881000Y-76797447D01*
X173551741Y-77468188D01*
X173597094Y-77403417D01*
X173597100Y-77403407D01*
X173690419Y-77203284D01*
X173690424Y-77203270D01*
X173747573Y-76989986D01*
X173747575Y-76989976D01*
X173766821Y-76770000D01*
X173766821Y-76769999D01*
X173747575Y-76550023D01*
X173747573Y-76550013D01*
X173690424Y-76336729D01*
X173690420Y-76336720D01*
X173597096Y-76136586D01*
X173551741Y-76071811D01*
X173551740Y-76071810D01*
X172881000Y-76742551D01*
X172881000Y-76719840D01*
X172855036Y-76622939D01*
X172804876Y-76536060D01*
X172733940Y-76465124D01*
X172647061Y-76414964D01*
X172550160Y-76389000D01*
X172527448Y-76389000D01*
X173198188Y-75718259D01*
X173198187Y-75718258D01*
X173133411Y-75672901D01*
X173133405Y-75672898D01*
X173004219Y-75612658D01*
X172951779Y-75566486D01*
X172932627Y-75499293D01*
X172952843Y-75432411D01*
X173004219Y-75387894D01*
X173133662Y-75327534D01*
X173314620Y-75200826D01*
X173470826Y-75044620D01*
X173597534Y-74863662D01*
X173690894Y-74663450D01*
X173748070Y-74450068D01*
X173767323Y-74230000D01*
X173748070Y-74009932D01*
X173690894Y-73796550D01*
X173597534Y-73596339D01*
X173470826Y-73415380D01*
X173314620Y-73259174D01*
X173314616Y-73259171D01*
X173314615Y-73259170D01*
X173133666Y-73132468D01*
X173133662Y-73132466D01*
X173133660Y-73132465D01*
X172933450Y-73039106D01*
X172933447Y-73039105D01*
X172933445Y-73039104D01*
X172720070Y-72981930D01*
X172720062Y-72981929D01*
X172500002Y-72962677D01*
X172499998Y-72962677D01*
X172279937Y-72981929D01*
X172279929Y-72981930D01*
X172066554Y-73039104D01*
X172066548Y-73039107D01*
X171866340Y-73132465D01*
X171866338Y-73132466D01*
X171685377Y-73259175D01*
X171529175Y-73415377D01*
X171402466Y-73596338D01*
X171402465Y-73596340D01*
X171309107Y-73796548D01*
X171309104Y-73796554D01*
X171251930Y-74009929D01*
X171251929Y-74009937D01*
X171232677Y-74229997D01*
X144680500Y-74229997D01*
X144680500Y-65499999D01*
X177233179Y-65499999D01*
X177233179Y-65500000D01*
X177252424Y-65719976D01*
X177252426Y-65719986D01*
X177309575Y-65933270D01*
X177309580Y-65933284D01*
X177402898Y-66133405D01*
X177402901Y-66133411D01*
X177448258Y-66198187D01*
X177448259Y-66198188D01*
X178119000Y-65527447D01*
X178119000Y-65550160D01*
X178144964Y-65647061D01*
X178195124Y-65733940D01*
X178266060Y-65804876D01*
X178352939Y-65855036D01*
X178449840Y-65881000D01*
X178472553Y-65881000D01*
X177801810Y-66551740D01*
X177866590Y-66597099D01*
X177866592Y-66597100D01*
X178066715Y-66690419D01*
X178066729Y-66690424D01*
X178280013Y-66747573D01*
X178280023Y-66747575D01*
X178499999Y-66766821D01*
X178500001Y-66766821D01*
X178719976Y-66747575D01*
X178719986Y-66747573D01*
X178933270Y-66690424D01*
X178933284Y-66690419D01*
X179133407Y-66597100D01*
X179133417Y-66597094D01*
X179198188Y-66551741D01*
X178527448Y-65881000D01*
X178550160Y-65881000D01*
X178647061Y-65855036D01*
X178733940Y-65804876D01*
X178804876Y-65733940D01*
X178855036Y-65647061D01*
X178881000Y-65550160D01*
X178881000Y-65527447D01*
X179551741Y-66198188D01*
X179597094Y-66133417D01*
X179597100Y-66133407D01*
X179690419Y-65933284D01*
X179690424Y-65933270D01*
X179747573Y-65719986D01*
X179747575Y-65719976D01*
X179766821Y-65500000D01*
X179766821Y-65499999D01*
X179747575Y-65280023D01*
X179747573Y-65280013D01*
X179690424Y-65066729D01*
X179690420Y-65066720D01*
X179597096Y-64866586D01*
X179551741Y-64801811D01*
X179551740Y-64801810D01*
X178881000Y-65472551D01*
X178881000Y-65449840D01*
X178855036Y-65352939D01*
X178804876Y-65266060D01*
X178733940Y-65195124D01*
X178647061Y-65144964D01*
X178550160Y-65119000D01*
X178527448Y-65119000D01*
X179198188Y-64448259D01*
X179198187Y-64448258D01*
X179133411Y-64402901D01*
X179133405Y-64402898D01*
X178933284Y-64309580D01*
X178933270Y-64309575D01*
X178719986Y-64252426D01*
X178719976Y-64252424D01*
X178500001Y-64233179D01*
X178499999Y-64233179D01*
X178280023Y-64252424D01*
X178280013Y-64252426D01*
X178066729Y-64309575D01*
X178066720Y-64309579D01*
X177866590Y-64402901D01*
X177801811Y-64448258D01*
X178472553Y-65119000D01*
X178449840Y-65119000D01*
X178352939Y-65144964D01*
X178266060Y-65195124D01*
X178195124Y-65266060D01*
X178144964Y-65352939D01*
X178119000Y-65449840D01*
X178119000Y-65472553D01*
X177448258Y-64801811D01*
X177402901Y-64866590D01*
X177309579Y-65066720D01*
X177309575Y-65066729D01*
X177252426Y-65280013D01*
X177252424Y-65280023D01*
X177233179Y-65499999D01*
X144680500Y-65499999D01*
X144680500Y-60384108D01*
X144646392Y-60256814D01*
X144580500Y-60142686D01*
X144487314Y-60049500D01*
X144430250Y-60016554D01*
X144373187Y-59983608D01*
X144309539Y-59966554D01*
X144245892Y-59949500D01*
X126465892Y-59949500D01*
X126334108Y-59949500D01*
X126206812Y-59983608D01*
X126092686Y-60049500D01*
X126092683Y-60049502D01*
X125999502Y-60142683D01*
X125999500Y-60142686D01*
X125933608Y-60256812D01*
X125899500Y-60384108D01*
X114000500Y-60384108D01*
X114000500Y-56499994D01*
X115494556Y-56499994D01*
X115494556Y-56500005D01*
X115514310Y-56814004D01*
X115514311Y-56814011D01*
X115532465Y-56909175D01*
X115569565Y-57103664D01*
X115573270Y-57123083D01*
X115670497Y-57422316D01*
X115670499Y-57422321D01*
X115804461Y-57707003D01*
X115804464Y-57707009D01*
X115973051Y-57972661D01*
X115973054Y-57972665D01*
X116173606Y-58215090D01*
X116173608Y-58215092D01*
X116173610Y-58215094D01*
X116334740Y-58366405D01*
X116402968Y-58430476D01*
X116402978Y-58430484D01*
X116657504Y-58615408D01*
X116657509Y-58615410D01*
X116657516Y-58615416D01*
X116933234Y-58766994D01*
X116933239Y-58766996D01*
X116933241Y-58766997D01*
X116933242Y-58766998D01*
X117225771Y-58882818D01*
X117225774Y-58882819D01*
X117371080Y-58920127D01*
X117530527Y-58961066D01*
X117596010Y-58969338D01*
X117842670Y-59000499D01*
X117842679Y-59000499D01*
X117842682Y-59000500D01*
X117842684Y-59000500D01*
X118157316Y-59000500D01*
X118157318Y-59000500D01*
X118157321Y-59000499D01*
X118157329Y-59000499D01*
X118343593Y-58976968D01*
X118469473Y-58961066D01*
X118774225Y-58882819D01*
X118855023Y-58850829D01*
X119066757Y-58766998D01*
X119066758Y-58766997D01*
X119066756Y-58766997D01*
X119066766Y-58766994D01*
X119342484Y-58615416D01*
X119597030Y-58430478D01*
X119826390Y-58215094D01*
X120026947Y-57972663D01*
X120195537Y-57707007D01*
X120329503Y-57422315D01*
X120426731Y-57123079D01*
X120485688Y-56814015D01*
X120486573Y-56799946D01*
X120496636Y-56639999D01*
X122504341Y-56639999D01*
X122504341Y-56640000D01*
X122524936Y-56875403D01*
X122524938Y-56875413D01*
X122586094Y-57103655D01*
X122586096Y-57103659D01*
X122586097Y-57103663D01*
X122652628Y-57246338D01*
X122685965Y-57317830D01*
X122685967Y-57317834D01*
X122794281Y-57472521D01*
X122821505Y-57511401D01*
X122988599Y-57678495D01*
X123085384Y-57746265D01*
X123182165Y-57814032D01*
X123182167Y-57814033D01*
X123182170Y-57814035D01*
X123396337Y-57913903D01*
X123624592Y-57975063D01*
X123812918Y-57991539D01*
X123859999Y-57995659D01*
X123860000Y-57995659D01*
X123860001Y-57995659D01*
X123899234Y-57992226D01*
X124095408Y-57975063D01*
X124323663Y-57913903D01*
X124537830Y-57814035D01*
X124731401Y-57678495D01*
X124898495Y-57511401D01*
X125028425Y-57325842D01*
X125083002Y-57282217D01*
X125152500Y-57275023D01*
X125214855Y-57306546D01*
X125231575Y-57325842D01*
X125361500Y-57511395D01*
X125361505Y-57511401D01*
X125528599Y-57678495D01*
X125625384Y-57746265D01*
X125722165Y-57814032D01*
X125722167Y-57814033D01*
X125722170Y-57814035D01*
X125936337Y-57913903D01*
X126164592Y-57975063D01*
X126352918Y-57991539D01*
X126399999Y-57995659D01*
X126400000Y-57995659D01*
X126400001Y-57995659D01*
X126439234Y-57992226D01*
X126635408Y-57975063D01*
X126863663Y-57913903D01*
X127077830Y-57814035D01*
X127271401Y-57678495D01*
X127438495Y-57511401D01*
X127568425Y-57325842D01*
X127623002Y-57282217D01*
X127692500Y-57275023D01*
X127754855Y-57306546D01*
X127771575Y-57325842D01*
X127901500Y-57511395D01*
X127901505Y-57511401D01*
X128068599Y-57678495D01*
X128165384Y-57746265D01*
X128262165Y-57814032D01*
X128262167Y-57814033D01*
X128262170Y-57814035D01*
X128476337Y-57913903D01*
X128704592Y-57975063D01*
X128892918Y-57991539D01*
X128939999Y-57995659D01*
X128940000Y-57995659D01*
X128940001Y-57995659D01*
X128979234Y-57992226D01*
X129175408Y-57975063D01*
X129403663Y-57913903D01*
X129617830Y-57814035D01*
X129811401Y-57678495D01*
X129978495Y-57511401D01*
X130108425Y-57325842D01*
X130163002Y-57282217D01*
X130232500Y-57275023D01*
X130294855Y-57306546D01*
X130311575Y-57325842D01*
X130441500Y-57511395D01*
X130441505Y-57511401D01*
X130608599Y-57678495D01*
X130705384Y-57746265D01*
X130802165Y-57814032D01*
X130802167Y-57814033D01*
X130802170Y-57814035D01*
X131016337Y-57913903D01*
X131244592Y-57975063D01*
X131432918Y-57991539D01*
X131479999Y-57995659D01*
X131480000Y-57995659D01*
X131480001Y-57995659D01*
X131519234Y-57992226D01*
X131715408Y-57975063D01*
X131943663Y-57913903D01*
X132157830Y-57814035D01*
X132351401Y-57678495D01*
X132518495Y-57511401D01*
X132648425Y-57325842D01*
X132703002Y-57282217D01*
X132772500Y-57275023D01*
X132834855Y-57306546D01*
X132851575Y-57325842D01*
X132981500Y-57511395D01*
X132981505Y-57511401D01*
X133148599Y-57678495D01*
X133245384Y-57746265D01*
X133342165Y-57814032D01*
X133342167Y-57814033D01*
X133342170Y-57814035D01*
X133556337Y-57913903D01*
X133784592Y-57975063D01*
X133972918Y-57991539D01*
X134019999Y-57995659D01*
X134020000Y-57995659D01*
X134020001Y-57995659D01*
X134059234Y-57992226D01*
X134255408Y-57975063D01*
X134483663Y-57913903D01*
X134697830Y-57814035D01*
X134891401Y-57678495D01*
X135058495Y-57511401D01*
X135188425Y-57325842D01*
X135243002Y-57282217D01*
X135312500Y-57275023D01*
X135374855Y-57306546D01*
X135391575Y-57325842D01*
X135521500Y-57511395D01*
X135521505Y-57511401D01*
X135688599Y-57678495D01*
X135785384Y-57746265D01*
X135882165Y-57814032D01*
X135882167Y-57814033D01*
X135882170Y-57814035D01*
X136096337Y-57913903D01*
X136324592Y-57975063D01*
X136512918Y-57991539D01*
X136559999Y-57995659D01*
X136560000Y-57995659D01*
X136560001Y-57995659D01*
X136599234Y-57992226D01*
X136795408Y-57975063D01*
X137023663Y-57913903D01*
X137237830Y-57814035D01*
X137431401Y-57678495D01*
X137598495Y-57511401D01*
X137728425Y-57325842D01*
X137783002Y-57282217D01*
X137852500Y-57275023D01*
X137914855Y-57306546D01*
X137931575Y-57325842D01*
X138061500Y-57511395D01*
X138061505Y-57511401D01*
X138228599Y-57678495D01*
X138325384Y-57746265D01*
X138422165Y-57814032D01*
X138422167Y-57814033D01*
X138422170Y-57814035D01*
X138636337Y-57913903D01*
X138864592Y-57975063D01*
X139052918Y-57991539D01*
X139099999Y-57995659D01*
X139100000Y-57995659D01*
X139100001Y-57995659D01*
X139139234Y-57992226D01*
X139335408Y-57975063D01*
X139563663Y-57913903D01*
X139777830Y-57814035D01*
X139971401Y-57678495D01*
X140138495Y-57511401D01*
X140268425Y-57325842D01*
X140323002Y-57282217D01*
X140392500Y-57275023D01*
X140454855Y-57306546D01*
X140471575Y-57325842D01*
X140601500Y-57511395D01*
X140601505Y-57511401D01*
X140768599Y-57678495D01*
X140865384Y-57746265D01*
X140962165Y-57814032D01*
X140962167Y-57814033D01*
X140962170Y-57814035D01*
X141176337Y-57913903D01*
X141404592Y-57975063D01*
X141592918Y-57991539D01*
X141639999Y-57995659D01*
X141640000Y-57995659D01*
X141640001Y-57995659D01*
X141679234Y-57992226D01*
X141875408Y-57975063D01*
X142103663Y-57913903D01*
X142317830Y-57814035D01*
X142511401Y-57678495D01*
X142678495Y-57511401D01*
X142808425Y-57325842D01*
X142863002Y-57282217D01*
X142932500Y-57275023D01*
X142994855Y-57306546D01*
X143011575Y-57325842D01*
X143141500Y-57511395D01*
X143141505Y-57511401D01*
X143308599Y-57678495D01*
X143405384Y-57746265D01*
X143502165Y-57814032D01*
X143502167Y-57814033D01*
X143502170Y-57814035D01*
X143716337Y-57913903D01*
X143944592Y-57975063D01*
X144132918Y-57991539D01*
X144179999Y-57995659D01*
X144180000Y-57995659D01*
X144180001Y-57995659D01*
X144219234Y-57992226D01*
X144415408Y-57975063D01*
X144643663Y-57913903D01*
X144857830Y-57814035D01*
X145051401Y-57678495D01*
X145218495Y-57511401D01*
X145348425Y-57325842D01*
X145403002Y-57282217D01*
X145472500Y-57275023D01*
X145534855Y-57306546D01*
X145551575Y-57325842D01*
X145681500Y-57511395D01*
X145681505Y-57511401D01*
X145848599Y-57678495D01*
X145945384Y-57746265D01*
X146042165Y-57814032D01*
X146042167Y-57814033D01*
X146042170Y-57814035D01*
X146256337Y-57913903D01*
X146484592Y-57975063D01*
X146672918Y-57991539D01*
X146719999Y-57995659D01*
X146720000Y-57995659D01*
X146720001Y-57995659D01*
X146759234Y-57992226D01*
X146955408Y-57975063D01*
X147183663Y-57913903D01*
X147397830Y-57814035D01*
X147591401Y-57678495D01*
X147758495Y-57511401D01*
X147888425Y-57325842D01*
X147943002Y-57282217D01*
X148012500Y-57275023D01*
X148074855Y-57306546D01*
X148091575Y-57325842D01*
X148221500Y-57511395D01*
X148221505Y-57511401D01*
X148388599Y-57678495D01*
X148485384Y-57746265D01*
X148582165Y-57814032D01*
X148582167Y-57814033D01*
X148582170Y-57814035D01*
X148796337Y-57913903D01*
X149024592Y-57975063D01*
X149212918Y-57991539D01*
X149259999Y-57995659D01*
X149260000Y-57995659D01*
X149260001Y-57995659D01*
X149299234Y-57992226D01*
X149495408Y-57975063D01*
X149723663Y-57913903D01*
X149937830Y-57814035D01*
X150131401Y-57678495D01*
X150298495Y-57511401D01*
X150428425Y-57325842D01*
X150483002Y-57282217D01*
X150552500Y-57275023D01*
X150614855Y-57306546D01*
X150631575Y-57325842D01*
X150761500Y-57511395D01*
X150761505Y-57511401D01*
X150928599Y-57678495D01*
X151025384Y-57746265D01*
X151122165Y-57814032D01*
X151122167Y-57814033D01*
X151122170Y-57814035D01*
X151336337Y-57913903D01*
X151564592Y-57975063D01*
X151752918Y-57991539D01*
X151799999Y-57995659D01*
X151800000Y-57995659D01*
X151800001Y-57995659D01*
X151839234Y-57992226D01*
X152035408Y-57975063D01*
X152263663Y-57913903D01*
X152477830Y-57814035D01*
X152671401Y-57678495D01*
X152838495Y-57511401D01*
X152968425Y-57325842D01*
X153023002Y-57282217D01*
X153092500Y-57275023D01*
X153154855Y-57306546D01*
X153171575Y-57325842D01*
X153301500Y-57511395D01*
X153301505Y-57511401D01*
X153468599Y-57678495D01*
X153565384Y-57746265D01*
X153662165Y-57814032D01*
X153662167Y-57814033D01*
X153662170Y-57814035D01*
X153876337Y-57913903D01*
X154104592Y-57975063D01*
X154292918Y-57991539D01*
X154339999Y-57995659D01*
X154340000Y-57995659D01*
X154340001Y-57995659D01*
X154379234Y-57992226D01*
X154575408Y-57975063D01*
X154803663Y-57913903D01*
X155017830Y-57814035D01*
X155211401Y-57678495D01*
X155378495Y-57511401D01*
X155508425Y-57325842D01*
X155563002Y-57282217D01*
X155632500Y-57275023D01*
X155694855Y-57306546D01*
X155711575Y-57325842D01*
X155841500Y-57511395D01*
X155841505Y-57511401D01*
X156008599Y-57678495D01*
X156105384Y-57746265D01*
X156202165Y-57814032D01*
X156202167Y-57814033D01*
X156202170Y-57814035D01*
X156416337Y-57913903D01*
X156644592Y-57975063D01*
X156832918Y-57991539D01*
X156879999Y-57995659D01*
X156880000Y-57995659D01*
X156880001Y-57995659D01*
X156919234Y-57992226D01*
X157115408Y-57975063D01*
X157343663Y-57913903D01*
X157557830Y-57814035D01*
X157751401Y-57678495D01*
X157918495Y-57511401D01*
X158048425Y-57325842D01*
X158103002Y-57282217D01*
X158172500Y-57275023D01*
X158234855Y-57306546D01*
X158251575Y-57325842D01*
X158381500Y-57511395D01*
X158381505Y-57511401D01*
X158548599Y-57678495D01*
X158645384Y-57746265D01*
X158742165Y-57814032D01*
X158742167Y-57814033D01*
X158742170Y-57814035D01*
X158956337Y-57913903D01*
X159184592Y-57975063D01*
X159372918Y-57991539D01*
X159419999Y-57995659D01*
X159420000Y-57995659D01*
X159420001Y-57995659D01*
X159459234Y-57992226D01*
X159655408Y-57975063D01*
X159883663Y-57913903D01*
X160097830Y-57814035D01*
X160291401Y-57678495D01*
X160458495Y-57511401D01*
X160588425Y-57325842D01*
X160643002Y-57282217D01*
X160712500Y-57275023D01*
X160774855Y-57306546D01*
X160791575Y-57325842D01*
X160921500Y-57511395D01*
X160921505Y-57511401D01*
X161088599Y-57678495D01*
X161185384Y-57746265D01*
X161282165Y-57814032D01*
X161282167Y-57814033D01*
X161282170Y-57814035D01*
X161496337Y-57913903D01*
X161724592Y-57975063D01*
X161912918Y-57991539D01*
X161959999Y-57995659D01*
X161960000Y-57995659D01*
X161960001Y-57995659D01*
X161999234Y-57992226D01*
X162195408Y-57975063D01*
X162423663Y-57913903D01*
X162637830Y-57814035D01*
X162831401Y-57678495D01*
X162998495Y-57511401D01*
X163128425Y-57325842D01*
X163183002Y-57282217D01*
X163252500Y-57275023D01*
X163314855Y-57306546D01*
X163331575Y-57325842D01*
X163461500Y-57511395D01*
X163461505Y-57511401D01*
X163628599Y-57678495D01*
X163725384Y-57746265D01*
X163822165Y-57814032D01*
X163822167Y-57814033D01*
X163822170Y-57814035D01*
X164036337Y-57913903D01*
X164264592Y-57975063D01*
X164452918Y-57991539D01*
X164499999Y-57995659D01*
X164500000Y-57995659D01*
X164500001Y-57995659D01*
X164539234Y-57992226D01*
X164735408Y-57975063D01*
X164963663Y-57913903D01*
X165177830Y-57814035D01*
X165371401Y-57678495D01*
X165538495Y-57511401D01*
X165668425Y-57325842D01*
X165723002Y-57282217D01*
X165792500Y-57275023D01*
X165854855Y-57306546D01*
X165871575Y-57325842D01*
X166001500Y-57511395D01*
X166001505Y-57511401D01*
X166168599Y-57678495D01*
X166265384Y-57746265D01*
X166362165Y-57814032D01*
X166362167Y-57814033D01*
X166362170Y-57814035D01*
X166576337Y-57913903D01*
X166804592Y-57975063D01*
X166992918Y-57991539D01*
X167039999Y-57995659D01*
X167040000Y-57995659D01*
X167040001Y-57995659D01*
X167079234Y-57992226D01*
X167275408Y-57975063D01*
X167503663Y-57913903D01*
X167576374Y-57879997D01*
X177232677Y-57879997D01*
X177232677Y-57880002D01*
X177251929Y-58100062D01*
X177251930Y-58100070D01*
X177309104Y-58313445D01*
X177309105Y-58313447D01*
X177309106Y-58313450D01*
X177363676Y-58430476D01*
X177402466Y-58513662D01*
X177402468Y-58513666D01*
X177529170Y-58694615D01*
X177529175Y-58694621D01*
X177685378Y-58850824D01*
X177685384Y-58850829D01*
X177866333Y-58977531D01*
X177866335Y-58977532D01*
X177866338Y-58977534D01*
X178066550Y-59070894D01*
X178279932Y-59128070D01*
X178437123Y-59141822D01*
X178499998Y-59147323D01*
X178500000Y-59147323D01*
X178500002Y-59147323D01*
X178555017Y-59142509D01*
X178720068Y-59128070D01*
X178933450Y-59070894D01*
X179133662Y-58977534D01*
X179314620Y-58850826D01*
X179470826Y-58694620D01*
X179597534Y-58513662D01*
X179690894Y-58313450D01*
X179748070Y-58100068D01*
X179767323Y-57880000D01*
X179766728Y-57873202D01*
X179756251Y-57753444D01*
X179748070Y-57659932D01*
X179690894Y-57446550D01*
X179597534Y-57246339D01*
X179470826Y-57065380D01*
X179314620Y-56909174D01*
X179314616Y-56909171D01*
X179314615Y-56909170D01*
X179133666Y-56782468D01*
X179133662Y-56782466D01*
X179057197Y-56746810D01*
X178933450Y-56689106D01*
X178933447Y-56689105D01*
X178933445Y-56689104D01*
X178720070Y-56631930D01*
X178720062Y-56631929D01*
X178500002Y-56612677D01*
X178499998Y-56612677D01*
X178279937Y-56631929D01*
X178279929Y-56631930D01*
X178066554Y-56689104D01*
X178066548Y-56689107D01*
X177866340Y-56782465D01*
X177866338Y-56782466D01*
X177685377Y-56909175D01*
X177529175Y-57065377D01*
X177402466Y-57246338D01*
X177402465Y-57246340D01*
X177309107Y-57446548D01*
X177309104Y-57446554D01*
X177251930Y-57659929D01*
X177251929Y-57659937D01*
X177232677Y-57879997D01*
X167576374Y-57879997D01*
X167717830Y-57814035D01*
X167911401Y-57678495D01*
X168078495Y-57511401D01*
X168214035Y-57317830D01*
X168313903Y-57103663D01*
X168375063Y-56875408D01*
X168395659Y-56640000D01*
X168393268Y-56612677D01*
X168383409Y-56499994D01*
X189994556Y-56499994D01*
X189994556Y-56500005D01*
X190014310Y-56814004D01*
X190014311Y-56814011D01*
X190032465Y-56909175D01*
X190069565Y-57103664D01*
X190073270Y-57123083D01*
X190170497Y-57422316D01*
X190170499Y-57422321D01*
X190304461Y-57707003D01*
X190304464Y-57707009D01*
X190473051Y-57972661D01*
X190473054Y-57972665D01*
X190673606Y-58215090D01*
X190673608Y-58215092D01*
X190673610Y-58215094D01*
X190834740Y-58366405D01*
X190902968Y-58430476D01*
X190902978Y-58430484D01*
X191157504Y-58615408D01*
X191157509Y-58615410D01*
X191157516Y-58615416D01*
X191433234Y-58766994D01*
X191433239Y-58766996D01*
X191433241Y-58766997D01*
X191433242Y-58766998D01*
X191725771Y-58882818D01*
X191725774Y-58882819D01*
X191871080Y-58920127D01*
X192030527Y-58961066D01*
X192096010Y-58969338D01*
X192342670Y-59000499D01*
X192342679Y-59000499D01*
X192342682Y-59000500D01*
X192342684Y-59000500D01*
X192657316Y-59000500D01*
X192657318Y-59000500D01*
X192657321Y-59000499D01*
X192657329Y-59000499D01*
X192843593Y-58976968D01*
X192969473Y-58961066D01*
X193274225Y-58882819D01*
X193355023Y-58850829D01*
X193566757Y-58766998D01*
X193566758Y-58766997D01*
X193566756Y-58766997D01*
X193566766Y-58766994D01*
X193842484Y-58615416D01*
X194097030Y-58430478D01*
X194326390Y-58215094D01*
X194504333Y-57999999D01*
X204494696Y-57999999D01*
X204494696Y-58000000D01*
X204513898Y-58366405D01*
X204569614Y-58718183D01*
X204571295Y-58728794D01*
X204644098Y-59000499D01*
X204666260Y-59083206D01*
X204797746Y-59425739D01*
X204964320Y-59752656D01*
X205164147Y-60060364D01*
X205327117Y-60261615D01*
X205395051Y-60345506D01*
X205654494Y-60604949D01*
X205654498Y-60604952D01*
X205939635Y-60835852D01*
X206192017Y-60999750D01*
X206247348Y-61035682D01*
X206574264Y-61202255D01*
X206916801Y-61333742D01*
X207271206Y-61428705D01*
X207633596Y-61486102D01*
X207979734Y-61504241D01*
X207999999Y-61505304D01*
X208000000Y-61505304D01*
X208000001Y-61505304D01*
X208019203Y-61504297D01*
X208366404Y-61486102D01*
X208728794Y-61428705D01*
X209083199Y-61333742D01*
X209425736Y-61202255D01*
X209752652Y-61035682D01*
X210060366Y-60835851D01*
X210345506Y-60604949D01*
X210604949Y-60345506D01*
X210835851Y-60060366D01*
X211035682Y-59752652D01*
X211202255Y-59425736D01*
X211333742Y-59083199D01*
X211428705Y-58728794D01*
X211486102Y-58366404D01*
X211505304Y-58000000D01*
X211486102Y-57633596D01*
X211428705Y-57271206D01*
X211333742Y-56916801D01*
X211202255Y-56574264D01*
X211035682Y-56247348D01*
X210878285Y-56004977D01*
X210835852Y-55939635D01*
X210604952Y-55654498D01*
X210604949Y-55654494D01*
X210345506Y-55395051D01*
X210060366Y-55164149D01*
X210060364Y-55164147D01*
X209752656Y-54964320D01*
X209425739Y-54797746D01*
X209083206Y-54666260D01*
X209083199Y-54666258D01*
X208728794Y-54571295D01*
X208728790Y-54571294D01*
X208728789Y-54571294D01*
X208366405Y-54513898D01*
X208000001Y-54494696D01*
X207999999Y-54494696D01*
X207633594Y-54513898D01*
X207271211Y-54571294D01*
X207271209Y-54571294D01*
X206916793Y-54666260D01*
X206574260Y-54797746D01*
X206247343Y-54964320D01*
X205939635Y-55164147D01*
X205654498Y-55395047D01*
X205654490Y-55395054D01*
X205395054Y-55654490D01*
X205395047Y-55654498D01*
X205164147Y-55939635D01*
X204964320Y-56247343D01*
X204797746Y-56574260D01*
X204666260Y-56916793D01*
X204571294Y-57271209D01*
X204571294Y-57271211D01*
X204513898Y-57633594D01*
X204494696Y-57999999D01*
X194504333Y-57999999D01*
X194526947Y-57972663D01*
X194695537Y-57707007D01*
X194829503Y-57422315D01*
X194926731Y-57123079D01*
X194985688Y-56814015D01*
X194986573Y-56799946D01*
X195005444Y-56500005D01*
X195005444Y-56499994D01*
X194985689Y-56185995D01*
X194985688Y-56185988D01*
X194985688Y-56185985D01*
X194926731Y-55876921D01*
X194829503Y-55577685D01*
X194695537Y-55292993D01*
X194526947Y-55027337D01*
X194526945Y-55027334D01*
X194326393Y-54784909D01*
X194326391Y-54784907D01*
X194125348Y-54596114D01*
X194097030Y-54569522D01*
X194097027Y-54569520D01*
X194097021Y-54569515D01*
X193842495Y-54384591D01*
X193842488Y-54384586D01*
X193842484Y-54384584D01*
X193566766Y-54233006D01*
X193566763Y-54233004D01*
X193566758Y-54233002D01*
X193566757Y-54233001D01*
X193274228Y-54117181D01*
X193274225Y-54117180D01*
X192969476Y-54038934D01*
X192969463Y-54038932D01*
X192657329Y-53999500D01*
X192657318Y-53999500D01*
X192342682Y-53999500D01*
X192342670Y-53999500D01*
X192030536Y-54038932D01*
X192030523Y-54038934D01*
X191725774Y-54117180D01*
X191725771Y-54117181D01*
X191433242Y-54233001D01*
X191433241Y-54233002D01*
X191157516Y-54384584D01*
X191157504Y-54384591D01*
X190902978Y-54569515D01*
X190902968Y-54569523D01*
X190673608Y-54784907D01*
X190673606Y-54784909D01*
X190473054Y-55027334D01*
X190473051Y-55027338D01*
X190304464Y-55292990D01*
X190304461Y-55292996D01*
X190170499Y-55577678D01*
X190170497Y-55577683D01*
X190073270Y-55876916D01*
X190014311Y-56185988D01*
X190014310Y-56185995D01*
X189994556Y-56499994D01*
X168383409Y-56499994D01*
X168375063Y-56404596D01*
X168375063Y-56404592D01*
X168313903Y-56176337D01*
X168214035Y-55962171D01*
X168208425Y-55954158D01*
X168078494Y-55768597D01*
X167911402Y-55601506D01*
X167911395Y-55601501D01*
X167717834Y-55465967D01*
X167717830Y-55465965D01*
X167717828Y-55465964D01*
X167503663Y-55366097D01*
X167503659Y-55366096D01*
X167503655Y-55366094D01*
X167275413Y-55304938D01*
X167275403Y-55304936D01*
X167040001Y-55284341D01*
X167039999Y-55284341D01*
X166804596Y-55304936D01*
X166804586Y-55304938D01*
X166576344Y-55366094D01*
X166576335Y-55366098D01*
X166362171Y-55465964D01*
X166362169Y-55465965D01*
X166168597Y-55601505D01*
X166001505Y-55768597D01*
X165871575Y-55954158D01*
X165816998Y-55997783D01*
X165747500Y-56004977D01*
X165685145Y-55973454D01*
X165668425Y-55954158D01*
X165538494Y-55768597D01*
X165371402Y-55601506D01*
X165371395Y-55601501D01*
X165177834Y-55465967D01*
X165177830Y-55465965D01*
X165177828Y-55465964D01*
X164963663Y-55366097D01*
X164963659Y-55366096D01*
X164963655Y-55366094D01*
X164735413Y-55304938D01*
X164735403Y-55304936D01*
X164500001Y-55284341D01*
X164499999Y-55284341D01*
X164264596Y-55304936D01*
X164264586Y-55304938D01*
X164036344Y-55366094D01*
X164036335Y-55366098D01*
X163822171Y-55465964D01*
X163822169Y-55465965D01*
X163628597Y-55601505D01*
X163461505Y-55768597D01*
X163331575Y-55954158D01*
X163276998Y-55997783D01*
X163207500Y-56004977D01*
X163145145Y-55973454D01*
X163128425Y-55954158D01*
X162998494Y-55768597D01*
X162831402Y-55601506D01*
X162831395Y-55601501D01*
X162637834Y-55465967D01*
X162637830Y-55465965D01*
X162637828Y-55465964D01*
X162423663Y-55366097D01*
X162423659Y-55366096D01*
X162423655Y-55366094D01*
X162195413Y-55304938D01*
X162195403Y-55304936D01*
X161960001Y-55284341D01*
X161959999Y-55284341D01*
X161724596Y-55304936D01*
X161724586Y-55304938D01*
X161496344Y-55366094D01*
X161496335Y-55366098D01*
X161282171Y-55465964D01*
X161282169Y-55465965D01*
X161088597Y-55601505D01*
X160921505Y-55768597D01*
X160791575Y-55954158D01*
X160736998Y-55997783D01*
X160667500Y-56004977D01*
X160605145Y-55973454D01*
X160588425Y-55954158D01*
X160458494Y-55768597D01*
X160291402Y-55601506D01*
X160291395Y-55601501D01*
X160097834Y-55465967D01*
X160097830Y-55465965D01*
X160097828Y-55465964D01*
X159883663Y-55366097D01*
X159883659Y-55366096D01*
X159883655Y-55366094D01*
X159655413Y-55304938D01*
X159655403Y-55304936D01*
X159420001Y-55284341D01*
X159419999Y-55284341D01*
X159184596Y-55304936D01*
X159184586Y-55304938D01*
X158956344Y-55366094D01*
X158956335Y-55366098D01*
X158742171Y-55465964D01*
X158742169Y-55465965D01*
X158548597Y-55601505D01*
X158381505Y-55768597D01*
X158251575Y-55954158D01*
X158196998Y-55997783D01*
X158127500Y-56004977D01*
X158065145Y-55973454D01*
X158048425Y-55954158D01*
X157918494Y-55768597D01*
X157751402Y-55601506D01*
X157751395Y-55601501D01*
X157557834Y-55465967D01*
X157557830Y-55465965D01*
X157557828Y-55465964D01*
X157343663Y-55366097D01*
X157343659Y-55366096D01*
X157343655Y-55366094D01*
X157115413Y-55304938D01*
X157115403Y-55304936D01*
X156880001Y-55284341D01*
X156879999Y-55284341D01*
X156644596Y-55304936D01*
X156644586Y-55304938D01*
X156416344Y-55366094D01*
X156416335Y-55366098D01*
X156202171Y-55465964D01*
X156202169Y-55465965D01*
X156008597Y-55601505D01*
X155841505Y-55768597D01*
X155711575Y-55954158D01*
X155656998Y-55997783D01*
X155587500Y-56004977D01*
X155525145Y-55973454D01*
X155508425Y-55954158D01*
X155378494Y-55768597D01*
X155211402Y-55601506D01*
X155211395Y-55601501D01*
X155017834Y-55465967D01*
X155017830Y-55465965D01*
X155017828Y-55465964D01*
X154803663Y-55366097D01*
X154803659Y-55366096D01*
X154803655Y-55366094D01*
X154575413Y-55304938D01*
X154575403Y-55304936D01*
X154340001Y-55284341D01*
X154339999Y-55284341D01*
X154104596Y-55304936D01*
X154104586Y-55304938D01*
X153876344Y-55366094D01*
X153876335Y-55366098D01*
X153662171Y-55465964D01*
X153662169Y-55465965D01*
X153468597Y-55601505D01*
X153301505Y-55768597D01*
X153171575Y-55954158D01*
X153116998Y-55997783D01*
X153047500Y-56004977D01*
X152985145Y-55973454D01*
X152968425Y-55954158D01*
X152838494Y-55768597D01*
X152671402Y-55601506D01*
X152671395Y-55601501D01*
X152477834Y-55465967D01*
X152477830Y-55465965D01*
X152477828Y-55465964D01*
X152263663Y-55366097D01*
X152263659Y-55366096D01*
X152263655Y-55366094D01*
X152035413Y-55304938D01*
X152035403Y-55304936D01*
X151800001Y-55284341D01*
X151799999Y-55284341D01*
X151564596Y-55304936D01*
X151564586Y-55304938D01*
X151336344Y-55366094D01*
X151336335Y-55366098D01*
X151122171Y-55465964D01*
X151122169Y-55465965D01*
X150928597Y-55601505D01*
X150761505Y-55768597D01*
X150631575Y-55954158D01*
X150576998Y-55997783D01*
X150507500Y-56004977D01*
X150445145Y-55973454D01*
X150428425Y-55954158D01*
X150298494Y-55768597D01*
X150131402Y-55601506D01*
X150131395Y-55601501D01*
X149937834Y-55465967D01*
X149937830Y-55465965D01*
X149937828Y-55465964D01*
X149723663Y-55366097D01*
X149723659Y-55366096D01*
X149723655Y-55366094D01*
X149495413Y-55304938D01*
X149495403Y-55304936D01*
X149260001Y-55284341D01*
X149259999Y-55284341D01*
X149024596Y-55304936D01*
X149024586Y-55304938D01*
X148796344Y-55366094D01*
X148796335Y-55366098D01*
X148582171Y-55465964D01*
X148582169Y-55465965D01*
X148388597Y-55601505D01*
X148221505Y-55768597D01*
X148091575Y-55954158D01*
X148036998Y-55997783D01*
X147967500Y-56004977D01*
X147905145Y-55973454D01*
X147888425Y-55954158D01*
X147758494Y-55768597D01*
X147591402Y-55601506D01*
X147591395Y-55601501D01*
X147397834Y-55465967D01*
X147397830Y-55465965D01*
X147397828Y-55465964D01*
X147183663Y-55366097D01*
X147183659Y-55366096D01*
X147183655Y-55366094D01*
X146955413Y-55304938D01*
X146955403Y-55304936D01*
X146720001Y-55284341D01*
X146719999Y-55284341D01*
X146484596Y-55304936D01*
X146484586Y-55304938D01*
X146256344Y-55366094D01*
X146256335Y-55366098D01*
X146042171Y-55465964D01*
X146042169Y-55465965D01*
X145848597Y-55601505D01*
X145681505Y-55768597D01*
X145551575Y-55954158D01*
X145496998Y-55997783D01*
X145427500Y-56004977D01*
X145365145Y-55973454D01*
X145348425Y-55954158D01*
X145218494Y-55768597D01*
X145051402Y-55601506D01*
X145051395Y-55601501D01*
X144857834Y-55465967D01*
X144857830Y-55465965D01*
X144857828Y-55465964D01*
X144643663Y-55366097D01*
X144643659Y-55366096D01*
X144643655Y-55366094D01*
X144415413Y-55304938D01*
X144415403Y-55304936D01*
X144180001Y-55284341D01*
X144179999Y-55284341D01*
X143944596Y-55304936D01*
X143944586Y-55304938D01*
X143716344Y-55366094D01*
X143716335Y-55366098D01*
X143502171Y-55465964D01*
X143502169Y-55465965D01*
X143308597Y-55601505D01*
X143141505Y-55768597D01*
X143011575Y-55954158D01*
X142956998Y-55997783D01*
X142887500Y-56004977D01*
X142825145Y-55973454D01*
X142808425Y-55954158D01*
X142678494Y-55768597D01*
X142511402Y-55601506D01*
X142511395Y-55601501D01*
X142317834Y-55465967D01*
X142317830Y-55465965D01*
X142317828Y-55465964D01*
X142103663Y-55366097D01*
X142103659Y-55366096D01*
X142103655Y-55366094D01*
X141875413Y-55304938D01*
X141875403Y-55304936D01*
X141640001Y-55284341D01*
X141639999Y-55284341D01*
X141404596Y-55304936D01*
X141404586Y-55304938D01*
X141176344Y-55366094D01*
X141176335Y-55366098D01*
X140962171Y-55465964D01*
X140962169Y-55465965D01*
X140768597Y-55601505D01*
X140601505Y-55768597D01*
X140471575Y-55954158D01*
X140416998Y-55997783D01*
X140347500Y-56004977D01*
X140285145Y-55973454D01*
X140268425Y-55954158D01*
X140138494Y-55768597D01*
X139971402Y-55601506D01*
X139971395Y-55601501D01*
X139777834Y-55465967D01*
X139777830Y-55465965D01*
X139777828Y-55465964D01*
X139563663Y-55366097D01*
X139563659Y-55366096D01*
X139563655Y-55366094D01*
X139335413Y-55304938D01*
X139335403Y-55304936D01*
X139100001Y-55284341D01*
X139099999Y-55284341D01*
X138864596Y-55304936D01*
X138864586Y-55304938D01*
X138636344Y-55366094D01*
X138636335Y-55366098D01*
X138422171Y-55465964D01*
X138422169Y-55465965D01*
X138228597Y-55601505D01*
X138061505Y-55768597D01*
X137931575Y-55954158D01*
X137876998Y-55997783D01*
X137807500Y-56004977D01*
X137745145Y-55973454D01*
X137728425Y-55954158D01*
X137598494Y-55768597D01*
X137431402Y-55601506D01*
X137431395Y-55601501D01*
X137237834Y-55465967D01*
X137237830Y-55465965D01*
X137237828Y-55465964D01*
X137023663Y-55366097D01*
X137023659Y-55366096D01*
X137023655Y-55366094D01*
X136795413Y-55304938D01*
X136795403Y-55304936D01*
X136560001Y-55284341D01*
X136559999Y-55284341D01*
X136324596Y-55304936D01*
X136324586Y-55304938D01*
X136096344Y-55366094D01*
X136096335Y-55366098D01*
X135882171Y-55465964D01*
X135882169Y-55465965D01*
X135688597Y-55601505D01*
X135521505Y-55768597D01*
X135391575Y-55954158D01*
X135336998Y-55997783D01*
X135267500Y-56004977D01*
X135205145Y-55973454D01*
X135188425Y-55954158D01*
X135058494Y-55768597D01*
X134891402Y-55601506D01*
X134891395Y-55601501D01*
X134697834Y-55465967D01*
X134697830Y-55465965D01*
X134697828Y-55465964D01*
X134483663Y-55366097D01*
X134483659Y-55366096D01*
X134483655Y-55366094D01*
X134255413Y-55304938D01*
X134255403Y-55304936D01*
X134020001Y-55284341D01*
X134019999Y-55284341D01*
X133784596Y-55304936D01*
X133784586Y-55304938D01*
X133556344Y-55366094D01*
X133556335Y-55366098D01*
X133342171Y-55465964D01*
X133342169Y-55465965D01*
X133148597Y-55601505D01*
X132981505Y-55768597D01*
X132851575Y-55954158D01*
X132796998Y-55997783D01*
X132727500Y-56004977D01*
X132665145Y-55973454D01*
X132648425Y-55954158D01*
X132518494Y-55768597D01*
X132351402Y-55601506D01*
X132351395Y-55601501D01*
X132157834Y-55465967D01*
X132157830Y-55465965D01*
X132157828Y-55465964D01*
X131943663Y-55366097D01*
X131943659Y-55366096D01*
X131943655Y-55366094D01*
X131715413Y-55304938D01*
X131715403Y-55304936D01*
X131480001Y-55284341D01*
X131479999Y-55284341D01*
X131244596Y-55304936D01*
X131244586Y-55304938D01*
X131016344Y-55366094D01*
X131016335Y-55366098D01*
X130802171Y-55465964D01*
X130802169Y-55465965D01*
X130608597Y-55601505D01*
X130441505Y-55768597D01*
X130311575Y-55954158D01*
X130256998Y-55997783D01*
X130187500Y-56004977D01*
X130125145Y-55973454D01*
X130108425Y-55954158D01*
X129978494Y-55768597D01*
X129811402Y-55601506D01*
X129811395Y-55601501D01*
X129617834Y-55465967D01*
X129617830Y-55465965D01*
X129617828Y-55465964D01*
X129403663Y-55366097D01*
X129403659Y-55366096D01*
X129403655Y-55366094D01*
X129175413Y-55304938D01*
X129175403Y-55304936D01*
X128940001Y-55284341D01*
X128939999Y-55284341D01*
X128704596Y-55304936D01*
X128704586Y-55304938D01*
X128476344Y-55366094D01*
X128476335Y-55366098D01*
X128262171Y-55465964D01*
X128262169Y-55465965D01*
X128068597Y-55601505D01*
X127901505Y-55768597D01*
X127771575Y-55954158D01*
X127716998Y-55997783D01*
X127647500Y-56004977D01*
X127585145Y-55973454D01*
X127568425Y-55954158D01*
X127438494Y-55768597D01*
X127271402Y-55601506D01*
X127271395Y-55601501D01*
X127077834Y-55465967D01*
X127077830Y-55465965D01*
X127077828Y-55465964D01*
X126863663Y-55366097D01*
X126863659Y-55366096D01*
X126863655Y-55366094D01*
X126635413Y-55304938D01*
X126635403Y-55304936D01*
X126400001Y-55284341D01*
X126399999Y-55284341D01*
X126164596Y-55304936D01*
X126164586Y-55304938D01*
X125936344Y-55366094D01*
X125936335Y-55366098D01*
X125722171Y-55465964D01*
X125722169Y-55465965D01*
X125528597Y-55601505D01*
X125361505Y-55768597D01*
X125231575Y-55954158D01*
X125176998Y-55997783D01*
X125107500Y-56004977D01*
X125045145Y-55973454D01*
X125028425Y-55954158D01*
X124898494Y-55768597D01*
X124731402Y-55601506D01*
X124731395Y-55601501D01*
X124537834Y-55465967D01*
X124537830Y-55465965D01*
X124537828Y-55465964D01*
X124323663Y-55366097D01*
X124323659Y-55366096D01*
X124323655Y-55366094D01*
X124095413Y-55304938D01*
X124095403Y-55304936D01*
X123860001Y-55284341D01*
X123859999Y-55284341D01*
X123624596Y-55304936D01*
X123624586Y-55304938D01*
X123396344Y-55366094D01*
X123396335Y-55366098D01*
X123182171Y-55465964D01*
X123182169Y-55465965D01*
X122988597Y-55601505D01*
X122821505Y-55768597D01*
X122685965Y-55962169D01*
X122685964Y-55962171D01*
X122586098Y-56176335D01*
X122586094Y-56176344D01*
X122524938Y-56404586D01*
X122524936Y-56404596D01*
X122504341Y-56639999D01*
X120496636Y-56639999D01*
X120505444Y-56500005D01*
X120505444Y-56499994D01*
X120485689Y-56185995D01*
X120485688Y-56185988D01*
X120485688Y-56185985D01*
X120426731Y-55876921D01*
X120329503Y-55577685D01*
X120195537Y-55292993D01*
X120026947Y-55027337D01*
X120026945Y-55027334D01*
X119826393Y-54784909D01*
X119826391Y-54784907D01*
X119625348Y-54596114D01*
X119597030Y-54569522D01*
X119597027Y-54569520D01*
X119597021Y-54569515D01*
X119342495Y-54384591D01*
X119342488Y-54384586D01*
X119342484Y-54384584D01*
X119066766Y-54233006D01*
X119066763Y-54233004D01*
X119066758Y-54233002D01*
X119066757Y-54233001D01*
X118774228Y-54117181D01*
X118774225Y-54117180D01*
X118469476Y-54038934D01*
X118469463Y-54038932D01*
X118157329Y-53999500D01*
X118157318Y-53999500D01*
X117842682Y-53999500D01*
X117842670Y-53999500D01*
X117530536Y-54038932D01*
X117530523Y-54038934D01*
X117225774Y-54117180D01*
X117225771Y-54117181D01*
X116933242Y-54233001D01*
X116933241Y-54233002D01*
X116657516Y-54384584D01*
X116657504Y-54384591D01*
X116402978Y-54569515D01*
X116402968Y-54569523D01*
X116173608Y-54784907D01*
X116173606Y-54784909D01*
X115973054Y-55027334D01*
X115973051Y-55027338D01*
X115804464Y-55292990D01*
X115804461Y-55292996D01*
X115670499Y-55577678D01*
X115670497Y-55577683D01*
X115573270Y-55876916D01*
X115514311Y-56185988D01*
X115514310Y-56185995D01*
X115494556Y-56499994D01*
X114000500Y-56499994D01*
X114000500Y-53005413D01*
X114000972Y-52994606D01*
X114006906Y-52926782D01*
X114014739Y-52837242D01*
X114018490Y-52815966D01*
X114057969Y-52668627D01*
X114065362Y-52648318D01*
X114080669Y-52615493D01*
X114129823Y-52510081D01*
X114140629Y-52491366D01*
X114228119Y-52366417D01*
X114242007Y-52349865D01*
X114349865Y-52242007D01*
X114366417Y-52228119D01*
X114491366Y-52140629D01*
X114510081Y-52129823D01*
X114648320Y-52065361D01*
X114668627Y-52057969D01*
X114815966Y-52018490D01*
X114837242Y-52014739D01*
X114969885Y-52003134D01*
X114994606Y-52000972D01*
X115005413Y-52000500D01*
X115065892Y-52000500D01*
X197434108Y-52000500D01*
X207934108Y-52000500D01*
X207997513Y-52000500D01*
X208002506Y-52000601D01*
G37*
%TD.AperFunction*%
%TD*%
M02*
