%TF.GenerationSoftware,KiCad,Pcbnew,9.0.0*%
%TF.CreationDate,2025-03-31T14:21:31-07:00*%
%TF.ProjectId,DC33_Cnet_Badge_Main,44433333-5f43-46e6-9574-5f4261646765,rev?*%
%TF.SameCoordinates,Original*%
%TF.FileFunction,Legend,Top*%
%TF.FilePolarity,Positive*%
%FSLAX46Y46*%
G04 Gerber Fmt 4.6, Leading zero omitted, Abs format (unit mm)*
G04 Created by KiCad (PCBNEW 9.0.0) date 2025-03-31 14:21:31*
%MOMM*%
%LPD*%
G01*
G04 APERTURE LIST*
%ADD10C,0.100000*%
%ADD11C,0.150000*%
%ADD12C,0.120000*%
G04 APERTURE END LIST*
D10*
X176523810Y-74957419D02*
X176857143Y-75957419D01*
X176857143Y-75957419D02*
X177190476Y-74957419D01*
X177523810Y-75957419D02*
X177523810Y-74957419D01*
X178333333Y-75433609D02*
X178476190Y-75481228D01*
X178476190Y-75481228D02*
X178523809Y-75528847D01*
X178523809Y-75528847D02*
X178571428Y-75624085D01*
X178571428Y-75624085D02*
X178571428Y-75766942D01*
X178571428Y-75766942D02*
X178523809Y-75862180D01*
X178523809Y-75862180D02*
X178476190Y-75909800D01*
X178476190Y-75909800D02*
X178380952Y-75957419D01*
X178380952Y-75957419D02*
X178000000Y-75957419D01*
X178000000Y-75957419D02*
X178000000Y-74957419D01*
X178000000Y-74957419D02*
X178333333Y-74957419D01*
X178333333Y-74957419D02*
X178428571Y-75005038D01*
X178428571Y-75005038D02*
X178476190Y-75052657D01*
X178476190Y-75052657D02*
X178523809Y-75147895D01*
X178523809Y-75147895D02*
X178523809Y-75243133D01*
X178523809Y-75243133D02*
X178476190Y-75338371D01*
X178476190Y-75338371D02*
X178428571Y-75385990D01*
X178428571Y-75385990D02*
X178333333Y-75433609D01*
X178333333Y-75433609D02*
X178000000Y-75433609D01*
X179571428Y-75957419D02*
X179238095Y-75481228D01*
X179000000Y-75957419D02*
X179000000Y-74957419D01*
X179000000Y-74957419D02*
X179380952Y-74957419D01*
X179380952Y-74957419D02*
X179476190Y-75005038D01*
X179476190Y-75005038D02*
X179523809Y-75052657D01*
X179523809Y-75052657D02*
X179571428Y-75147895D01*
X179571428Y-75147895D02*
X179571428Y-75290752D01*
X179571428Y-75290752D02*
X179523809Y-75385990D01*
X179523809Y-75385990D02*
X179476190Y-75433609D01*
X179476190Y-75433609D02*
X179380952Y-75481228D01*
X179380952Y-75481228D02*
X179000000Y-75481228D01*
X179952381Y-75671704D02*
X180428571Y-75671704D01*
X179857143Y-75957419D02*
X180190476Y-74957419D01*
X180190476Y-74957419D02*
X180523809Y-75957419D01*
X181380952Y-75957419D02*
X180809524Y-75957419D01*
X181095238Y-75957419D02*
X181095238Y-74957419D01*
X181095238Y-74957419D02*
X181000000Y-75100276D01*
X181000000Y-75100276D02*
X180904762Y-75195514D01*
X180904762Y-75195514D02*
X180809524Y-75243133D01*
X170413884Y-73721466D02*
X171175789Y-73721466D01*
X170794836Y-74102419D02*
X170794836Y-73340514D01*
D11*
X208954819Y-103333333D02*
X209669104Y-103333333D01*
X209669104Y-103333333D02*
X209811961Y-103380952D01*
X209811961Y-103380952D02*
X209907200Y-103476190D01*
X209907200Y-103476190D02*
X209954819Y-103619047D01*
X209954819Y-103619047D02*
X209954819Y-103714285D01*
X209954819Y-102333333D02*
X209954819Y-102904761D01*
X209954819Y-102619047D02*
X208954819Y-102619047D01*
X208954819Y-102619047D02*
X209097676Y-102714285D01*
X209097676Y-102714285D02*
X209192914Y-102809523D01*
X209192914Y-102809523D02*
X209240533Y-102904761D01*
D10*
X176619047Y-61623609D02*
X176761904Y-61671228D01*
X176761904Y-61671228D02*
X176809523Y-61718847D01*
X176809523Y-61718847D02*
X176857142Y-61814085D01*
X176857142Y-61814085D02*
X176857142Y-61956942D01*
X176857142Y-61956942D02*
X176809523Y-62052180D01*
X176809523Y-62052180D02*
X176761904Y-62099800D01*
X176761904Y-62099800D02*
X176666666Y-62147419D01*
X176666666Y-62147419D02*
X176285714Y-62147419D01*
X176285714Y-62147419D02*
X176285714Y-61147419D01*
X176285714Y-61147419D02*
X176619047Y-61147419D01*
X176619047Y-61147419D02*
X176714285Y-61195038D01*
X176714285Y-61195038D02*
X176761904Y-61242657D01*
X176761904Y-61242657D02*
X176809523Y-61337895D01*
X176809523Y-61337895D02*
X176809523Y-61433133D01*
X176809523Y-61433133D02*
X176761904Y-61528371D01*
X176761904Y-61528371D02*
X176714285Y-61575990D01*
X176714285Y-61575990D02*
X176619047Y-61623609D01*
X176619047Y-61623609D02*
X176285714Y-61623609D01*
X177285714Y-61147419D02*
X177285714Y-61956942D01*
X177285714Y-61956942D02*
X177333333Y-62052180D01*
X177333333Y-62052180D02*
X177380952Y-62099800D01*
X177380952Y-62099800D02*
X177476190Y-62147419D01*
X177476190Y-62147419D02*
X177666666Y-62147419D01*
X177666666Y-62147419D02*
X177761904Y-62099800D01*
X177761904Y-62099800D02*
X177809523Y-62052180D01*
X177809523Y-62052180D02*
X177857142Y-61956942D01*
X177857142Y-61956942D02*
X177857142Y-61147419D01*
X178238095Y-61147419D02*
X178904761Y-61147419D01*
X178904761Y-61147419D02*
X178238095Y-62147419D01*
X178238095Y-62147419D02*
X178904761Y-62147419D01*
X179190476Y-61147419D02*
X179857142Y-61147419D01*
X179857142Y-61147419D02*
X179190476Y-62147419D01*
X179190476Y-62147419D02*
X179857142Y-62147419D01*
X180761904Y-62147419D02*
X180190476Y-62147419D01*
X180476190Y-62147419D02*
X180476190Y-61147419D01*
X180476190Y-61147419D02*
X180380952Y-61290276D01*
X180380952Y-61290276D02*
X180285714Y-61385514D01*
X180285714Y-61385514D02*
X180190476Y-61433133D01*
X180073884Y-57371466D02*
X180835789Y-57371466D01*
X180454836Y-57752419D02*
X180454836Y-56990514D01*
X131571428Y-93505038D02*
X131476190Y-93457419D01*
X131476190Y-93457419D02*
X131333333Y-93457419D01*
X131333333Y-93457419D02*
X131190476Y-93505038D01*
X131190476Y-93505038D02*
X131095238Y-93600276D01*
X131095238Y-93600276D02*
X131047619Y-93695514D01*
X131047619Y-93695514D02*
X131000000Y-93885990D01*
X131000000Y-93885990D02*
X131000000Y-94028847D01*
X131000000Y-94028847D02*
X131047619Y-94219323D01*
X131047619Y-94219323D02*
X131095238Y-94314561D01*
X131095238Y-94314561D02*
X131190476Y-94409800D01*
X131190476Y-94409800D02*
X131333333Y-94457419D01*
X131333333Y-94457419D02*
X131428571Y-94457419D01*
X131428571Y-94457419D02*
X131571428Y-94409800D01*
X131571428Y-94409800D02*
X131619047Y-94362180D01*
X131619047Y-94362180D02*
X131619047Y-94028847D01*
X131619047Y-94028847D02*
X131428571Y-94028847D01*
X132047619Y-94457419D02*
X132047619Y-93457419D01*
X132047619Y-93457419D02*
X132428571Y-93457419D01*
X132428571Y-93457419D02*
X132523809Y-93505038D01*
X132523809Y-93505038D02*
X132571428Y-93552657D01*
X132571428Y-93552657D02*
X132619047Y-93647895D01*
X132619047Y-93647895D02*
X132619047Y-93790752D01*
X132619047Y-93790752D02*
X132571428Y-93885990D01*
X132571428Y-93885990D02*
X132523809Y-93933609D01*
X132523809Y-93933609D02*
X132428571Y-93981228D01*
X132428571Y-93981228D02*
X132047619Y-93981228D01*
X133000000Y-94409800D02*
X133142857Y-94457419D01*
X133142857Y-94457419D02*
X133380952Y-94457419D01*
X133380952Y-94457419D02*
X133476190Y-94409800D01*
X133476190Y-94409800D02*
X133523809Y-94362180D01*
X133523809Y-94362180D02*
X133571428Y-94266942D01*
X133571428Y-94266942D02*
X133571428Y-94171704D01*
X133571428Y-94171704D02*
X133523809Y-94076466D01*
X133523809Y-94076466D02*
X133476190Y-94028847D01*
X133476190Y-94028847D02*
X133380952Y-93981228D01*
X133380952Y-93981228D02*
X133190476Y-93933609D01*
X133190476Y-93933609D02*
X133095238Y-93885990D01*
X133095238Y-93885990D02*
X133047619Y-93838371D01*
X133047619Y-93838371D02*
X133000000Y-93743133D01*
X133000000Y-93743133D02*
X133000000Y-93647895D01*
X133000000Y-93647895D02*
X133047619Y-93552657D01*
X133047619Y-93552657D02*
X133095238Y-93505038D01*
X133095238Y-93505038D02*
X133190476Y-93457419D01*
X133190476Y-93457419D02*
X133428571Y-93457419D01*
X133428571Y-93457419D02*
X133571428Y-93505038D01*
X133761905Y-94552657D02*
X134523809Y-94552657D01*
X134714286Y-94171704D02*
X135190476Y-94171704D01*
X134619048Y-94457419D02*
X134952381Y-93457419D01*
X134952381Y-93457419D02*
X135285714Y-94457419D01*
X135619048Y-94457419D02*
X135619048Y-93457419D01*
X135619048Y-93457419D02*
X136190476Y-94457419D01*
X136190476Y-94457419D02*
X136190476Y-93457419D01*
X136523810Y-93457419D02*
X137095238Y-93457419D01*
X136809524Y-94457419D02*
X136809524Y-93457419D01*
X147638095Y-67557419D02*
X147638095Y-68366942D01*
X147638095Y-68366942D02*
X147685714Y-68462180D01*
X147685714Y-68462180D02*
X147733333Y-68509800D01*
X147733333Y-68509800D02*
X147828571Y-68557419D01*
X147828571Y-68557419D02*
X148019047Y-68557419D01*
X148019047Y-68557419D02*
X148114285Y-68509800D01*
X148114285Y-68509800D02*
X148161904Y-68462180D01*
X148161904Y-68462180D02*
X148209523Y-68366942D01*
X148209523Y-68366942D02*
X148209523Y-67557419D01*
X149209523Y-68557419D02*
X148638095Y-68557419D01*
X148923809Y-68557419D02*
X148923809Y-67557419D01*
X148923809Y-67557419D02*
X148828571Y-67700276D01*
X148828571Y-67700276D02*
X148733333Y-67795514D01*
X148733333Y-67795514D02*
X148638095Y-67843133D01*
X165809523Y-94505038D02*
X165714285Y-94457419D01*
X165714285Y-94457419D02*
X165571428Y-94457419D01*
X165571428Y-94457419D02*
X165428571Y-94505038D01*
X165428571Y-94505038D02*
X165333333Y-94600276D01*
X165333333Y-94600276D02*
X165285714Y-94695514D01*
X165285714Y-94695514D02*
X165238095Y-94885990D01*
X165238095Y-94885990D02*
X165238095Y-95028847D01*
X165238095Y-95028847D02*
X165285714Y-95219323D01*
X165285714Y-95219323D02*
X165333333Y-95314561D01*
X165333333Y-95314561D02*
X165428571Y-95409800D01*
X165428571Y-95409800D02*
X165571428Y-95457419D01*
X165571428Y-95457419D02*
X165666666Y-95457419D01*
X165666666Y-95457419D02*
X165809523Y-95409800D01*
X165809523Y-95409800D02*
X165857142Y-95362180D01*
X165857142Y-95362180D02*
X165857142Y-95028847D01*
X165857142Y-95028847D02*
X165666666Y-95028847D01*
X166285714Y-95457419D02*
X166285714Y-94457419D01*
X166285714Y-94457419D02*
X166666666Y-94457419D01*
X166666666Y-94457419D02*
X166761904Y-94505038D01*
X166761904Y-94505038D02*
X166809523Y-94552657D01*
X166809523Y-94552657D02*
X166857142Y-94647895D01*
X166857142Y-94647895D02*
X166857142Y-94790752D01*
X166857142Y-94790752D02*
X166809523Y-94885990D01*
X166809523Y-94885990D02*
X166761904Y-94933609D01*
X166761904Y-94933609D02*
X166666666Y-94981228D01*
X166666666Y-94981228D02*
X166285714Y-94981228D01*
X167238095Y-95409800D02*
X167380952Y-95457419D01*
X167380952Y-95457419D02*
X167619047Y-95457419D01*
X167619047Y-95457419D02*
X167714285Y-95409800D01*
X167714285Y-95409800D02*
X167761904Y-95362180D01*
X167761904Y-95362180D02*
X167809523Y-95266942D01*
X167809523Y-95266942D02*
X167809523Y-95171704D01*
X167809523Y-95171704D02*
X167761904Y-95076466D01*
X167761904Y-95076466D02*
X167714285Y-95028847D01*
X167714285Y-95028847D02*
X167619047Y-94981228D01*
X167619047Y-94981228D02*
X167428571Y-94933609D01*
X167428571Y-94933609D02*
X167333333Y-94885990D01*
X167333333Y-94885990D02*
X167285714Y-94838371D01*
X167285714Y-94838371D02*
X167238095Y-94743133D01*
X167238095Y-94743133D02*
X167238095Y-94647895D01*
X167238095Y-94647895D02*
X167285714Y-94552657D01*
X167285714Y-94552657D02*
X167333333Y-94505038D01*
X167333333Y-94505038D02*
X167428571Y-94457419D01*
X167428571Y-94457419D02*
X167666666Y-94457419D01*
X167666666Y-94457419D02*
X167809523Y-94505038D01*
X168761904Y-95457419D02*
X168190476Y-95457419D01*
X168476190Y-95457419D02*
X168476190Y-94457419D01*
X168476190Y-94457419D02*
X168380952Y-94600276D01*
X168380952Y-94600276D02*
X168285714Y-94695514D01*
X168285714Y-94695514D02*
X168190476Y-94743133D01*
%TO.C,VIBRA1*%
X185330000Y-75500000D02*
G75*
G02*
X175170000Y-75500000I-5080000J0D01*
G01*
X175170000Y-75500000D02*
G75*
G02*
X185330000Y-75500000I5080000J0D01*
G01*
D12*
%TO.C,J1*%
X211017500Y-99090000D02*
X211017500Y-106830000D01*
X211017500Y-99090000D02*
X213617500Y-99090000D01*
X211017500Y-106830000D02*
X216217500Y-106830000D01*
X213617500Y-99090000D02*
X213617500Y-101690000D01*
X213617500Y-101690000D02*
X216217500Y-101690000D01*
X214887500Y-99090000D02*
X216217500Y-99090000D01*
X216217500Y-99090000D02*
X216217500Y-100420000D01*
D10*
X216217500Y-101690000D02*
X217427500Y-101690000D01*
D12*
X216217500Y-104230000D02*
X216217500Y-106830000D01*
D10*
X217427500Y-101690000D02*
X217427500Y-104230000D01*
X217427500Y-104230000D02*
X216157500Y-104230000D01*
%TO.C,BUZZ1*%
X184850000Y-61690000D02*
G75*
G02*
X172150000Y-61690000I-6350000J0D01*
G01*
X172150000Y-61690000D02*
G75*
G02*
X184850000Y-61690000I6350000J0D01*
G01*
%TO.C,GPS_ANT*%
X121287300Y-81800000D02*
X146712700Y-81800000D01*
X146712700Y-107200000D01*
X121287300Y-107200000D01*
X121287300Y-81800000D01*
%TO.C,U1*%
X120050000Y-73070000D02*
X120050000Y-63070000D01*
X120050000Y-73070000D02*
X121320000Y-73070000D01*
X121320000Y-56640000D02*
X121320000Y-63070000D01*
X121320000Y-63070000D02*
X120050000Y-63070000D01*
X121320000Y-79500000D02*
X121320000Y-73070000D01*
X122590000Y-55370000D02*
X121320000Y-56640000D01*
X122590000Y-80770000D02*
X121320000Y-79500000D01*
X168310000Y-55370000D02*
X122590000Y-55370000D01*
X168310000Y-61720000D02*
X168310000Y-55370000D01*
X168310000Y-61720000D02*
X170850000Y-64260000D01*
X168310000Y-74420000D02*
X168310000Y-80770000D01*
X168310000Y-80770000D02*
X122590000Y-80770000D01*
X170850000Y-64260000D02*
X170850000Y-71880000D01*
X170850000Y-71880000D02*
X168310000Y-74420000D01*
%TO.C,GPS1*%
X184792700Y-107200000D02*
X149207300Y-107200000D01*
X149207300Y-81800000D01*
X184792700Y-81800000D01*
X184792700Y-107200000D01*
%TD*%
M02*
