%TF.GenerationSoftware,KiCad,Pcbnew,9.0.0*%
%TF.CreationDate,2025-05-16T10:45:57-07:00*%
%TF.ProjectId,DC33_Cnet_Badge_Main,44433333-5f43-46e6-9574-5f4261646765,rev?*%
%TF.SameCoordinates,Original*%
%TF.FileFunction,Legend,Bot*%
%TF.FilePolarity,Positive*%
%FSLAX46Y46*%
G04 Gerber Fmt 4.6, Leading zero omitted, Abs format (unit mm)*
G04 Created by KiCad (PCBNEW 9.0.0) date 2025-05-16 10:45:57*
%MOMM*%
%LPD*%
G01*
G04 APERTURE LIST*
%ADD10C,0.550000*%
%ADD11C,0.100000*%
G04 APERTURE END LIST*
D10*
X139275000Y-53500000D02*
G75*
G02*
X138725000Y-53500000I-275000J0D01*
G01*
X138725000Y-53500000D02*
G75*
G02*
X139275000Y-53500000I275000J0D01*
G01*
X124275000Y-82500000D02*
G75*
G02*
X123725000Y-82500000I-275000J0D01*
G01*
X123725000Y-82500000D02*
G75*
G02*
X124275000Y-82500000I275000J0D01*
G01*
X134275000Y-53500000D02*
G75*
G02*
X133725000Y-53500000I-275000J0D01*
G01*
X133725000Y-53500000D02*
G75*
G02*
X134275000Y-53500000I275000J0D01*
G01*
X154775000Y-82500000D02*
G75*
G02*
X154225000Y-82500000I-275000J0D01*
G01*
X154225000Y-82500000D02*
G75*
G02*
X154775000Y-82500000I275000J0D01*
G01*
X141775000Y-53500000D02*
G75*
G02*
X141225000Y-53500000I-275000J0D01*
G01*
X141225000Y-53500000D02*
G75*
G02*
X141775000Y-53500000I275000J0D01*
G01*
X146775000Y-53500000D02*
G75*
G02*
X146225000Y-53500000I-275000J0D01*
G01*
X146225000Y-53500000D02*
G75*
G02*
X146775000Y-53500000I275000J0D01*
G01*
X126775000Y-53500000D02*
G75*
G02*
X126225000Y-53500000I-275000J0D01*
G01*
X126225000Y-53500000D02*
G75*
G02*
X126775000Y-53500000I275000J0D01*
G01*
X157275000Y-82500000D02*
G75*
G02*
X156725000Y-82500000I-275000J0D01*
G01*
X156725000Y-82500000D02*
G75*
G02*
X157275000Y-82500000I275000J0D01*
G01*
X136775000Y-53500000D02*
G75*
G02*
X136225000Y-53500000I-275000J0D01*
G01*
X136225000Y-53500000D02*
G75*
G02*
X136775000Y-53500000I275000J0D01*
G01*
X144275000Y-53500000D02*
G75*
G02*
X143725000Y-53500000I-275000J0D01*
G01*
X143725000Y-53500000D02*
G75*
G02*
X144275000Y-53500000I275000J0D01*
G01*
D11*
X152880952Y-94957419D02*
X153357142Y-94957419D01*
X153357142Y-94957419D02*
X153357142Y-93957419D01*
X152547618Y-94957419D02*
X152547618Y-94290752D01*
X152547618Y-93957419D02*
X152595237Y-94005038D01*
X152595237Y-94005038D02*
X152547618Y-94052657D01*
X152547618Y-94052657D02*
X152499999Y-94005038D01*
X152499999Y-94005038D02*
X152547618Y-93957419D01*
X152547618Y-93957419D02*
X152547618Y-94052657D01*
X152071428Y-94957419D02*
X152071428Y-93957419D01*
X152071428Y-93957419D02*
X151690476Y-93957419D01*
X151690476Y-93957419D02*
X151595238Y-94005038D01*
X151595238Y-94005038D02*
X151547619Y-94052657D01*
X151547619Y-94052657D02*
X151500000Y-94147895D01*
X151500000Y-94147895D02*
X151500000Y-94290752D01*
X151500000Y-94290752D02*
X151547619Y-94385990D01*
X151547619Y-94385990D02*
X151595238Y-94433609D01*
X151595238Y-94433609D02*
X151690476Y-94481228D01*
X151690476Y-94481228D02*
X152071428Y-94481228D01*
X150928571Y-94957419D02*
X151023809Y-94909800D01*
X151023809Y-94909800D02*
X151071428Y-94862180D01*
X151071428Y-94862180D02*
X151119047Y-94766942D01*
X151119047Y-94766942D02*
X151119047Y-94481228D01*
X151119047Y-94481228D02*
X151071428Y-94385990D01*
X151071428Y-94385990D02*
X151023809Y-94338371D01*
X151023809Y-94338371D02*
X150928571Y-94290752D01*
X150928571Y-94290752D02*
X150785714Y-94290752D01*
X150785714Y-94290752D02*
X150690476Y-94338371D01*
X150690476Y-94338371D02*
X150642857Y-94385990D01*
X150642857Y-94385990D02*
X150595238Y-94481228D01*
X150595238Y-94481228D02*
X150595238Y-94766942D01*
X150595238Y-94766942D02*
X150642857Y-94862180D01*
X150642857Y-94862180D02*
X150690476Y-94909800D01*
X150690476Y-94909800D02*
X150785714Y-94957419D01*
X150785714Y-94957419D02*
X150928571Y-94957419D01*
%TO.C,LiPo*%
X131545000Y-81800000D02*
X173455000Y-81800000D01*
X173455000Y-107200000D01*
X131545000Y-107200000D01*
X131545000Y-81800000D01*
%TD*%
M02*
