%TF.GenerationSoftware,KiCad,Pcbnew,9.0.0*%
%TF.CreationDate,2025-05-16T10:45:57-07:00*%
%TF.ProjectId,DC33_Cnet_Badge_Main,44433333-5f43-46e6-9574-5f4261646765,rev?*%
%TF.SameCoordinates,Original*%
%TF.FileFunction,Profile,NP*%
%FSLAX46Y46*%
G04 Gerber Fmt 4.6, Leading zero omitted, Abs format (unit mm)*
G04 Created by KiCad (PCBNEW 9.0.0) date 2025-05-16 10:45:57*
%MOMM*%
%LPD*%
G01*
G04 APERTURE LIST*
%TA.AperFunction,Profile*%
%ADD10C,0.050000*%
%TD*%
G04 APERTURE END LIST*
D10*
X197500000Y-107999340D02*
G75*
G02*
X196000000Y-109500000I-1500700J40D01*
G01*
X197500000Y-66000000D02*
G75*
G02*
X199000000Y-64500000I1500000J0D01*
G01*
X194500000Y-104500000D02*
G75*
G02*
X190500000Y-104500000I-2000000J0D01*
G01*
X190500000Y-104500000D02*
G75*
G02*
X194500000Y-104500000I2000000J0D01*
G01*
X197500000Y-51500000D02*
X208000000Y-51500000D01*
X208000000Y-51500000D02*
G75*
G02*
X208000000Y-64500000I0J-6500000D01*
G01*
X195999340Y-109499340D02*
X115000000Y-109500000D01*
X113500000Y-53000000D02*
G75*
G02*
X115000000Y-51500000I1500000J0D01*
G01*
X120000000Y-56500000D02*
G75*
G02*
X116000000Y-56500000I-2000000J0D01*
G01*
X116000000Y-56500000D02*
G75*
G02*
X120000000Y-56500000I2000000J0D01*
G01*
X120000000Y-104500000D02*
G75*
G02*
X116000000Y-104500000I-2000000J0D01*
G01*
X116000000Y-104500000D02*
G75*
G02*
X120000000Y-104500000I2000000J0D01*
G01*
X113500000Y-108000000D02*
X113500000Y-53000000D01*
X211000000Y-58000000D02*
G75*
G02*
X205000000Y-58000000I-3000000J0D01*
G01*
X205000000Y-58000000D02*
G75*
G02*
X211000000Y-58000000I3000000J0D01*
G01*
X115000000Y-51500000D02*
X197500000Y-51500000D01*
X194500000Y-56500000D02*
G75*
G02*
X190500000Y-56500000I-2000000J0D01*
G01*
X190500000Y-56500000D02*
G75*
G02*
X194500000Y-56500000I2000000J0D01*
G01*
X115000000Y-109500000D02*
G75*
G02*
X113500000Y-108000000I0J1500000D01*
G01*
X196000000Y-109500000D02*
X196000000Y-109500000D01*
X197500000Y-66000000D02*
X197499340Y-107999300D01*
X199000000Y-64500000D02*
X208000000Y-64500000D01*
%TO.C,U1*%
X121680000Y-63570000D02*
X121680000Y-72570000D01*
X121680000Y-72570000D02*
X125130000Y-72570000D01*
X125130000Y-60570000D02*
X125130000Y-63570000D01*
X125130000Y-63570000D02*
X121680000Y-63570000D01*
X125130000Y-72570000D02*
X125130000Y-75570000D01*
X125130000Y-75570000D02*
X144180000Y-75570000D01*
X144180000Y-60570000D02*
X125130000Y-60570000D01*
X144180000Y-75570000D02*
X144180000Y-60570000D01*
%TD*%
M02*
