M48
; DRILL file {KiCad 8.0.4} date 2024-12-05T13:36:37-0800
; FORMAT={-:-/ absolute / inch / decimal}
; #@! TF.CreationDate,2024-12-05T13:36:37-08:00
; #@! TF.GenerationSoftware,Kicad,Pcbnew,8.0.4
; #@! TF.FileFunction,Plated,1,2,PTH
FMAT,2
INCH
; #@! TA.AperFunction,Plated,PTH,ComponentDrill
T1C0.0300
; #@! TA.AperFunction,Plated,PTH,ComponentDrill
T2C0.0394
%
G90
G05
T1
X6.7913Y-2.9224
X6.7913Y-3.0224
X7.0276Y-2.2787
X7.0276Y-2.5787
T2
X4.8764Y-2.2299
X4.8764Y-3.1299
X4.9764Y-2.2299
X4.9764Y-3.1299
X5.0764Y-2.2299
X5.0764Y-3.1299
X5.1764Y-2.2299
X5.1764Y-3.1299
X5.2764Y-2.2299
X5.2764Y-3.1299
X5.3764Y-2.2299
X5.3764Y-3.1299
X5.4764Y-2.2299
X5.4764Y-3.1299
X5.5764Y-2.2299
X5.5764Y-3.1299
X5.6764Y-2.2299
X5.6764Y-3.1299
X5.7764Y-2.2299
X5.7764Y-3.1299
X5.8764Y-2.2299
X5.8764Y-3.1299
X5.9764Y-2.2299
X5.9764Y-3.1299
X6.0764Y-2.2299
X6.0764Y-3.1299
X6.1764Y-2.2299
X6.1764Y-3.1299
X6.2764Y-2.2299
X6.2764Y-3.1299
X6.3764Y-2.2299
X6.3764Y-3.1299
X6.4764Y-2.2299
X6.4764Y-3.1299
X6.5764Y-2.2299
X6.5764Y-3.1299
X7.2248Y-3.5705
X7.2248Y-3.6705
X7.2248Y-3.7705
X7.2248Y-3.8705
X7.4906Y-3.0559
X7.4906Y-3.1559
X7.4906Y-3.2559
X7.5906Y-3.0559
X7.5906Y-3.1559
X7.5906Y-3.2559
M30
