%TF.GenerationSoftware,KiCad,Pcbnew,9.0.0*%
%TF.CreationDate,2025-03-31T14:21:31-07:00*%
%TF.ProjectId,DC33_Cnet_Badge_Main,44433333-5f43-46e6-9574-5f4261646765,rev?*%
%TF.SameCoordinates,Original*%
%TF.FileFunction,Soldermask,Top*%
%TF.FilePolarity,Negative*%
%FSLAX46Y46*%
G04 Gerber Fmt 4.6, Leading zero omitted, Abs format (unit mm)*
G04 Created by KiCad (PCBNEW 9.0.0) date 2025-03-31 14:21:31*
%MOMM*%
%LPD*%
G01*
G04 APERTURE LIST*
%ADD10C,1.524000*%
%ADD11R,1.700000X1.700000*%
%ADD12O,1.700000X1.700000*%
%ADD13C,1.700000*%
G04 APERTURE END LIST*
D10*
%TO.C,VIBRA1*%
X172500000Y-74230000D03*
X172500000Y-76770000D03*
%TD*%
D11*
%TO.C,J1*%
X214887500Y-100420000D03*
D12*
X212347500Y-100420000D03*
X214887500Y-102960000D03*
X212347500Y-102960000D03*
X214887500Y-105500000D03*
X212347500Y-105500000D03*
%TD*%
D10*
%TO.C,BUZZ1*%
X178500000Y-57880000D03*
X178500000Y-65500000D03*
%TD*%
D13*
%TO.C,U1*%
X123860000Y-79500000D03*
X126400000Y-79500000D03*
X128940000Y-79500000D03*
X131480000Y-79500000D03*
X134020000Y-79500000D03*
X136560000Y-79500000D03*
X139100000Y-79500000D03*
X141640000Y-79500000D03*
X144180000Y-79500000D03*
X146720000Y-79500000D03*
X149260000Y-79500000D03*
X151800000Y-79500000D03*
X154340000Y-79500000D03*
X156880000Y-79500000D03*
X159420000Y-79500000D03*
X161960000Y-79500000D03*
X164500000Y-79500000D03*
X167040000Y-79500000D03*
X167040000Y-56640000D03*
X164500000Y-56640000D03*
X161960000Y-56640000D03*
X159420000Y-56640000D03*
X156880000Y-56640000D03*
X154340000Y-56640000D03*
X151800000Y-56640000D03*
X149260000Y-56640000D03*
X146720000Y-56640000D03*
X144180000Y-56640000D03*
X141640000Y-56640000D03*
X139100000Y-56640000D03*
X136560000Y-56640000D03*
X134020000Y-56640000D03*
X131480000Y-56640000D03*
X128940000Y-56640000D03*
X126400000Y-56640000D03*
X123860000Y-56640000D03*
%TD*%
%TO.C,GPS1*%
X183510000Y-90690000D03*
X183510000Y-93230000D03*
X183510000Y-95770000D03*
X183510000Y-98310000D03*
%TD*%
M02*
