%TF.GenerationSoftware,KiCad,Pcbnew,8.0.4*%
%TF.CreationDate,2024-09-17T14:39:11-07:00*%
%TF.ProjectId,DC33_Cnet_Badge_Main,44433333-5f43-46e6-9574-5f4261646765,rev?*%
%TF.SameCoordinates,Original*%
%TF.FileFunction,Copper,L2,Bot*%
%TF.FilePolarity,Positive*%
%FSLAX46Y46*%
G04 Gerber Fmt 4.6, Leading zero omitted, Abs format (unit mm)*
G04 Created by KiCad (PCBNEW 8.0.4) date 2024-09-17 14:39:11*
%MOMM*%
%LPD*%
G01*
G04 APERTURE LIST*
%TA.AperFunction,ComponentPad*%
%ADD10C,1.524000*%
%TD*%
%TA.AperFunction,Conductor*%
%ADD11C,0.200000*%
%TD*%
G04 APERTURE END LIST*
D10*
%TO.P,VIBRA1,1,POS*%
%TO.N,Net-(U1-GPIO45)*%
X123660000Y-128770000D03*
%TO.P,VIBRA1,2,NEG*%
%TO.N,GND*%
X123660000Y-126230000D03*
%TD*%
%TO.P,U1,1,GND*%
%TO.N,GND*%
X142930000Y-110090000D03*
%TO.P,U1,2,5V*%
%TO.N,unconnected-(U1-5V-Pad2)*%
X142930000Y-107550000D03*
%TO.P,U1,3,Ve*%
%TO.N,unconnected-(U1-Ve-Pad3)*%
X142930000Y-105010000D03*
%TO.P,U1,4,Ve*%
%TO.N,unconnected-(U1-Ve-Pad4)*%
X142930000Y-102470000D03*
%TO.P,U1,5,RX*%
%TO.N,unconnected-(U1-RX-Pad5)*%
X142930000Y-99930000D03*
%TO.P,U1,6,TX*%
%TO.N,unconnected-(U1-TX-Pad6)*%
X142930000Y-97390000D03*
%TO.P,U1,7,RST*%
%TO.N,unconnected-(U1-RST-Pad7)*%
X142930000Y-94850000D03*
%TO.P,U1,8,GPIO0*%
%TO.N,unconnected-(U1-GPIO0-Pad8)*%
X142930000Y-92310000D03*
%TO.P,U1,9,GPIO36*%
%TO.N,unconnected-(U1-GPIO36-Pad9)*%
X142930000Y-89770000D03*
%TO.P,U1,10,GPIO35*%
%TO.N,unconnected-(U1-GPIO35-Pad10)*%
X142930000Y-87230000D03*
%TO.P,U1,11,GPIO34*%
%TO.N,unconnected-(U1-GPIO34-Pad11)*%
X142930000Y-84690000D03*
%TO.P,U1,12,GPIO33*%
%TO.N,unconnected-(U1-GPIO33-Pad12)*%
X142930000Y-82150000D03*
%TO.P,U1,13,GPIO47*%
%TO.N,Net-(GPS1-RX)*%
X142930000Y-79610000D03*
%TO.P,U1,14,GPIO48*%
%TO.N,Net-(GPS1-TX)*%
X142930000Y-77070000D03*
%TO.P,U1,15,GPIO26*%
%TO.N,unconnected-(U1-GPIO26-Pad15)*%
X142930000Y-74530000D03*
%TO.P,U1,16,GPIO21*%
%TO.N,unconnected-(U1-GPIO21-Pad16)*%
X142930000Y-71990000D03*
%TO.P,U1,17,GPIO20*%
%TO.N,unconnected-(U1-GPIO20-Pad17)*%
X142930000Y-69450000D03*
%TO.P,U1,18,GPIO19*%
%TO.N,unconnected-(U1-GPIO19-Pad18)*%
X142930000Y-66910000D03*
%TO.P,U1,19,GPIO7*%
%TO.N,unconnected-(U1-GPIO7-Pad19)*%
X120070000Y-66910000D03*
%TO.P,U1,20,GPIO6*%
%TO.N,unconnected-(U1-GPIO6-Pad20)*%
X120070000Y-69450000D03*
%TO.P,U1,21,GPIO5*%
%TO.N,unconnected-(U1-GPIO5-Pad21)*%
X120070000Y-71990000D03*
%TO.P,U1,22,GPIO4*%
%TO.N,unconnected-(U1-GPIO4-Pad22)*%
X120070000Y-74530000D03*
%TO.P,U1,23,GPIO3*%
%TO.N,unconnected-(U1-GPIO3-Pad23)*%
X120070000Y-77070000D03*
%TO.P,U1,24,GPIO2*%
%TO.N,unconnected-(U1-GPIO2-Pad24)*%
X120070000Y-79610000D03*
%TO.P,U1,25,GPIO1*%
%TO.N,unconnected-(U1-GPIO1-Pad25)*%
X120070000Y-82150000D03*
%TO.P,U1,26,GPIO38*%
%TO.N,unconnected-(U1-GPIO38-Pad26)*%
X120070000Y-84690000D03*
%TO.P,U1,27,GPIO39*%
%TO.N,unconnected-(U1-GPIO39-Pad27)*%
X120070000Y-87230000D03*
%TO.P,U1,28,GPIO40*%
%TO.N,unconnected-(U1-GPIO40-Pad28)*%
X120070000Y-89770000D03*
%TO.P,U1,29,GPIO41*%
%TO.N,unconnected-(U1-GPIO41-Pad29)*%
X120070000Y-92310000D03*
%TO.P,U1,30,GPIO42*%
%TO.N,unconnected-(U1-GPIO42-Pad30)*%
X120070000Y-94850000D03*
%TO.P,U1,31,GPIO45*%
%TO.N,Net-(U1-GPIO45)*%
X120070000Y-97390000D03*
%TO.P,U1,32,GPIO46*%
%TO.N,Net-(BUZZ1-POS)*%
X120070000Y-99930000D03*
%TO.P,U1,33,GPIO37*%
%TO.N,unconnected-(U1-GPIO37-Pad33)*%
X120070000Y-102470000D03*
%TO.P,U1,34,3V3*%
%TO.N,unconnected-(U1-3V3-Pad34)*%
X120070000Y-105010000D03*
%TO.P,U1,35,3V3*%
%TO.N,3V3*%
X120070000Y-107550000D03*
%TO.P,U1,36,GND*%
%TO.N,unconnected-(U1-GND-Pad36)*%
X120070000Y-110090000D03*
%TD*%
%TO.P,BUZZ1,1,POS*%
%TO.N,Net-(BUZZ1-POS)*%
X120000000Y-140000000D03*
%TO.P,BUZZ1,2,NEG*%
%TO.N,GND*%
X127620000Y-140000000D03*
%TD*%
%TO.P,GPS1,1,VCC*%
%TO.N,3V3*%
X146990000Y-82310000D03*
%TO.P,GPS1,2,RX*%
%TO.N,Net-(GPS1-RX)*%
X146990000Y-79770000D03*
%TO.P,GPS1,3,TX*%
%TO.N,Net-(GPS1-TX)*%
X146990000Y-77230000D03*
%TO.P,GPS1,4,GND*%
%TO.N,GND*%
X146990000Y-74690000D03*
%TD*%
D11*
%TO.N,3V3*%
X146990000Y-107010000D02*
X146990000Y-82310000D01*
X121132000Y-108612000D02*
X145388000Y-108612000D01*
X120070000Y-107550000D02*
X121132000Y-108612000D01*
X145388000Y-108612000D02*
X146990000Y-107010000D01*
%TO.N,GND*%
X148690000Y-74690000D02*
X146990000Y-74690000D01*
X150000000Y-76000000D02*
X148690000Y-74690000D01*
X150000000Y-106500000D02*
X150000000Y-76000000D01*
X146410000Y-110090000D02*
X150000000Y-106500000D01*
X142930000Y-110090000D02*
X146410000Y-110090000D01*
X139800000Y-110090000D02*
X123660000Y-126230000D01*
X142930000Y-110090000D02*
X139800000Y-110090000D01*
X127620000Y-130190000D02*
X123660000Y-126230000D01*
X127620000Y-140000000D02*
X127620000Y-130190000D01*
%TD*%
M02*
