%TF.GenerationSoftware,KiCad,Pcbnew,8.0.4*%
%TF.CreationDate,2024-09-17T14:39:20-07:00*%
%TF.ProjectId,DC33_Cnet_Badge_Main,44433333-5f43-46e6-9574-5f4261646765,rev?*%
%TF.SameCoordinates,Original*%
%TF.FileFunction,Drillmap*%
%TF.FilePolarity,Positive*%
%FSLAX45Y45*%
G04 Gerber Fmt 4.5, Leading zero omitted, Abs format (unit mm)*
G04 Created by KiCad (PCBNEW 8.0.4) date 2024-09-17 14:39:20*
%MOMM*%
%LPD*%
G01*
G04 APERTURE LIST*
%ADD10C,0.050000*%
%ADD11C,0.084666*%
%ADD12C,0.200000*%
G04 APERTURE END LIST*
D10*
X15500000Y-5350000D02*
G75*
G02*
X14900000Y-5350000I-300000J0D01*
G01*
X14900000Y-5350000D02*
G75*
G02*
X15500000Y-5350000I300000J0D01*
G01*
X18300000Y-4720000D02*
G75*
G02*
X17700000Y-4720000I-300000J0D01*
G01*
X17700000Y-4720000D02*
G75*
G02*
X18300000Y-4720000I300000J0D01*
G01*
D11*
X13825417Y-4041263D02*
X13840059Y-4041746D01*
X13853063Y-4042719D01*
X13864580Y-4044219D01*
X13874761Y-4046284D01*
X13883758Y-4048951D01*
X13891723Y-4052258D01*
X13898807Y-4056242D01*
X13905161Y-4060940D01*
X13910938Y-4066390D01*
X13916288Y-4072629D01*
X13921363Y-4079694D01*
X13926315Y-4087624D01*
X13928778Y-4091908D01*
X13930965Y-4095967D01*
X13932882Y-4099844D01*
X13934537Y-4103583D01*
X13935936Y-4107228D01*
X13937086Y-4110822D01*
X13937993Y-4114410D01*
X13938663Y-4118036D01*
X13939104Y-4121743D01*
X13939323Y-4125575D01*
X13939325Y-4129577D01*
X13939118Y-4133791D01*
X13938708Y-4138263D01*
X13938102Y-4143035D01*
X13937307Y-4148152D01*
X13936328Y-4153658D01*
X13935529Y-4157568D01*
X13934577Y-4161592D01*
X13933483Y-4165700D01*
X13932261Y-4169861D01*
X13930923Y-4174044D01*
X13929481Y-4178221D01*
X13927947Y-4182359D01*
X13926335Y-4186430D01*
X13924656Y-4190401D01*
X13922923Y-4194244D01*
X13921148Y-4197928D01*
X13919344Y-4201422D01*
X13917523Y-4204695D01*
X13915698Y-4207719D01*
X13913881Y-4210461D01*
X13912084Y-4212893D01*
X13909524Y-4216233D01*
X13907258Y-4219388D01*
X13905281Y-4222399D01*
X13903584Y-4225305D01*
X13902839Y-4226731D01*
X13902161Y-4228146D01*
X13901550Y-4229556D01*
X13901005Y-4230964D01*
X13900525Y-4232376D01*
X13900108Y-4233797D01*
X13899755Y-4235231D01*
X13899464Y-4236685D01*
X13899234Y-4238163D01*
X13899064Y-4239669D01*
X13898954Y-4241210D01*
X13898903Y-4242790D01*
X13898909Y-4244413D01*
X13898973Y-4246086D01*
X13899266Y-4249598D01*
X13899777Y-4253366D01*
X13900497Y-4257430D01*
X13901419Y-4261831D01*
X13902537Y-4266608D01*
X13904197Y-4275231D01*
X13905951Y-4287618D01*
X13907745Y-4303188D01*
X13909528Y-4321358D01*
X13911245Y-4341548D01*
X13912843Y-4363176D01*
X13914271Y-4385660D01*
X13915473Y-4408418D01*
X13916684Y-4430738D01*
X13918134Y-4451965D01*
X13919768Y-4471608D01*
X13921532Y-4489171D01*
X13923371Y-4504162D01*
X13925231Y-4516086D01*
X13927057Y-4524450D01*
X13927940Y-4527143D01*
X13928794Y-4528761D01*
X13929272Y-4529424D01*
X13929707Y-4530151D01*
X13930101Y-4530940D01*
X13930453Y-4531791D01*
X13930763Y-4532705D01*
X13931031Y-4533681D01*
X13931257Y-4534718D01*
X13931441Y-4535817D01*
X13931684Y-4538197D01*
X13931760Y-4540818D01*
X13931669Y-4543677D01*
X13931412Y-4546773D01*
X13930989Y-4550103D01*
X13930399Y-4553664D01*
X13929644Y-4557453D01*
X13928724Y-4561469D01*
X13927638Y-4565708D01*
X13926388Y-4570169D01*
X13924973Y-4574848D01*
X13923393Y-4579743D01*
X13918257Y-4597135D01*
X13912230Y-4620537D01*
X13905796Y-4647688D01*
X13899443Y-4676327D01*
X13893655Y-4704192D01*
X13888920Y-4729022D01*
X13885722Y-4748555D01*
X13884852Y-4755628D01*
X13884549Y-4760529D01*
X13885119Y-4760953D01*
X13886817Y-4761367D01*
X13893516Y-4762170D01*
X13919566Y-4763660D01*
X13961418Y-4764976D01*
X14017792Y-4766100D01*
X14168988Y-4767686D01*
X14362916Y-4768251D01*
X14841283Y-4768251D01*
X14839852Y-4728034D01*
X14839636Y-4717873D01*
X14839704Y-4707705D01*
X14840054Y-4697556D01*
X14840678Y-4687456D01*
X14841572Y-4677432D01*
X14842730Y-4667512D01*
X14844147Y-4657724D01*
X14845819Y-4648097D01*
X14847739Y-4638657D01*
X14849902Y-4629434D01*
X14852303Y-4620456D01*
X14854937Y-4611749D01*
X14857799Y-4603343D01*
X14860883Y-4595265D01*
X14864183Y-4587543D01*
X14867696Y-4580205D01*
X14869319Y-4576861D01*
X14870899Y-4573326D01*
X14872429Y-4569633D01*
X14873899Y-4565810D01*
X14875302Y-4561889D01*
X14876628Y-4557900D01*
X14877871Y-4553872D01*
X14879021Y-4549838D01*
X14880070Y-4545826D01*
X14881011Y-4541868D01*
X14881834Y-4537993D01*
X14882531Y-4534232D01*
X14883094Y-4530616D01*
X14883515Y-4527175D01*
X14883785Y-4523939D01*
X14883896Y-4520938D01*
X14884008Y-4518002D01*
X14884278Y-4514954D01*
X14884699Y-4511819D01*
X14885261Y-4508620D01*
X14885957Y-4505382D01*
X14886779Y-4502128D01*
X14887717Y-4498883D01*
X14888765Y-4495671D01*
X14889913Y-4492515D01*
X14891153Y-4489440D01*
X14892478Y-4486470D01*
X14893878Y-4483629D01*
X14895345Y-4480941D01*
X14896872Y-4478430D01*
X14898450Y-4476119D01*
X14900070Y-4474034D01*
X14902535Y-4471207D01*
X14903764Y-4469900D01*
X14904999Y-4468662D01*
X14906246Y-4467492D01*
X14907511Y-4466387D01*
X14908800Y-4465345D01*
X14910119Y-4464367D01*
X14911474Y-4463448D01*
X14912872Y-4462588D01*
X14914319Y-4461785D01*
X14915819Y-4461037D01*
X14917380Y-4460342D01*
X14919008Y-4459699D01*
X14920708Y-4459106D01*
X14922488Y-4458562D01*
X14924351Y-4458063D01*
X14926306Y-4457610D01*
X14928358Y-4457199D01*
X14930512Y-4456830D01*
X14932776Y-4456500D01*
X14935154Y-4456208D01*
X14940281Y-4455731D01*
X14945941Y-4455383D01*
X14952182Y-4455152D01*
X14959054Y-4455024D01*
X14966604Y-4454984D01*
X14982239Y-4454878D01*
X14988719Y-4454710D01*
X14994392Y-4454434D01*
X14999321Y-4454026D01*
X15003569Y-4453462D01*
X15007199Y-4452720D01*
X15010274Y-4451775D01*
X15012858Y-4450604D01*
X15013986Y-4449926D01*
X15015014Y-4449182D01*
X15015951Y-4448371D01*
X15016805Y-4447488D01*
X15018293Y-4445496D01*
X15019543Y-4443183D01*
X15020617Y-4440527D01*
X15021579Y-4437502D01*
X15022491Y-4434085D01*
X15025163Y-4425048D01*
X15028746Y-4415498D01*
X15033183Y-4405515D01*
X15038417Y-4395175D01*
X15044389Y-4384556D01*
X15051044Y-4373736D01*
X15058324Y-4362792D01*
X15066172Y-4351801D01*
X15074530Y-4340841D01*
X15083341Y-4329990D01*
X15092548Y-4319324D01*
X15102094Y-4308923D01*
X15111922Y-4298862D01*
X15121974Y-4289220D01*
X15132193Y-4280073D01*
X15142522Y-4271501D01*
X15199136Y-4226384D01*
X15263070Y-4226384D01*
X15276892Y-4226659D01*
X15291682Y-4227447D01*
X15306978Y-4228693D01*
X15322323Y-4230341D01*
X15337257Y-4232336D01*
X15351321Y-4234623D01*
X15364056Y-4237147D01*
X15375003Y-4239852D01*
X15382551Y-4242044D01*
X15389510Y-4244244D01*
X15395972Y-4246520D01*
X15402032Y-4248941D01*
X15407784Y-4251574D01*
X15413321Y-4254487D01*
X15418738Y-4257748D01*
X15424128Y-4261425D01*
X15429585Y-4265585D01*
X15435202Y-4270296D01*
X15441075Y-4275626D01*
X15447297Y-4281643D01*
X15453961Y-4288415D01*
X15461161Y-4296009D01*
X15468991Y-4304493D01*
X15477546Y-4313936D01*
X15488879Y-4326730D01*
X15500180Y-4339861D01*
X15511149Y-4352956D01*
X15521486Y-4365641D01*
X15530893Y-4377545D01*
X15539070Y-4388293D01*
X15545717Y-4397514D01*
X15550536Y-4404835D01*
X15553700Y-4410068D01*
X15556452Y-4414764D01*
X15558798Y-4419033D01*
X15560744Y-4422984D01*
X15561569Y-4424874D01*
X15562297Y-4426726D01*
X15562928Y-4428552D01*
X15563462Y-4430367D01*
X15563902Y-4432185D01*
X15564247Y-4434018D01*
X15564499Y-4435881D01*
X15564657Y-4437786D01*
X15564724Y-4439749D01*
X15564700Y-4441782D01*
X15564585Y-4443899D01*
X15564381Y-4446113D01*
X15564087Y-4448439D01*
X15563706Y-4450890D01*
X15562682Y-4456221D01*
X15561316Y-4462215D01*
X15559614Y-4468982D01*
X15555226Y-4485268D01*
X15553482Y-4491325D01*
X15551606Y-4497270D01*
X15549599Y-4503097D01*
X15547466Y-4508800D01*
X15545209Y-4514372D01*
X15542831Y-4519809D01*
X15540336Y-4525104D01*
X15537727Y-4530251D01*
X15535007Y-4535245D01*
X15532178Y-4540080D01*
X15529244Y-4544749D01*
X15526209Y-4549246D01*
X15523074Y-4553567D01*
X15519844Y-4557705D01*
X15516521Y-4561654D01*
X15513109Y-4565408D01*
X15507411Y-4571588D01*
X15502096Y-4577654D01*
X15497279Y-4583451D01*
X15493078Y-4588826D01*
X15489607Y-4593624D01*
X15488183Y-4595759D01*
X15486984Y-4597691D01*
X15486027Y-4599403D01*
X15485325Y-4600873D01*
X15484893Y-4602084D01*
X15484746Y-4603016D01*
X15484924Y-4604091D01*
X15485445Y-4605722D01*
X15486292Y-4607877D01*
X15487448Y-4610521D01*
X15490615Y-4617146D01*
X15494806Y-4625328D01*
X15499879Y-4634799D01*
X15505695Y-4645293D01*
X15512112Y-4656541D01*
X15518992Y-4668275D01*
X15553236Y-4725918D01*
X15687143Y-4725918D01*
X15742274Y-4725488D01*
X15793395Y-4724317D01*
X15834807Y-4722584D01*
X15850092Y-4721562D01*
X15860812Y-4720468D01*
X15900576Y-4715017D01*
X15874036Y-4687635D01*
X15869149Y-4682379D01*
X15864605Y-4677045D01*
X15860403Y-4671633D01*
X15856544Y-4666141D01*
X15853028Y-4660568D01*
X15849854Y-4654912D01*
X15847023Y-4649172D01*
X15844535Y-4643347D01*
X15842390Y-4637435D01*
X15840588Y-4631435D01*
X15839129Y-4625346D01*
X15838014Y-4619165D01*
X15837242Y-4612893D01*
X15836813Y-4606527D01*
X15836728Y-4600066D01*
X15836987Y-4593509D01*
X15837589Y-4586854D01*
X15838536Y-4580100D01*
X15839826Y-4573246D01*
X15841460Y-4566290D01*
X15843438Y-4559231D01*
X15845761Y-4552067D01*
X15848427Y-4544798D01*
X15851438Y-4537421D01*
X15854794Y-4529936D01*
X15858494Y-4522341D01*
X15862539Y-4514634D01*
X15866928Y-4506815D01*
X15876741Y-4490832D01*
X15887935Y-4474383D01*
X15896125Y-4463216D01*
X15904006Y-4453207D01*
X15911665Y-4444319D01*
X15915439Y-4440284D01*
X15919190Y-4436516D01*
X15922929Y-4433010D01*
X15926667Y-4429761D01*
X15930415Y-4426764D01*
X15934183Y-4424016D01*
X15937984Y-4421512D01*
X15941827Y-4419246D01*
X15945723Y-4417215D01*
X15949684Y-4415413D01*
X15953720Y-4413837D01*
X15957842Y-4412481D01*
X15962061Y-4411341D01*
X15966389Y-4410412D01*
X15970835Y-4409690D01*
X15975411Y-4409170D01*
X15980127Y-4408848D01*
X15984995Y-4408718D01*
X15990025Y-4408777D01*
X15995229Y-4409019D01*
X16000617Y-4409441D01*
X16006200Y-4410037D01*
X16017995Y-4411734D01*
X16030701Y-4414074D01*
X16038034Y-4415594D01*
X16044637Y-4417091D01*
X16050597Y-4418630D01*
X16056002Y-4420276D01*
X16060943Y-4422094D01*
X16063266Y-4423087D01*
X16065506Y-4424148D01*
X16067675Y-4425283D01*
X16069782Y-4426503D01*
X16071839Y-4427813D01*
X16073857Y-4429223D01*
X16075848Y-4430741D01*
X16077822Y-4432374D01*
X16081763Y-4436019D01*
X16085771Y-4440225D01*
X16089933Y-4445054D01*
X16094338Y-4450572D01*
X16099075Y-4456844D01*
X16104231Y-4463934D01*
X16109897Y-4471907D01*
X16116578Y-4481812D01*
X16122632Y-4491671D01*
X16128051Y-4501445D01*
X16132825Y-4511094D01*
X16136949Y-4520579D01*
X16140412Y-4529860D01*
X16143207Y-4538899D01*
X16145326Y-4547655D01*
X16146761Y-4556089D01*
X16147503Y-4564163D01*
X16147545Y-4571836D01*
X16146878Y-4579069D01*
X16145494Y-4585822D01*
X16144530Y-4589007D01*
X16143385Y-4592057D01*
X16142056Y-4594968D01*
X16140543Y-4597734D01*
X16138844Y-4600351D01*
X16136959Y-4602814D01*
X16135435Y-4604714D01*
X16134103Y-4606513D01*
X16132963Y-4608220D01*
X16132015Y-4609846D01*
X16131613Y-4610631D01*
X16131258Y-4611399D01*
X16130951Y-4612151D01*
X16130691Y-4612888D01*
X16130479Y-4613612D01*
X16130314Y-4614324D01*
X16130196Y-4615024D01*
X16130125Y-4615715D01*
X16130102Y-4616397D01*
X16130125Y-4617071D01*
X16130196Y-4617739D01*
X16130313Y-4618401D01*
X16130477Y-4619060D01*
X16130688Y-4619715D01*
X16130945Y-4620369D01*
X16131249Y-4621022D01*
X16131599Y-4621676D01*
X16131996Y-4622332D01*
X16132439Y-4622991D01*
X16132928Y-4623654D01*
X16134045Y-4624996D01*
X16135345Y-4626370D01*
X16135848Y-4626920D01*
X16136344Y-4627557D01*
X16137314Y-4629082D01*
X16138251Y-4630920D01*
X16139151Y-4633048D01*
X16140007Y-4635443D01*
X16140815Y-4638080D01*
X16141570Y-4640935D01*
X16142267Y-4643986D01*
X16142901Y-4647209D01*
X16143466Y-4650579D01*
X16143958Y-4654073D01*
X16144373Y-4657668D01*
X16144703Y-4661340D01*
X16144946Y-4665064D01*
X16145095Y-4668818D01*
X16145146Y-4672578D01*
X16145146Y-4708984D01*
X16651029Y-4709148D01*
X16899369Y-4709828D01*
X17073058Y-4711916D01*
X17189720Y-4715774D01*
X17232174Y-4718480D01*
X17266979Y-4721764D01*
X17347396Y-4730582D01*
X17373946Y-4733283D01*
X17386176Y-4734299D01*
X17386715Y-4734157D01*
X17387264Y-4733723D01*
X17387823Y-4733002D01*
X17388393Y-4731996D01*
X17389558Y-4729141D01*
X17390756Y-4725186D01*
X17391984Y-4720156D01*
X17393237Y-4714076D01*
X17394511Y-4706973D01*
X17395803Y-4698871D01*
X17397108Y-4689798D01*
X17398423Y-4679778D01*
X17399744Y-4668838D01*
X17401067Y-4657002D01*
X17403703Y-4630749D01*
X17406300Y-4601226D01*
X17409992Y-4562124D01*
X17414444Y-4525584D01*
X17419736Y-4491435D01*
X17425949Y-4459509D01*
X17433162Y-4429635D01*
X17441455Y-4401644D01*
X17450909Y-4375367D01*
X17461604Y-4350635D01*
X17473618Y-4327278D01*
X17487033Y-4305126D01*
X17501929Y-4284010D01*
X17518385Y-4263762D01*
X17536481Y-4244210D01*
X17556298Y-4225186D01*
X17577915Y-4206521D01*
X17601412Y-4188045D01*
X17607304Y-4183715D01*
X17613591Y-4179301D01*
X17627123Y-4170347D01*
X17641559Y-4161437D01*
X17656446Y-4152822D01*
X17671333Y-4144757D01*
X17685768Y-4137493D01*
X17699301Y-4131284D01*
X17705588Y-4128654D01*
X17711479Y-4126383D01*
X17721119Y-4122885D01*
X17729999Y-4119824D01*
X17738521Y-4117176D01*
X17747087Y-4114920D01*
X17751511Y-4113931D01*
X17756097Y-4113032D01*
X17760895Y-4112219D01*
X17765954Y-4111490D01*
X17777058Y-4110271D01*
X17789810Y-4109352D01*
X17804613Y-4108711D01*
X17821867Y-4108324D01*
X17841974Y-4108169D01*
X17865335Y-4108224D01*
X17892352Y-4108466D01*
X17923425Y-4108871D01*
X17999346Y-4110083D01*
X18232179Y-4113967D01*
X18299912Y-4151468D01*
X18314296Y-4159568D01*
X18329216Y-4168220D01*
X18344240Y-4177156D01*
X18358934Y-4186110D01*
X18372862Y-4194812D01*
X18385593Y-4202996D01*
X18396690Y-4210394D01*
X18405721Y-4216738D01*
X18414037Y-4223330D01*
X18422691Y-4231191D01*
X18431618Y-4240226D01*
X18440754Y-4250339D01*
X18450036Y-4261435D01*
X18459399Y-4273419D01*
X18468779Y-4286195D01*
X18478112Y-4299668D01*
X18487333Y-4313744D01*
X18496378Y-4328325D01*
X18505184Y-4343318D01*
X18513685Y-4358627D01*
X18521819Y-4374157D01*
X18529520Y-4389812D01*
X18536724Y-4405497D01*
X18543368Y-4421117D01*
X18547256Y-4430756D01*
X18550676Y-4439674D01*
X18553666Y-4448294D01*
X18556262Y-4457040D01*
X18557425Y-4461592D01*
X18558504Y-4466335D01*
X18559503Y-4471320D01*
X18560428Y-4476602D01*
X18561283Y-4482233D01*
X18562073Y-4488265D01*
X18563476Y-4501747D01*
X18564674Y-4517473D01*
X18565706Y-4535864D01*
X18566609Y-4557345D01*
X18567422Y-4582339D01*
X18568180Y-4611270D01*
X18568924Y-4644561D01*
X18570514Y-4725917D01*
X18575337Y-4956000D01*
X18580326Y-5158444D01*
X18585432Y-5341204D01*
X18672219Y-5341514D01*
X18695560Y-5341813D01*
X18716376Y-5342574D01*
X18735139Y-5343860D01*
X18752320Y-5345733D01*
X18760464Y-5346909D01*
X18768390Y-5348255D01*
X18776156Y-5349779D01*
X18783821Y-5351489D01*
X18799084Y-5355497D01*
X18814651Y-5360341D01*
X18823487Y-5363329D01*
X18831451Y-5366141D01*
X18838625Y-5368839D01*
X18845090Y-5371481D01*
X18850928Y-5374126D01*
X18856219Y-5376833D01*
X18861045Y-5379662D01*
X18865487Y-5382672D01*
X18869626Y-5385923D01*
X18873543Y-5389473D01*
X18877320Y-5393382D01*
X18881038Y-5397708D01*
X18884777Y-5402512D01*
X18888620Y-5407853D01*
X18892647Y-5413789D01*
X18896939Y-5420380D01*
X18903543Y-5431116D01*
X18909625Y-5441953D01*
X18915199Y-5452950D01*
X18920279Y-5464162D01*
X18924877Y-5475645D01*
X18929007Y-5487457D01*
X18932682Y-5499655D01*
X18935916Y-5512293D01*
X18938721Y-5525430D01*
X18941111Y-5539121D01*
X18943099Y-5553424D01*
X18944699Y-5568394D01*
X18945923Y-5584089D01*
X18946785Y-5600564D01*
X18947299Y-5617877D01*
X18947476Y-5636083D01*
X18947390Y-5662656D01*
X18946918Y-5683672D01*
X18946465Y-5692457D01*
X18945828Y-5700285D01*
X18944980Y-5707302D01*
X18943890Y-5713650D01*
X18942531Y-5719475D01*
X18940873Y-5724920D01*
X18938887Y-5730130D01*
X18936544Y-5735248D01*
X18933815Y-5740421D01*
X18930673Y-5745790D01*
X18923028Y-5757699D01*
X18917816Y-5765759D01*
X18912398Y-5774511D01*
X18906932Y-5783675D01*
X18901576Y-5792972D01*
X18896489Y-5802122D01*
X18891829Y-5810846D01*
X18887755Y-5818863D01*
X18884424Y-5825893D01*
X18882765Y-5829298D01*
X18880854Y-5832720D01*
X18878698Y-5836156D01*
X18876302Y-5839600D01*
X18873673Y-5843050D01*
X18870818Y-5846501D01*
X18867743Y-5849949D01*
X18864455Y-5853388D01*
X18857263Y-5860227D01*
X18849294Y-5866985D01*
X18840599Y-5873626D01*
X18831230Y-5880118D01*
X18821238Y-5886426D01*
X18810676Y-5892515D01*
X18799593Y-5898354D01*
X18788042Y-5903906D01*
X18776073Y-5909138D01*
X18763740Y-5914016D01*
X18751092Y-5918507D01*
X18738181Y-5922576D01*
X18730258Y-5924799D01*
X18722609Y-5926686D01*
X18715138Y-5928233D01*
X18707753Y-5929435D01*
X18700359Y-5930288D01*
X18692862Y-5930785D01*
X18685167Y-5930924D01*
X18677181Y-5930698D01*
X18668809Y-5930104D01*
X18659958Y-5929136D01*
X18650532Y-5927790D01*
X18640438Y-5926061D01*
X18629582Y-5923945D01*
X18617869Y-5921437D01*
X18605206Y-5918531D01*
X18591498Y-5915224D01*
X18587916Y-5914393D01*
X18584539Y-5913729D01*
X18581362Y-5913253D01*
X18578380Y-5912985D01*
X18575590Y-5912945D01*
X18572986Y-5913156D01*
X18570562Y-5913636D01*
X18568316Y-5914408D01*
X18567257Y-5914910D01*
X18566241Y-5915492D01*
X18565266Y-5916157D01*
X18564333Y-5916908D01*
X18563440Y-5917747D01*
X18562587Y-5918677D01*
X18561773Y-5919701D01*
X18560998Y-5920821D01*
X18559563Y-5923359D01*
X18558275Y-5926312D01*
X18557130Y-5929702D01*
X18556124Y-5933548D01*
X18555251Y-5937873D01*
X18554507Y-5942695D01*
X18553888Y-5948036D01*
X18553387Y-5953917D01*
X18553001Y-5960359D01*
X18552725Y-5967382D01*
X18552554Y-5975006D01*
X18552483Y-5983254D01*
X18552508Y-5992144D01*
X18552623Y-6001699D01*
X18553107Y-6022883D01*
X18553897Y-6046973D01*
X18554954Y-6074133D01*
X18560670Y-6213584D01*
X18662327Y-6219050D01*
X18692180Y-6220773D01*
X18715934Y-6222484D01*
X18734399Y-6224342D01*
X18741903Y-6225376D01*
X18748389Y-6226507D01*
X18753960Y-6227755D01*
X18758717Y-6229140D01*
X18762761Y-6230682D01*
X18766193Y-6232402D01*
X18769117Y-6234318D01*
X18771632Y-6236451D01*
X18773841Y-6238822D01*
X18775845Y-6241449D01*
X18777849Y-6243982D01*
X18780172Y-6246326D01*
X18782799Y-6248483D01*
X18785712Y-6250452D01*
X18788899Y-6252236D01*
X18792342Y-6253834D01*
X18796027Y-6255248D01*
X18799938Y-6256479D01*
X18804061Y-6257527D01*
X18808379Y-6258393D01*
X18812877Y-6259079D01*
X18817541Y-6259584D01*
X18827301Y-6260058D01*
X18837538Y-6259823D01*
X18848127Y-6258885D01*
X18858947Y-6257252D01*
X18869875Y-6254930D01*
X18880787Y-6251925D01*
X18891562Y-6248246D01*
X18902076Y-6243899D01*
X18907197Y-6241476D01*
X18912207Y-6238890D01*
X18917090Y-6236140D01*
X18921832Y-6233227D01*
X18938193Y-6223168D01*
X18954187Y-6214227D01*
X18969817Y-6206404D01*
X18985092Y-6199698D01*
X19000016Y-6194108D01*
X19014596Y-6189633D01*
X19028839Y-6186274D01*
X19042749Y-6184028D01*
X19056333Y-6182895D01*
X19069597Y-6182875D01*
X19082547Y-6183967D01*
X19095190Y-6186169D01*
X19107531Y-6189482D01*
X19119576Y-6193904D01*
X19131332Y-6199435D01*
X19142804Y-6206074D01*
X19152043Y-6212346D01*
X19161634Y-6219637D01*
X19171522Y-6227882D01*
X19181648Y-6237013D01*
X19191957Y-6246964D01*
X19202391Y-6257668D01*
X19212893Y-6269058D01*
X19223406Y-6281067D01*
X19233873Y-6293628D01*
X19244237Y-6306676D01*
X19254441Y-6320143D01*
X19264428Y-6333962D01*
X19274141Y-6348066D01*
X19283523Y-6362390D01*
X19292517Y-6376865D01*
X19301067Y-6391426D01*
X19324436Y-6437622D01*
X19345612Y-6489909D01*
X19364541Y-6547548D01*
X19381165Y-6609800D01*
X19395431Y-6675927D01*
X19407282Y-6745192D01*
X19416662Y-6816855D01*
X19423515Y-6890179D01*
X19427787Y-6964425D01*
X19429421Y-7038855D01*
X19428362Y-7112730D01*
X19424554Y-7185313D01*
X19417941Y-7255865D01*
X19408468Y-7323647D01*
X19396079Y-7387921D01*
X19380718Y-7447950D01*
X19362109Y-7509215D01*
X19344577Y-7561589D01*
X19336052Y-7584774D01*
X19327602Y-7606133D01*
X19319160Y-7625800D01*
X19310661Y-7643906D01*
X19302041Y-7660586D01*
X19293233Y-7675971D01*
X19284173Y-7690194D01*
X19274795Y-7703387D01*
X19265035Y-7715684D01*
X19254826Y-7727215D01*
X19244104Y-7738116D01*
X19232804Y-7748517D01*
X19227274Y-7753318D01*
X19222205Y-7757574D01*
X19217504Y-7761315D01*
X19213077Y-7764575D01*
X19208832Y-7767384D01*
X19206748Y-7768630D01*
X19204674Y-7769775D01*
X19202599Y-7770824D01*
X19200511Y-7771779D01*
X19198398Y-7772647D01*
X19196249Y-7773429D01*
X19194052Y-7774131D01*
X19191796Y-7774756D01*
X19189468Y-7775308D01*
X19187057Y-7775791D01*
X19181940Y-7776568D01*
X19176352Y-7777117D01*
X19170198Y-7777471D01*
X19163387Y-7777661D01*
X19155824Y-7777719D01*
X19147417Y-7777677D01*
X19140884Y-7777552D01*
X19134542Y-7777298D01*
X19128383Y-7776914D01*
X19122401Y-7776398D01*
X19116588Y-7775750D01*
X19110939Y-7774966D01*
X19105445Y-7774046D01*
X19100101Y-7772989D01*
X19094900Y-7771793D01*
X19089834Y-7770456D01*
X19084898Y-7768977D01*
X19080083Y-7767355D01*
X19075384Y-7765588D01*
X19070794Y-7763675D01*
X19066305Y-7761614D01*
X19061912Y-7759404D01*
X19030065Y-7742832D01*
X19003321Y-7729335D01*
X18980855Y-7718571D01*
X18961842Y-7710197D01*
X18945457Y-7703871D01*
X18937992Y-7701368D01*
X18930876Y-7699249D01*
X18924003Y-7697471D01*
X18917273Y-7695991D01*
X18903823Y-7693752D01*
X18864269Y-7688411D01*
X18858748Y-7733280D01*
X18857461Y-7748584D01*
X18856768Y-7768055D01*
X18856974Y-7816763D01*
X18858995Y-7873930D01*
X18862459Y-7934080D01*
X18866994Y-7991739D01*
X18872229Y-8041432D01*
X18877791Y-8077683D01*
X18880579Y-8089058D01*
X18883309Y-8095019D01*
X18886076Y-8098518D01*
X18888772Y-8102711D01*
X18891403Y-8107615D01*
X18893973Y-8113247D01*
X18896486Y-8119624D01*
X18898947Y-8126762D01*
X18901359Y-8134681D01*
X18903728Y-8143395D01*
X18906058Y-8152922D01*
X18908353Y-8163280D01*
X18910618Y-8174485D01*
X18912857Y-8186554D01*
X18915074Y-8199505D01*
X18917274Y-8213355D01*
X18919461Y-8228119D01*
X18921639Y-8243817D01*
X18926469Y-8272606D01*
X18933240Y-8300855D01*
X18942141Y-8328804D01*
X18953360Y-8356691D01*
X18967083Y-8384758D01*
X18983500Y-8413243D01*
X19002797Y-8442385D01*
X19025162Y-8472425D01*
X19050784Y-8503602D01*
X19079849Y-8536154D01*
X19112547Y-8570323D01*
X19149063Y-8606347D01*
X19189587Y-8644466D01*
X19234306Y-8684919D01*
X19283407Y-8727946D01*
X19337079Y-8773786D01*
X19386862Y-8817044D01*
X19437219Y-8863038D01*
X19486889Y-8910482D01*
X19534608Y-8958086D01*
X19579113Y-9004563D01*
X19619143Y-9048625D01*
X19653434Y-9088983D01*
X19668032Y-9107371D01*
X19680723Y-9124350D01*
X19690279Y-9138279D01*
X19700020Y-9153749D01*
X19709886Y-9170622D01*
X19719816Y-9188759D01*
X19729753Y-9208022D01*
X19739635Y-9228272D01*
X19749405Y-9249370D01*
X19759002Y-9271177D01*
X19768366Y-9293556D01*
X19777439Y-9316367D01*
X19786161Y-9339472D01*
X19794472Y-9362732D01*
X19802313Y-9386008D01*
X19809624Y-9409162D01*
X19816346Y-9432056D01*
X19822420Y-9454550D01*
X19828613Y-9479677D01*
X19833592Y-9502743D01*
X19835670Y-9513908D01*
X19837498Y-9525043D01*
X19839092Y-9536312D01*
X19840470Y-9547875D01*
X19841650Y-9559896D01*
X19842650Y-9572535D01*
X19844178Y-9600320D01*
X19845195Y-9632526D01*
X19845841Y-9670450D01*
X19846168Y-9709900D01*
X19845978Y-9742720D01*
X19845117Y-9770595D01*
X19843430Y-9795212D01*
X19840765Y-9818257D01*
X19836967Y-9841415D01*
X19831881Y-9866373D01*
X19825355Y-9894817D01*
X19820303Y-9915333D01*
X19814410Y-9937970D01*
X19800949Y-9986618D01*
X19786682Y-10034800D01*
X19779778Y-10056851D01*
X19773313Y-10076550D01*
X19752653Y-10130944D01*
X19727922Y-10184161D01*
X19699320Y-10236025D01*
X19667046Y-10286357D01*
X19631301Y-10334979D01*
X19592285Y-10381713D01*
X19550196Y-10426382D01*
X19505236Y-10468807D01*
X19457603Y-10508810D01*
X19407498Y-10546215D01*
X19355121Y-10580842D01*
X19300672Y-10612513D01*
X19244350Y-10641052D01*
X19186355Y-10666280D01*
X19126887Y-10688019D01*
X19066145Y-10706090D01*
X19041315Y-10712358D01*
X19014535Y-10718606D01*
X18986650Y-10724671D01*
X18958506Y-10730387D01*
X18930946Y-10735588D01*
X18904815Y-10740109D01*
X18880957Y-10743784D01*
X18860218Y-10746447D01*
X18821474Y-10751011D01*
X18805810Y-10753359D01*
X18792391Y-10756035D01*
X18786471Y-10757562D01*
X18781050Y-10759250D01*
X18776105Y-10761126D01*
X18771616Y-10763216D01*
X18767562Y-10765547D01*
X18763922Y-10768145D01*
X18760673Y-10771037D01*
X18757796Y-10774249D01*
X18755269Y-10777808D01*
X18753071Y-10781740D01*
X18751181Y-10786071D01*
X18749577Y-10790829D01*
X18748239Y-10796040D01*
X18747145Y-10801730D01*
X18746275Y-10807925D01*
X18745606Y-10814653D01*
X18744791Y-10829811D01*
X18744530Y-10847416D01*
X18744995Y-10890813D01*
X18746521Y-10986645D01*
X18694835Y-11046824D01*
X18687731Y-11055008D01*
X18681014Y-11062562D01*
X18674650Y-11069511D01*
X18668607Y-11075884D01*
X18662852Y-11081706D01*
X18657352Y-11087006D01*
X18652073Y-11091810D01*
X18646983Y-11096146D01*
X18642050Y-11100039D01*
X18637239Y-11103518D01*
X18632518Y-11106610D01*
X18627855Y-11109341D01*
X18623216Y-11111738D01*
X18618568Y-11113829D01*
X18613878Y-11115640D01*
X18609114Y-11117199D01*
X18604335Y-11118681D01*
X18599991Y-11120139D01*
X18596065Y-11121589D01*
X18592540Y-11123045D01*
X18589397Y-11124522D01*
X18586620Y-11126037D01*
X18584191Y-11127603D01*
X18582091Y-11129236D01*
X18581160Y-11130082D01*
X18580305Y-11130951D01*
X18579523Y-11131844D01*
X18578813Y-11132763D01*
X18578173Y-11133710D01*
X18577599Y-11134687D01*
X18577091Y-11135697D01*
X18576645Y-11136739D01*
X18575934Y-11138934D01*
X18575448Y-11141286D01*
X18575169Y-11143811D01*
X18575080Y-11146523D01*
X18575118Y-11148031D01*
X18575241Y-11149496D01*
X18575457Y-11150922D01*
X18575774Y-11152317D01*
X18576203Y-11153685D01*
X18576751Y-11155032D01*
X18577428Y-11156364D01*
X18578243Y-11157687D01*
X18579205Y-11159005D01*
X18580323Y-11160325D01*
X18581606Y-11161653D01*
X18583062Y-11162993D01*
X18584702Y-11164352D01*
X18586533Y-11165734D01*
X18588566Y-11167147D01*
X18590808Y-11168595D01*
X18593269Y-11170084D01*
X18595958Y-11171619D01*
X18598884Y-11173207D01*
X18602056Y-11174852D01*
X18605483Y-11176561D01*
X18609173Y-11178339D01*
X18617383Y-11182125D01*
X18626756Y-11186255D01*
X18637364Y-11190773D01*
X18649281Y-11195726D01*
X18662577Y-11201156D01*
X18701095Y-11217358D01*
X18738028Y-11234086D01*
X18773494Y-11251429D01*
X18807609Y-11269476D01*
X18840490Y-11288313D01*
X18872253Y-11308031D01*
X18903014Y-11328715D01*
X18932890Y-11350456D01*
X18961998Y-11373341D01*
X18990454Y-11397458D01*
X19018375Y-11422895D01*
X19045877Y-11449740D01*
X19073076Y-11478082D01*
X19100090Y-11508009D01*
X19127035Y-11539609D01*
X19154027Y-11572970D01*
X19177323Y-11603906D01*
X19199493Y-11636214D01*
X19220484Y-11669750D01*
X19240244Y-11704369D01*
X19258721Y-11739928D01*
X19275864Y-11776282D01*
X19291621Y-11813287D01*
X19305939Y-11850799D01*
X19318767Y-11888675D01*
X19330053Y-11926769D01*
X19339745Y-11964938D01*
X19347791Y-12003038D01*
X19354140Y-12040924D01*
X19358739Y-12078453D01*
X19361536Y-12115481D01*
X19362480Y-12151862D01*
X19361799Y-12190847D01*
X19359758Y-12229657D01*
X19356367Y-12268265D01*
X19351633Y-12306645D01*
X19345564Y-12344770D01*
X19338167Y-12382612D01*
X19329451Y-12420145D01*
X19319423Y-12457343D01*
X19308090Y-12494178D01*
X19295461Y-12530623D01*
X19281543Y-12566652D01*
X19266343Y-12602238D01*
X19249871Y-12637355D01*
X19232133Y-12671974D01*
X19213137Y-12706070D01*
X19192891Y-12739615D01*
X19176069Y-12765840D01*
X19168068Y-12777808D01*
X19160225Y-12789149D01*
X19152457Y-12799967D01*
X19144676Y-12810362D01*
X19136797Y-12820438D01*
X19128735Y-12830297D01*
X19120405Y-12840041D01*
X19111720Y-12849771D01*
X19102596Y-12859592D01*
X19092947Y-12869604D01*
X19071730Y-12890612D01*
X19047386Y-12913615D01*
X19021632Y-12937142D01*
X19009780Y-12947607D01*
X18998402Y-12957354D01*
X18987341Y-12966492D01*
X18976441Y-12975133D01*
X18965545Y-12983388D01*
X18954496Y-12991365D01*
X18943137Y-12999177D01*
X18931312Y-13006933D01*
X18918863Y-13014745D01*
X18905634Y-13022722D01*
X18876208Y-13039614D01*
X18841780Y-13058494D01*
X18816458Y-13071938D01*
X18789913Y-13085612D01*
X18762934Y-13099135D01*
X18736313Y-13112129D01*
X18710838Y-13124212D01*
X18687300Y-13135003D01*
X18666489Y-13144124D01*
X18649195Y-13151194D01*
X18575142Y-13179882D01*
X18574957Y-13230682D01*
X18576321Y-13293029D01*
X18580178Y-13425230D01*
X18593005Y-13821636D01*
X18611251Y-14361790D01*
X18586147Y-14397369D01*
X18582843Y-14402321D01*
X18579544Y-14407814D01*
X18576241Y-14413875D01*
X18572924Y-14420526D01*
X18569584Y-14427796D01*
X18566212Y-14435707D01*
X18562799Y-14444286D01*
X18559336Y-14453559D01*
X18555813Y-14463549D01*
X18552222Y-14474283D01*
X18548553Y-14485786D01*
X18544796Y-14498083D01*
X18536987Y-14525159D01*
X18528720Y-14555715D01*
X18519390Y-14590041D01*
X18510289Y-14620972D01*
X18501026Y-14649534D01*
X18491211Y-14676756D01*
X18480454Y-14703665D01*
X18468364Y-14731287D01*
X18454551Y-14760650D01*
X18438624Y-14792782D01*
X18419407Y-14830451D01*
X18410953Y-14846448D01*
X18402875Y-14861075D01*
X18394879Y-14874724D01*
X18386668Y-14887785D01*
X18377948Y-14900650D01*
X18368423Y-14913711D01*
X18357799Y-14927358D01*
X18345779Y-14941983D01*
X18332069Y-14957977D01*
X18316374Y-14975732D01*
X18277847Y-15018088D01*
X18227835Y-15072182D01*
X18167672Y-15136434D01*
X18141555Y-15163440D01*
X18117243Y-15187625D01*
X18094110Y-15209438D01*
X18071527Y-15229324D01*
X18048867Y-15247729D01*
X18025500Y-15265099D01*
X18000801Y-15281880D01*
X17974140Y-15298518D01*
X17944890Y-15315460D01*
X17912423Y-15333151D01*
X17876111Y-15352038D01*
X17835327Y-15372567D01*
X17737828Y-15420334D01*
X17651232Y-15460684D01*
X17564081Y-15497910D01*
X17476768Y-15531882D01*
X17389690Y-15562468D01*
X17303239Y-15589536D01*
X17217811Y-15612957D01*
X17133801Y-15632599D01*
X17051602Y-15648331D01*
X16903943Y-15673315D01*
X16560536Y-15671926D01*
X16150126Y-15669021D01*
X15645628Y-15663988D01*
X15645617Y-15663987D01*
X14798879Y-15653305D01*
X14256692Y-15642655D01*
X13876479Y-15628149D01*
X13515666Y-15605898D01*
X13140539Y-15577709D01*
X12779804Y-15545993D01*
X12448480Y-15512174D01*
X12161583Y-15477673D01*
X12103007Y-15469751D01*
X12054563Y-15462705D01*
X12013807Y-15456020D01*
X11978297Y-15449183D01*
X11945589Y-15441682D01*
X11913241Y-15433001D01*
X11878809Y-15422629D01*
X11839850Y-15410050D01*
X11712850Y-15368200D01*
X11576335Y-15254268D01*
X11532172Y-15217266D01*
X11497816Y-15187822D01*
X11483652Y-15175224D01*
X11471144Y-15163662D01*
X11460025Y-15152852D01*
X11450032Y-15142509D01*
X11440897Y-15132350D01*
X11432356Y-15122088D01*
X11424144Y-15111441D01*
X11415995Y-15100123D01*
X11407644Y-15087850D01*
X11398825Y-15074338D01*
X11378722Y-15042458D01*
X11362500Y-15015684D01*
X11346771Y-14988147D01*
X11331567Y-14959936D01*
X11316926Y-14931141D01*
X11302879Y-14901852D01*
X11289464Y-14872158D01*
X11276713Y-14842148D01*
X11264661Y-14811913D01*
X11253343Y-14781541D01*
X11242794Y-14751123D01*
X11233048Y-14720748D01*
X11224139Y-14690505D01*
X11216102Y-14660484D01*
X11208972Y-14630774D01*
X11202782Y-14601466D01*
X11197569Y-14572648D01*
X11191598Y-14535172D01*
X11189185Y-14518234D01*
X11187131Y-14501765D01*
X11185421Y-14485216D01*
X11184036Y-14468037D01*
X11182962Y-14449679D01*
X11182180Y-14429594D01*
X11181674Y-14407233D01*
X11181428Y-14382046D01*
X11181648Y-14321001D01*
X11182707Y-14242065D01*
X11184471Y-14140848D01*
X11188833Y-13858145D01*
X11191201Y-13624304D01*
X11192151Y-13425261D01*
X11125006Y-13410168D01*
X11057861Y-13395077D01*
X10988112Y-13321393D01*
X10974041Y-13306763D01*
X10960797Y-13293447D01*
X10948679Y-13281712D01*
X10937984Y-13271826D01*
X10929012Y-13264057D01*
X10925265Y-13261050D01*
X10922060Y-13258673D01*
X10919435Y-13256958D01*
X10917426Y-13255940D01*
X10916665Y-13255703D01*
X10916072Y-13255652D01*
X10915652Y-13255793D01*
X10915409Y-13256128D01*
X10915010Y-13257160D01*
X10914429Y-13258504D01*
X10912764Y-13262043D01*
X10910507Y-13266575D01*
X10907746Y-13271926D01*
X10904571Y-13277924D01*
X10901074Y-13284398D01*
X10897343Y-13291176D01*
X10893468Y-13298084D01*
X10890350Y-13303494D01*
X10887411Y-13308330D01*
X10884579Y-13312639D01*
X10881780Y-13316467D01*
X10880369Y-13318216D01*
X10878939Y-13319862D01*
X10877479Y-13321411D01*
X10875982Y-13322868D01*
X10874437Y-13324241D01*
X10872835Y-13325534D01*
X10871168Y-13326753D01*
X10869425Y-13327905D01*
X10867598Y-13328994D01*
X10865677Y-13330027D01*
X10863653Y-13331010D01*
X10861517Y-13331948D01*
X10859260Y-13332847D01*
X10856872Y-13333714D01*
X10851666Y-13335370D01*
X10845827Y-13336965D01*
X10839280Y-13338543D01*
X10831951Y-13340152D01*
X10823766Y-13341839D01*
X10808145Y-13344861D01*
X10801510Y-13346006D01*
X10795546Y-13346897D01*
X10790169Y-13347526D01*
X10785293Y-13347887D01*
X10780834Y-13347972D01*
X10776709Y-13347774D01*
X10772831Y-13347286D01*
X10769117Y-13346499D01*
X10765482Y-13345408D01*
X10761840Y-13344005D01*
X10758109Y-13342282D01*
X10754203Y-13340233D01*
X10750037Y-13337849D01*
X10745527Y-13335125D01*
X10739352Y-13331157D01*
X10733530Y-13327074D01*
X10728067Y-13322883D01*
X10722971Y-13318593D01*
X10718247Y-13314214D01*
X10713902Y-13309752D01*
X10709941Y-13305217D01*
X10706371Y-13300617D01*
X10703198Y-13295960D01*
X10700428Y-13291256D01*
X10698067Y-13286512D01*
X10696121Y-13281737D01*
X10694597Y-13276939D01*
X10693501Y-13272127D01*
X10693116Y-13269719D01*
X10692839Y-13267310D01*
X10692673Y-13264902D01*
X10692617Y-13262495D01*
X10692725Y-13259808D01*
X10693042Y-13256973D01*
X10694275Y-13250907D01*
X10696251Y-13244392D01*
X10698909Y-13237521D01*
X10702184Y-13230388D01*
X10706013Y-13223087D01*
X10710332Y-13215712D01*
X10715079Y-13208357D01*
X10720190Y-13201115D01*
X10725601Y-13194081D01*
X10731249Y-13187349D01*
X10737070Y-13181012D01*
X10743002Y-13175164D01*
X10748981Y-13169899D01*
X10754943Y-13165311D01*
X10760825Y-13161494D01*
X10763602Y-13159767D01*
X10766453Y-13157795D01*
X10769357Y-13155599D01*
X10772292Y-13153204D01*
X10775237Y-13150631D01*
X10778172Y-13147903D01*
X10781074Y-13145043D01*
X10783923Y-13142074D01*
X10786698Y-13139019D01*
X10789376Y-13135900D01*
X10791937Y-13132740D01*
X10794360Y-13129562D01*
X10796624Y-13126388D01*
X10798706Y-13123241D01*
X10800587Y-13120145D01*
X10802244Y-13117122D01*
X10804811Y-13112108D01*
X10807024Y-13107614D01*
X10808873Y-13103531D01*
X10809658Y-13101610D01*
X10810350Y-13099751D01*
X10810946Y-13097941D01*
X10811446Y-13096167D01*
X10811849Y-13094415D01*
X10812152Y-13092671D01*
X10812357Y-13090922D01*
X10812460Y-13089154D01*
X10812462Y-13087354D01*
X10812360Y-13085509D01*
X10812155Y-13083605D01*
X10811845Y-13081629D01*
X10811428Y-13079567D01*
X10810904Y-13077405D01*
X10810271Y-13075131D01*
X10809529Y-13072730D01*
X10807711Y-13067495D01*
X10805442Y-13061593D01*
X10802712Y-13054916D01*
X10795837Y-13038805D01*
X10791790Y-13029574D01*
X10788054Y-13021414D01*
X10784587Y-13014294D01*
X10781342Y-13008183D01*
X10778275Y-13003049D01*
X10775341Y-12998860D01*
X10773910Y-12997110D01*
X10772495Y-12995585D01*
X10771091Y-12994281D01*
X10769692Y-12993193D01*
X10768293Y-12992319D01*
X10766888Y-12991653D01*
X10765471Y-12991191D01*
X10764037Y-12990931D01*
X10762580Y-12990868D01*
X10761095Y-12990998D01*
X10759576Y-12991318D01*
X10758017Y-12991822D01*
X10756412Y-12992508D01*
X10754757Y-12993371D01*
X10751272Y-12995614D01*
X10747516Y-12998520D01*
X10743444Y-13002056D01*
X10741757Y-13003373D01*
X10739607Y-13004703D01*
X10737026Y-13006038D01*
X10734048Y-13007369D01*
X10730705Y-13008686D01*
X10727030Y-13009980D01*
X10723057Y-13011242D01*
X10718818Y-13012464D01*
X10714345Y-13013636D01*
X10709673Y-13014749D01*
X10704833Y-13015795D01*
X10699859Y-13016763D01*
X10694784Y-13017646D01*
X10689640Y-13018434D01*
X10684460Y-13019117D01*
X10679278Y-13019688D01*
X10671186Y-13020447D01*
X10663828Y-13021028D01*
X10657103Y-13021410D01*
X10650906Y-13021569D01*
X10645136Y-13021484D01*
X10639689Y-13021131D01*
X10634463Y-13020487D01*
X10629356Y-13019532D01*
X10624264Y-13018240D01*
X10619085Y-13016591D01*
X10613717Y-13014562D01*
X10608056Y-13012129D01*
X10602000Y-13009270D01*
X10595447Y-13005962D01*
X10580436Y-12997912D01*
X10571133Y-12992682D01*
X10562827Y-12987719D01*
X10555470Y-12982939D01*
X10549016Y-12978261D01*
X10546112Y-12975933D01*
X10543417Y-12973599D01*
X10540923Y-12971249D01*
X10538626Y-12968872D01*
X10536519Y-12966457D01*
X10534597Y-12963995D01*
X10532853Y-12961475D01*
X10531281Y-12958887D01*
X10529877Y-12956219D01*
X10528633Y-12953463D01*
X10527544Y-12950606D01*
X10526604Y-12947640D01*
X10525807Y-12944553D01*
X10525148Y-12941335D01*
X10524620Y-12937977D01*
X10524218Y-12934466D01*
X10523935Y-12930793D01*
X10523766Y-12926948D01*
X10523746Y-12918699D01*
X10524110Y-12909636D01*
X10524811Y-12899675D01*
X10525304Y-12893933D01*
X10525835Y-12888864D01*
X10526487Y-12884393D01*
X10526883Y-12882360D01*
X10527340Y-12880450D01*
X10527866Y-12878653D01*
X10528473Y-12876961D01*
X10529171Y-12875366D01*
X10529969Y-12873856D01*
X10530877Y-12872425D01*
X10531906Y-12871062D01*
X10533066Y-12869759D01*
X10534367Y-12868507D01*
X10535819Y-12867296D01*
X10537432Y-12866118D01*
X10539215Y-12864963D01*
X10541180Y-12863824D01*
X10543336Y-12862690D01*
X10545693Y-12861552D01*
X10548262Y-12860402D01*
X10551052Y-12859231D01*
X10557336Y-12856788D01*
X10564627Y-12854151D01*
X10582550Y-12848007D01*
X10591674Y-12844994D01*
X10600166Y-12842352D01*
X10608100Y-12840078D01*
X10615552Y-12838167D01*
X10622598Y-12836617D01*
X10629312Y-12835422D01*
X10635769Y-12834579D01*
X10642045Y-12834084D01*
X10648214Y-12833933D01*
X10654352Y-12834123D01*
X10660534Y-12834649D01*
X10666835Y-12835507D01*
X10673331Y-12836694D01*
X10680096Y-12838206D01*
X10687205Y-12840039D01*
X10694734Y-12842188D01*
X10695930Y-12842522D01*
X10697062Y-12842791D01*
X10698130Y-12842986D01*
X10699136Y-12843102D01*
X10700083Y-12843132D01*
X10700972Y-12843070D01*
X10701805Y-12842908D01*
X10702200Y-12842788D01*
X10702583Y-12842641D01*
X10702952Y-12842466D01*
X10703308Y-12842262D01*
X10703652Y-12842028D01*
X10703983Y-12841764D01*
X10704301Y-12841468D01*
X10704608Y-12841140D01*
X10704903Y-12840779D01*
X10705186Y-12840385D01*
X10705719Y-12839491D01*
X10706208Y-12838452D01*
X10706654Y-12837261D01*
X10707061Y-12835912D01*
X10707429Y-12834399D01*
X10707761Y-12832713D01*
X10708057Y-12830850D01*
X10708321Y-12828803D01*
X10708553Y-12826564D01*
X10708756Y-12824128D01*
X10708931Y-12821487D01*
X10709080Y-12818636D01*
X10709205Y-12815567D01*
X10709307Y-12812274D01*
X10709452Y-12804990D01*
X10709528Y-12796731D01*
X10709550Y-12787445D01*
X10709318Y-12761444D01*
X10708966Y-12750661D01*
X10708402Y-12741238D01*
X10707584Y-12733084D01*
X10706471Y-12726110D01*
X10705022Y-12720226D01*
X10704159Y-12717664D01*
X10703196Y-12715342D01*
X10702129Y-12713247D01*
X10700952Y-12711369D01*
X10699660Y-12709695D01*
X10698248Y-12708216D01*
X10696710Y-12706920D01*
X10695042Y-12705795D01*
X10693239Y-12704830D01*
X10691295Y-12704015D01*
X10686965Y-12702787D01*
X10682010Y-12702020D01*
X10676389Y-12701626D01*
X10670060Y-12701515D01*
X10663453Y-12701329D01*
X10655858Y-12700795D01*
X10647545Y-12699951D01*
X10638781Y-12698834D01*
X10629837Y-12697481D01*
X10620979Y-12695931D01*
X10612477Y-12694221D01*
X10604599Y-12692387D01*
X10599045Y-12690928D01*
X10593989Y-12689456D01*
X10589385Y-12687930D01*
X10585188Y-12686313D01*
X10581353Y-12684566D01*
X10577833Y-12682649D01*
X10576178Y-12681615D01*
X10574585Y-12680523D01*
X10573048Y-12679370D01*
X10571562Y-12678151D01*
X10570121Y-12676859D01*
X10568720Y-12675492D01*
X10567351Y-12674043D01*
X10566011Y-12672508D01*
X10563393Y-12669159D01*
X10560818Y-12665408D01*
X10558241Y-12661215D01*
X10555618Y-12656541D01*
X10552903Y-12651347D01*
X10550050Y-12645594D01*
X10546828Y-12638543D01*
X10543938Y-12631346D01*
X10541382Y-12624019D01*
X10539160Y-12616579D01*
X10537274Y-12609041D01*
X10535727Y-12601423D01*
X10534518Y-12593742D01*
X10533650Y-12586012D01*
X10533125Y-12578252D01*
X10532943Y-12570477D01*
X10533106Y-12562705D01*
X10533616Y-12554951D01*
X10534474Y-12547232D01*
X10535682Y-12539565D01*
X10537241Y-12531966D01*
X10539152Y-12524452D01*
X10539577Y-12523043D01*
X10540053Y-12521669D01*
X10540585Y-12520327D01*
X10541172Y-12519017D01*
X10541819Y-12517737D01*
X10542527Y-12516485D01*
X10543297Y-12515260D01*
X10544133Y-12514060D01*
X10545036Y-12512885D01*
X10546009Y-12511731D01*
X10547054Y-12510598D01*
X10548172Y-12509484D01*
X10549367Y-12508388D01*
X10550640Y-12507309D01*
X10551993Y-12506243D01*
X10553429Y-12505191D01*
X10554949Y-12504151D01*
X10556556Y-12503120D01*
X10558252Y-12502098D01*
X10560040Y-12501083D01*
X10563897Y-12499068D01*
X10568145Y-12497062D01*
X10572800Y-12495054D01*
X10577881Y-12493030D01*
X10583404Y-12490980D01*
X10589388Y-12488890D01*
X10603843Y-12484068D01*
X10609910Y-12482180D01*
X10615352Y-12480644D01*
X10620280Y-12479460D01*
X10624806Y-12478631D01*
X10629041Y-12478159D01*
X10633096Y-12478046D01*
X10637083Y-12478293D01*
X10641113Y-12478902D01*
X10645297Y-12479875D01*
X10649747Y-12481215D01*
X10654574Y-12482922D01*
X10659890Y-12484999D01*
X10672432Y-12490269D01*
X10680373Y-12493586D01*
X10688175Y-12496680D01*
X10695638Y-12499484D01*
X10702563Y-12501930D01*
X10708752Y-12503951D01*
X10714006Y-12505478D01*
X10718125Y-12506444D01*
X10719698Y-12506695D01*
X10720912Y-12506781D01*
X10721458Y-12506723D01*
X10722066Y-12506550D01*
X10722735Y-12506266D01*
X10723463Y-12505874D01*
X10724246Y-12505375D01*
X10725083Y-12504774D01*
X10726907Y-12503273D01*
X10728916Y-12501395D01*
X10731092Y-12499162D01*
X10733416Y-12496597D01*
X10735868Y-12493723D01*
X10738430Y-12490563D01*
X10741083Y-12487138D01*
X10743808Y-12483473D01*
X10746585Y-12479589D01*
X10749396Y-12475511D01*
X10752223Y-12471259D01*
X10755045Y-12466858D01*
X10757845Y-12462330D01*
X10784820Y-12417881D01*
X10744333Y-12406443D01*
X10737552Y-12404497D01*
X10731544Y-12402678D01*
X10726249Y-12400926D01*
X10721602Y-12399177D01*
X10717543Y-12397368D01*
X10715714Y-12396421D01*
X10714009Y-12395437D01*
X10712419Y-12394406D01*
X10710937Y-12393321D01*
X10709556Y-12392174D01*
X10708267Y-12390958D01*
X10707062Y-12389664D01*
X10705935Y-12388285D01*
X10704876Y-12386813D01*
X10703879Y-12385240D01*
X10702936Y-12383558D01*
X10702038Y-12381760D01*
X10700349Y-12377782D01*
X10698750Y-12373244D01*
X10697178Y-12368083D01*
X10695572Y-12362237D01*
X10693870Y-12355643D01*
X10692106Y-12348047D01*
X10690706Y-12340608D01*
X10689675Y-12333314D01*
X10689012Y-12326152D01*
X10688720Y-12319109D01*
X10688802Y-12312172D01*
X10689258Y-12305329D01*
X10690091Y-12298567D01*
X10691303Y-12291873D01*
X10692896Y-12285234D01*
X10694871Y-12278638D01*
X10697231Y-12272071D01*
X10699977Y-12265523D01*
X10703112Y-12258978D01*
X10706638Y-12252425D01*
X10710555Y-12245852D01*
X10712321Y-12243382D01*
X10714421Y-12241077D01*
X10716835Y-12238936D01*
X10719548Y-12236959D01*
X10722541Y-12235147D01*
X10725796Y-12233497D01*
X10729297Y-12232012D01*
X10733025Y-12230690D01*
X10736964Y-12229530D01*
X10741095Y-12228534D01*
X10749864Y-12227030D01*
X10759192Y-12226174D01*
X10768938Y-12225966D01*
X10778962Y-12226404D01*
X10789124Y-12227486D01*
X10799282Y-12229211D01*
X10809296Y-12231576D01*
X10819025Y-12234581D01*
X10823739Y-12236323D01*
X10828329Y-12238224D01*
X10832778Y-12240284D01*
X10837068Y-12242503D01*
X10841181Y-12244880D01*
X10845100Y-12247416D01*
X10850092Y-12250812D01*
X10854564Y-12253771D01*
X10858599Y-12256302D01*
X10862283Y-12258414D01*
X10864019Y-12259315D01*
X10865699Y-12260116D01*
X10867333Y-12260816D01*
X10868931Y-12261416D01*
X10870505Y-12261919D01*
X10872064Y-12262325D01*
X10873619Y-12262636D01*
X10875181Y-12262852D01*
X10876760Y-12262974D01*
X10878366Y-12263004D01*
X10880011Y-12262943D01*
X10881704Y-12262792D01*
X10883457Y-12262552D01*
X10885279Y-12262224D01*
X10887181Y-12261809D01*
X10889174Y-12261309D01*
X10893474Y-12260057D01*
X10898263Y-12258476D01*
X10903624Y-12256576D01*
X10909643Y-12254365D01*
X10915554Y-12252138D01*
X10920794Y-12250051D01*
X10925420Y-12248028D01*
X10929488Y-12245996D01*
X10931330Y-12244953D01*
X10933053Y-12243879D01*
X10934664Y-12242766D01*
X10936171Y-12241604D01*
X10937579Y-12240384D01*
X10938897Y-12239096D01*
X10940131Y-12237731D01*
X10941288Y-12236280D01*
X10942375Y-12234734D01*
X10943400Y-12233083D01*
X10944368Y-12231317D01*
X10945287Y-12229428D01*
X10946164Y-12227406D01*
X10947007Y-12225242D01*
X10948614Y-12220451D01*
X10950165Y-12214980D01*
X10951715Y-12208753D01*
X10953320Y-12201698D01*
X10955036Y-12193738D01*
X10957735Y-12182390D01*
X10959237Y-12177079D01*
X10960851Y-12172001D01*
X10962588Y-12167150D01*
X10964455Y-12162520D01*
X10966462Y-12158105D01*
X10968618Y-12153899D01*
X10970930Y-12149894D01*
X10973408Y-12146085D01*
X10976061Y-12142466D01*
X10978898Y-12139030D01*
X10981927Y-12135772D01*
X10985157Y-12132683D01*
X10988597Y-12129760D01*
X10992255Y-12126995D01*
X10996141Y-12124381D01*
X11000264Y-12121913D01*
X11004631Y-12119585D01*
X11009253Y-12117390D01*
X11014137Y-12115322D01*
X11019292Y-12113374D01*
X11024728Y-12111540D01*
X11030453Y-12109815D01*
X11036476Y-12108191D01*
X11042806Y-12106663D01*
X11056420Y-12103869D01*
X11071367Y-12101381D01*
X11087716Y-12099149D01*
X11113446Y-12095819D01*
X11134811Y-12092796D01*
X11149588Y-12090414D01*
X11153810Y-12089567D01*
X11155549Y-12089004D01*
X11155778Y-12088344D01*
X11156056Y-12086801D01*
X11156745Y-12081251D01*
X11157584Y-12072725D01*
X11158544Y-12061595D01*
X11160704Y-12033007D01*
X11162981Y-11998458D01*
X11164275Y-11973456D01*
X11164876Y-11950507D01*
X11164731Y-11928780D01*
X11163787Y-11907440D01*
X11161992Y-11885654D01*
X11159292Y-11862587D01*
X11155634Y-11837408D01*
X11150966Y-11809281D01*
X11147197Y-11788788D01*
X11143182Y-11769117D01*
X11139043Y-11750741D01*
X11134906Y-11734127D01*
X11130894Y-11719747D01*
X11127129Y-11708069D01*
X11125378Y-11703391D01*
X11123736Y-11699565D01*
X11122218Y-11696650D01*
X11120838Y-11694704D01*
X11119838Y-11693531D01*
X11118900Y-11692279D01*
X11118023Y-11690926D01*
X11117206Y-11689456D01*
X11116451Y-11687847D01*
X11115755Y-11686082D01*
X11115120Y-11684140D01*
X11114544Y-11682003D01*
X11114027Y-11679652D01*
X11113569Y-11677067D01*
X11113169Y-11674229D01*
X11112827Y-11671119D01*
X11112543Y-11667717D01*
X11112317Y-11664005D01*
X11112034Y-11655572D01*
X11111977Y-11645666D01*
X11112141Y-11634134D01*
X11112526Y-11620821D01*
X11113127Y-11605575D01*
X11113941Y-11588241D01*
X11114967Y-11568667D01*
X11117640Y-11522179D01*
X11120869Y-11460178D01*
X11122675Y-11408566D01*
X11123005Y-11388339D01*
X11122931Y-11372729D01*
X11122439Y-11362409D01*
X11122030Y-11359443D01*
X11121511Y-11358052D01*
X11121161Y-11357761D01*
X11120690Y-11357463D01*
X11119396Y-11356852D01*
X11117658Y-11356222D01*
X11115503Y-11355579D01*
X11112960Y-11354928D01*
X11110054Y-11354273D01*
X11106816Y-11353619D01*
X11103272Y-11352971D01*
X11095379Y-11351713D01*
X11086597Y-11350538D01*
X11077149Y-11349484D01*
X11067257Y-11348591D01*
X11054954Y-11347144D01*
X11042912Y-11344807D01*
X11031148Y-11341608D01*
X11019678Y-11337576D01*
X11008517Y-11332742D01*
X10997682Y-11327135D01*
X10987188Y-11320783D01*
X10977051Y-11313717D01*
X10967287Y-11305966D01*
X10957913Y-11297559D01*
X10948943Y-11288526D01*
X10940394Y-11278895D01*
X10932282Y-11268697D01*
X10924622Y-11257961D01*
X10917431Y-11246716D01*
X10910724Y-11234992D01*
X10904517Y-11222818D01*
X10898826Y-11210223D01*
X10893668Y-11197237D01*
X10889057Y-11183890D01*
X10885010Y-11170210D01*
X10881542Y-11156227D01*
X10878671Y-11141970D01*
X10876410Y-11127470D01*
X10874777Y-11112754D01*
X10873787Y-11097854D01*
X10873456Y-11082797D01*
X10873801Y-11067614D01*
X10874836Y-11052333D01*
X10876578Y-11036985D01*
X10879042Y-11021599D01*
X10882245Y-11006203D01*
X10883905Y-10998751D01*
X10885340Y-10991563D01*
X10886551Y-10984525D01*
X10887536Y-10977520D01*
X10888295Y-10970435D01*
X10888827Y-10963154D01*
X10889133Y-10955560D01*
X10889211Y-10947540D01*
X10889061Y-10938978D01*
X10888682Y-10929758D01*
X10888075Y-10919766D01*
X10887237Y-10908885D01*
X10884873Y-10884000D01*
X10881584Y-10854179D01*
X10876674Y-10813682D01*
X10872120Y-10779984D01*
X10868428Y-10756602D01*
X10867065Y-10749877D01*
X10866532Y-10747949D01*
X10866108Y-10747050D01*
X10865492Y-10746649D01*
X10864626Y-10746420D01*
X10863522Y-10746357D01*
X10862192Y-10746455D01*
X10858896Y-10747108D01*
X10854827Y-10748335D01*
X10850075Y-10750091D01*
X10844730Y-10752331D01*
X10838881Y-10755008D01*
X10832617Y-10758079D01*
X10826028Y-10761497D01*
X10819203Y-10765218D01*
X10812233Y-10769196D01*
X10805206Y-10773387D01*
X10798212Y-10777745D01*
X10791341Y-10782224D01*
X10784682Y-10786780D01*
X10778324Y-10791368D01*
X10773427Y-10794957D01*
X10768915Y-10798106D01*
X10764640Y-10800835D01*
X10762545Y-10802049D01*
X10760455Y-10803166D01*
X10758352Y-10804188D01*
X10756216Y-10805118D01*
X10754030Y-10805958D01*
X10751775Y-10806712D01*
X10749433Y-10807382D01*
X10746985Y-10807970D01*
X10744414Y-10808479D01*
X10741700Y-10808912D01*
X10738827Y-10809271D01*
X10735774Y-10809559D01*
X10732525Y-10809779D01*
X10729060Y-10809932D01*
X10725362Y-10810022D01*
X10721412Y-10810051D01*
X10712682Y-10809937D01*
X10702725Y-10809612D01*
X10691394Y-10809095D01*
X10664024Y-10807570D01*
X10623263Y-10805152D01*
X10606888Y-10803926D01*
X10592887Y-10802463D01*
X10581037Y-10800593D01*
X10575850Y-10799452D01*
X10571116Y-10798145D01*
X10566809Y-10796651D01*
X10562900Y-10794950D01*
X10559361Y-10793019D01*
X10556166Y-10790837D01*
X10553286Y-10788383D01*
X10550692Y-10785637D01*
X10548358Y-10782576D01*
X10546256Y-10779179D01*
X10544357Y-10775426D01*
X10542634Y-10771295D01*
X10539603Y-10761813D01*
X10536941Y-10750564D01*
X10534425Y-10737377D01*
X10528939Y-10704513D01*
X10526103Y-10685936D01*
X10523456Y-10665713D01*
X10521058Y-10644494D01*
X10518966Y-10622929D01*
X10517238Y-10601666D01*
X10515932Y-10581355D01*
X10515105Y-10562646D01*
X10514817Y-10546188D01*
X10514887Y-10521979D01*
X10515048Y-10512018D01*
X10515359Y-10503267D01*
X10515867Y-10495561D01*
X10516623Y-10488735D01*
X10517674Y-10482625D01*
X10519070Y-10477065D01*
X10520860Y-10471892D01*
X10523093Y-10466939D01*
X10525817Y-10462043D01*
X10529081Y-10457038D01*
X10532936Y-10451760D01*
X10537428Y-10446044D01*
X10548523Y-10432640D01*
X10555800Y-10424370D01*
X10563135Y-10416865D01*
X10570512Y-10410132D01*
X10577915Y-10404174D01*
X10581621Y-10401489D01*
X10585328Y-10398999D01*
X10589033Y-10396705D01*
X10592735Y-10394609D01*
X10596431Y-10392711D01*
X10600120Y-10391012D01*
X10603799Y-10389512D01*
X10607467Y-10388211D01*
X10611122Y-10387111D01*
X10614761Y-10386213D01*
X10618383Y-10385516D01*
X10621985Y-10385022D01*
X10625566Y-10384731D01*
X10629124Y-10384644D01*
X10632656Y-10384761D01*
X10636162Y-10385083D01*
X10639637Y-10385611D01*
X10643082Y-10386346D01*
X10646493Y-10387288D01*
X10649869Y-10388437D01*
X10653208Y-10389795D01*
X10656508Y-10391361D01*
X10659766Y-10393138D01*
X10662981Y-10395124D01*
X10665691Y-10396754D01*
X10668636Y-10398242D01*
X10671834Y-10399589D01*
X10675303Y-10400799D01*
X10679058Y-10401872D01*
X10683118Y-10402811D01*
X10687499Y-10403619D01*
X10692219Y-10404298D01*
X10697294Y-10404849D01*
X10702742Y-10405274D01*
X10708580Y-10405577D01*
X10714826Y-10405759D01*
X10721495Y-10405822D01*
X10728606Y-10405768D01*
X10736175Y-10405600D01*
X10744220Y-10405320D01*
X10806074Y-10402814D01*
X10851609Y-10323750D01*
X10860665Y-10307777D01*
X10868937Y-10292699D01*
X10876257Y-10278859D01*
X10882456Y-10266599D01*
X10887366Y-10256263D01*
X10890819Y-10248192D01*
X10891946Y-10245114D01*
X10892645Y-10242730D01*
X10892896Y-10241084D01*
X10892847Y-10240551D01*
X10892677Y-10240219D01*
X10892077Y-10239734D01*
X10891209Y-10239202D01*
X10890091Y-10238631D01*
X10888737Y-10238024D01*
X10887166Y-10237388D01*
X10885394Y-10236727D01*
X10883438Y-10236047D01*
X10881313Y-10235353D01*
X10879037Y-10234650D01*
X10876626Y-10233943D01*
X10871467Y-10232541D01*
X10865968Y-10231189D01*
X10863133Y-10230544D01*
X10860263Y-10229928D01*
X10832317Y-10224104D01*
X10834771Y-10076392D01*
X10837224Y-9928681D01*
X10860171Y-9911808D01*
X10873658Y-9901838D01*
X10885525Y-9892874D01*
X10895882Y-9884713D01*
X10904841Y-9877151D01*
X10912514Y-9869986D01*
X10915902Y-9866489D01*
X10919011Y-9863014D01*
X10921854Y-9859537D01*
X10924445Y-9856032D01*
X10926799Y-9852474D01*
X10928928Y-9848836D01*
X10930847Y-9845095D01*
X10932570Y-9841224D01*
X10934110Y-9837198D01*
X10935483Y-9832991D01*
X10936701Y-9828579D01*
X10937778Y-9823935D01*
X10938730Y-9819035D01*
X10939568Y-9813852D01*
X10940964Y-9802539D01*
X10942077Y-9789793D01*
X10943019Y-9775410D01*
X10943902Y-9759188D01*
X10948270Y-9674681D01*
X10892341Y-9619824D01*
X10875443Y-9603007D01*
X10868356Y-9595693D01*
X10862088Y-9588966D01*
X10856572Y-9582720D01*
X10851738Y-9576848D01*
X10847521Y-9571243D01*
X10843852Y-9565799D01*
X10840663Y-9560408D01*
X10837889Y-9554964D01*
X10835459Y-9549361D01*
X10833309Y-9543491D01*
X10831368Y-9537249D01*
X10829571Y-9530526D01*
X10827850Y-9523217D01*
X10826136Y-9515214D01*
X10815860Y-9465461D01*
X10777522Y-9470677D01*
X10772020Y-9471494D01*
X10766882Y-9472411D01*
X10762071Y-9473445D01*
X10757553Y-9474619D01*
X10753291Y-9475950D01*
X10749251Y-9477460D01*
X10745396Y-9479168D01*
X10741692Y-9481094D01*
X10738103Y-9483258D01*
X10734593Y-9485680D01*
X10731126Y-9488380D01*
X10727668Y-9491377D01*
X10724183Y-9494692D01*
X10720635Y-9498344D01*
X10716989Y-9502354D01*
X10713209Y-9506742D01*
X10709709Y-9510791D01*
X10706289Y-9514525D01*
X10702939Y-9517941D01*
X10699654Y-9521037D01*
X10696424Y-9523810D01*
X10693244Y-9526257D01*
X10690105Y-9528375D01*
X10687001Y-9530161D01*
X10683922Y-9531614D01*
X10680863Y-9532729D01*
X10677815Y-9533505D01*
X10674771Y-9533939D01*
X10671724Y-9534028D01*
X10668666Y-9533768D01*
X10665589Y-9533159D01*
X10662487Y-9532195D01*
X10659352Y-9530876D01*
X10656175Y-9529198D01*
X10652951Y-9527159D01*
X10649671Y-9524755D01*
X10646327Y-9521985D01*
X10642913Y-9518845D01*
X10639421Y-9515332D01*
X10635843Y-9511444D01*
X10632172Y-9507178D01*
X10628401Y-9502532D01*
X10624522Y-9497502D01*
X10620527Y-9492086D01*
X10612161Y-9480085D01*
X10603243Y-9466507D01*
X10594463Y-9452104D01*
X10586190Y-9437114D01*
X10578447Y-9421626D01*
X10571257Y-9405728D01*
X10564644Y-9389508D01*
X10558632Y-9373054D01*
X10553243Y-9356455D01*
X10548501Y-9339798D01*
X10544429Y-9323172D01*
X10541051Y-9306665D01*
X10538390Y-9290364D01*
X10536469Y-9274359D01*
X10535311Y-9258737D01*
X10534940Y-9243587D01*
X10535380Y-9228996D01*
X10536654Y-9215053D01*
X10537621Y-9207796D01*
X10538654Y-9201111D01*
X10539790Y-9194927D01*
X10541062Y-9189174D01*
X10542506Y-9183780D01*
X10544156Y-9178676D01*
X10546049Y-9173789D01*
X10548218Y-9169050D01*
X10550699Y-9164386D01*
X10553528Y-9159729D01*
X10556738Y-9155006D01*
X10560365Y-9150146D01*
X10564445Y-9145080D01*
X10569011Y-9139735D01*
X10574100Y-9134042D01*
X10579746Y-9127929D01*
X10586212Y-9121044D01*
X10592006Y-9114992D01*
X10597270Y-9109711D01*
X10602146Y-9105138D01*
X10604483Y-9103097D01*
X10606777Y-9101209D01*
X10609045Y-9099467D01*
X10611305Y-9097862D01*
X10613575Y-9096386D01*
X10615873Y-9095032D01*
X10618216Y-9093792D01*
X10620623Y-9092657D01*
X10623111Y-9091621D01*
X10625697Y-9090674D01*
X10628401Y-9089809D01*
X10631240Y-9089019D01*
X10634230Y-9088295D01*
X10637391Y-9087629D01*
X10644295Y-9086442D01*
X10652094Y-9085393D01*
X10660930Y-9084419D01*
X10682284Y-9082446D01*
X10696452Y-9081050D01*
X10711673Y-9079278D01*
X10727472Y-9077203D01*
X10743372Y-9074898D01*
X10758896Y-9072434D01*
X10773568Y-9069883D01*
X10786912Y-9067319D01*
X10798451Y-9064814D01*
X10809260Y-9062376D01*
X10820514Y-9060008D01*
X10831881Y-9057768D01*
X10843033Y-9055714D01*
X10853639Y-9053906D01*
X10863369Y-9052401D01*
X10871894Y-9051258D01*
X10878884Y-9050535D01*
X10908517Y-9048149D01*
X10906284Y-8959249D01*
X10905705Y-8931465D01*
X10905654Y-8909305D01*
X10905889Y-8899944D01*
X10906329Y-8891520D01*
X10907000Y-8883879D01*
X10907926Y-8876864D01*
X10909131Y-8870318D01*
X10910641Y-8864086D01*
X10912478Y-8858012D01*
X10914669Y-8851940D01*
X10917237Y-8845714D01*
X10920207Y-8839178D01*
X10927451Y-8824550D01*
X10931373Y-8816958D01*
X10934993Y-8810192D01*
X10938405Y-8804173D01*
X10941701Y-8798825D01*
X10944973Y-8794068D01*
X10946629Y-8791888D01*
X10948314Y-8789826D01*
X10950040Y-8787873D01*
X10951817Y-8786020D01*
X10953658Y-8784256D01*
X10955574Y-8782572D01*
X10957576Y-8780959D01*
X10959677Y-8779405D01*
X10961888Y-8777903D01*
X10964220Y-8776441D01*
X10969295Y-8773601D01*
X10974994Y-8770808D01*
X10981410Y-8767984D01*
X10988635Y-8765051D01*
X10996762Y-8761932D01*
X11005884Y-8758547D01*
X11011941Y-8756234D01*
X11018049Y-8753729D01*
X11024176Y-8751049D01*
X11030291Y-8748213D01*
X11036363Y-8745239D01*
X11042360Y-8742145D01*
X11048252Y-8738951D01*
X11054007Y-8735672D01*
X11059594Y-8732329D01*
X11064982Y-8728940D01*
X11070139Y-8725521D01*
X11075034Y-8722093D01*
X11079637Y-8718672D01*
X11083915Y-8715278D01*
X11087838Y-8711928D01*
X11091374Y-8708641D01*
X11096227Y-8703824D01*
X11100584Y-8699284D01*
X11104486Y-8694918D01*
X11107976Y-8690626D01*
X11109579Y-8688476D01*
X11111095Y-8686306D01*
X11112528Y-8684104D01*
X11113885Y-8681856D01*
X11115169Y-8679552D01*
X11116387Y-8677176D01*
X11117544Y-8674718D01*
X11118644Y-8672165D01*
X11119694Y-8669502D01*
X11120697Y-8666719D01*
X11121661Y-8663803D01*
X11122589Y-8660740D01*
X11124360Y-8654124D01*
X11126052Y-8646771D01*
X11127708Y-8638579D01*
X11129368Y-8629448D01*
X11131076Y-8619275D01*
X11132872Y-8607960D01*
X11135505Y-8589147D01*
X11137516Y-8570417D01*
X11138910Y-8551516D01*
X11139694Y-8532185D01*
X11139875Y-8512167D01*
X11139458Y-8491207D01*
X11138450Y-8469047D01*
X11136857Y-8445431D01*
X11134124Y-8402155D01*
X11132478Y-8358195D01*
X11131897Y-8314511D01*
X11132358Y-8272059D01*
X11133840Y-8231799D01*
X11136319Y-8194689D01*
X11139772Y-8161686D01*
X11144179Y-8133748D01*
X11145437Y-8125867D01*
X11146568Y-8115764D01*
X11148458Y-8088519D01*
X11149857Y-8051276D01*
X11150774Y-8003296D01*
X11151220Y-7943841D01*
X11151203Y-7872174D01*
X11150732Y-7787556D01*
X11149818Y-7689248D01*
X11145584Y-7295548D01*
X11060918Y-7285916D01*
X10976251Y-7276285D01*
X10954125Y-7299571D01*
X10950495Y-7303495D01*
X10947263Y-7307279D01*
X10945787Y-7309164D01*
X10944398Y-7311068D01*
X10943093Y-7313009D01*
X10941867Y-7315006D01*
X10940716Y-7317076D01*
X10939637Y-7319238D01*
X10938625Y-7321509D01*
X10937677Y-7323907D01*
X10936788Y-7326451D01*
X10935954Y-7329159D01*
X10935172Y-7332049D01*
X10934437Y-7335138D01*
X10933745Y-7338445D01*
X10933092Y-7341987D01*
X10932474Y-7345784D01*
X10931888Y-7349852D01*
X10930793Y-7358877D01*
X10929774Y-7369205D01*
X10928799Y-7380982D01*
X10927835Y-7394352D01*
X10926852Y-7409458D01*
X10925816Y-7426446D01*
X10919633Y-7530035D01*
X10880209Y-7547621D01*
X10873888Y-7550356D01*
X10867791Y-7552788D01*
X10861775Y-7554933D01*
X10855700Y-7556804D01*
X10849422Y-7558416D01*
X10842800Y-7559784D01*
X10835693Y-7560921D01*
X10827959Y-7561841D01*
X10819455Y-7562560D01*
X10810041Y-7563092D01*
X10799574Y-7563450D01*
X10787912Y-7563650D01*
X10774914Y-7563704D01*
X10760438Y-7563629D01*
X10726484Y-7563145D01*
X10612184Y-7561081D01*
X10584668Y-7534603D01*
X10580597Y-7530607D01*
X10576932Y-7526827D01*
X10573652Y-7523217D01*
X10570738Y-7519731D01*
X10568171Y-7516324D01*
X10565930Y-7512950D01*
X10564926Y-7511262D01*
X10563996Y-7509565D01*
X10563138Y-7507853D01*
X10562349Y-7506121D01*
X10561628Y-7504364D01*
X10560970Y-7502575D01*
X10560375Y-7500749D01*
X10559839Y-7498880D01*
X10558935Y-7494990D01*
X10558240Y-7490862D01*
X10557734Y-7486448D01*
X10557397Y-7481703D01*
X10557209Y-7476583D01*
X10557151Y-7471041D01*
X10557018Y-7465611D01*
X10556602Y-7460112D01*
X10555878Y-7454476D01*
X10554823Y-7448641D01*
X10553411Y-7442540D01*
X10551618Y-7436108D01*
X10549420Y-7429282D01*
X10546791Y-7421995D01*
X10543708Y-7414183D01*
X10540145Y-7405782D01*
X10536078Y-7396726D01*
X10531484Y-7386950D01*
X10526336Y-7376389D01*
X10520611Y-7364979D01*
X10507330Y-7339351D01*
X10457507Y-7244750D01*
X10452467Y-7075134D01*
X10451133Y-7003618D01*
X10451225Y-6934285D01*
X10451776Y-6902911D01*
X10452650Y-6875051D01*
X10453833Y-6851695D01*
X10455314Y-6833833D01*
X10459077Y-6796981D01*
X10463491Y-6749631D01*
X10468008Y-6697886D01*
X10472076Y-6647850D01*
X10480951Y-6533550D01*
X10520762Y-6475213D01*
X10530949Y-6460635D01*
X10540778Y-6447317D01*
X10550313Y-6435213D01*
X10559617Y-6424282D01*
X10568756Y-6414477D01*
X10577793Y-6405756D01*
X10586793Y-6398074D01*
X10595819Y-6391387D01*
X10604937Y-6385652D01*
X10609550Y-6383127D01*
X10614210Y-6380824D01*
X10618925Y-6378737D01*
X10623703Y-6376860D01*
X10628552Y-6375187D01*
X10633480Y-6373715D01*
X10643605Y-6371345D01*
X10654143Y-6369707D01*
X10665157Y-6368757D01*
X10676712Y-6368449D01*
X10689078Y-6368812D01*
X10701534Y-6369871D01*
X10713978Y-6371583D01*
X10726309Y-6373905D01*
X10738428Y-6376793D01*
X10750232Y-6380205D01*
X10761621Y-6384098D01*
X10772495Y-6388427D01*
X10782752Y-6393151D01*
X10792292Y-6398225D01*
X10801014Y-6403607D01*
X10808816Y-6409253D01*
X10815599Y-6415120D01*
X10821262Y-6421166D01*
X10825703Y-6427346D01*
X10827434Y-6430473D01*
X10828822Y-6433617D01*
X10829815Y-6436408D01*
X10830905Y-6439854D01*
X10833330Y-6448511D01*
X10836010Y-6459197D01*
X10838857Y-6471518D01*
X10841783Y-6485084D01*
X10844702Y-6499500D01*
X10847525Y-6514375D01*
X10850166Y-6529316D01*
X10853114Y-6544982D01*
X10856819Y-6561936D01*
X10861132Y-6579639D01*
X10865903Y-6597552D01*
X10870983Y-6615138D01*
X10876223Y-6631859D01*
X10881473Y-6647175D01*
X10886584Y-6660550D01*
X10891565Y-6673014D01*
X10896443Y-6685721D01*
X10901094Y-6698316D01*
X10905396Y-6710443D01*
X10909225Y-6721748D01*
X10912457Y-6731876D01*
X10914969Y-6740470D01*
X10916639Y-6747175D01*
X10917377Y-6749964D01*
X10918426Y-6752934D01*
X10919772Y-6756068D01*
X10921400Y-6759354D01*
X10925444Y-6766315D01*
X10930439Y-6773701D01*
X10936265Y-6781390D01*
X10942803Y-6789264D01*
X10949936Y-6797204D01*
X10957544Y-6805090D01*
X10965508Y-6812805D01*
X10973709Y-6820228D01*
X10982030Y-6827241D01*
X10990350Y-6833725D01*
X10998551Y-6839560D01*
X11006514Y-6844628D01*
X11014120Y-6848809D01*
X11017752Y-6850530D01*
X11021251Y-6851985D01*
X11028839Y-6854716D01*
X11036022Y-6856915D01*
X11042812Y-6858579D01*
X11049223Y-6859704D01*
X11055269Y-6860287D01*
X11058160Y-6860373D01*
X11060964Y-6860323D01*
X11063684Y-6860135D01*
X11066321Y-6859809D01*
X11068878Y-6859344D01*
X11071355Y-6858740D01*
X11073754Y-6857997D01*
X11076077Y-6857114D01*
X11078326Y-6856091D01*
X11080503Y-6854927D01*
X11082609Y-6853621D01*
X11084645Y-6852174D01*
X11086614Y-6850584D01*
X11088518Y-6848852D01*
X11090357Y-6846977D01*
X11092135Y-6844957D01*
X11093851Y-6842794D01*
X11095509Y-6840486D01*
X11098655Y-6835435D01*
X11101585Y-6829799D01*
X11103208Y-6826577D01*
X11105138Y-6823063D01*
X11107350Y-6819291D01*
X11109819Y-6815296D01*
X11115428Y-6806776D01*
X11121764Y-6797777D01*
X11128628Y-6788576D01*
X11135818Y-6779449D01*
X11143136Y-6770671D01*
X11146779Y-6766500D01*
X11150380Y-6762519D01*
X11185004Y-6724957D01*
X11171643Y-6571305D01*
X11166615Y-6500616D01*
X11162809Y-6420126D01*
X11160246Y-6332896D01*
X11158948Y-6241988D01*
X11158938Y-6150462D01*
X11160238Y-6061378D01*
X11162869Y-5977798D01*
X11166853Y-5902783D01*
X11170278Y-5859541D01*
X11174691Y-5817676D01*
X11180135Y-5777062D01*
X11186650Y-5737574D01*
X11194277Y-5699086D01*
X11203058Y-5661474D01*
X11213035Y-5624611D01*
X11224248Y-5588373D01*
X11236739Y-5552633D01*
X11250549Y-5517267D01*
X11265719Y-5482149D01*
X11282291Y-5447152D01*
X11300306Y-5412153D01*
X11319806Y-5377026D01*
X11340831Y-5341644D01*
X11363423Y-5305883D01*
X11379885Y-5281092D01*
X11387580Y-5270004D01*
X11395069Y-5259620D01*
X11402468Y-5249814D01*
X11409891Y-5240460D01*
X11417452Y-5231432D01*
X11425265Y-5222605D01*
X11433447Y-5213852D01*
X11442109Y-5205049D01*
X11451368Y-5196069D01*
X11461338Y-5186785D01*
X11472133Y-5177074D01*
X11483867Y-5166808D01*
X11510613Y-5144110D01*
X11564648Y-5100151D01*
X11616595Y-5060467D01*
X11641867Y-5042177D01*
X11666716Y-5024895D01*
X11691174Y-5008600D01*
X11715273Y-4993272D01*
X11739048Y-4978891D01*
X11762530Y-4965436D01*
X11785752Y-4952887D01*
X11808747Y-4941224D01*
X11831549Y-4930425D01*
X11854189Y-4920472D01*
X11876701Y-4911343D01*
X11899116Y-4903019D01*
X11919793Y-4895562D01*
X11939598Y-4888171D01*
X11958061Y-4881038D01*
X11974713Y-4874356D01*
X11989083Y-4868318D01*
X12000700Y-4863116D01*
X12009094Y-4858945D01*
X12011936Y-4857305D01*
X12013795Y-4855995D01*
X12015703Y-4854739D01*
X12018689Y-4853257D01*
X12022687Y-4851568D01*
X12027635Y-4849690D01*
X12040126Y-4845445D01*
X12055652Y-4840672D01*
X12073703Y-4835522D01*
X12093771Y-4830144D01*
X12115347Y-4824690D01*
X12137921Y-4819311D01*
X12169731Y-4812182D01*
X12197790Y-4806446D01*
X12223230Y-4801967D01*
X12247182Y-4798609D01*
X12270781Y-4796235D01*
X12295157Y-4794708D01*
X12321445Y-4793892D01*
X12350774Y-4793650D01*
X12371687Y-4793474D01*
X12392089Y-4792971D01*
X12411471Y-4792175D01*
X12429322Y-4791123D01*
X12445131Y-4789848D01*
X12458389Y-4788387D01*
X12468585Y-4786775D01*
X12472375Y-4785923D01*
X12475208Y-4785047D01*
X12480699Y-4783217D01*
X12486991Y-4781571D01*
X12493973Y-4780115D01*
X12501537Y-4778853D01*
X12509572Y-4777788D01*
X12517969Y-4776926D01*
X12526616Y-4776269D01*
X12535406Y-4775823D01*
X12544226Y-4775591D01*
X12552968Y-4775579D01*
X12561522Y-4775789D01*
X12569777Y-4776227D01*
X12577624Y-4776897D01*
X12584953Y-4777802D01*
X12591654Y-4778947D01*
X12597616Y-4780337D01*
X12600570Y-4781027D01*
X12603549Y-4781489D01*
X12606574Y-4781714D01*
X12609666Y-4781697D01*
X12612845Y-4781431D01*
X12616132Y-4780908D01*
X12619548Y-4780123D01*
X12623114Y-4779067D01*
X12626850Y-4777736D01*
X12630777Y-4776121D01*
X12634915Y-4774216D01*
X12639286Y-4772015D01*
X12643910Y-4769510D01*
X12648808Y-4766695D01*
X12654000Y-4763562D01*
X12659507Y-4760106D01*
X12700231Y-4734112D01*
X12682790Y-4711939D01*
X12678965Y-4706995D01*
X12675648Y-4702512D01*
X12672838Y-4698460D01*
X12670535Y-4694808D01*
X12669574Y-4693122D01*
X12668739Y-4691524D01*
X12668031Y-4690011D01*
X12667450Y-4688578D01*
X12666995Y-4687223D01*
X12666666Y-4685939D01*
X12666464Y-4684725D01*
X12666388Y-4683576D01*
X12666439Y-4682488D01*
X12666616Y-4681457D01*
X12666919Y-4680479D01*
X12667348Y-4679552D01*
X12667904Y-4678669D01*
X12668585Y-4677829D01*
X12669393Y-4677026D01*
X12670326Y-4676258D01*
X12671386Y-4675519D01*
X12672572Y-4674807D01*
X12673883Y-4674117D01*
X12675320Y-4673446D01*
X12678572Y-4672144D01*
X12682327Y-4670869D01*
X12687185Y-4669051D01*
X12692370Y-4666603D01*
X12697815Y-4663587D01*
X12703452Y-4660061D01*
X12709214Y-4656086D01*
X12715034Y-4651724D01*
X12720843Y-4647033D01*
X12726574Y-4642075D01*
X12732161Y-4636910D01*
X12737534Y-4631598D01*
X12742628Y-4626199D01*
X12747373Y-4620775D01*
X12751704Y-4615385D01*
X12755552Y-4610090D01*
X12758850Y-4604949D01*
X12761530Y-4600025D01*
X12762974Y-4596706D01*
X12764263Y-4592938D01*
X12765397Y-4588676D01*
X12766380Y-4583874D01*
X12767213Y-4578487D01*
X12767898Y-4572470D01*
X12768437Y-4565778D01*
X12768831Y-4558365D01*
X12769083Y-4550186D01*
X12769195Y-4541196D01*
X12769167Y-4531349D01*
X12769003Y-4520601D01*
X12768704Y-4508905D01*
X12768272Y-4496217D01*
X12767016Y-4467683D01*
X12765513Y-4434943D01*
X12764636Y-4408838D01*
X12764459Y-4388371D01*
X12764655Y-4379940D01*
X12765053Y-4372544D01*
X12765661Y-4366059D01*
X12766490Y-4360359D01*
X12767548Y-4355321D01*
X12768844Y-4350819D01*
X12770387Y-4346729D01*
X12772186Y-4342925D01*
X12774250Y-4339284D01*
X12776589Y-4335681D01*
X12791583Y-4313745D01*
X12959182Y-4308665D01*
X13028398Y-4307077D01*
X13092961Y-4306508D01*
X13145650Y-4306964D01*
X13165286Y-4307579D01*
X13179246Y-4308454D01*
X13195528Y-4310070D01*
X13202246Y-4310863D01*
X13208102Y-4311687D01*
X13213159Y-4312575D01*
X13217480Y-4313558D01*
X13221130Y-4314666D01*
X13224171Y-4315932D01*
X13225484Y-4316633D01*
X13226669Y-4317386D01*
X13227734Y-4318193D01*
X13228687Y-4319059D01*
X13229535Y-4319988D01*
X13230288Y-4320984D01*
X13230952Y-4322050D01*
X13231536Y-4323191D01*
X13232496Y-4325712D01*
X13233230Y-4328577D01*
X13233803Y-4331819D01*
X13234279Y-4335469D01*
X13234751Y-4339213D01*
X13235288Y-4342510D01*
X13235604Y-4344000D01*
X13235963Y-4345388D01*
X13236373Y-4346680D01*
X13236843Y-4347877D01*
X13237383Y-4348984D01*
X13238000Y-4350003D01*
X13238704Y-4350940D01*
X13239503Y-4351797D01*
X13240406Y-4352577D01*
X13241421Y-4353285D01*
X13242558Y-4353923D01*
X13243825Y-4354496D01*
X13245231Y-4355007D01*
X13246785Y-4355459D01*
X13248495Y-4355856D01*
X13250369Y-4356202D01*
X13252418Y-4356499D01*
X13254649Y-4356752D01*
X13257072Y-4356964D01*
X13259694Y-4357139D01*
X13265574Y-4357391D01*
X13272358Y-4357536D01*
X13280117Y-4357602D01*
X13288920Y-4357618D01*
X13340990Y-4357618D01*
X13336347Y-4507424D01*
X13331703Y-4657231D01*
X13354126Y-4662859D01*
X13357734Y-4663815D01*
X13360936Y-4664801D01*
X13362393Y-4665320D01*
X13363757Y-4665865D01*
X13365032Y-4666442D01*
X13366221Y-4667056D01*
X13367326Y-4667715D01*
X13368350Y-4668425D01*
X13369297Y-4669190D01*
X13370170Y-4670019D01*
X13370971Y-4670916D01*
X13371703Y-4671888D01*
X13372370Y-4672941D01*
X13372974Y-4674082D01*
X13373519Y-4675315D01*
X13374006Y-4676649D01*
X13374440Y-4678088D01*
X13374824Y-4679638D01*
X13375159Y-4681307D01*
X13375450Y-4683100D01*
X13375699Y-4685023D01*
X13375909Y-4687083D01*
X13376225Y-4691636D01*
X13376421Y-4696809D01*
X13376521Y-4702650D01*
X13376549Y-4709210D01*
X13376650Y-4731999D01*
X13377047Y-4741162D01*
X13377411Y-4745233D01*
X13377915Y-4748981D01*
X13378583Y-4752420D01*
X13379436Y-4755562D01*
X13380497Y-4758421D01*
X13381789Y-4761011D01*
X13383335Y-4763344D01*
X13385156Y-4765435D01*
X13387276Y-4767295D01*
X13389717Y-4768940D01*
X13392502Y-4770382D01*
X13395652Y-4771634D01*
X13399192Y-4772710D01*
X13403143Y-4773622D01*
X13407527Y-4774386D01*
X13412368Y-4775012D01*
X13417688Y-4775516D01*
X13423510Y-4775911D01*
X13436749Y-4776424D01*
X13452264Y-4776658D01*
X13490849Y-4776718D01*
X13520354Y-4776602D01*
X13544022Y-4776201D01*
X13562506Y-4775435D01*
X13570008Y-4774890D01*
X13576458Y-4774224D01*
X13581939Y-4773426D01*
X13586532Y-4772487D01*
X13590318Y-4771397D01*
X13593380Y-4770146D01*
X13595798Y-4768723D01*
X13597655Y-4767118D01*
X13599031Y-4765322D01*
X13600010Y-4763325D01*
X13601837Y-4758070D01*
X13603246Y-4752891D01*
X13604234Y-4747771D01*
X13604568Y-4745228D01*
X13604795Y-4742692D01*
X13604914Y-4740163D01*
X13604924Y-4737637D01*
X13604825Y-4735112D01*
X13604616Y-4732587D01*
X13604297Y-4730058D01*
X13603866Y-4727524D01*
X13603324Y-4724983D01*
X13602669Y-4722432D01*
X13601021Y-4717291D01*
X13598916Y-4712085D01*
X13596349Y-4706794D01*
X13593315Y-4701403D01*
X13589810Y-4695891D01*
X13585828Y-4690243D01*
X13581365Y-4684439D01*
X13576415Y-4678463D01*
X13571977Y-4673231D01*
X13568058Y-4668497D01*
X13564644Y-4664215D01*
X13561717Y-4660343D01*
X13559262Y-4656834D01*
X13557263Y-4653645D01*
X13555705Y-4650732D01*
X13555085Y-4649365D01*
X13554570Y-4648050D01*
X13554157Y-4646782D01*
X13553844Y-4645555D01*
X13553629Y-4644364D01*
X13553510Y-4643203D01*
X13553485Y-4642067D01*
X13553553Y-4640950D01*
X13553710Y-4639847D01*
X13553956Y-4638751D01*
X13554287Y-4637658D01*
X13554703Y-4636562D01*
X13555780Y-4634338D01*
X13557169Y-4632036D01*
X13558854Y-4629611D01*
X13560502Y-4627239D01*
X13561235Y-4626081D01*
X13561906Y-4624934D01*
X13562515Y-4623792D01*
X13563062Y-4622652D01*
X13563546Y-4621507D01*
X13563966Y-4620353D01*
X13564323Y-4619184D01*
X13564615Y-4617995D01*
X13564842Y-4616781D01*
X13565004Y-4615537D01*
X13565099Y-4614257D01*
X13565129Y-4612937D01*
X13565091Y-4611570D01*
X13564986Y-4610153D01*
X13564813Y-4608679D01*
X13564571Y-4607144D01*
X13564261Y-4605542D01*
X13563881Y-4603869D01*
X13563431Y-4602118D01*
X13562910Y-4600285D01*
X13561656Y-4596351D01*
X13560115Y-4592026D01*
X13558281Y-4587269D01*
X13556151Y-4582036D01*
X13553722Y-4576288D01*
X13549673Y-4565749D01*
X13546175Y-4554413D01*
X13543228Y-4542428D01*
X13540832Y-4529943D01*
X13538984Y-4517107D01*
X13537685Y-4504068D01*
X13536934Y-4490976D01*
X13536729Y-4477978D01*
X13537071Y-4465223D01*
X13537957Y-4452861D01*
X13539389Y-4441039D01*
X13541364Y-4429907D01*
X13543882Y-4419612D01*
X13546942Y-4410305D01*
X13550543Y-4402133D01*
X13554685Y-4395245D01*
X13556552Y-4392359D01*
X13558478Y-4388876D01*
X13560449Y-4384837D01*
X13562454Y-4380284D01*
X13564479Y-4375260D01*
X13566510Y-4369806D01*
X13568535Y-4363963D01*
X13570540Y-4357774D01*
X13572513Y-4351280D01*
X13574440Y-4344524D01*
X13576308Y-4337546D01*
X13578104Y-4330389D01*
X13579815Y-4323095D01*
X13581428Y-4315705D01*
X13582930Y-4308261D01*
X13584307Y-4300805D01*
X13589811Y-4268688D01*
X13593600Y-4243714D01*
X13594831Y-4233601D01*
X13595608Y-4224909D01*
X13595923Y-4217515D01*
X13595766Y-4211298D01*
X13595130Y-4206135D01*
X13594007Y-4201906D01*
X13592387Y-4198488D01*
X13590262Y-4195759D01*
X13587624Y-4193597D01*
X13584464Y-4191881D01*
X13580774Y-4190489D01*
X13576545Y-4189299D01*
X13573275Y-4188431D01*
X13571785Y-4187990D01*
X13570390Y-4187536D01*
X13569088Y-4187062D01*
X13567874Y-4186562D01*
X13566749Y-4186030D01*
X13565709Y-4185460D01*
X13564753Y-4184845D01*
X13563877Y-4184179D01*
X13563080Y-4183456D01*
X13562361Y-4182669D01*
X13561715Y-4181813D01*
X13561142Y-4180881D01*
X13560639Y-4179866D01*
X13560204Y-4178763D01*
X13559834Y-4177564D01*
X13559529Y-4176265D01*
X13559284Y-4174858D01*
X13559099Y-4173337D01*
X13558970Y-4171697D01*
X13558897Y-4169930D01*
X13558875Y-4168030D01*
X13558905Y-4165992D01*
X13559105Y-4161473D01*
X13559481Y-4156324D01*
X13560014Y-4150493D01*
X13560688Y-4143931D01*
X13561514Y-4136981D01*
X13562492Y-4130368D01*
X13563639Y-4124085D01*
X13564971Y-4118121D01*
X13566507Y-4112468D01*
X13568262Y-4107116D01*
X13570255Y-4102057D01*
X13572503Y-4097280D01*
X13575022Y-4092776D01*
X13577830Y-4088538D01*
X13580944Y-4084554D01*
X13584382Y-4080816D01*
X13588159Y-4077315D01*
X13592295Y-4074041D01*
X13596805Y-4070986D01*
X13601706Y-4068139D01*
X13607017Y-4065493D01*
X13612754Y-4063036D01*
X13618934Y-4060761D01*
X13625575Y-4058659D01*
X13632693Y-4056718D01*
X13640307Y-4054932D01*
X13648432Y-4053290D01*
X13657086Y-4051783D01*
X13666287Y-4050402D01*
X13676052Y-4049137D01*
X13697339Y-4046921D01*
X13721087Y-4045061D01*
X13747432Y-4043483D01*
X13790611Y-4041617D01*
X13808985Y-4041232D01*
X13825417Y-4041263D01*
D10*
X12388000Y-8977000D02*
X13912000Y-8977000D01*
X13912000Y-10755000D01*
X12388000Y-10755000D01*
X12388000Y-8977000D01*
D12*
X10707676Y-15989032D02*
X10707676Y-15789032D01*
X10707676Y-15789032D02*
X10755295Y-15789032D01*
X10755295Y-15789032D02*
X10783867Y-15798556D01*
X10783867Y-15798556D02*
X10802914Y-15817604D01*
X10802914Y-15817604D02*
X10812438Y-15836651D01*
X10812438Y-15836651D02*
X10821962Y-15874747D01*
X10821962Y-15874747D02*
X10821962Y-15903318D01*
X10821962Y-15903318D02*
X10812438Y-15941413D01*
X10812438Y-15941413D02*
X10802914Y-15960461D01*
X10802914Y-15960461D02*
X10783867Y-15979509D01*
X10783867Y-15979509D02*
X10755295Y-15989032D01*
X10755295Y-15989032D02*
X10707676Y-15989032D01*
X10907676Y-15989032D02*
X10907676Y-15855699D01*
X10907676Y-15893794D02*
X10917200Y-15874747D01*
X10917200Y-15874747D02*
X10926724Y-15865223D01*
X10926724Y-15865223D02*
X10945771Y-15855699D01*
X10945771Y-15855699D02*
X10964819Y-15855699D01*
X11031486Y-15989032D02*
X11031486Y-15855699D01*
X11031486Y-15789032D02*
X11021962Y-15798556D01*
X11021962Y-15798556D02*
X11031486Y-15808080D01*
X11031486Y-15808080D02*
X11041010Y-15798556D01*
X11041010Y-15798556D02*
X11031486Y-15789032D01*
X11031486Y-15789032D02*
X11031486Y-15808080D01*
X11155295Y-15989032D02*
X11136248Y-15979509D01*
X11136248Y-15979509D02*
X11126724Y-15960461D01*
X11126724Y-15960461D02*
X11126724Y-15789032D01*
X11260057Y-15989032D02*
X11241009Y-15979509D01*
X11241009Y-15979509D02*
X11231486Y-15960461D01*
X11231486Y-15960461D02*
X11231486Y-15789032D01*
X11488629Y-15989032D02*
X11488629Y-15789032D01*
X11488629Y-15789032D02*
X11555295Y-15931889D01*
X11555295Y-15931889D02*
X11621962Y-15789032D01*
X11621962Y-15789032D02*
X11621962Y-15989032D01*
X11802914Y-15989032D02*
X11802914Y-15884270D01*
X11802914Y-15884270D02*
X11793390Y-15865223D01*
X11793390Y-15865223D02*
X11774343Y-15855699D01*
X11774343Y-15855699D02*
X11736248Y-15855699D01*
X11736248Y-15855699D02*
X11717200Y-15865223D01*
X11802914Y-15979509D02*
X11783867Y-15989032D01*
X11783867Y-15989032D02*
X11736248Y-15989032D01*
X11736248Y-15989032D02*
X11717200Y-15979509D01*
X11717200Y-15979509D02*
X11707676Y-15960461D01*
X11707676Y-15960461D02*
X11707676Y-15941413D01*
X11707676Y-15941413D02*
X11717200Y-15922366D01*
X11717200Y-15922366D02*
X11736248Y-15912842D01*
X11736248Y-15912842D02*
X11783867Y-15912842D01*
X11783867Y-15912842D02*
X11802914Y-15903318D01*
X11898152Y-15855699D02*
X11898152Y-16055699D01*
X11898152Y-15865223D02*
X11917200Y-15855699D01*
X11917200Y-15855699D02*
X11955295Y-15855699D01*
X11955295Y-15855699D02*
X11974343Y-15865223D01*
X11974343Y-15865223D02*
X11983867Y-15874747D01*
X11983867Y-15874747D02*
X11993390Y-15893794D01*
X11993390Y-15893794D02*
X11993390Y-15950937D01*
X11993390Y-15950937D02*
X11983867Y-15969985D01*
X11983867Y-15969985D02*
X11974343Y-15979509D01*
X11974343Y-15979509D02*
X11955295Y-15989032D01*
X11955295Y-15989032D02*
X11917200Y-15989032D01*
X11917200Y-15989032D02*
X11898152Y-15979509D01*
X12079105Y-15969985D02*
X12088629Y-15979509D01*
X12088629Y-15979509D02*
X12079105Y-15989032D01*
X12079105Y-15989032D02*
X12069581Y-15979509D01*
X12069581Y-15979509D02*
X12079105Y-15969985D01*
X12079105Y-15969985D02*
X12079105Y-15989032D01*
X12079105Y-15865223D02*
X12088629Y-15874747D01*
X12088629Y-15874747D02*
X12079105Y-15884270D01*
X12079105Y-15884270D02*
X12069581Y-15874747D01*
X12069581Y-15874747D02*
X12079105Y-15865223D01*
X12079105Y-15865223D02*
X12079105Y-15884270D01*
M02*
