M48
; DRILL file {KiCad 8.0.4} date 2024-09-17T14:39:18-0700
; FORMAT={-:-/ absolute / inch / decimal}
; #@! TF.CreationDate,2024-09-17T14:39:18-07:00
; #@! TF.GenerationSoftware,Kicad,Pcbnew,8.0.4
; #@! TF.FileFunction,Plated,1,2,PTH
FMAT,2
INCH
; #@! TA.AperFunction,Plated,PTH,ComponentDrill
T1C0.0300
%
G90
G05
T1
X4.7244Y-5.5118
X4.7272Y-2.6343
X4.7272Y-2.7343
X4.7272Y-2.8343
X4.7272Y-2.9343
X4.7272Y-3.0343
X4.7272Y-3.1343
X4.7272Y-3.2343
X4.7272Y-3.3343
X4.7272Y-3.4343
X4.7272Y-3.5343
X4.7272Y-3.6343
X4.7272Y-3.7343
X4.7272Y-3.8343
X4.7272Y-3.9343
X4.7272Y-4.0343
X4.7272Y-4.1343
X4.7272Y-4.2343
X4.7272Y-4.3343
X4.8685Y-4.9697
X4.8685Y-5.0697
X5.0244Y-5.5118
X5.6272Y-2.6343
X5.6272Y-2.7343
X5.6272Y-2.8343
X5.6272Y-2.9343
X5.6272Y-3.0343
X5.6272Y-3.1343
X5.6272Y-3.2343
X5.6272Y-3.3343
X5.6272Y-3.4343
X5.6272Y-3.5343
X5.6272Y-3.6343
X5.6272Y-3.7343
X5.6272Y-3.8343
X5.6272Y-3.9343
X5.6272Y-4.0343
X5.6272Y-4.1343
X5.6272Y-4.2343
X5.6272Y-4.3343
X5.787Y-2.9406
X5.787Y-3.0406
X5.787Y-3.1406
X5.787Y-3.2406
M30
