%TF.GenerationSoftware,KiCad,Pcbnew,8.0.4*%
%TF.CreationDate,2024-09-17T14:39:16-07:00*%
%TF.ProjectId,DC33_Cnet_Badge_Main,44433333-5f43-46e6-9574-5f4261646765,rev?*%
%TF.SameCoordinates,Original*%
%TF.FileFunction,Soldermask,Bot*%
%TF.FilePolarity,Negative*%
%FSLAX46Y46*%
G04 Gerber Fmt 4.6, Leading zero omitted, Abs format (unit mm)*
G04 Created by KiCad (PCBNEW 8.0.4) date 2024-09-17 14:39:16*
%MOMM*%
%LPD*%
G01*
G04 APERTURE LIST*
%ADD10C,1.524000*%
G04 APERTURE END LIST*
D10*
%TO.C,VIBRA1*%
X123660000Y-128770000D03*
X123660000Y-126230000D03*
%TD*%
%TO.C,U1*%
X142930000Y-110090000D03*
X142930000Y-107550000D03*
X142930000Y-105010000D03*
X142930000Y-102470000D03*
X142930000Y-99930000D03*
X142930000Y-97390000D03*
X142930000Y-94850000D03*
X142930000Y-92310000D03*
X142930000Y-89770000D03*
X142930000Y-87230000D03*
X142930000Y-84690000D03*
X142930000Y-82150000D03*
X142930000Y-79610000D03*
X142930000Y-77070000D03*
X142930000Y-74530000D03*
X142930000Y-71990000D03*
X142930000Y-69450000D03*
X142930000Y-66910000D03*
X120070000Y-66910000D03*
X120070000Y-69450000D03*
X120070000Y-71990000D03*
X120070000Y-74530000D03*
X120070000Y-77070000D03*
X120070000Y-79610000D03*
X120070000Y-82150000D03*
X120070000Y-84690000D03*
X120070000Y-87230000D03*
X120070000Y-89770000D03*
X120070000Y-92310000D03*
X120070000Y-94850000D03*
X120070000Y-97390000D03*
X120070000Y-99930000D03*
X120070000Y-102470000D03*
X120070000Y-105010000D03*
X120070000Y-107550000D03*
X120070000Y-110090000D03*
%TD*%
%TO.C,BUZZ1*%
X120000000Y-140000000D03*
X127620000Y-140000000D03*
%TD*%
%TO.C,GPS1*%
X146990000Y-82310000D03*
X146990000Y-79770000D03*
X146990000Y-77230000D03*
X146990000Y-74690000D03*
%TD*%
M02*
