%TF.GenerationSoftware,KiCad,Pcbnew,8.0.4*%
%TF.CreationDate,2024-09-17T14:39:16-07:00*%
%TF.ProjectId,DC33_Cnet_Badge_Main,44433333-5f43-46e6-9574-5f4261646765,rev?*%
%TF.SameCoordinates,Original*%
%TF.FileFunction,Profile,NP*%
%FSLAX46Y46*%
G04 Gerber Fmt 4.6, Leading zero omitted, Abs format (unit mm)*
G04 Created by KiCad (PCBNEW 8.0.4) date 2024-09-17 14:39:16*
%MOMM*%
%LPD*%
G01*
G04 APERTURE LIST*
%TA.AperFunction,Profile*%
%ADD10C,0.050000*%
%TD*%
%TA.AperFunction,Profile*%
%ADD11C,0.084666*%
%TD*%
G04 APERTURE END LIST*
D10*
X155000000Y-53500000D02*
G75*
G02*
X149000000Y-53500000I-3000000J0D01*
G01*
X149000000Y-53500000D02*
G75*
G02*
X155000000Y-53500000I3000000J0D01*
G01*
X183000000Y-47200000D02*
G75*
G02*
X177000000Y-47200000I-3000000J0D01*
G01*
X177000000Y-47200000D02*
G75*
G02*
X183000000Y-47200000I3000000J0D01*
G01*
D11*
%TO.C,G\u002A\u002A\u002A*%
X138254171Y-40412628D02*
X138400594Y-40417457D01*
X138530632Y-40427187D01*
X138645799Y-40442191D01*
X138747612Y-40462842D01*
X138837584Y-40489515D01*
X138917232Y-40522583D01*
X138988070Y-40562421D01*
X139051613Y-40609403D01*
X139109378Y-40663901D01*
X139162878Y-40726290D01*
X139213629Y-40796944D01*
X139263147Y-40876237D01*
X139287777Y-40919085D01*
X139309648Y-40959675D01*
X139328825Y-40998444D01*
X139345374Y-41035833D01*
X139359363Y-41072280D01*
X139370858Y-41108224D01*
X139379926Y-41144104D01*
X139386633Y-41180360D01*
X139391045Y-41217429D01*
X139393230Y-41255752D01*
X139393253Y-41295766D01*
X139391182Y-41337911D01*
X139387083Y-41382627D01*
X139381022Y-41430351D01*
X139373066Y-41481523D01*
X139363282Y-41536582D01*
X139355294Y-41575681D01*
X139345770Y-41615921D01*
X139334835Y-41656997D01*
X139322613Y-41698606D01*
X139309230Y-41740445D01*
X139294808Y-41782208D01*
X139279472Y-41823593D01*
X139263347Y-41864297D01*
X139246557Y-41904014D01*
X139229226Y-41942443D01*
X139211479Y-41979278D01*
X139193439Y-42014216D01*
X139175231Y-42046954D01*
X139156980Y-42077188D01*
X139138809Y-42104614D01*
X139120843Y-42128929D01*
X139095239Y-42162328D01*
X139072585Y-42193880D01*
X139052811Y-42223987D01*
X139035845Y-42253048D01*
X139028392Y-42267311D01*
X139021615Y-42281464D01*
X139015505Y-42295555D01*
X139010052Y-42309636D01*
X139005247Y-42323756D01*
X139001083Y-42337965D01*
X138997549Y-42352313D01*
X138994637Y-42366850D01*
X138992338Y-42381628D01*
X138990643Y-42396694D01*
X138989544Y-42412101D01*
X138989031Y-42427896D01*
X138989095Y-42444132D01*
X138989728Y-42460858D01*
X138992664Y-42495979D01*
X138997767Y-42533661D01*
X139004966Y-42574303D01*
X139014191Y-42618308D01*
X139025369Y-42666075D01*
X139041969Y-42752306D01*
X139059508Y-42876178D01*
X139077454Y-43031877D01*
X139095278Y-43213584D01*
X139112448Y-43415484D01*
X139128434Y-43631761D01*
X139142706Y-43856597D01*
X139154733Y-44084177D01*
X139166839Y-44307375D01*
X139181337Y-44519654D01*
X139197679Y-44716078D01*
X139215319Y-44891710D01*
X139233711Y-45041616D01*
X139252310Y-45160859D01*
X139270567Y-45244502D01*
X139279398Y-45271432D01*
X139287938Y-45287611D01*
X139292717Y-45294242D01*
X139297075Y-45301505D01*
X139301013Y-45309396D01*
X139304531Y-45317913D01*
X139307629Y-45327052D01*
X139310309Y-45336809D01*
X139312569Y-45347182D01*
X139314411Y-45358169D01*
X139316841Y-45381966D01*
X139317601Y-45408176D01*
X139316693Y-45436773D01*
X139314121Y-45467733D01*
X139309887Y-45501030D01*
X139303993Y-45536639D01*
X139296443Y-45574534D01*
X139287238Y-45614690D01*
X139276383Y-45657083D01*
X139263878Y-45701687D01*
X139249728Y-45748476D01*
X139233934Y-45797426D01*
X139182574Y-45971346D01*
X139122297Y-46205370D01*
X139057962Y-46476884D01*
X138994429Y-46763273D01*
X138936555Y-47041923D01*
X138889201Y-47290219D01*
X138857225Y-47485547D01*
X138848523Y-47556280D01*
X138845487Y-47605291D01*
X138851192Y-47609525D01*
X138868173Y-47613673D01*
X138935163Y-47621702D01*
X139195660Y-47636595D01*
X139614179Y-47649763D01*
X140177922Y-47661001D01*
X141689884Y-47676857D01*
X143629159Y-47682509D01*
X148412831Y-47682509D01*
X148398523Y-47280343D01*
X148396356Y-47178734D01*
X148397045Y-47077046D01*
X148400536Y-46975561D01*
X148406778Y-46874558D01*
X148415717Y-46774317D01*
X148427300Y-46675118D01*
X148441474Y-46577241D01*
X148458188Y-46480966D01*
X148477387Y-46386574D01*
X148499020Y-46294344D01*
X148523033Y-46204556D01*
X148549374Y-46117490D01*
X148577989Y-46033427D01*
X148608827Y-45952645D01*
X148641834Y-45875426D01*
X148676957Y-45802050D01*
X148693188Y-45768605D01*
X148708993Y-45733263D01*
X148724288Y-45696327D01*
X148738990Y-45658102D01*
X148753016Y-45618890D01*
X148766284Y-45578996D01*
X148778710Y-45538723D01*
X148790211Y-45498377D01*
X148800705Y-45458259D01*
X148810107Y-45418675D01*
X148818336Y-45379928D01*
X148825308Y-45342321D01*
X148830939Y-45306160D01*
X148835148Y-45271747D01*
X148837850Y-45239387D01*
X148838964Y-45209382D01*
X148840081Y-45180020D01*
X148842783Y-45149542D01*
X148846988Y-45118188D01*
X148852612Y-45086199D01*
X148859573Y-45053816D01*
X148867788Y-45021279D01*
X148877175Y-44988828D01*
X148887650Y-44956705D01*
X148899130Y-44925148D01*
X148911534Y-44894400D01*
X148924778Y-44864700D01*
X148938780Y-44836289D01*
X148953455Y-44809408D01*
X148968723Y-44784296D01*
X148984500Y-44761194D01*
X149000703Y-44740344D01*
X149025348Y-44712066D01*
X149037638Y-44698998D01*
X149049987Y-44686620D01*
X149062457Y-44674915D01*
X149075106Y-44663866D01*
X149087997Y-44653454D01*
X149101190Y-44643665D01*
X149114745Y-44634478D01*
X149128724Y-44625878D01*
X149143186Y-44617846D01*
X149158192Y-44610367D01*
X149173804Y-44603421D01*
X149190081Y-44596992D01*
X149207085Y-44591062D01*
X149224876Y-44585615D01*
X149243514Y-44580632D01*
X149263060Y-44576096D01*
X149283576Y-44571991D01*
X149305121Y-44568298D01*
X149327756Y-44565000D01*
X149351542Y-44562080D01*
X149402809Y-44557305D01*
X149459407Y-44553832D01*
X149521822Y-44551523D01*
X149590537Y-44550240D01*
X149666040Y-44549843D01*
X149822387Y-44548782D01*
X149887189Y-44547101D01*
X149943918Y-44544339D01*
X149993207Y-44540258D01*
X150035686Y-44534624D01*
X150071988Y-44527199D01*
X150102743Y-44517749D01*
X150128584Y-44506035D01*
X150139858Y-44499256D01*
X150150141Y-44491823D01*
X150159511Y-44483706D01*
X150168047Y-44474876D01*
X150182933Y-44454959D01*
X150195431Y-44431834D01*
X150206171Y-44405265D01*
X150215787Y-44375018D01*
X150224908Y-44340854D01*
X150251630Y-44250476D01*
X150287462Y-44154982D01*
X150331832Y-44055149D01*
X150384167Y-43951750D01*
X150443895Y-43845562D01*
X150510445Y-43737358D01*
X150583244Y-43627915D01*
X150661719Y-43518006D01*
X150745299Y-43408408D01*
X150833411Y-43299895D01*
X150925484Y-43193242D01*
X151020944Y-43089225D01*
X151119221Y-42988617D01*
X151219740Y-42892195D01*
X151321931Y-42800734D01*
X151425222Y-42715007D01*
X151991357Y-42263843D01*
X152630697Y-42263843D01*
X152768925Y-42266592D01*
X152916818Y-42274470D01*
X153069784Y-42286925D01*
X153223233Y-42303405D01*
X153372573Y-42323358D01*
X153513214Y-42346230D01*
X153640564Y-42371469D01*
X153750032Y-42398524D01*
X153825513Y-42420436D01*
X153895096Y-42442436D01*
X153959719Y-42465202D01*
X154020319Y-42489411D01*
X154077837Y-42515742D01*
X154133210Y-42544873D01*
X154187376Y-42577483D01*
X154241276Y-42614248D01*
X154295846Y-42655847D01*
X154352025Y-42702959D01*
X154410753Y-42756261D01*
X154472967Y-42816431D01*
X154539606Y-42884147D01*
X154611609Y-42960089D01*
X154689915Y-43044932D01*
X154775460Y-43139357D01*
X154888793Y-43267301D01*
X155001800Y-43398610D01*
X155111489Y-43529556D01*
X155214864Y-43656410D01*
X155308933Y-43775445D01*
X155390700Y-43882931D01*
X155457173Y-43975141D01*
X155505357Y-44048346D01*
X155537003Y-44100676D01*
X155564524Y-44147641D01*
X155587983Y-44190333D01*
X155607443Y-44229842D01*
X155615694Y-44248744D01*
X155622969Y-44267259D01*
X155629276Y-44285524D01*
X155634624Y-44303674D01*
X155639020Y-44321847D01*
X155642471Y-44340179D01*
X155644987Y-44358806D01*
X155646575Y-44377863D01*
X155647243Y-44397489D01*
X155646999Y-44417818D01*
X155645850Y-44438988D01*
X155643806Y-44461134D01*
X155640873Y-44484393D01*
X155637060Y-44508901D01*
X155626825Y-44562210D01*
X155613164Y-44622152D01*
X155596141Y-44689817D01*
X155552262Y-44852680D01*
X155534824Y-44913254D01*
X155516056Y-44972704D01*
X155495990Y-45030971D01*
X155474657Y-45087998D01*
X155452088Y-45143724D01*
X155428313Y-45198091D01*
X155403364Y-45251041D01*
X155377272Y-45302514D01*
X155350068Y-45352452D01*
X155321782Y-45400795D01*
X155292445Y-45447485D01*
X155262089Y-45492463D01*
X155230744Y-45535670D01*
X155198441Y-45577048D01*
X155165211Y-45616537D01*
X155131086Y-45654078D01*
X155074112Y-45715877D01*
X155020961Y-45776536D01*
X154972795Y-45834511D01*
X154930778Y-45888261D01*
X154896073Y-45936243D01*
X154881826Y-45957588D01*
X154869843Y-45976914D01*
X154860270Y-45994026D01*
X154853252Y-46008732D01*
X154848934Y-46020839D01*
X154847463Y-46030155D01*
X154849240Y-46040905D01*
X154854452Y-46057221D01*
X154862925Y-46078769D01*
X154874484Y-46105214D01*
X154906153Y-46171458D01*
X154948057Y-46253276D01*
X154998789Y-46347990D01*
X155056946Y-46452926D01*
X155121123Y-46565405D01*
X155189916Y-46682751D01*
X155532361Y-47259177D01*
X156871427Y-47259177D01*
X157422736Y-47254876D01*
X157933946Y-47243167D01*
X158348071Y-47225838D01*
X158500919Y-47215624D01*
X158608125Y-47204675D01*
X159005758Y-47150174D01*
X158740361Y-46876352D01*
X158691495Y-46823787D01*
X158646052Y-46770451D01*
X158604034Y-46716330D01*
X158565442Y-46661410D01*
X158530276Y-46605678D01*
X158498538Y-46549119D01*
X158470229Y-46491721D01*
X158445349Y-46433469D01*
X158423899Y-46374350D01*
X158405880Y-46314351D01*
X158391293Y-46253457D01*
X158380140Y-46191654D01*
X158372420Y-46128930D01*
X158368134Y-46065271D01*
X158367285Y-46000662D01*
X158369871Y-45935090D01*
X158375895Y-45868542D01*
X158385358Y-45801003D01*
X158398259Y-45732461D01*
X158414601Y-45662901D01*
X158434383Y-45592309D01*
X158457608Y-45520673D01*
X158484275Y-45447978D01*
X158514385Y-45374211D01*
X158547940Y-45299358D01*
X158584941Y-45223405D01*
X158625388Y-45146339D01*
X158669281Y-45068145D01*
X158767414Y-44908323D01*
X158879346Y-44743829D01*
X158961249Y-44632156D01*
X159040061Y-44532066D01*
X159116654Y-44443190D01*
X159154391Y-44402842D01*
X159191900Y-44365159D01*
X159229289Y-44330096D01*
X159266669Y-44297607D01*
X159304148Y-44267644D01*
X159341835Y-44240163D01*
X159379838Y-44215117D01*
X159418268Y-44192461D01*
X159457232Y-44172148D01*
X159496840Y-44154132D01*
X159537200Y-44138367D01*
X159578422Y-44124807D01*
X159620615Y-44113407D01*
X159663887Y-44104120D01*
X159708348Y-44096899D01*
X159754106Y-44091700D01*
X159801270Y-44088476D01*
X159849950Y-44087181D01*
X159900254Y-44087769D01*
X159952291Y-44090194D01*
X160006170Y-44094410D01*
X160062000Y-44100371D01*
X160179950Y-44117344D01*
X160307012Y-44140743D01*
X160380345Y-44155937D01*
X160446369Y-44170906D01*
X160505966Y-44186298D01*
X160560025Y-44202759D01*
X160609429Y-44220936D01*
X160632663Y-44230870D01*
X160655065Y-44241476D01*
X160676746Y-44252834D01*
X160697818Y-44265025D01*
X160718390Y-44278130D01*
X160738573Y-44292230D01*
X160758479Y-44307405D01*
X160778217Y-44323737D01*
X160817634Y-44360193D01*
X160857710Y-44402245D01*
X160899330Y-44450539D01*
X160943381Y-44505722D01*
X160990748Y-44568441D01*
X161042315Y-44639342D01*
X161098970Y-44719071D01*
X161165782Y-44818122D01*
X161226322Y-44916713D01*
X161280506Y-45014450D01*
X161328255Y-45110940D01*
X161369487Y-45205789D01*
X161404119Y-45298603D01*
X161432072Y-45388987D01*
X161453262Y-45476549D01*
X161467609Y-45560893D01*
X161475032Y-45641627D01*
X161475449Y-45718355D01*
X161468778Y-45790685D01*
X161454939Y-45858223D01*
X161445305Y-45890071D01*
X161433849Y-45920573D01*
X161420559Y-45949681D01*
X161405427Y-45977343D01*
X161388441Y-46003513D01*
X161369592Y-46028139D01*
X161354346Y-46047138D01*
X161341028Y-46065128D01*
X161329631Y-46082203D01*
X161320151Y-46098458D01*
X161316127Y-46106307D01*
X161312579Y-46113986D01*
X161309507Y-46121507D01*
X161306910Y-46128881D01*
X161304787Y-46136120D01*
X161303137Y-46143237D01*
X161301960Y-46150242D01*
X161301255Y-46157148D01*
X161301020Y-46163966D01*
X161301255Y-46170709D01*
X161301959Y-46177387D01*
X161303132Y-46184012D01*
X161304773Y-46190597D01*
X161306880Y-46197152D01*
X161309453Y-46203691D01*
X161312492Y-46210224D01*
X161315995Y-46216763D01*
X161319962Y-46223320D01*
X161324391Y-46229907D01*
X161329282Y-46236535D01*
X161340448Y-46249963D01*
X161353452Y-46263698D01*
X161358476Y-46269198D01*
X161363436Y-46275571D01*
X161373140Y-46290817D01*
X161382514Y-46309199D01*
X161391507Y-46330481D01*
X161400069Y-46354425D01*
X161408151Y-46380795D01*
X161415701Y-46409353D01*
X161422670Y-46439863D01*
X161429007Y-46472088D01*
X161434662Y-46505791D01*
X161439585Y-46540734D01*
X161443726Y-46576682D01*
X161447034Y-46613397D01*
X161449459Y-46650643D01*
X161450951Y-46688181D01*
X161451459Y-46725776D01*
X161451459Y-47089843D01*
X166510289Y-47091483D01*
X168993688Y-47098277D01*
X170730581Y-47119160D01*
X171897204Y-47157744D01*
X172321738Y-47184801D01*
X172669793Y-47217637D01*
X173473958Y-47305815D01*
X173739463Y-47332833D01*
X173861764Y-47342986D01*
X173867149Y-47341565D01*
X173872640Y-47337232D01*
X173878234Y-47330018D01*
X173883925Y-47319955D01*
X173895578Y-47291412D01*
X173907563Y-47251860D01*
X173919839Y-47201557D01*
X173932368Y-47140760D01*
X173945111Y-47069726D01*
X173958029Y-46988713D01*
X173971083Y-46897979D01*
X173984234Y-46797780D01*
X173997443Y-46688375D01*
X174010671Y-46570020D01*
X174037029Y-46307493D01*
X174062997Y-46012258D01*
X174099915Y-45621244D01*
X174144435Y-45255841D01*
X174197360Y-44914353D01*
X174259488Y-44595087D01*
X174331619Y-44296348D01*
X174414554Y-44016442D01*
X174509093Y-43753674D01*
X174616036Y-43506351D01*
X174736182Y-43272778D01*
X174870333Y-43051260D01*
X175019287Y-42840104D01*
X175183846Y-42637615D01*
X175364809Y-42442100D01*
X175562976Y-42251862D01*
X175779147Y-42065209D01*
X176014123Y-41880447D01*
X176073040Y-41837148D01*
X176135907Y-41793008D01*
X176271234Y-41703472D01*
X176415589Y-41614367D01*
X176564458Y-41528222D01*
X176713327Y-41447567D01*
X176857682Y-41374930D01*
X176993009Y-41312841D01*
X177055876Y-41286542D01*
X177114793Y-41263828D01*
X177211187Y-41228849D01*
X177299988Y-41198237D01*
X177385211Y-41171762D01*
X177470868Y-41149200D01*
X177515113Y-41139314D01*
X177560972Y-41130322D01*
X177608946Y-41122193D01*
X177659538Y-41114900D01*
X177770577Y-41102709D01*
X177898104Y-41093519D01*
X178046132Y-41087106D01*
X178218673Y-41083240D01*
X178419742Y-41081695D01*
X178653352Y-41082243D01*
X178923516Y-41084657D01*
X179234246Y-41088711D01*
X179993463Y-41100826D01*
X182321794Y-41139671D01*
X182999124Y-41514678D01*
X183142955Y-41595677D01*
X183292161Y-41682199D01*
X183442401Y-41771565D01*
X183589335Y-41861099D01*
X183728623Y-41948124D01*
X183855925Y-42029963D01*
X183966902Y-42103940D01*
X184057214Y-42167375D01*
X184140370Y-42233298D01*
X184226905Y-42311910D01*
X184316176Y-42402257D01*
X184407542Y-42503388D01*
X184500361Y-42614349D01*
X184593990Y-42734187D01*
X184687789Y-42861950D01*
X184781115Y-42996684D01*
X184873326Y-43137436D01*
X184963781Y-43283253D01*
X185051837Y-43433183D01*
X185136854Y-43586272D01*
X185218188Y-43741568D01*
X185295198Y-43898117D01*
X185367242Y-44054967D01*
X185433679Y-44211165D01*
X185472561Y-44307559D01*
X185506761Y-44396740D01*
X185536656Y-44482942D01*
X185562623Y-44570400D01*
X185574251Y-44615922D01*
X185585039Y-44663347D01*
X185595034Y-44713203D01*
X185604282Y-44766019D01*
X185612831Y-44822325D01*
X185620728Y-44882649D01*
X185634755Y-45017473D01*
X185646740Y-45174725D01*
X185657061Y-45358639D01*
X185666093Y-45573450D01*
X185674215Y-45823393D01*
X185681804Y-46112701D01*
X185689236Y-46445609D01*
X185705140Y-47259165D01*
X185753374Y-49560001D01*
X185803262Y-51584437D01*
X185854318Y-53412044D01*
X186722192Y-53415142D01*
X186955601Y-53418130D01*
X187163763Y-53425742D01*
X187351391Y-53438601D01*
X187523199Y-53457330D01*
X187604644Y-53469091D01*
X187683901Y-53482553D01*
X187761560Y-53497794D01*
X187838211Y-53514892D01*
X187990842Y-53554971D01*
X188146508Y-53603413D01*
X188234865Y-53633285D01*
X188314508Y-53661413D01*
X188386250Y-53688390D01*
X188450904Y-53714806D01*
X188509281Y-53741255D01*
X188562193Y-53768330D01*
X188610452Y-53796622D01*
X188654870Y-53826724D01*
X188696260Y-53859229D01*
X188735433Y-53894728D01*
X188773201Y-53933815D01*
X188810377Y-53977083D01*
X188847771Y-54025122D01*
X188886198Y-54078526D01*
X188926467Y-54137888D01*
X188969392Y-54203799D01*
X189035425Y-54311155D01*
X189096247Y-54419532D01*
X189151990Y-54529498D01*
X189202786Y-54641616D01*
X189248768Y-54756453D01*
X189290070Y-54874574D01*
X189326822Y-54996545D01*
X189359158Y-55122932D01*
X189387210Y-55254299D01*
X189411111Y-55391212D01*
X189430993Y-55534237D01*
X189446989Y-55683940D01*
X189459232Y-55840885D01*
X189467853Y-56005639D01*
X189472986Y-56178767D01*
X189474763Y-56360834D01*
X189473901Y-56626560D01*
X189469179Y-56836720D01*
X189464648Y-56924569D01*
X189458284Y-57002853D01*
X189449799Y-57073016D01*
X189438904Y-57136500D01*
X189425309Y-57194746D01*
X189408726Y-57249197D01*
X189388865Y-57301296D01*
X189365437Y-57352485D01*
X189338154Y-57404206D01*
X189306726Y-57457902D01*
X189230279Y-57576987D01*
X189178160Y-57657587D01*
X189123979Y-57745108D01*
X189069318Y-57836752D01*
X189015762Y-57929724D01*
X188964892Y-58021224D01*
X188918293Y-58108458D01*
X188877548Y-58188627D01*
X188844240Y-58258935D01*
X188827652Y-58292978D01*
X188808544Y-58327199D01*
X188786979Y-58361556D01*
X188763021Y-58396005D01*
X188736734Y-58430505D01*
X188708184Y-58465013D01*
X188677434Y-58499487D01*
X188644548Y-58533883D01*
X188572627Y-58602274D01*
X188492936Y-58669847D01*
X188405989Y-58736262D01*
X188312300Y-58801178D01*
X188212384Y-58864256D01*
X188106755Y-58925155D01*
X187995927Y-58983536D01*
X187880416Y-59039058D01*
X187760734Y-59091381D01*
X187637397Y-59140165D01*
X187510919Y-59185070D01*
X187381814Y-59225757D01*
X187302583Y-59247988D01*
X187226087Y-59266863D01*
X187151384Y-59282334D01*
X187077532Y-59294354D01*
X187003591Y-59302876D01*
X186928618Y-59307852D01*
X186851671Y-59309236D01*
X186771810Y-59306980D01*
X186688092Y-59301037D01*
X186599575Y-59291360D01*
X186505319Y-59277902D01*
X186404381Y-59260615D01*
X186295820Y-59239452D01*
X186178693Y-59214367D01*
X186052060Y-59185311D01*
X185914979Y-59152238D01*
X185879157Y-59143931D01*
X185845385Y-59137292D01*
X185813617Y-59132528D01*
X185783804Y-59129846D01*
X185755900Y-59129453D01*
X185729855Y-59131556D01*
X185705623Y-59136364D01*
X185683156Y-59144082D01*
X185672569Y-59149097D01*
X185662406Y-59154918D01*
X185652660Y-59161571D01*
X185643326Y-59169080D01*
X185634397Y-59177472D01*
X185625867Y-59186774D01*
X185617732Y-59197011D01*
X185609984Y-59208208D01*
X185595626Y-59233589D01*
X185582748Y-59263124D01*
X185571302Y-59297020D01*
X185561238Y-59335485D01*
X185552512Y-59378726D01*
X185545073Y-59426950D01*
X185538875Y-59480364D01*
X185533871Y-59539175D01*
X185530012Y-59603591D01*
X185527251Y-59673818D01*
X185525540Y-59750065D01*
X185524832Y-59832538D01*
X185525078Y-59921444D01*
X185526232Y-60016991D01*
X185531071Y-60228835D01*
X185538967Y-60469728D01*
X185549539Y-60741328D01*
X185606698Y-62135839D01*
X186623269Y-62190497D01*
X186921802Y-62207735D01*
X187159335Y-62224842D01*
X187343990Y-62243420D01*
X187419028Y-62253762D01*
X187483893Y-62265073D01*
X187539600Y-62277554D01*
X187587166Y-62291404D01*
X187627605Y-62306825D01*
X187661933Y-62324016D01*
X187691166Y-62343178D01*
X187716319Y-62364512D01*
X187738408Y-62388217D01*
X187758447Y-62414494D01*
X187778493Y-62439823D01*
X187801723Y-62463265D01*
X187827985Y-62484829D01*
X187857123Y-62504525D01*
X187888986Y-62522360D01*
X187923419Y-62538343D01*
X187960269Y-62552483D01*
X187999383Y-62564789D01*
X188040607Y-62575269D01*
X188083789Y-62583932D01*
X188128773Y-62590786D01*
X188175408Y-62595841D01*
X188273013Y-62600585D01*
X188375377Y-62598233D01*
X188481272Y-62588855D01*
X188589472Y-62572520D01*
X188698748Y-62549296D01*
X188807873Y-62519253D01*
X188915620Y-62482460D01*
X189020761Y-62438986D01*
X189071971Y-62414765D01*
X189122069Y-62388901D01*
X189170902Y-62361400D01*
X189218316Y-62332273D01*
X189381933Y-62231680D01*
X189541865Y-62142272D01*
X189698173Y-62064041D01*
X189850919Y-61996980D01*
X190000162Y-61941080D01*
X190145964Y-61896335D01*
X190288385Y-61862737D01*
X190427486Y-61840278D01*
X190563327Y-61828952D01*
X190695969Y-61828750D01*
X190825473Y-61839666D01*
X190951899Y-61861691D01*
X191075308Y-61894818D01*
X191195761Y-61939041D01*
X191313318Y-61994351D01*
X191428041Y-62060740D01*
X191520426Y-62123458D01*
X191616341Y-62196374D01*
X191715218Y-62278821D01*
X191816484Y-62370133D01*
X191919572Y-62469641D01*
X192023909Y-62576678D01*
X192128928Y-62690576D01*
X192234057Y-62810667D01*
X192338726Y-62936285D01*
X192442366Y-63066761D01*
X192544407Y-63201427D01*
X192644278Y-63339617D01*
X192741409Y-63480663D01*
X192835231Y-63623897D01*
X192925174Y-63768651D01*
X193010667Y-63914258D01*
X193244355Y-64376223D01*
X193456120Y-64899090D01*
X193645406Y-65475476D01*
X193811654Y-66097999D01*
X193954310Y-66759275D01*
X194072816Y-67451921D01*
X194166615Y-68168555D01*
X194235152Y-68901793D01*
X194277868Y-69644253D01*
X194294209Y-70388551D01*
X194283617Y-71127304D01*
X194245536Y-71853130D01*
X194179408Y-72558646D01*
X194084678Y-73236468D01*
X193960789Y-73879213D01*
X193807183Y-74479499D01*
X193621085Y-75092152D01*
X193445769Y-75615893D01*
X193360524Y-75847736D01*
X193276018Y-76061328D01*
X193191597Y-76257996D01*
X193106611Y-76439065D01*
X193020405Y-76605862D01*
X192932328Y-76759711D01*
X192841728Y-76901939D01*
X192747951Y-77033872D01*
X192650346Y-77156836D01*
X192548260Y-77272155D01*
X192441040Y-77381157D01*
X192328035Y-77485167D01*
X192272739Y-77533181D01*
X192222051Y-77575737D01*
X192175040Y-77613154D01*
X192130773Y-77645750D01*
X192088317Y-77673843D01*
X192067477Y-77686300D01*
X192046740Y-77697751D01*
X192025990Y-77708236D01*
X192005110Y-77717795D01*
X191983983Y-77726466D01*
X191962493Y-77734291D01*
X191940524Y-77741308D01*
X191917958Y-77747558D01*
X191894680Y-77753080D01*
X191870572Y-77757915D01*
X191819403Y-77765679D01*
X191763518Y-77771171D01*
X191701984Y-77774707D01*
X191633869Y-77776607D01*
X191558242Y-77777189D01*
X191474168Y-77776771D01*
X191408844Y-77775521D01*
X191345422Y-77772984D01*
X191283833Y-77769143D01*
X191224010Y-77763985D01*
X191165884Y-77757496D01*
X191109388Y-77749659D01*
X191054453Y-77740462D01*
X191001013Y-77729889D01*
X190948999Y-77717926D01*
X190898342Y-77704559D01*
X190848976Y-77689772D01*
X190800832Y-77673551D01*
X190753842Y-77655882D01*
X190707938Y-77636750D01*
X190663053Y-77616141D01*
X190619119Y-77594039D01*
X190300652Y-77428317D01*
X190033211Y-77293349D01*
X189808550Y-77185707D01*
X189618419Y-77101968D01*
X189454570Y-77038706D01*
X189379924Y-77013682D01*
X189308755Y-76992494D01*
X189240032Y-76974712D01*
X189172725Y-76959908D01*
X189038232Y-76937522D01*
X188642694Y-76884109D01*
X188587480Y-77332805D01*
X188574614Y-77485840D01*
X188567679Y-77680553D01*
X188569742Y-78167635D01*
X188589951Y-78739301D01*
X188624590Y-79340802D01*
X188669941Y-79917391D01*
X188722287Y-80414317D01*
X188777910Y-80776833D01*
X188805789Y-80890579D01*
X188833093Y-80950190D01*
X188860757Y-80985181D01*
X188887721Y-81027110D01*
X188914030Y-81076149D01*
X188939728Y-81132467D01*
X188964858Y-81196236D01*
X188989465Y-81267625D01*
X189013592Y-81346806D01*
X189037283Y-81433948D01*
X189060583Y-81529223D01*
X189083534Y-81632800D01*
X189106181Y-81744851D01*
X189128568Y-81865545D01*
X189150739Y-81995053D01*
X189172738Y-82133546D01*
X189194608Y-82281193D01*
X189216394Y-82438167D01*
X189264689Y-82726057D01*
X189332403Y-83008548D01*
X189421413Y-83288036D01*
X189533597Y-83566915D01*
X189670832Y-83847581D01*
X189834996Y-84132428D01*
X190027967Y-84423853D01*
X190251622Y-84724251D01*
X190507838Y-85036016D01*
X190798493Y-85361544D01*
X191125465Y-85703230D01*
X191490631Y-86063469D01*
X191895869Y-86444657D01*
X192343057Y-86849189D01*
X192834071Y-87279460D01*
X193370790Y-87737864D01*
X193868618Y-88170439D01*
X194372193Y-88630384D01*
X194868889Y-89104818D01*
X195346078Y-89580861D01*
X195791134Y-90045632D01*
X196191429Y-90486249D01*
X196534336Y-90889832D01*
X196680324Y-91073710D01*
X196807229Y-91243499D01*
X196902794Y-91382786D01*
X197000201Y-91537488D01*
X197098855Y-91706218D01*
X197198162Y-91887590D01*
X197297527Y-92080218D01*
X197396354Y-92282715D01*
X197494049Y-92493695D01*
X197590018Y-92711771D01*
X197683664Y-92935558D01*
X197774393Y-93163669D01*
X197861610Y-93394717D01*
X197944721Y-93627316D01*
X198023130Y-93860080D01*
X198096243Y-94091622D01*
X198163464Y-94320557D01*
X198224199Y-94545497D01*
X198286133Y-94796770D01*
X198335923Y-95027426D01*
X198356704Y-95139075D01*
X198374976Y-95250432D01*
X198390915Y-95363117D01*
X198404698Y-95478752D01*
X198416499Y-95598957D01*
X198426496Y-95725352D01*
X198441776Y-96003200D01*
X198451947Y-96325259D01*
X198458413Y-96704497D01*
X198461681Y-97099001D01*
X198459779Y-97427199D01*
X198451167Y-97705952D01*
X198434304Y-97952122D01*
X198407652Y-98182567D01*
X198369669Y-98414149D01*
X198318814Y-98663728D01*
X198253549Y-98948165D01*
X198203033Y-99153334D01*
X198144096Y-99379696D01*
X198009494Y-99866183D01*
X197866815Y-100347996D01*
X197797782Y-100568514D01*
X197733133Y-100765502D01*
X197526532Y-101309438D01*
X197279222Y-101841614D01*
X196993199Y-102360250D01*
X196670463Y-102863567D01*
X196313012Y-103349786D01*
X195922845Y-103817129D01*
X195501960Y-104263815D01*
X195052356Y-104688065D01*
X194576031Y-105088102D01*
X194074984Y-105462145D01*
X193551213Y-105808415D01*
X193006718Y-106125133D01*
X192443495Y-106410520D01*
X191863545Y-106662797D01*
X191268865Y-106880185D01*
X190661454Y-107060904D01*
X190413148Y-107123575D01*
X190145349Y-107186063D01*
X189866503Y-107246714D01*
X189585057Y-107303871D01*
X189309457Y-107355881D01*
X189048146Y-107401087D01*
X188809573Y-107437835D01*
X188602182Y-107464469D01*
X188214740Y-107510107D01*
X188058095Y-107533593D01*
X187923911Y-107560351D01*
X187864714Y-107575619D01*
X187810498Y-107592500D01*
X187761052Y-107611259D01*
X187716163Y-107632160D01*
X187675621Y-107655468D01*
X187639215Y-107681449D01*
X187606732Y-107710367D01*
X187577961Y-107742488D01*
X187552691Y-107778076D01*
X187530711Y-107817396D01*
X187511808Y-107860713D01*
X187495772Y-107908293D01*
X187482391Y-107960399D01*
X187471453Y-108017298D01*
X187462747Y-108079254D01*
X187456062Y-108146531D01*
X187447907Y-108298112D01*
X187445297Y-108474159D01*
X187449945Y-108908134D01*
X187465211Y-109866447D01*
X186948350Y-110468238D01*
X186877312Y-110550081D01*
X186810140Y-110625615D01*
X186746503Y-110695109D01*
X186686073Y-110758835D01*
X186628520Y-110817062D01*
X186573516Y-110870061D01*
X186520730Y-110918102D01*
X186469833Y-110961456D01*
X186420495Y-111000393D01*
X186372389Y-111035184D01*
X186325183Y-111066098D01*
X186278549Y-111093406D01*
X186232157Y-111117379D01*
X186185678Y-111138287D01*
X186138783Y-111156400D01*
X186091142Y-111171988D01*
X186043350Y-111186809D01*
X185999912Y-111201392D01*
X185960654Y-111215888D01*
X185925400Y-111230448D01*
X185893974Y-111245224D01*
X185866201Y-111260367D01*
X185841906Y-111276028D01*
X185820913Y-111292357D01*
X185811600Y-111300821D01*
X185803046Y-111309508D01*
X185795231Y-111318438D01*
X185788131Y-111327629D01*
X185781725Y-111337102D01*
X185775992Y-111346874D01*
X185770908Y-111356965D01*
X185766453Y-111367393D01*
X185759339Y-111389337D01*
X185754475Y-111412857D01*
X185751686Y-111438105D01*
X185750795Y-111465232D01*
X185751184Y-111480310D01*
X185752412Y-111494955D01*
X185754568Y-111509222D01*
X185757744Y-111523169D01*
X185762028Y-111536850D01*
X185767511Y-111550323D01*
X185774282Y-111563644D01*
X185782433Y-111576868D01*
X185792052Y-111590053D01*
X185803230Y-111603253D01*
X185816057Y-111616527D01*
X185830623Y-111629928D01*
X185847018Y-111643515D01*
X185865332Y-111657343D01*
X185885655Y-111671469D01*
X185908078Y-111685947D01*
X185932689Y-111700836D01*
X185959579Y-111716191D01*
X185988839Y-111732067D01*
X186020557Y-111748523D01*
X186054825Y-111765613D01*
X186091733Y-111783393D01*
X186173825Y-111821252D01*
X186267555Y-111862549D01*
X186373643Y-111907734D01*
X186492808Y-111957256D01*
X186625772Y-112011565D01*
X187010948Y-112173579D01*
X187380284Y-112340861D01*
X187734944Y-112514294D01*
X188076094Y-112694757D01*
X188404900Y-112883135D01*
X188722525Y-113080306D01*
X189030137Y-113287155D01*
X189328900Y-113504561D01*
X189619978Y-113733408D01*
X189904539Y-113974576D01*
X190183746Y-114228946D01*
X190458765Y-114497402D01*
X190730762Y-114780824D01*
X191000901Y-115080094D01*
X191270349Y-115396094D01*
X191540269Y-115729705D01*
X191773234Y-116039065D01*
X191994929Y-116362144D01*
X192204836Y-116697499D01*
X192402436Y-117043690D01*
X192587211Y-117399276D01*
X192758640Y-117762816D01*
X192916206Y-118132868D01*
X193059388Y-118507992D01*
X193187670Y-118886746D01*
X193300530Y-119267689D01*
X193397451Y-119649381D01*
X193477914Y-120030379D01*
X193541400Y-120409244D01*
X193587389Y-120784533D01*
X193615363Y-121154806D01*
X193624803Y-121518622D01*
X193617985Y-121908471D01*
X193597582Y-122296572D01*
X193563672Y-122682655D01*
X193516333Y-123066453D01*
X193455641Y-123447698D01*
X193381674Y-123826121D01*
X193294510Y-124201454D01*
X193194226Y-124573429D01*
X193080898Y-124941778D01*
X192954606Y-125306232D01*
X192815425Y-125666524D01*
X192663434Y-126022385D01*
X192498709Y-126373547D01*
X192321329Y-126719741D01*
X192131370Y-127060700D01*
X191928911Y-127396155D01*
X191760692Y-127658399D01*
X191680678Y-127778079D01*
X191602254Y-127891495D01*
X191524565Y-127999669D01*
X191446755Y-128103624D01*
X191367969Y-128204384D01*
X191287352Y-128302970D01*
X191204048Y-128400406D01*
X191117203Y-128497714D01*
X191025961Y-128595917D01*
X190929467Y-128696038D01*
X190717301Y-128906123D01*
X190473863Y-129136153D01*
X190216319Y-129371423D01*
X190097796Y-129476072D01*
X189984016Y-129573537D01*
X189873410Y-129664923D01*
X189764410Y-129751335D01*
X189655449Y-129833877D01*
X189544958Y-129913654D01*
X189431370Y-129991772D01*
X189313116Y-130069335D01*
X189188628Y-130147449D01*
X189056338Y-130227217D01*
X188762082Y-130396138D01*
X188417802Y-130584937D01*
X188164579Y-130719376D01*
X187899127Y-130856116D01*
X187629344Y-130991354D01*
X187363129Y-131121288D01*
X187108382Y-131242116D01*
X186873003Y-131350035D01*
X186664891Y-131441243D01*
X186491945Y-131511939D01*
X185751420Y-131798819D01*
X185749574Y-132306823D01*
X185763213Y-132930287D01*
X185801779Y-134252303D01*
X185930047Y-138216361D01*
X186112512Y-143617896D01*
X185861467Y-143973693D01*
X185828430Y-144023212D01*
X185795440Y-144078145D01*
X185762406Y-144138746D01*
X185729235Y-144205265D01*
X185695837Y-144277956D01*
X185662118Y-144357072D01*
X185627989Y-144442865D01*
X185593356Y-144535587D01*
X185558129Y-144635492D01*
X185522216Y-144742832D01*
X185485525Y-144857859D01*
X185447964Y-144980827D01*
X185369868Y-145251593D01*
X185287195Y-145557151D01*
X185193896Y-145900412D01*
X185102885Y-146209719D01*
X185010258Y-146495345D01*
X184912111Y-146767564D01*
X184804539Y-147036647D01*
X184683640Y-147312869D01*
X184545508Y-147606501D01*
X184386239Y-147927817D01*
X184194066Y-148304510D01*
X184109527Y-148464482D01*
X184028751Y-148610753D01*
X183948785Y-148747239D01*
X183866678Y-148877851D01*
X183779477Y-149006503D01*
X183684230Y-149137108D01*
X183577985Y-149273579D01*
X183457790Y-149419828D01*
X183320693Y-149579770D01*
X183163742Y-149757317D01*
X182778468Y-150180878D01*
X182278352Y-150721816D01*
X181676717Y-151364343D01*
X181415546Y-151634396D01*
X181172434Y-151876255D01*
X180941102Y-152094383D01*
X180715272Y-152293241D01*
X180488666Y-152477288D01*
X180255004Y-152650987D01*
X180008008Y-152818797D01*
X179741400Y-152985182D01*
X179448900Y-153154600D01*
X179124231Y-153331513D01*
X178761113Y-153520383D01*
X178353268Y-153725669D01*
X177378282Y-154203338D01*
X176512321Y-154606838D01*
X175640806Y-154979102D01*
X174767682Y-155318818D01*
X173896896Y-155624676D01*
X173032391Y-155895365D01*
X172178114Y-156129575D01*
X171338009Y-156325994D01*
X170516023Y-156483313D01*
X169039430Y-156733153D01*
X165605356Y-156719260D01*
X161501259Y-156690214D01*
X156456277Y-156639876D01*
X156456167Y-156639869D01*
X147988795Y-156533053D01*
X142566918Y-156426553D01*
X138764788Y-156281489D01*
X135156657Y-156058982D01*
X131405388Y-155777087D01*
X127798042Y-155459931D01*
X124484798Y-155121739D01*
X121615834Y-154776732D01*
X121030072Y-154697514D01*
X120545628Y-154627048D01*
X120138071Y-154560200D01*
X119782970Y-154491835D01*
X119455894Y-154416817D01*
X119132412Y-154330013D01*
X118788091Y-154226286D01*
X118398501Y-154100501D01*
X117128500Y-153681998D01*
X115763351Y-152542678D01*
X115321724Y-152172657D01*
X114978163Y-151878224D01*
X114836523Y-151752241D01*
X114711438Y-151636622D01*
X114600253Y-151528521D01*
X114500316Y-151425094D01*
X114408971Y-151323496D01*
X114323565Y-151220883D01*
X114241444Y-151114409D01*
X114159954Y-151001232D01*
X114076441Y-150878505D01*
X113988251Y-150743384D01*
X113787223Y-150424582D01*
X113625003Y-150156841D01*
X113467706Y-149881468D01*
X113315675Y-149599359D01*
X113169256Y-149311411D01*
X113028795Y-149018518D01*
X112894637Y-148721576D01*
X112767127Y-148421481D01*
X112646610Y-148119127D01*
X112533433Y-147815412D01*
X112427940Y-147511229D01*
X112330476Y-147207476D01*
X112241388Y-146905047D01*
X112161019Y-146604838D01*
X112089716Y-146307744D01*
X112027824Y-146014661D01*
X111975688Y-145726485D01*
X111915977Y-145351719D01*
X111891848Y-145182344D01*
X111871313Y-145017653D01*
X111854207Y-144852158D01*
X111840364Y-144680368D01*
X111829616Y-144496793D01*
X111821797Y-144295944D01*
X111816741Y-144072331D01*
X111814281Y-143820463D01*
X111816482Y-143210006D01*
X111827070Y-142420652D01*
X111844711Y-141408484D01*
X111888327Y-138581446D01*
X111912009Y-136243041D01*
X111921507Y-134252608D01*
X111250056Y-134101684D01*
X110578608Y-133950767D01*
X109881121Y-133213927D01*
X109740408Y-133067629D01*
X109607970Y-132934467D01*
X109486788Y-132817119D01*
X109379844Y-132718262D01*
X109290121Y-132640572D01*
X109252650Y-132610502D01*
X109220601Y-132586727D01*
X109194348Y-132569583D01*
X109174264Y-132559403D01*
X109166652Y-132557030D01*
X109160722Y-132556524D01*
X109156521Y-132557926D01*
X109154094Y-132561278D01*
X109150100Y-132571596D01*
X109144285Y-132585037D01*
X109127642Y-132620434D01*
X109105066Y-132665748D01*
X109077456Y-132719258D01*
X109045713Y-132779244D01*
X109010737Y-132843983D01*
X108973427Y-132911756D01*
X108934684Y-132980842D01*
X108903496Y-133034938D01*
X108874112Y-133083299D01*
X108845793Y-133126389D01*
X108817797Y-133164674D01*
X108803689Y-133182159D01*
X108789385Y-133198617D01*
X108774792Y-133214106D01*
X108759816Y-133228684D01*
X108744367Y-133242409D01*
X108728351Y-133255340D01*
X108711676Y-133267533D01*
X108694248Y-133279048D01*
X108675977Y-133289942D01*
X108656768Y-133300274D01*
X108636531Y-133310101D01*
X108615171Y-133319482D01*
X108592596Y-133328475D01*
X108568715Y-133337138D01*
X108516661Y-133353705D01*
X108458269Y-133369649D01*
X108392798Y-133385434D01*
X108319508Y-133401525D01*
X108237659Y-133418387D01*
X108081447Y-133448615D01*
X108015098Y-133460063D01*
X107955459Y-133468971D01*
X107901685Y-133475265D01*
X107852928Y-133478873D01*
X107808344Y-133479723D01*
X107767087Y-133477741D01*
X107728310Y-133472856D01*
X107691168Y-133464994D01*
X107654815Y-133454083D01*
X107618404Y-133440050D01*
X107581091Y-133422823D01*
X107542029Y-133402329D01*
X107500372Y-133378495D01*
X107455274Y-133351249D01*
X107393516Y-133311572D01*
X107335295Y-133270737D01*
X107280673Y-133228830D01*
X107229712Y-133185935D01*
X107182474Y-133142137D01*
X107139019Y-133097520D01*
X107099411Y-133052169D01*
X107063709Y-133006168D01*
X107031977Y-132959603D01*
X107004276Y-132912559D01*
X106980667Y-132865119D01*
X106961213Y-132817368D01*
X106945974Y-132769391D01*
X106935013Y-132721274D01*
X106931156Y-132697188D01*
X106928391Y-132673099D01*
X106926727Y-132649017D01*
X106926170Y-132624953D01*
X106927246Y-132598079D01*
X106930419Y-132569729D01*
X106942745Y-132509071D01*
X106962512Y-132443917D01*
X106989087Y-132375206D01*
X107021836Y-132303876D01*
X107060126Y-132230868D01*
X107103321Y-132157118D01*
X107150789Y-132083567D01*
X107201895Y-132011152D01*
X107256005Y-131940813D01*
X107312485Y-131873488D01*
X107370702Y-131810116D01*
X107430021Y-131751636D01*
X107489808Y-131698987D01*
X107549430Y-131653108D01*
X107608253Y-131614936D01*
X107636021Y-131597670D01*
X107664530Y-131577946D01*
X107693567Y-131555993D01*
X107722919Y-131532037D01*
X107752374Y-131506307D01*
X107781719Y-131479029D01*
X107810743Y-131450432D01*
X107839232Y-131420743D01*
X107866975Y-131390189D01*
X107893760Y-131358998D01*
X107919373Y-131327398D01*
X107943603Y-131295616D01*
X107966236Y-131263879D01*
X107987062Y-131232415D01*
X108005867Y-131201453D01*
X108022439Y-131171218D01*
X108048110Y-131121084D01*
X108070235Y-131076140D01*
X108088728Y-131035309D01*
X108096584Y-131016099D01*
X108103499Y-130997512D01*
X108109461Y-130979414D01*
X108114460Y-130961670D01*
X108118485Y-130944146D01*
X108121524Y-130926706D01*
X108123566Y-130909216D01*
X108124601Y-130891540D01*
X108124617Y-130873545D01*
X108123604Y-130855095D01*
X108121551Y-130836055D01*
X108118445Y-130816291D01*
X108114277Y-130795668D01*
X108109035Y-130774051D01*
X108102709Y-130751306D01*
X108095286Y-130727296D01*
X108077110Y-130674948D01*
X108054419Y-130615928D01*
X108027124Y-130549158D01*
X107958370Y-130388053D01*
X107917895Y-130295741D01*
X107880543Y-130214143D01*
X107845868Y-130142945D01*
X107813419Y-130081832D01*
X107782748Y-130030488D01*
X107753408Y-129988601D01*
X107739096Y-129971105D01*
X107724948Y-129955854D01*
X107710908Y-129942811D01*
X107696921Y-129931934D01*
X107682929Y-129923186D01*
X107668878Y-129916526D01*
X107654710Y-129911915D01*
X107640370Y-129909314D01*
X107625802Y-129908684D01*
X107610949Y-129909985D01*
X107595755Y-129913178D01*
X107580166Y-129918223D01*
X107564123Y-129925082D01*
X107547572Y-129933715D01*
X107512719Y-129956144D01*
X107475159Y-129985198D01*
X107434442Y-130020560D01*
X107417572Y-130033730D01*
X107396069Y-130047035D01*
X107370261Y-130060384D01*
X107340479Y-130073688D01*
X107307050Y-130086856D01*
X107270304Y-130099798D01*
X107230570Y-130112423D01*
X107188177Y-130124640D01*
X107143453Y-130136361D01*
X107096729Y-130147493D01*
X107048331Y-130157947D01*
X106998591Y-130167633D01*
X106947836Y-130176460D01*
X106896396Y-130184338D01*
X106844600Y-130191175D01*
X106792776Y-130196883D01*
X106711859Y-130204466D01*
X106638284Y-130210279D01*
X106571027Y-130214096D01*
X106509060Y-130215690D01*
X106451356Y-130214836D01*
X106396889Y-130211306D01*
X106344632Y-130204875D01*
X106293558Y-130195317D01*
X106242641Y-130182405D01*
X106190853Y-130165914D01*
X106137169Y-130145616D01*
X106080561Y-130121286D01*
X106020002Y-130092697D01*
X105954467Y-130059623D01*
X105804357Y-129979117D01*
X105711329Y-129926819D01*
X105628267Y-129877189D01*
X105554700Y-129829395D01*
X105490157Y-129782607D01*
X105461123Y-129759330D01*
X105434168Y-129735992D01*
X105409234Y-129712489D01*
X105386262Y-129688718D01*
X105365192Y-129664574D01*
X105345967Y-129639954D01*
X105328526Y-129614753D01*
X105312812Y-129588867D01*
X105298765Y-129562193D01*
X105286327Y-129534626D01*
X105275438Y-129506063D01*
X105266040Y-129476399D01*
X105258074Y-129445531D01*
X105251481Y-129413355D01*
X105246202Y-129379766D01*
X105242178Y-129344660D01*
X105239351Y-129307934D01*
X105237661Y-129269484D01*
X105237459Y-129186995D01*
X105241100Y-129096360D01*
X105248113Y-128996749D01*
X105253036Y-128939335D01*
X105258353Y-128888636D01*
X105264871Y-128843930D01*
X105268832Y-128823600D01*
X105273395Y-128804497D01*
X105278661Y-128786532D01*
X105284731Y-128769615D01*
X105291706Y-128753656D01*
X105299686Y-128738563D01*
X105308771Y-128724248D01*
X105319064Y-128710621D01*
X105330664Y-128697590D01*
X105343672Y-128685066D01*
X105358189Y-128672959D01*
X105374315Y-128661179D01*
X105392152Y-128649635D01*
X105411800Y-128638237D01*
X105433360Y-128626896D01*
X105456932Y-128615520D01*
X105482618Y-128604021D01*
X105510517Y-128592307D01*
X105573361Y-128567877D01*
X105646270Y-128541508D01*
X105825504Y-128480071D01*
X105916742Y-128449939D01*
X106001657Y-128423522D01*
X106081000Y-128400780D01*
X106155524Y-128381675D01*
X106225979Y-128366168D01*
X106293116Y-128354219D01*
X106357688Y-128345790D01*
X106420445Y-128340841D01*
X106482139Y-128339334D01*
X106543521Y-128341230D01*
X106605342Y-128346490D01*
X106668354Y-128355075D01*
X106733308Y-128366945D01*
X106800956Y-128382062D01*
X106872048Y-128400388D01*
X106947337Y-128421882D01*
X106959303Y-128425225D01*
X106970617Y-128427906D01*
X106981299Y-128429859D01*
X106991364Y-128431019D01*
X107000832Y-128431320D01*
X107009720Y-128430696D01*
X107018045Y-128429082D01*
X107022003Y-128427882D01*
X107025826Y-128426411D01*
X107029518Y-128424659D01*
X107033080Y-128422618D01*
X107036516Y-128420280D01*
X107039826Y-128417637D01*
X107043013Y-128414680D01*
X107046080Y-128411402D01*
X107049029Y-128407794D01*
X107051862Y-128403848D01*
X107057187Y-128394909D01*
X107062075Y-128384519D01*
X107066544Y-128372612D01*
X107070610Y-128359123D01*
X107074291Y-128343986D01*
X107077607Y-128327135D01*
X107080573Y-128308505D01*
X107083209Y-128288029D01*
X107085531Y-128265642D01*
X107087559Y-128241278D01*
X107089308Y-128214872D01*
X107090798Y-128186357D01*
X107092046Y-128155668D01*
X107093070Y-128122739D01*
X107094517Y-128049900D01*
X107095280Y-127967312D01*
X107095503Y-127874450D01*
X107093181Y-127614438D01*
X107089660Y-127506614D01*
X107084015Y-127412381D01*
X107075835Y-127330842D01*
X107064708Y-127261100D01*
X107050220Y-127202258D01*
X107041588Y-127176645D01*
X107031961Y-127153419D01*
X107021287Y-127132471D01*
X107009516Y-127113686D01*
X106996596Y-127096954D01*
X106982475Y-127082161D01*
X106967101Y-127069197D01*
X106950424Y-127057948D01*
X106932392Y-127048303D01*
X106912952Y-127040149D01*
X106869647Y-127027866D01*
X106820095Y-127020204D01*
X106763885Y-127016265D01*
X106700604Y-127015151D01*
X106634526Y-127013288D01*
X106558578Y-127007948D01*
X106475445Y-126999507D01*
X106387813Y-126988338D01*
X106298367Y-126974815D01*
X106209791Y-126959314D01*
X106124770Y-126942208D01*
X106045989Y-126923873D01*
X105990449Y-126909284D01*
X105939886Y-126894557D01*
X105893847Y-126879304D01*
X105851878Y-126863134D01*
X105813525Y-126845659D01*
X105778334Y-126826489D01*
X105761782Y-126816147D01*
X105745851Y-126805235D01*
X105730483Y-126793705D01*
X105715622Y-126781507D01*
X105701212Y-126768595D01*
X105687195Y-126754918D01*
X105673514Y-126740428D01*
X105660114Y-126725076D01*
X105633926Y-126691593D01*
X105608178Y-126654080D01*
X105582414Y-126612148D01*
X105556183Y-126565406D01*
X105529028Y-126513466D01*
X105500498Y-126455939D01*
X105468281Y-126385434D01*
X105439383Y-126313464D01*
X105413817Y-126240194D01*
X105391599Y-126165789D01*
X105372744Y-126090414D01*
X105357266Y-126014235D01*
X105345181Y-125937417D01*
X105336503Y-125860124D01*
X105331247Y-125782521D01*
X105329428Y-125704775D01*
X105331061Y-125627050D01*
X105336160Y-125549511D01*
X105344741Y-125472324D01*
X105356819Y-125395653D01*
X105372407Y-125319664D01*
X105391521Y-125244521D01*
X105395766Y-125230431D01*
X105400534Y-125216687D01*
X105405846Y-125203272D01*
X105411724Y-125190171D01*
X105418190Y-125177369D01*
X105425265Y-125164851D01*
X105432972Y-125152601D01*
X105441331Y-125140605D01*
X105450364Y-125128846D01*
X105460092Y-125117310D01*
X105470538Y-125105982D01*
X105481723Y-125094845D01*
X105493669Y-125083885D01*
X105506397Y-125073087D01*
X105519928Y-125062435D01*
X105534285Y-125051913D01*
X105549489Y-125041508D01*
X105565562Y-125031202D01*
X105582524Y-125020982D01*
X105600399Y-125010831D01*
X105638969Y-124990678D01*
X105681446Y-124970620D01*
X105728003Y-124950536D01*
X105778811Y-124930303D01*
X105834044Y-124909798D01*
X105893875Y-124888900D01*
X106038427Y-124840682D01*
X106099099Y-124821804D01*
X106153519Y-124806438D01*
X106202802Y-124794602D01*
X106248060Y-124786314D01*
X106290408Y-124781594D01*
X106330959Y-124780459D01*
X106370827Y-124782929D01*
X106411125Y-124789021D01*
X106452967Y-124798755D01*
X106497467Y-124812148D01*
X106545739Y-124829219D01*
X106598895Y-124849987D01*
X106724317Y-124902686D01*
X106803733Y-124935857D01*
X106881750Y-124966801D01*
X106956379Y-124994843D01*
X107025633Y-125019305D01*
X107087522Y-125039510D01*
X107140058Y-125054780D01*
X107181253Y-125064439D01*
X107196977Y-125066952D01*
X107209119Y-125067809D01*
X107214576Y-125067228D01*
X107220662Y-125065503D01*
X107227353Y-125062663D01*
X107234627Y-125058736D01*
X107242458Y-125053752D01*
X107250825Y-125047737D01*
X107269066Y-125032734D01*
X107289162Y-125013954D01*
X107310923Y-124991625D01*
X107334160Y-124965975D01*
X107358683Y-124937233D01*
X107384302Y-124905626D01*
X107410829Y-124871382D01*
X107438075Y-124834728D01*
X107465849Y-124795894D01*
X107493962Y-124755107D01*
X107522226Y-124712594D01*
X107550450Y-124668584D01*
X107578446Y-124623305D01*
X107848197Y-124178809D01*
X107443332Y-124064429D01*
X107375519Y-124044966D01*
X107315444Y-124026785D01*
X107262485Y-124009260D01*
X107216020Y-123991767D01*
X107175427Y-123973678D01*
X107157139Y-123964215D01*
X107140085Y-123954368D01*
X107124189Y-123944060D01*
X107109373Y-123933212D01*
X107095558Y-123921745D01*
X107082668Y-123909582D01*
X107070624Y-123896645D01*
X107059348Y-123882854D01*
X107048764Y-123868133D01*
X107038793Y-123852402D01*
X107029358Y-123835583D01*
X107020381Y-123817599D01*
X107003489Y-123777820D01*
X106987497Y-123732439D01*
X106971782Y-123680831D01*
X106955723Y-123622368D01*
X106938698Y-123556426D01*
X106921055Y-123480469D01*
X106907064Y-123406084D01*
X106896746Y-123333145D01*
X106890119Y-123261523D01*
X106887202Y-123191092D01*
X106888015Y-123121724D01*
X106892578Y-123053292D01*
X106900909Y-122985668D01*
X106913028Y-122918726D01*
X106928955Y-122852338D01*
X106948708Y-122786377D01*
X106972307Y-122720715D01*
X106999772Y-122655226D01*
X107031121Y-122589781D01*
X107066375Y-122524254D01*
X107105552Y-122458518D01*
X107123213Y-122433821D01*
X107144205Y-122410769D01*
X107168351Y-122389361D01*
X107195477Y-122369594D01*
X107225405Y-122351466D01*
X107257962Y-122334975D01*
X107292970Y-122320119D01*
X107330254Y-122306897D01*
X107369639Y-122295305D01*
X107410948Y-122285342D01*
X107498638Y-122270296D01*
X107591918Y-122261741D01*
X107689381Y-122259661D01*
X107789623Y-122264039D01*
X107891236Y-122274860D01*
X107992816Y-122292107D01*
X108092956Y-122315763D01*
X108190251Y-122345813D01*
X108237392Y-122363230D01*
X108283294Y-122382240D01*
X108327782Y-122402839D01*
X108370680Y-122425027D01*
X108411812Y-122448801D01*
X108451002Y-122474158D01*
X108500920Y-122508120D01*
X108545636Y-122537710D01*
X108585994Y-122563019D01*
X108622832Y-122584138D01*
X108640194Y-122593154D01*
X108656992Y-122601156D01*
X108673330Y-122608156D01*
X108689314Y-122614165D01*
X108705049Y-122619194D01*
X108720639Y-122623255D01*
X108736191Y-122626359D01*
X108751809Y-122628517D01*
X108767597Y-122629741D01*
X108783663Y-122630041D01*
X108800109Y-122629430D01*
X108817042Y-122627918D01*
X108834566Y-122625517D01*
X108852787Y-122622238D01*
X108871810Y-122618092D01*
X108891739Y-122613091D01*
X108934738Y-122600569D01*
X108982626Y-122584762D01*
X109036243Y-122565760D01*
X109096429Y-122543654D01*
X109155537Y-122521383D01*
X109207943Y-122500506D01*
X109254204Y-122480279D01*
X109294880Y-122459956D01*
X109313298Y-122449526D01*
X109330528Y-122438792D01*
X109346640Y-122427663D01*
X109361705Y-122416043D01*
X109375792Y-122403841D01*
X109388970Y-122390962D01*
X109401310Y-122377315D01*
X109412881Y-122362805D01*
X109423753Y-122347340D01*
X109433995Y-122330827D01*
X109443678Y-122313172D01*
X109452871Y-122294282D01*
X109461644Y-122274064D01*
X109470067Y-122252425D01*
X109486139Y-122204512D01*
X109501647Y-122149796D01*
X109517149Y-122087533D01*
X109533202Y-122016978D01*
X109550364Y-121937385D01*
X109577352Y-121823902D01*
X109592367Y-121770788D01*
X109608514Y-121720009D01*
X109625880Y-121671502D01*
X109644554Y-121625205D01*
X109664623Y-121581054D01*
X109686175Y-121538987D01*
X109709299Y-121498941D01*
X109734082Y-121460854D01*
X109760612Y-121424662D01*
X109788977Y-121390304D01*
X109819266Y-121357716D01*
X109851566Y-121326835D01*
X109885965Y-121297600D01*
X109922551Y-121269946D01*
X109961412Y-121243812D01*
X110002636Y-121219135D01*
X110046311Y-121195852D01*
X110092525Y-121173900D01*
X110141367Y-121153217D01*
X110192923Y-121133739D01*
X110247282Y-121115405D01*
X110304532Y-121098151D01*
X110364761Y-121081915D01*
X110428056Y-121066634D01*
X110564200Y-121038687D01*
X110713667Y-121013807D01*
X110877160Y-120991492D01*
X111134455Y-120958193D01*
X111348114Y-120927965D01*
X111495879Y-120904139D01*
X111538096Y-120895667D01*
X111555492Y-120890044D01*
X111557780Y-120883444D01*
X111560561Y-120868011D01*
X111567445Y-120812508D01*
X111575840Y-120727248D01*
X111585441Y-120615946D01*
X111607042Y-120330067D01*
X111629809Y-119984580D01*
X111642748Y-119734556D01*
X111648758Y-119505075D01*
X111647309Y-119287802D01*
X111637873Y-119074401D01*
X111619920Y-118856537D01*
X111592920Y-118625874D01*
X111556343Y-118374077D01*
X111509661Y-118092811D01*
X111471969Y-117887876D01*
X111431815Y-117691175D01*
X111390434Y-117507406D01*
X111349063Y-117341270D01*
X111308936Y-117197466D01*
X111271290Y-117080694D01*
X111253783Y-117033913D01*
X111237360Y-116995653D01*
X111222175Y-116966501D01*
X111208382Y-116947043D01*
X111198382Y-116935315D01*
X111188997Y-116922786D01*
X111180226Y-116909264D01*
X111172064Y-116894556D01*
X111164508Y-116878472D01*
X111157553Y-116860818D01*
X111151197Y-116841403D01*
X111145436Y-116820035D01*
X111140267Y-116796521D01*
X111135685Y-116770669D01*
X111131687Y-116742288D01*
X111128271Y-116711186D01*
X111125431Y-116677170D01*
X111123165Y-116640047D01*
X111120339Y-116555717D01*
X111119765Y-116456659D01*
X111121414Y-116341337D01*
X111125257Y-116208213D01*
X111131266Y-116055751D01*
X111139413Y-115882414D01*
X111149669Y-115686667D01*
X111176395Y-115221793D01*
X111208688Y-114601782D01*
X111226751Y-114085663D01*
X111230049Y-113883393D01*
X111229314Y-113727291D01*
X111224385Y-113624089D01*
X111220299Y-113594430D01*
X111215106Y-113580520D01*
X111211609Y-113577609D01*
X111206897Y-113574635D01*
X111193963Y-113568520D01*
X111176583Y-113562223D01*
X111155034Y-113555793D01*
X111129595Y-113549278D01*
X111100544Y-113542728D01*
X111068160Y-113536189D01*
X111032720Y-113529712D01*
X110953785Y-113517134D01*
X110865965Y-113505381D01*
X110771485Y-113494843D01*
X110672572Y-113485908D01*
X110549535Y-113471442D01*
X110429118Y-113448068D01*
X110311478Y-113416077D01*
X110196775Y-113375764D01*
X110085168Y-113327423D01*
X109976815Y-113271348D01*
X109871875Y-113207834D01*
X109770508Y-113137173D01*
X109672872Y-113059661D01*
X109579126Y-112975591D01*
X109489429Y-112885257D01*
X109403939Y-112788954D01*
X109322816Y-112686975D01*
X109246219Y-112579614D01*
X109174306Y-112467165D01*
X109107236Y-112349923D01*
X109045169Y-112228181D01*
X108988262Y-112102234D01*
X108936676Y-111972375D01*
X108890568Y-111838898D01*
X108850098Y-111702098D01*
X108815424Y-111562268D01*
X108786706Y-111419703D01*
X108764102Y-111274697D01*
X108747771Y-111127542D01*
X108737872Y-110978535D01*
X108734564Y-110827968D01*
X108738006Y-110676136D01*
X108748357Y-110523332D01*
X108765775Y-110369851D01*
X108790419Y-110215987D01*
X108822449Y-110062034D01*
X108839049Y-109987508D01*
X108853404Y-109915630D01*
X108865509Y-109845246D01*
X108875359Y-109775204D01*
X108882949Y-109704352D01*
X108888274Y-109631536D01*
X108891328Y-109555603D01*
X108892108Y-109475402D01*
X108890607Y-109389779D01*
X108886821Y-109297582D01*
X108880746Y-109197657D01*
X108872374Y-109088853D01*
X108848727Y-108839995D01*
X108815838Y-108541785D01*
X108766740Y-108136817D01*
X108721196Y-107799844D01*
X108684284Y-107566019D01*
X108670653Y-107498773D01*
X108665320Y-107479489D01*
X108661083Y-107470496D01*
X108654916Y-107466490D01*
X108646259Y-107464200D01*
X108635222Y-107463571D01*
X108621918Y-107464546D01*
X108588957Y-107471081D01*
X108548270Y-107483354D01*
X108500752Y-107500913D01*
X108447299Y-107523306D01*
X108388805Y-107550081D01*
X108326166Y-107580786D01*
X108260277Y-107614969D01*
X108192034Y-107652178D01*
X108122330Y-107691962D01*
X108052062Y-107733869D01*
X107982124Y-107777446D01*
X107913411Y-107822241D01*
X107846820Y-107867803D01*
X107783244Y-107913680D01*
X107734274Y-107949573D01*
X107689146Y-107981062D01*
X107646395Y-108008353D01*
X107625452Y-108020490D01*
X107604554Y-108031655D01*
X107583518Y-108041875D01*
X107562160Y-108051175D01*
X107540298Y-108059582D01*
X107517747Y-108067122D01*
X107494326Y-108073819D01*
X107469850Y-108079702D01*
X107444137Y-108084794D01*
X107417004Y-108089123D01*
X107388267Y-108092714D01*
X107357743Y-108095593D01*
X107325250Y-108097786D01*
X107290603Y-108099320D01*
X107253620Y-108100219D01*
X107214118Y-108100511D01*
X107126824Y-108099374D01*
X107027254Y-108096116D01*
X106913944Y-108090946D01*
X106640244Y-108075698D01*
X106232627Y-108051518D01*
X106068881Y-108039264D01*
X105928873Y-108024634D01*
X105810374Y-108005930D01*
X105758495Y-107994518D01*
X105711158Y-107981450D01*
X105668085Y-107966513D01*
X105628996Y-107949496D01*
X105593614Y-107930185D01*
X105561661Y-107908368D01*
X105532857Y-107883833D01*
X105506924Y-107856367D01*
X105483584Y-107825757D01*
X105462558Y-107791792D01*
X105443568Y-107754259D01*
X105426335Y-107712945D01*
X105396028Y-107618126D01*
X105369407Y-107505635D01*
X105344246Y-107373772D01*
X105289392Y-107045134D01*
X105261025Y-106859360D01*
X105234560Y-106657131D01*
X105210577Y-106444942D01*
X105189656Y-106229287D01*
X105172376Y-106016660D01*
X105159315Y-105813554D01*
X105151054Y-105626464D01*
X105148172Y-105461883D01*
X105148874Y-105219786D01*
X105150484Y-105120180D01*
X105153587Y-105032670D01*
X105158671Y-104955611D01*
X105166225Y-104887353D01*
X105176739Y-104826250D01*
X105190701Y-104770653D01*
X105208600Y-104718916D01*
X105230926Y-104669389D01*
X105258168Y-104620426D01*
X105290814Y-104570379D01*
X105329355Y-104517600D01*
X105374278Y-104460442D01*
X105485229Y-104326396D01*
X105558002Y-104243695D01*
X105631353Y-104168651D01*
X105705121Y-104101317D01*
X105779148Y-104041744D01*
X105816210Y-104014885D01*
X105853276Y-103989985D01*
X105890328Y-103967052D01*
X105927345Y-103946092D01*
X105964307Y-103927111D01*
X106001195Y-103910117D01*
X106037989Y-103895115D01*
X106074669Y-103882111D01*
X106111215Y-103871114D01*
X106147607Y-103862128D01*
X106183825Y-103855161D01*
X106219850Y-103850219D01*
X106255661Y-103847309D01*
X106291239Y-103846437D01*
X106326564Y-103847609D01*
X106361616Y-103850833D01*
X106396374Y-103856114D01*
X106430820Y-103863459D01*
X106464933Y-103872875D01*
X106498693Y-103884368D01*
X106532081Y-103897945D01*
X106565077Y-103913612D01*
X106597660Y-103931376D01*
X106629812Y-103951243D01*
X106656908Y-103967544D01*
X106686361Y-103982420D01*
X106718344Y-103995894D01*
X106753027Y-104007986D01*
X106790581Y-104018719D01*
X106831178Y-104028114D01*
X106874990Y-104036193D01*
X106922187Y-104042976D01*
X106972940Y-104048486D01*
X107027422Y-104052744D01*
X107085803Y-104055771D01*
X107148255Y-104057589D01*
X107214949Y-104058219D01*
X107286056Y-104057683D01*
X107361748Y-104056003D01*
X107442196Y-104053199D01*
X108060736Y-104028144D01*
X108516093Y-103237502D01*
X108606652Y-103077768D01*
X108689373Y-102926988D01*
X108762572Y-102788587D01*
X108824563Y-102665992D01*
X108873664Y-102562628D01*
X108908189Y-102481923D01*
X108919458Y-102451137D01*
X108926453Y-102427301D01*
X108928961Y-102410843D01*
X108928467Y-102405514D01*
X108926773Y-102402190D01*
X108920772Y-102397335D01*
X108912094Y-102392024D01*
X108900906Y-102386309D01*
X108887374Y-102380243D01*
X108871664Y-102373880D01*
X108853942Y-102367270D01*
X108834375Y-102360468D01*
X108813128Y-102353526D01*
X108790368Y-102346497D01*
X108766261Y-102339433D01*
X108714670Y-102325413D01*
X108659684Y-102311887D01*
X108631334Y-102305441D01*
X108602634Y-102299277D01*
X108323172Y-102241038D01*
X108347706Y-100763923D01*
X108372240Y-99286811D01*
X108601706Y-99118079D01*
X108736583Y-99018377D01*
X108855249Y-98928738D01*
X108958820Y-98847127D01*
X109048410Y-98771514D01*
X109125136Y-98699863D01*
X109159023Y-98664889D01*
X109190111Y-98630144D01*
X109218542Y-98595373D01*
X109244453Y-98560322D01*
X109267985Y-98524737D01*
X109289276Y-98488364D01*
X109308466Y-98450949D01*
X109325695Y-98412238D01*
X109341101Y-98371977D01*
X109354825Y-98329911D01*
X109367006Y-98285787D01*
X109377783Y-98239350D01*
X109387296Y-98190346D01*
X109395684Y-98138521D01*
X109409642Y-98025393D01*
X109420773Y-97897931D01*
X109430192Y-97754103D01*
X109439015Y-97591876D01*
X109482700Y-96746810D01*
X108923414Y-96198237D01*
X108754427Y-96030067D01*
X108683563Y-95956927D01*
X108620884Y-95889660D01*
X108565715Y-95827200D01*
X108517381Y-95768479D01*
X108475207Y-95712430D01*
X108438516Y-95657986D01*
X108406634Y-95604079D01*
X108378885Y-95549643D01*
X108354594Y-95493610D01*
X108333085Y-95434913D01*
X108313683Y-95372485D01*
X108295712Y-95305258D01*
X108278498Y-95232166D01*
X108261364Y-95152141D01*
X108158601Y-94654609D01*
X107775220Y-94706767D01*
X107720203Y-94714944D01*
X107668818Y-94724106D01*
X107620712Y-94734454D01*
X107575528Y-94746186D01*
X107532912Y-94759502D01*
X107492509Y-94774600D01*
X107453964Y-94791680D01*
X107416922Y-94810940D01*
X107381028Y-94832580D01*
X107345926Y-94856799D01*
X107311263Y-94883795D01*
X107276682Y-94913769D01*
X107241829Y-94946919D01*
X107206349Y-94983444D01*
X107169886Y-95023543D01*
X107132086Y-95067416D01*
X107097092Y-95107908D01*
X107062885Y-95145249D01*
X107029391Y-95179413D01*
X106996536Y-95210372D01*
X106964244Y-95238099D01*
X106932442Y-95262566D01*
X106901054Y-95283747D01*
X106870005Y-95301613D01*
X106839221Y-95316138D01*
X106808627Y-95327294D01*
X106778149Y-95335054D01*
X106747711Y-95339390D01*
X106717239Y-95340276D01*
X106686659Y-95337683D01*
X106655894Y-95331585D01*
X106624872Y-95321954D01*
X106593517Y-95308762D01*
X106561754Y-95291983D01*
X106529509Y-95271589D01*
X106496707Y-95247553D01*
X106463273Y-95219848D01*
X106429132Y-95188445D01*
X106394210Y-95153318D01*
X106358432Y-95114440D01*
X106321724Y-95071782D01*
X106284010Y-95025318D01*
X106245216Y-94975021D01*
X106205267Y-94920863D01*
X106121606Y-94800853D01*
X106032428Y-94665072D01*
X105944628Y-94521037D01*
X105861896Y-94371139D01*
X105784466Y-94216259D01*
X105712571Y-94057278D01*
X105646444Y-93895078D01*
X105586320Y-93730541D01*
X105532430Y-93564547D01*
X105485010Y-93397980D01*
X105444292Y-93231719D01*
X105410509Y-93066646D01*
X105383896Y-92903644D01*
X105364685Y-92743593D01*
X105353110Y-92587374D01*
X105349404Y-92435870D01*
X105353802Y-92289962D01*
X105366535Y-92150531D01*
X105376206Y-92077958D01*
X105386543Y-92011107D01*
X105397896Y-91949270D01*
X105410617Y-91891738D01*
X105425056Y-91837803D01*
X105441562Y-91786757D01*
X105460487Y-91737890D01*
X105482180Y-91690495D01*
X105506993Y-91643863D01*
X105535275Y-91597286D01*
X105567378Y-91550055D01*
X105603651Y-91501461D01*
X105644445Y-91450796D01*
X105690110Y-91397352D01*
X105740997Y-91340420D01*
X105797456Y-91279292D01*
X105862122Y-91210436D01*
X105920062Y-91149919D01*
X105972699Y-91097111D01*
X106021459Y-91051380D01*
X106044830Y-91030970D01*
X106067767Y-91012092D01*
X106090446Y-90994667D01*
X106113047Y-90978616D01*
X106135747Y-90963860D01*
X106158725Y-90950320D01*
X106182159Y-90937916D01*
X106206226Y-90926571D01*
X106231105Y-90916205D01*
X106256974Y-90906739D01*
X106284011Y-90898094D01*
X106312395Y-90890190D01*
X106342303Y-90882950D01*
X106373913Y-90876293D01*
X106442954Y-90864416D01*
X106520942Y-90853926D01*
X106609302Y-90844192D01*
X106822840Y-90824462D01*
X106964516Y-90810499D01*
X107116730Y-90792782D01*
X107274719Y-90772034D01*
X107433716Y-90748977D01*
X107588958Y-90724336D01*
X107735680Y-90698833D01*
X107869118Y-90673192D01*
X107984505Y-90648135D01*
X108092600Y-90623762D01*
X108205135Y-90600082D01*
X108318811Y-90577681D01*
X108430329Y-90557144D01*
X108536389Y-90539057D01*
X108633694Y-90524005D01*
X108718944Y-90512575D01*
X108788839Y-90505351D01*
X109085173Y-90481486D01*
X109062843Y-89592486D01*
X109057047Y-89314648D01*
X109056543Y-89093048D01*
X109058889Y-88999437D01*
X109063294Y-88915204D01*
X109070003Y-88838791D01*
X109079261Y-88768637D01*
X109091313Y-88703181D01*
X109106405Y-88640863D01*
X109124781Y-88580124D01*
X109146687Y-88519403D01*
X109172367Y-88457140D01*
X109202068Y-88391775D01*
X109274511Y-88245498D01*
X109313727Y-88169578D01*
X109349932Y-88101916D01*
X109384050Y-88041732D01*
X109417007Y-87988247D01*
X109449729Y-87940683D01*
X109466291Y-87918877D01*
X109483141Y-87898260D01*
X109500395Y-87878734D01*
X109518169Y-87860200D01*
X109536578Y-87842563D01*
X109555738Y-87825724D01*
X109575764Y-87809587D01*
X109596774Y-87794053D01*
X109618881Y-87779026D01*
X109642202Y-87764408D01*
X109692948Y-87736010D01*
X109749937Y-87708081D01*
X109814096Y-87679841D01*
X109886349Y-87650512D01*
X109967622Y-87619315D01*
X110058841Y-87585471D01*
X110119413Y-87562341D01*
X110180490Y-87537286D01*
X110241759Y-87510487D01*
X110302910Y-87482127D01*
X110363628Y-87452389D01*
X110423603Y-87421454D01*
X110482522Y-87389505D01*
X110540072Y-87356724D01*
X110595942Y-87323293D01*
X110649819Y-87289396D01*
X110701390Y-87255213D01*
X110750344Y-87220928D01*
X110796368Y-87186722D01*
X110839150Y-87152778D01*
X110878378Y-87119279D01*
X110913739Y-87086406D01*
X110962270Y-87038241D01*
X111005838Y-86992837D01*
X111044862Y-86949180D01*
X111079760Y-86906258D01*
X111095792Y-86884756D01*
X111110950Y-86863057D01*
X111125284Y-86841035D01*
X111138848Y-86818563D01*
X111151693Y-86795515D01*
X111163873Y-86771764D01*
X111175439Y-86747182D01*
X111186443Y-86721645D01*
X111196937Y-86695024D01*
X111206974Y-86667193D01*
X111216606Y-86638026D01*
X111225886Y-86607396D01*
X111243595Y-86541239D01*
X111260519Y-86467710D01*
X111277076Y-86385794D01*
X111293684Y-86294479D01*
X111310759Y-86192751D01*
X111328721Y-86079596D01*
X111355052Y-85891465D01*
X111375157Y-85704174D01*
X111389100Y-85515157D01*
X111396942Y-85321846D01*
X111398748Y-85121674D01*
X111394580Y-84912072D01*
X111384500Y-84690474D01*
X111368573Y-84454310D01*
X111341238Y-84021548D01*
X111324779Y-83581954D01*
X111318969Y-83145109D01*
X111323583Y-82720595D01*
X111338397Y-82317994D01*
X111363186Y-81946887D01*
X111397723Y-81616856D01*
X111441786Y-81337481D01*
X111454365Y-81258675D01*
X111465683Y-81157640D01*
X111484579Y-80885194D01*
X111498568Y-80512762D01*
X111507743Y-80032962D01*
X111512197Y-79438415D01*
X111512025Y-78721740D01*
X111507320Y-77875556D01*
X111498175Y-76892482D01*
X111455841Y-72955482D01*
X110609175Y-72859164D01*
X109762510Y-72762851D01*
X109541248Y-72995715D01*
X109504949Y-73034949D01*
X109472634Y-73072788D01*
X109457869Y-73091636D01*
X109443980Y-73110677D01*
X109430926Y-73130091D01*
X109418666Y-73150059D01*
X109407161Y-73170760D01*
X109396370Y-73192376D01*
X109386253Y-73215087D01*
X109376769Y-73239073D01*
X109367879Y-73264515D01*
X109359542Y-73291593D01*
X109351718Y-73320487D01*
X109344366Y-73351379D01*
X109337447Y-73384448D01*
X109330920Y-73419875D01*
X109324744Y-73457840D01*
X109318880Y-73498524D01*
X109307926Y-73588769D01*
X109297735Y-73692055D01*
X109287985Y-73809823D01*
X109278353Y-73943519D01*
X109268519Y-74094585D01*
X109258160Y-74264464D01*
X109196332Y-75300349D01*
X108802087Y-75476211D01*
X108738881Y-75503556D01*
X108677909Y-75527881D01*
X108617753Y-75549328D01*
X108556995Y-75568041D01*
X108494217Y-75584163D01*
X108428002Y-75597837D01*
X108356931Y-75609207D01*
X108279587Y-75618415D01*
X108194551Y-75625605D01*
X108100407Y-75630919D01*
X107995735Y-75634502D01*
X107879118Y-75636496D01*
X107749138Y-75637045D01*
X107604378Y-75636291D01*
X107264842Y-75631450D01*
X106121843Y-75610808D01*
X105846676Y-75346030D01*
X105805969Y-75306075D01*
X105769316Y-75268273D01*
X105736519Y-75232171D01*
X105707383Y-75197311D01*
X105681709Y-75163241D01*
X105659301Y-75129505D01*
X105649260Y-75112619D01*
X105639961Y-75095647D01*
X105631381Y-75078530D01*
X105623494Y-75061213D01*
X105616276Y-75043638D01*
X105609701Y-75025748D01*
X105603747Y-75007487D01*
X105598387Y-74988797D01*
X105589354Y-74949905D01*
X105582404Y-74908617D01*
X105577342Y-74864478D01*
X105573970Y-74817033D01*
X105572091Y-74765828D01*
X105571509Y-74710406D01*
X105570177Y-74656115D01*
X105566016Y-74601118D01*
X105558782Y-74544765D01*
X105548228Y-74486407D01*
X105534109Y-74425396D01*
X105516180Y-74361081D01*
X105494195Y-74292816D01*
X105467909Y-74219950D01*
X105437075Y-74141834D01*
X105401449Y-74057819D01*
X105360784Y-73967256D01*
X105314836Y-73869497D01*
X105263359Y-73763892D01*
X105206107Y-73649792D01*
X105073295Y-73393512D01*
X104575074Y-72447497D01*
X104524674Y-70751336D01*
X104511327Y-70036185D01*
X104512245Y-69342850D01*
X104517762Y-69029106D01*
X104526495Y-68750508D01*
X104538326Y-68516951D01*
X104553140Y-68338334D01*
X104590766Y-67969810D01*
X104634911Y-67496312D01*
X104680075Y-66978865D01*
X104720759Y-66478496D01*
X104809510Y-65335498D01*
X105207620Y-64752131D01*
X105309494Y-64606353D01*
X105407782Y-64473168D01*
X105503127Y-64352135D01*
X105596171Y-64242816D01*
X105687557Y-64144769D01*
X105777928Y-64057556D01*
X105867926Y-63980737D01*
X105958192Y-63913871D01*
X106049371Y-63856519D01*
X106095503Y-63831273D01*
X106142104Y-63808241D01*
X106189254Y-63787367D01*
X106237034Y-63768597D01*
X106285523Y-63751875D01*
X106334803Y-63737147D01*
X106436054Y-63713452D01*
X106541429Y-63697072D01*
X106651571Y-63687566D01*
X106767122Y-63684495D01*
X106890784Y-63688120D01*
X107015339Y-63698709D01*
X107139778Y-63715828D01*
X107263092Y-63739047D01*
X107384275Y-63767932D01*
X107502317Y-63802053D01*
X107616210Y-63840977D01*
X107724947Y-63884272D01*
X107827519Y-63931507D01*
X107922917Y-63982250D01*
X108010135Y-64036068D01*
X108088163Y-64092530D01*
X108155994Y-64151203D01*
X108212619Y-64211657D01*
X108257030Y-64273458D01*
X108274341Y-64304729D01*
X108288219Y-64336175D01*
X108298151Y-64364084D01*
X108309048Y-64398537D01*
X108333299Y-64485109D01*
X108360097Y-64591967D01*
X108388568Y-64715185D01*
X108417834Y-64850839D01*
X108447022Y-64995003D01*
X108475254Y-65143753D01*
X108501657Y-65293162D01*
X108531137Y-65449825D01*
X108568187Y-65619361D01*
X108611316Y-65796388D01*
X108659028Y-65975523D01*
X108709829Y-66151384D01*
X108762228Y-66318589D01*
X108814729Y-66471755D01*
X108865839Y-66605498D01*
X108915650Y-66730136D01*
X108964429Y-66857206D01*
X109010943Y-66983156D01*
X109053959Y-67104433D01*
X109092245Y-67217484D01*
X109124567Y-67318756D01*
X109149693Y-67404696D01*
X109166392Y-67471751D01*
X109173765Y-67499643D01*
X109184257Y-67529337D01*
X109197719Y-67560685D01*
X109214003Y-67593536D01*
X109254442Y-67663155D01*
X109304385Y-67737006D01*
X109362645Y-67813897D01*
X109428032Y-67892637D01*
X109499359Y-67972037D01*
X109575437Y-68050905D01*
X109655078Y-68128051D01*
X109737094Y-68202285D01*
X109820296Y-68272415D01*
X109903496Y-68337252D01*
X109985506Y-68395605D01*
X110065137Y-68446282D01*
X110141201Y-68488094D01*
X110177524Y-68505304D01*
X110212510Y-68519851D01*
X110288392Y-68547158D01*
X110360215Y-68569151D01*
X110428115Y-68585793D01*
X110492229Y-68597044D01*
X110552692Y-68602869D01*
X110581598Y-68603734D01*
X110609642Y-68603229D01*
X110636842Y-68601348D01*
X110663214Y-68598086D01*
X110688776Y-68593440D01*
X110713545Y-68587404D01*
X110737538Y-68579973D01*
X110760771Y-68571144D01*
X110783262Y-68560910D01*
X110805028Y-68549268D01*
X110826085Y-68536213D01*
X110846452Y-68521740D01*
X110866144Y-68505844D01*
X110885179Y-68488521D01*
X110903574Y-68469766D01*
X110921346Y-68449575D01*
X110938512Y-68427942D01*
X110955090Y-68404862D01*
X110986545Y-68354346D01*
X111015849Y-68297990D01*
X111032081Y-68265768D01*
X111051383Y-68230627D01*
X111073504Y-68192910D01*
X111098194Y-68152963D01*
X111154281Y-68067758D01*
X111217641Y-67977770D01*
X111286275Y-67885760D01*
X111358180Y-67794487D01*
X111431355Y-67706710D01*
X111467794Y-67664996D01*
X111503799Y-67625190D01*
X111850037Y-67249568D01*
X111716434Y-65713054D01*
X111666151Y-65006157D01*
X111628086Y-64201257D01*
X111602456Y-63328961D01*
X111589482Y-62419879D01*
X111589382Y-61504616D01*
X111602377Y-60613782D01*
X111628685Y-59777985D01*
X111668526Y-59027831D01*
X111702776Y-58595409D01*
X111746913Y-58176756D01*
X111801348Y-57770617D01*
X111866497Y-57375738D01*
X111942771Y-56990864D01*
X112030584Y-56614742D01*
X112130349Y-56246115D01*
X112242479Y-55883731D01*
X112367387Y-55526334D01*
X112505486Y-55172671D01*
X112657190Y-54821485D01*
X112822911Y-54471524D01*
X113003063Y-54121533D01*
X113198059Y-53770256D01*
X113408312Y-53416441D01*
X113634235Y-53058831D01*
X113798855Y-52810923D01*
X113875800Y-52700042D01*
X113950694Y-52596199D01*
X114024682Y-52498137D01*
X114098908Y-52404596D01*
X114174518Y-52314319D01*
X114252655Y-52226047D01*
X114334466Y-52138523D01*
X114421094Y-52050489D01*
X114513684Y-51960685D01*
X114613381Y-51867854D01*
X114721330Y-51770738D01*
X114838675Y-51668079D01*
X115106133Y-51441097D01*
X115646482Y-51001507D01*
X116165949Y-50604667D01*
X116418672Y-50421769D01*
X116667158Y-50248948D01*
X116911736Y-50086000D01*
X117152733Y-49932722D01*
X117390478Y-49788910D01*
X117625297Y-49654361D01*
X117857521Y-49528871D01*
X118087475Y-49412237D01*
X118315489Y-49304254D01*
X118541890Y-49204721D01*
X118767006Y-49113432D01*
X118991165Y-49030185D01*
X119197928Y-48955619D01*
X119395979Y-48881707D01*
X119580615Y-48810377D01*
X119747133Y-48743557D01*
X119890829Y-48683176D01*
X120007000Y-48631162D01*
X120090942Y-48589445D01*
X120119356Y-48573050D01*
X120137950Y-48559953D01*
X120157034Y-48547392D01*
X120186887Y-48532571D01*
X120226873Y-48515678D01*
X120276355Y-48496902D01*
X120401263Y-48454449D01*
X120556519Y-48406719D01*
X120737033Y-48355215D01*
X120937714Y-48301442D01*
X121153469Y-48246904D01*
X121379209Y-48193107D01*
X121697312Y-48121815D01*
X121977900Y-48064458D01*
X122232296Y-48019671D01*
X122471825Y-47986088D01*
X122707810Y-47962345D01*
X122951575Y-47947075D01*
X123214446Y-47938915D01*
X123507745Y-47936498D01*
X123716871Y-47934742D01*
X123920894Y-47929710D01*
X124114711Y-47921754D01*
X124293219Y-47911227D01*
X124451314Y-47898482D01*
X124583892Y-47883872D01*
X124685849Y-47867750D01*
X124723750Y-47859232D01*
X124752082Y-47850468D01*
X124806989Y-47832166D01*
X124869906Y-47815713D01*
X124939734Y-47801154D01*
X125015373Y-47788530D01*
X125095724Y-47777883D01*
X125179688Y-47769255D01*
X125266165Y-47762690D01*
X125354056Y-47758229D01*
X125442262Y-47755914D01*
X125529682Y-47755788D01*
X125615219Y-47757893D01*
X125697772Y-47762272D01*
X125776242Y-47768966D01*
X125849531Y-47778019D01*
X125916537Y-47789471D01*
X125976163Y-47803367D01*
X126005700Y-47810271D01*
X126035489Y-47814885D01*
X126065740Y-47817140D01*
X126096657Y-47816970D01*
X126128449Y-47814306D01*
X126161322Y-47809080D01*
X126195483Y-47801225D01*
X126231140Y-47790674D01*
X126268499Y-47777359D01*
X126307768Y-47761211D01*
X126349153Y-47742163D01*
X126392862Y-47720148D01*
X126439101Y-47695098D01*
X126488078Y-47666946D01*
X126540000Y-47635622D01*
X126595073Y-47601061D01*
X127002315Y-47341119D01*
X126827903Y-47119391D01*
X126789653Y-47069947D01*
X126756480Y-47025120D01*
X126728382Y-46984601D01*
X126705355Y-46948078D01*
X126695742Y-46931219D01*
X126687395Y-46915243D01*
X126680314Y-46900111D01*
X126674499Y-46885784D01*
X126669949Y-46872225D01*
X126666663Y-46859393D01*
X126664642Y-46847250D01*
X126663884Y-46835757D01*
X126664390Y-46824876D01*
X126666158Y-46814568D01*
X126669189Y-46804794D01*
X126673482Y-46795515D01*
X126679037Y-46786693D01*
X126685852Y-46778288D01*
X126693929Y-46770262D01*
X126703265Y-46762577D01*
X126713862Y-46755193D01*
X126725717Y-46748071D01*
X126738832Y-46741173D01*
X126753205Y-46734461D01*
X126785725Y-46721436D01*
X126823274Y-46708686D01*
X126871852Y-46690509D01*
X126923704Y-46666034D01*
X126978153Y-46635865D01*
X127034525Y-46600607D01*
X127092145Y-46560862D01*
X127150339Y-46517235D01*
X127208430Y-46470329D01*
X127265745Y-46420748D01*
X127321608Y-46369095D01*
X127375344Y-46315975D01*
X127426278Y-46261992D01*
X127473735Y-46207748D01*
X127517041Y-46153848D01*
X127555520Y-46100895D01*
X127588498Y-46049493D01*
X127615298Y-46000246D01*
X127629740Y-45967057D01*
X127642626Y-45929377D01*
X127653974Y-45886755D01*
X127663804Y-45838736D01*
X127672135Y-45784869D01*
X127678984Y-45724700D01*
X127684371Y-45657777D01*
X127688315Y-45583648D01*
X127690834Y-45501858D01*
X127691948Y-45411957D01*
X127691674Y-45313490D01*
X127690032Y-45206005D01*
X127687041Y-45089049D01*
X127682719Y-44962170D01*
X127670158Y-44676832D01*
X127655127Y-44349431D01*
X127646362Y-44088384D01*
X127644588Y-43883713D01*
X127646548Y-43799401D01*
X127650527Y-43725441D01*
X127656615Y-43660587D01*
X127664903Y-43603592D01*
X127675481Y-43553208D01*
X127688439Y-43508188D01*
X127703869Y-43467285D01*
X127721860Y-43429252D01*
X127742502Y-43392842D01*
X127765887Y-43356808D01*
X127915826Y-43137450D01*
X129591821Y-43086654D01*
X130283977Y-43070772D01*
X130929607Y-43065078D01*
X131456504Y-43069643D01*
X131652862Y-43075794D01*
X131792459Y-43084538D01*
X131955276Y-43100695D01*
X132022464Y-43108625D01*
X132081022Y-43116873D01*
X132131588Y-43125754D01*
X132174800Y-43135579D01*
X132211296Y-43146662D01*
X132241714Y-43159316D01*
X132254842Y-43166331D01*
X132266691Y-43173855D01*
X132277339Y-43181929D01*
X132286866Y-43190591D01*
X132295352Y-43199881D01*
X132302877Y-43209838D01*
X132309520Y-43220501D01*
X132315361Y-43231909D01*
X132324957Y-43257116D01*
X132332302Y-43285774D01*
X132338034Y-43318194D01*
X132342792Y-43354691D01*
X132347506Y-43392128D01*
X132352885Y-43425097D01*
X132356043Y-43439995D01*
X132359629Y-43453882D01*
X132363731Y-43466795D01*
X132368435Y-43478767D01*
X132373830Y-43489835D01*
X132380002Y-43500034D01*
X132387039Y-43509400D01*
X132395029Y-43517967D01*
X132404057Y-43525772D01*
X132414213Y-43532849D01*
X132425582Y-43539234D01*
X132438253Y-43544962D01*
X132452312Y-43550068D01*
X132467847Y-43554590D01*
X132484946Y-43558560D01*
X132503695Y-43562015D01*
X132524182Y-43564991D01*
X132546493Y-43567522D01*
X132570718Y-43569644D01*
X132596942Y-43571392D01*
X132655738Y-43573910D01*
X132723580Y-43575358D01*
X132801167Y-43576019D01*
X132889198Y-43576176D01*
X133409902Y-43576176D01*
X133363466Y-45074244D01*
X133317029Y-46572312D01*
X133541257Y-46628589D01*
X133577336Y-46638154D01*
X133609362Y-46648010D01*
X133623929Y-46653201D01*
X133637573Y-46658650D01*
X133650323Y-46664417D01*
X133662208Y-46670564D01*
X133673259Y-46677154D01*
X133683504Y-46684246D01*
X133692975Y-46691904D01*
X133701700Y-46700187D01*
X133709709Y-46709159D01*
X133717033Y-46718880D01*
X133723700Y-46729412D01*
X133729742Y-46740815D01*
X133735186Y-46753153D01*
X133740064Y-46766486D01*
X133744404Y-46780876D01*
X133748237Y-46796384D01*
X133751593Y-46813072D01*
X133754500Y-46831002D01*
X133756990Y-46850234D01*
X133759091Y-46870830D01*
X133762247Y-46916362D01*
X133764207Y-46968089D01*
X133765208Y-47026503D01*
X133765489Y-47092096D01*
X133766497Y-47319986D01*
X133770466Y-47411623D01*
X133774106Y-47452332D01*
X133779151Y-47489812D01*
X133785827Y-47524196D01*
X133794359Y-47555618D01*
X133804974Y-47584210D01*
X133817895Y-47610107D01*
X133833350Y-47633441D01*
X133851564Y-47654346D01*
X133872763Y-47672954D01*
X133897172Y-47689400D01*
X133925018Y-47703817D01*
X133956525Y-47716337D01*
X133991919Y-47727095D01*
X134031427Y-47736223D01*
X134075273Y-47743855D01*
X134123684Y-47750124D01*
X134176885Y-47755163D01*
X134235102Y-47759106D01*
X134367486Y-47764236D01*
X134522642Y-47766580D01*
X134908490Y-47767176D01*
X135203542Y-47766018D01*
X135440222Y-47762010D01*
X135625059Y-47754351D01*
X135700077Y-47748901D01*
X135764582Y-47742239D01*
X135819390Y-47734264D01*
X135865318Y-47724874D01*
X135903182Y-47713972D01*
X135933797Y-47701456D01*
X135957981Y-47687226D01*
X135976548Y-47671182D01*
X135990315Y-47653224D01*
X136000098Y-47633252D01*
X136018367Y-47580695D01*
X136032465Y-47528907D01*
X136042343Y-47477709D01*
X136045684Y-47452275D01*
X136047951Y-47426922D01*
X136049139Y-47401627D01*
X136049240Y-47376368D01*
X136048249Y-47351122D01*
X136046160Y-47325868D01*
X136042966Y-47300583D01*
X136038661Y-47275244D01*
X136033239Y-47249830D01*
X136026694Y-47224319D01*
X136010209Y-47172912D01*
X135989156Y-47120847D01*
X135963487Y-47067944D01*
X135933151Y-47014025D01*
X135898098Y-46958912D01*
X135858280Y-46902427D01*
X135813646Y-46844390D01*
X135764148Y-46784625D01*
X135719768Y-46732311D01*
X135680584Y-46684969D01*
X135646438Y-46642154D01*
X135617171Y-46603425D01*
X135592623Y-46568337D01*
X135572635Y-46536449D01*
X135557048Y-46507318D01*
X135550855Y-46493647D01*
X135545703Y-46480500D01*
X135541572Y-46467820D01*
X135538441Y-46455553D01*
X135536291Y-46443643D01*
X135535102Y-46432034D01*
X135534854Y-46420672D01*
X135535527Y-46409500D01*
X135537101Y-46398465D01*
X135539557Y-46387509D01*
X135542874Y-46376578D01*
X135547033Y-46365617D01*
X135557796Y-46343382D01*
X135571686Y-46320360D01*
X135588544Y-46296110D01*
X135605021Y-46272394D01*
X135612348Y-46260809D01*
X135619061Y-46249336D01*
X135625154Y-46237924D01*
X135630622Y-46226521D01*
X135635461Y-46215073D01*
X135639665Y-46203531D01*
X135643230Y-46191842D01*
X135646151Y-46179953D01*
X135648421Y-46167813D01*
X135650038Y-46155370D01*
X135650995Y-46142573D01*
X135651287Y-46129368D01*
X135650910Y-46115704D01*
X135649859Y-46101530D01*
X135648128Y-46086792D01*
X135645712Y-46071440D01*
X135642607Y-46055422D01*
X135638808Y-46038685D01*
X135634309Y-46021177D01*
X135629105Y-46002847D01*
X135616565Y-45963511D01*
X135601146Y-45920263D01*
X135582810Y-45872685D01*
X135561515Y-45820364D01*
X135537223Y-45762883D01*
X135496730Y-45657493D01*
X135461753Y-45544130D01*
X135432285Y-45424281D01*
X135408317Y-45299433D01*
X135389841Y-45171071D01*
X135376850Y-45040683D01*
X135369336Y-44909756D01*
X135367291Y-44779776D01*
X135370706Y-44652230D01*
X135379574Y-44528605D01*
X135393888Y-44410388D01*
X135413639Y-44299066D01*
X135438819Y-44196124D01*
X135469420Y-44103050D01*
X135505435Y-44021331D01*
X135546855Y-43952453D01*
X135565521Y-43923591D01*
X135584778Y-43888757D01*
X135604495Y-43848368D01*
X135624542Y-43802843D01*
X135644787Y-43752600D01*
X135665099Y-43698056D01*
X135685347Y-43639630D01*
X135705400Y-43577739D01*
X135725127Y-43512802D01*
X135744397Y-43445236D01*
X135763078Y-43375460D01*
X135781040Y-43303891D01*
X135798151Y-43230948D01*
X135814281Y-43157048D01*
X135829298Y-43082609D01*
X135843070Y-43008050D01*
X135898107Y-42686879D01*
X135936003Y-42437141D01*
X135948312Y-42336014D01*
X135956081Y-42249090D01*
X135959226Y-42175151D01*
X135957662Y-42112979D01*
X135951304Y-42061354D01*
X135940067Y-42019060D01*
X135923867Y-41984877D01*
X135902619Y-41957587D01*
X135876237Y-41935972D01*
X135844638Y-41918813D01*
X135807736Y-41904893D01*
X135765447Y-41892992D01*
X135732747Y-41884314D01*
X135717854Y-41879902D01*
X135703905Y-41875357D01*
X135690876Y-41870617D01*
X135678745Y-41865619D01*
X135667491Y-41860300D01*
X135657092Y-41854598D01*
X135647526Y-41848449D01*
X135638771Y-41841790D01*
X135630805Y-41834559D01*
X135623606Y-41826694D01*
X135617151Y-41818130D01*
X135611420Y-41808806D01*
X135606390Y-41798659D01*
X135602039Y-41787626D01*
X135598345Y-41775643D01*
X135595287Y-41762649D01*
X135592841Y-41748580D01*
X135590988Y-41733373D01*
X135589703Y-41716966D01*
X135588966Y-41699297D01*
X135588755Y-41680301D01*
X135589047Y-41659917D01*
X135591054Y-41614731D01*
X135594812Y-41563237D01*
X135600145Y-41504932D01*
X135606878Y-41439314D01*
X135615141Y-41369807D01*
X135624920Y-41303682D01*
X135636386Y-41240848D01*
X135649711Y-41181212D01*
X135665066Y-41124681D01*
X135682623Y-41071163D01*
X135702554Y-41020566D01*
X135725030Y-40972797D01*
X135750222Y-40927764D01*
X135778303Y-40885376D01*
X135809445Y-40845538D01*
X135843818Y-40808160D01*
X135881595Y-40773149D01*
X135922947Y-40740412D01*
X135968046Y-40709858D01*
X136017063Y-40681393D01*
X136070171Y-40654926D01*
X136127540Y-40630364D01*
X136189343Y-40607614D01*
X136255750Y-40586586D01*
X136326935Y-40567185D01*
X136403068Y-40549320D01*
X136484321Y-40532899D01*
X136570865Y-40517829D01*
X136662873Y-40504018D01*
X136760516Y-40491373D01*
X136973393Y-40469214D01*
X137210870Y-40450613D01*
X137474321Y-40434831D01*
X137906108Y-40416173D01*
X138089847Y-40412324D01*
X138254171Y-40412628D01*
%TO.C,U1*%
D10*
X123880000Y-89770000D02*
X139120000Y-89770000D01*
X139120000Y-107550000D01*
X123880000Y-107550000D01*
X123880000Y-89770000D01*
%TD*%
M02*
