M48
; DRILL file {KiCad 9.0.0} date 2025-05-06T12:38:51-0700
; FORMAT={-:-/ absolute / metric / decimal}
; #@! TF.CreationDate,2025-05-06T12:38:51-07:00
; #@! TF.GenerationSoftware,Kicad,Pcbnew,9.0.0
; #@! TF.FileFunction,Plated,1,2,PTH
FMAT,2
METRIC
; #@! TA.AperFunction,Plated,PTH,ComponentDrill
T1C0.762
; #@! TA.AperFunction,Plated,PTH,ComponentDrill
T2C1.000
%
G90
G05
T1
X178.5Y-57.88
X178.5Y-65.5
X188.84Y-61.7
X191.38Y-61.7
T2
X123.86Y-56.64
X123.86Y-79.5
X126.4Y-56.64
X126.4Y-79.5
X128.94Y-56.64
X128.94Y-79.5
X131.48Y-56.64
X131.48Y-79.5
X134.02Y-56.64
X134.02Y-79.5
X136.56Y-56.64
X136.56Y-79.5
X139.1Y-56.64
X139.1Y-79.5
X141.64Y-56.64
X141.64Y-79.5
X144.18Y-56.64
X144.18Y-79.5
X146.72Y-56.64
X146.72Y-79.5
X149.26Y-56.64
X149.26Y-79.5
X151.8Y-56.64
X151.8Y-79.5
X154.34Y-56.64
X154.34Y-79.5
X156.88Y-56.64
X156.88Y-79.5
X159.42Y-56.64
X159.42Y-79.5
X161.96Y-56.64
X161.96Y-79.5
X164.5Y-56.64
X164.5Y-79.5
X167.04Y-56.64
X167.04Y-79.5
X183.51Y-90.69
X183.51Y-93.23
X183.51Y-95.77
X183.51Y-98.31
X191.387Y-77.985
X191.387Y-80.525
X191.387Y-83.065
X193.927Y-77.985
X193.927Y-80.525
X193.927Y-83.065
M30
