%TF.GenerationSoftware,KiCad,Pcbnew,8.0.4*%
%TF.CreationDate,2024-12-05T13:36:41-08:00*%
%TF.ProjectId,DC33_Cnet_Badge_Main,44433333-5f43-46e6-9574-5f4261646765,rev?*%
%TF.SameCoordinates,Original*%
%TF.FileFunction,Drillmap*%
%TF.FilePolarity,Positive*%
%FSLAX45Y45*%
G04 Gerber Fmt 4.5, Leading zero omitted, Abs format (unit mm)*
G04 Created by KiCad (PCBNEW 8.0.4) date 2024-12-05 13:36:41*
%MOMM*%
%LPD*%
G01*
G04 APERTURE LIST*
%ADD10C,0.050000*%
%ADD11C,0.200000*%
G04 APERTURE END LIST*
D10*
X19750000Y-10800000D02*
G75*
G02*
X19600000Y-10950000I-150000J0D01*
G01*
X19750000Y-6600000D02*
G75*
G02*
X19900000Y-6450000I150000J0D01*
G01*
X19450000Y-10450000D02*
G75*
G02*
X19050000Y-10450000I-200000J0D01*
G01*
X19050000Y-10450000D02*
G75*
G02*
X19450000Y-10450000I200000J0D01*
G01*
X19750000Y-5150000D02*
X20800000Y-5150000D01*
X20800000Y-5150000D02*
G75*
G02*
X20800000Y-6450000I0J-650000D01*
G01*
X19600000Y-10950000D02*
X11500000Y-10950000D01*
X11350000Y-5300000D02*
G75*
G02*
X11500000Y-5150000I150000J0D01*
G01*
X12000000Y-5650000D02*
G75*
G02*
X11600000Y-5650000I-200000J0D01*
G01*
X11600000Y-5650000D02*
G75*
G02*
X12000000Y-5650000I200000J0D01*
G01*
X12000000Y-10450000D02*
G75*
G02*
X11600000Y-10450000I-200000J0D01*
G01*
X11600000Y-10450000D02*
G75*
G02*
X12000000Y-10450000I200000J0D01*
G01*
X11350000Y-10800000D02*
X11350000Y-5300000D01*
X21100000Y-5800000D02*
G75*
G02*
X20500000Y-5800000I-300000J0D01*
G01*
X20500000Y-5800000D02*
G75*
G02*
X21100000Y-5800000I300000J0D01*
G01*
X11500000Y-5150000D02*
X19750000Y-5150000D01*
X19450000Y-5650000D02*
G75*
G02*
X19050000Y-5650000I-200000J0D01*
G01*
X19050000Y-5650000D02*
G75*
G02*
X19450000Y-5650000I200000J0D01*
G01*
X11500000Y-10950000D02*
G75*
G02*
X11350000Y-10800000I0J150000D01*
G01*
X19750000Y-6600000D02*
X19750000Y-10800000D01*
X19900000Y-6450000D02*
X20800000Y-6450000D01*
X14418000Y-6045000D02*
X12640000Y-6045000D01*
X12640000Y-7569000D01*
X14418000Y-7569000D01*
X14418000Y-6045000D01*
D11*
X11608277Y-11263984D02*
X11608277Y-11063984D01*
X11608277Y-11063984D02*
X11655896Y-11063984D01*
X11655896Y-11063984D02*
X11684467Y-11073508D01*
X11684467Y-11073508D02*
X11703515Y-11092555D01*
X11703515Y-11092555D02*
X11713039Y-11111603D01*
X11713039Y-11111603D02*
X11722562Y-11149698D01*
X11722562Y-11149698D02*
X11722562Y-11178270D01*
X11722562Y-11178270D02*
X11713039Y-11216365D01*
X11713039Y-11216365D02*
X11703515Y-11235412D01*
X11703515Y-11235412D02*
X11684467Y-11254460D01*
X11684467Y-11254460D02*
X11655896Y-11263984D01*
X11655896Y-11263984D02*
X11608277Y-11263984D01*
X11808277Y-11263984D02*
X11808277Y-11130650D01*
X11808277Y-11168746D02*
X11817801Y-11149698D01*
X11817801Y-11149698D02*
X11827324Y-11140174D01*
X11827324Y-11140174D02*
X11846372Y-11130650D01*
X11846372Y-11130650D02*
X11865420Y-11130650D01*
X11932086Y-11263984D02*
X11932086Y-11130650D01*
X11932086Y-11063984D02*
X11922562Y-11073508D01*
X11922562Y-11073508D02*
X11932086Y-11083031D01*
X11932086Y-11083031D02*
X11941610Y-11073508D01*
X11941610Y-11073508D02*
X11932086Y-11063984D01*
X11932086Y-11063984D02*
X11932086Y-11083031D01*
X12055896Y-11263984D02*
X12036848Y-11254460D01*
X12036848Y-11254460D02*
X12027324Y-11235412D01*
X12027324Y-11235412D02*
X12027324Y-11063984D01*
X12160658Y-11263984D02*
X12141610Y-11254460D01*
X12141610Y-11254460D02*
X12132086Y-11235412D01*
X12132086Y-11235412D02*
X12132086Y-11063984D01*
X12389229Y-11263984D02*
X12389229Y-11063984D01*
X12389229Y-11063984D02*
X12455896Y-11206841D01*
X12455896Y-11206841D02*
X12522562Y-11063984D01*
X12522562Y-11063984D02*
X12522562Y-11263984D01*
X12703515Y-11263984D02*
X12703515Y-11159222D01*
X12703515Y-11159222D02*
X12693991Y-11140174D01*
X12693991Y-11140174D02*
X12674943Y-11130650D01*
X12674943Y-11130650D02*
X12636848Y-11130650D01*
X12636848Y-11130650D02*
X12617801Y-11140174D01*
X12703515Y-11254460D02*
X12684467Y-11263984D01*
X12684467Y-11263984D02*
X12636848Y-11263984D01*
X12636848Y-11263984D02*
X12617801Y-11254460D01*
X12617801Y-11254460D02*
X12608277Y-11235412D01*
X12608277Y-11235412D02*
X12608277Y-11216365D01*
X12608277Y-11216365D02*
X12617801Y-11197317D01*
X12617801Y-11197317D02*
X12636848Y-11187793D01*
X12636848Y-11187793D02*
X12684467Y-11187793D01*
X12684467Y-11187793D02*
X12703515Y-11178270D01*
X12798753Y-11130650D02*
X12798753Y-11330650D01*
X12798753Y-11140174D02*
X12817801Y-11130650D01*
X12817801Y-11130650D02*
X12855896Y-11130650D01*
X12855896Y-11130650D02*
X12874943Y-11140174D01*
X12874943Y-11140174D02*
X12884467Y-11149698D01*
X12884467Y-11149698D02*
X12893991Y-11168746D01*
X12893991Y-11168746D02*
X12893991Y-11225888D01*
X12893991Y-11225888D02*
X12884467Y-11244936D01*
X12884467Y-11244936D02*
X12874943Y-11254460D01*
X12874943Y-11254460D02*
X12855896Y-11263984D01*
X12855896Y-11263984D02*
X12817801Y-11263984D01*
X12817801Y-11263984D02*
X12798753Y-11254460D01*
X12979705Y-11244936D02*
X12989229Y-11254460D01*
X12989229Y-11254460D02*
X12979705Y-11263984D01*
X12979705Y-11263984D02*
X12970182Y-11254460D01*
X12970182Y-11254460D02*
X12979705Y-11244936D01*
X12979705Y-11244936D02*
X12979705Y-11263984D01*
X12979705Y-11140174D02*
X12989229Y-11149698D01*
X12989229Y-11149698D02*
X12979705Y-11159222D01*
X12979705Y-11159222D02*
X12970182Y-11149698D01*
X12970182Y-11149698D02*
X12979705Y-11140174D01*
X12979705Y-11140174D02*
X12979705Y-11159222D01*
M02*
