%TF.GenerationSoftware,KiCad,Pcbnew,8.0.4*%
%TF.CreationDate,2024-12-05T13:36:44-08:00*%
%TF.ProjectId,DC33_Cnet_Badge_Main,44433333-5f43-46e6-9574-5f4261646765,rev?*%
%TF.SameCoordinates,Original*%
%TF.FileFunction,Copper,L1,Top*%
%TF.FilePolarity,Positive*%
%FSLAX46Y46*%
G04 Gerber Fmt 4.6, Leading zero omitted, Abs format (unit mm)*
G04 Created by KiCad (PCBNEW 8.0.4) date 2024-12-05 13:36:44*
%MOMM*%
%LPD*%
G01*
G04 APERTURE LIST*
%TA.AperFunction,ComponentPad*%
%ADD10C,1.524000*%
%TD*%
%TA.AperFunction,ComponentPad*%
%ADD11O,1.700000X1.700000*%
%TD*%
%TA.AperFunction,ComponentPad*%
%ADD12R,1.700000X1.700000*%
%TD*%
%TA.AperFunction,ComponentPad*%
%ADD13C,1.700000*%
%TD*%
%TA.AperFunction,Conductor*%
%ADD14C,0.200000*%
%TD*%
G04 APERTURE END LIST*
D10*
%TO.P,VIBRA1,2,NEG*%
%TO.N,GND*%
X172500000Y-76770000D03*
%TO.P,VIBRA1,1,POS*%
%TO.N,Net-(U1-GPIO45)*%
X172500000Y-74230000D03*
%TD*%
D11*
%TO.P,J1,6,GPIO2*%
%TO.N,unconnected-(J1-GPIO2-Pad6)*%
X190260000Y-82700000D03*
%TO.P,J1,5,GPIO1*%
%TO.N,unconnected-(J1-GPIO1-Pad5)*%
X192800000Y-82700000D03*
%TO.P,J1,4,SCL*%
%TO.N,unconnected-(J1-SCL-Pad4)*%
X190260000Y-80160000D03*
%TO.P,J1,3,SDA*%
%TO.N,unconnected-(J1-SDA-Pad3)*%
X192800000Y-80160000D03*
%TO.P,J1,2,GND*%
%TO.N,GND*%
X190260000Y-77620000D03*
D12*
%TO.P,J1,1,+3.3V*%
%TO.N,3V3*%
X192800000Y-77620000D03*
%TD*%
D10*
%TO.P,BUZZ1,1,POS*%
%TO.N,Net-(BUZZ1-POS)*%
X178500000Y-57880000D03*
%TO.P,BUZZ1,2,NEG*%
%TO.N,GND*%
X178500000Y-65500000D03*
%TD*%
D13*
%TO.P,U1,1,GND*%
%TO.N,GND*%
X123860000Y-79500000D03*
%TO.P,U1,2,5V*%
%TO.N,unconnected-(U1-5V-Pad2)*%
X126400000Y-79500000D03*
%TO.P,U1,3,Ve*%
%TO.N,unconnected-(U1-Ve-Pad3)*%
X128940000Y-79500000D03*
%TO.P,U1,4,Ve*%
%TO.N,unconnected-(U1-Ve-Pad4)*%
X131480000Y-79500000D03*
%TO.P,U1,5,RX*%
%TO.N,unconnected-(U1-RX-Pad5)*%
X134020000Y-79500000D03*
%TO.P,U1,6,TX*%
%TO.N,unconnected-(U1-TX-Pad6)*%
X136560000Y-79500000D03*
%TO.P,U1,7,RST*%
%TO.N,unconnected-(U1-RST-Pad7)*%
X139100000Y-79500000D03*
%TO.P,U1,8,GPIO0*%
%TO.N,unconnected-(U1-GPIO0-Pad8)*%
X141640000Y-79500000D03*
%TO.P,U1,9,GPIO36*%
%TO.N,unconnected-(U1-GPIO36-Pad9)*%
X144180000Y-79500000D03*
%TO.P,U1,10,GPIO35*%
%TO.N,unconnected-(U1-GPIO35-Pad10)*%
X146720000Y-79500000D03*
%TO.P,U1,11,GPIO34*%
%TO.N,unconnected-(U1-GPIO34-Pad11)*%
X149260000Y-79500000D03*
%TO.P,U1,12,GPIO33*%
%TO.N,unconnected-(U1-GPIO33-Pad12)*%
X151800000Y-79500000D03*
%TO.P,U1,13,GPIO47*%
%TO.N,Net-(GPS1-RX)*%
X154340000Y-79500000D03*
%TO.P,U1,14,GPIO48*%
%TO.N,Net-(GPS1-TX)*%
X156880000Y-79500000D03*
%TO.P,U1,15,GPIO26*%
%TO.N,unconnected-(U1-GPIO26-Pad15)*%
X159420000Y-79500000D03*
%TO.P,U1,16,GPIO21*%
%TO.N,unconnected-(U1-GPIO21-Pad16)*%
X161960000Y-79500000D03*
%TO.P,U1,17,GPIO20*%
%TO.N,unconnected-(U1-GPIO20-Pad17)*%
X164500000Y-79500000D03*
%TO.P,U1,18,GPIO19*%
%TO.N,unconnected-(U1-GPIO19-Pad18)*%
X167040000Y-79500000D03*
%TO.P,U1,19,GPIO7*%
%TO.N,unconnected-(U1-GPIO7-Pad19)*%
X167040000Y-56640000D03*
%TO.P,U1,20,GPIO6*%
%TO.N,unconnected-(U1-GPIO6-Pad20)*%
X164500000Y-56640000D03*
%TO.P,U1,21,GPIO5*%
%TO.N,unconnected-(U1-GPIO5-Pad21)*%
X161960000Y-56640000D03*
%TO.P,U1,22,GPIO4*%
%TO.N,unconnected-(U1-GPIO4-Pad22)*%
X159420000Y-56640000D03*
%TO.P,U1,23,GPIO3*%
%TO.N,unconnected-(U1-GPIO3-Pad23)*%
X156880000Y-56640000D03*
%TO.P,U1,24,GPIO2*%
%TO.N,unconnected-(U1-GPIO2-Pad24)*%
X154340000Y-56640000D03*
%TO.P,U1,25,GPIO1*%
%TO.N,unconnected-(U1-GPIO1-Pad25)*%
X151800000Y-56640000D03*
%TO.P,U1,26,GPIO38*%
%TO.N,unconnected-(U1-GPIO38-Pad26)*%
X149260000Y-56640000D03*
%TO.P,U1,27,GPIO39*%
%TO.N,unconnected-(U1-GPIO39-Pad27)*%
X146720000Y-56640000D03*
%TO.P,U1,28,GPIO40*%
%TO.N,unconnected-(U1-GPIO40-Pad28)*%
X144180000Y-56640000D03*
%TO.P,U1,29,GPIO41*%
%TO.N,unconnected-(U1-GPIO41-Pad29)*%
X141640000Y-56640000D03*
%TO.P,U1,30,GPIO42*%
%TO.N,unconnected-(U1-GPIO42-Pad30)*%
X139100000Y-56640000D03*
%TO.P,U1,31,GPIO45*%
%TO.N,Net-(U1-GPIO45)*%
X136560000Y-56640000D03*
%TO.P,U1,32,GPIO46*%
%TO.N,Net-(BUZZ1-POS)*%
X134020000Y-56640000D03*
%TO.P,U1,33,GPIO37*%
%TO.N,unconnected-(U1-GPIO37-Pad33)*%
X131480000Y-56640000D03*
%TO.P,U1,34,3V3*%
%TO.N,unconnected-(U1-3V3-Pad34)*%
X128940000Y-56640000D03*
%TO.P,U1,35,3V3*%
%TO.N,3V3*%
X126400000Y-56640000D03*
%TO.P,U1,36,GND*%
%TO.N,unconnected-(U1-GND-Pad36)*%
X123860000Y-56640000D03*
%TD*%
%TO.P,GPS1,1,VCC*%
%TO.N,3V3*%
X183510000Y-90690000D03*
%TO.P,GPS1,2,RX*%
%TO.N,Net-(GPS1-RX)*%
X183510000Y-93230000D03*
%TO.P,GPS1,3,TX*%
%TO.N,Net-(GPS1-TX)*%
X183510000Y-95770000D03*
%TO.P,GPS1,4,GND*%
%TO.N,GND*%
X183510000Y-98310000D03*
%TD*%
D14*
%TO.N,Net-(GPS1-TX)*%
X156880000Y-82480000D02*
X156880000Y-79500000D01*
X166300000Y-91900000D02*
X156880000Y-82480000D01*
X186300000Y-91900000D02*
X166300000Y-91900000D01*
X187200000Y-92800000D02*
X186300000Y-91900000D01*
X186330000Y-95770000D02*
X187200000Y-94900000D01*
X187200000Y-94900000D02*
X187200000Y-92800000D01*
X183510000Y-95770000D02*
X186330000Y-95770000D01*
%TO.N,Net-(GPS1-RX)*%
X154340000Y-82640000D02*
X154340000Y-79500000D01*
X164930000Y-93230000D02*
X154340000Y-82640000D01*
X183510000Y-93230000D02*
X164930000Y-93230000D01*
%TO.N,Net-(U1-GPIO45)*%
X151400000Y-58600000D02*
X138520000Y-58600000D01*
X138520000Y-58600000D02*
X136560000Y-56640000D01*
X152500000Y-59700000D02*
X151400000Y-58600000D01*
X152500000Y-67200000D02*
X152500000Y-59700000D01*
X172500000Y-74230000D02*
X159530000Y-74230000D01*
X159530000Y-74230000D02*
X152500000Y-67200000D01*
%TO.N,3V3*%
X182290000Y-90690000D02*
X183510000Y-90690000D01*
X170300000Y-78700000D02*
X182290000Y-90690000D01*
X124500000Y-76800000D02*
X125200000Y-77500000D01*
X169300000Y-77500000D02*
X170300000Y-78500000D01*
X125200000Y-77500000D02*
X169300000Y-77500000D01*
X124500000Y-58540000D02*
X124500000Y-76800000D01*
X170300000Y-78500000D02*
X170300000Y-78700000D01*
X126400000Y-56640000D02*
X124500000Y-58540000D01*
%TO.N,Net-(BUZZ1-POS)*%
X136460000Y-54200000D02*
X134020000Y-56640000D01*
X178500000Y-57880000D02*
X174820000Y-54200000D01*
X174820000Y-54200000D02*
X136460000Y-54200000D01*
%TO.N,3V3*%
X195580000Y-77620000D02*
X192800000Y-77620000D01*
X195600000Y-77600000D02*
X195580000Y-77620000D01*
X196200000Y-87700000D02*
X196200000Y-78200000D01*
X193210000Y-90690000D02*
X196200000Y-87700000D01*
X196200000Y-78200000D02*
X195600000Y-77600000D01*
X183510000Y-90690000D02*
X193210000Y-90690000D01*
%TD*%
M02*
