%TF.GenerationSoftware,KiCad,Pcbnew,(6.0.9)*%
%TF.CreationDate,2025-01-09T11:17:18-08:00*%
%TF.ProjectId,CactusCon_2025_CNet_SAO,43616374-7573-4436-9f6e-5f323032355f,rev?*%
%TF.SameCoordinates,Original*%
%TF.FileFunction,Legend,Bot*%
%TF.FilePolarity,Positive*%
%FSLAX46Y46*%
G04 Gerber Fmt 4.6, Leading zero omitted, Abs format (unit mm)*
G04 Created by KiCad (PCBNEW (6.0.9)) date 2025-01-09 11:17:18*
%MOMM*%
%LPD*%
G01*
G04 APERTURE LIST*
%ADD10C,0.150000*%
%ADD11C,0.120000*%
G04 APERTURE END LIST*
D10*
%TO.C,J1*%
X159834685Y-107020314D02*
X160453274Y-106663171D01*
X160553183Y-106550503D01*
X160588042Y-106420405D01*
X160557853Y-106272878D01*
X160510234Y-106190399D01*
X161200710Y-107386339D02*
X160914996Y-106891468D01*
X161057853Y-107138903D02*
X160191828Y-107638903D01*
X160267927Y-107484996D01*
X160302786Y-107354899D01*
X160296406Y-107248610D01*
%TO.C,D2*%
X151202486Y-104177724D02*
X150296179Y-103755106D01*
X150195555Y-103970894D01*
X150178339Y-104120491D01*
X150224404Y-104247055D01*
X150290595Y-104330462D01*
X150443100Y-104454119D01*
X150572573Y-104514493D01*
X150765327Y-104551834D01*
X150871767Y-104548926D01*
X150998331Y-104502860D01*
X151101863Y-104393512D01*
X151202486Y-104177724D01*
X149980000Y-104658506D02*
X149916718Y-104681539D01*
X149833311Y-104747729D01*
X149732688Y-104963517D01*
X149735596Y-105069956D01*
X149758629Y-105133239D01*
X149824819Y-105216645D01*
X149911134Y-105256895D01*
X150060731Y-105274111D01*
X150820118Y-104997717D01*
X150558497Y-105558765D01*
%TO.C,D1*%
X158722860Y-99476373D02*
X158464041Y-98510447D01*
X158234058Y-98572071D01*
X158108393Y-98655041D01*
X158041050Y-98771684D01*
X158019703Y-98876001D01*
X158023005Y-99072312D01*
X158059979Y-99210301D01*
X158155275Y-99381962D01*
X158225921Y-99461631D01*
X158342563Y-99528974D01*
X158492877Y-99537996D01*
X158722860Y-99476373D01*
X157250973Y-99870764D02*
X157802930Y-99722867D01*
X157526951Y-99796815D02*
X157268132Y-98830890D01*
X157397099Y-98944230D01*
X157513742Y-99011573D01*
X157618059Y-99032920D01*
D11*
%TO.C,J1*%
X153825491Y-113876846D02*
X151225491Y-109373514D01*
X156976862Y-109055180D02*
X155676862Y-106803514D01*
X160528528Y-110006846D02*
X153825491Y-113876846D01*
X158593528Y-106655328D02*
X157928528Y-105503514D01*
X155676862Y-106803514D02*
X151225491Y-109373514D01*
X160528528Y-110006846D02*
X159228528Y-107755180D01*
X159228528Y-107755180D02*
X156976862Y-109055180D01*
X157928528Y-105503514D02*
X156776714Y-106168514D01*
X152450817Y-106275842D02*
X153200817Y-107574880D01*
X153200817Y-107574880D02*
X153200817Y-107574880D01*
X153200817Y-107574880D02*
X152450817Y-106275842D01*
X152450817Y-106275842D02*
X152450817Y-106275842D01*
X154615881Y-105025842D02*
X154615881Y-105025842D01*
X154615881Y-105025842D02*
X152450817Y-106275842D01*
X152450817Y-106275842D02*
X152450817Y-106275842D01*
X152450817Y-106275842D02*
X154615881Y-105025842D01*
X155365881Y-106324880D02*
X154615881Y-105025842D01*
X154615881Y-105025842D02*
X154615881Y-105025842D01*
X154615881Y-105025842D02*
X155365881Y-106324880D01*
X155365881Y-106324880D02*
X155365881Y-106324880D01*
%TO.C,D2*%
X146159790Y-104361945D02*
X146018406Y-104296016D01*
X148258799Y-105340728D02*
X148117415Y-105274800D01*
X147259223Y-102004590D02*
G75*
G03*
X146379146Y-103891535I538664J-1399942D01*
G01*
X148258360Y-105340524D02*
G75*
G03*
X149482197Y-102344721I-460473J1935992D01*
G01*
X147527096Y-101433042D02*
G75*
G03*
X146018845Y-104296221I270791J-1971490D01*
G01*
X148336770Y-104804391D02*
G75*
G03*
X149216552Y-102917307I-538883J1399859D01*
G01*
%TO.C,D1*%
X155340357Y-95731858D02*
X155299981Y-95581173D01*
X155939782Y-97968942D02*
X155899406Y-97818257D01*
X158462913Y-94896612D02*
G75*
G03*
X155300106Y-95581641I-1336187J-1474688D01*
G01*
X156400759Y-97683920D02*
G75*
G03*
X158411863Y-97144878I725967J1312620D01*
G01*
X155939657Y-97968474D02*
G75*
G03*
X159021242Y-96980323I1187069J1597174D01*
G01*
X157852898Y-95058792D02*
G75*
G03*
X155841710Y-95597520I-726172J-1312508D01*
G01*
%TD*%
M02*
