%TF.GenerationSoftware,KiCad,Pcbnew,(6.0.9)*%
%TF.CreationDate,2025-01-09T11:17:18-08:00*%
%TF.ProjectId,CactusCon_2025_CNet_SAO,43616374-7573-4436-9f6e-5f323032355f,rev?*%
%TF.SameCoordinates,Original*%
%TF.FileFunction,Profile,NP*%
%FSLAX46Y46*%
G04 Gerber Fmt 4.6, Leading zero omitted, Abs format (unit mm)*
G04 Created by KiCad (PCBNEW (6.0.9)) date 2025-01-09 11:17:18*
%MOMM*%
%LPD*%
G01*
G04 APERTURE LIST*
%TA.AperFunction,Profile*%
%ADD10C,0.100000*%
%TD*%
G04 APERTURE END LIST*
%TO.C,G\u002A\u002A\u002A*%
D10*
X151100000Y-84900000D02*
X151867114Y-84954488D01*
X152405681Y-85016375D01*
X152940850Y-85097829D01*
X153472067Y-85198624D01*
X153998772Y-85318532D01*
X154520408Y-85457328D01*
X155036419Y-85614785D01*
X155546247Y-85790675D01*
X156049335Y-85984774D01*
X156545125Y-86196853D01*
X157033060Y-86426686D01*
X157512583Y-86674046D01*
X157983137Y-86938708D01*
X158444163Y-87220444D01*
X158895105Y-87519028D01*
X159335406Y-87834233D01*
X159764508Y-88165832D01*
X159911901Y-88284118D01*
X160084508Y-88268648D01*
X160186216Y-88261606D01*
X160326125Y-88254771D01*
X160671211Y-88243046D01*
X161021098Y-88236121D01*
X161167007Y-88235285D01*
X161277116Y-88236643D01*
X161349161Y-88239434D01*
X161380475Y-88241286D01*
X161408940Y-88243515D01*
X161434770Y-88246174D01*
X161458184Y-88249319D01*
X161479397Y-88253004D01*
X161498626Y-88257282D01*
X161516087Y-88262208D01*
X161531997Y-88267837D01*
X161546572Y-88274222D01*
X161560029Y-88281419D01*
X161572584Y-88289481D01*
X161584454Y-88298462D01*
X161595855Y-88308417D01*
X161607003Y-88319401D01*
X161623857Y-88337967D01*
X161640102Y-88358043D01*
X161655734Y-88379617D01*
X161670747Y-88402679D01*
X161685138Y-88427215D01*
X161698902Y-88453214D01*
X161712032Y-88480665D01*
X161724526Y-88509556D01*
X161736377Y-88539875D01*
X161747582Y-88571611D01*
X161758134Y-88604752D01*
X161768031Y-88639286D01*
X161777265Y-88675202D01*
X161785834Y-88712488D01*
X161793732Y-88751132D01*
X161800954Y-88791123D01*
X161805741Y-88822517D01*
X161811410Y-88864924D01*
X161824555Y-88975311D01*
X161838707Y-89107354D01*
X161852183Y-89246123D01*
X161868877Y-89419749D01*
X161885132Y-89569729D01*
X161901592Y-89699912D01*
X161918899Y-89814148D01*
X161937695Y-89916288D01*
X161958621Y-90010180D01*
X161982321Y-90099674D01*
X162009437Y-90188621D01*
X162016911Y-90212838D01*
X162023959Y-90237736D01*
X162030451Y-90262729D01*
X162036253Y-90287232D01*
X162041235Y-90310659D01*
X162045264Y-90332423D01*
X162048209Y-90351939D01*
X162049937Y-90368621D01*
X162054937Y-90438621D01*
X162181920Y-90598621D01*
X162347242Y-90811107D01*
X162509175Y-91027642D01*
X162667605Y-91248031D01*
X162822421Y-91472082D01*
X162973512Y-91699598D01*
X163120765Y-91930385D01*
X163264067Y-92164250D01*
X163403308Y-92400997D01*
X163538374Y-92640432D01*
X163669155Y-92882360D01*
X163795537Y-93126588D01*
X163917409Y-93372920D01*
X164034659Y-93621162D01*
X164147174Y-93871120D01*
X164254844Y-94122599D01*
X164357555Y-94375405D01*
X164572317Y-94953706D01*
X164762482Y-95539561D01*
X164928008Y-96132084D01*
X165068852Y-96730389D01*
X165184972Y-97333590D01*
X165276325Y-97940801D01*
X165342870Y-98551137D01*
X165384564Y-99163712D01*
X165401366Y-99777640D01*
X165393231Y-100392036D01*
X165360120Y-101006013D01*
X165301988Y-101618686D01*
X165218795Y-102229169D01*
X165110497Y-102836577D01*
X164977053Y-103440023D01*
X164818420Y-104038622D01*
X164647320Y-104592862D01*
X164455059Y-105138948D01*
X164242013Y-105676319D01*
X164008555Y-106204414D01*
X163755062Y-106722670D01*
X163481910Y-107230526D01*
X163189473Y-107727422D01*
X162878128Y-108212796D01*
X162548249Y-108686086D01*
X162200213Y-109146731D01*
X161834394Y-109594169D01*
X161451169Y-110027840D01*
X161050912Y-110447181D01*
X160634000Y-110851632D01*
X160200807Y-111240631D01*
X159751710Y-111613617D01*
X159243681Y-112001808D01*
X158721499Y-112366730D01*
X158185934Y-112708114D01*
X157637759Y-113025692D01*
X157077747Y-113319195D01*
X156506668Y-113588354D01*
X155925296Y-113832901D01*
X155334402Y-114052567D01*
X154734759Y-114247083D01*
X154127137Y-114416182D01*
X153512310Y-114559594D01*
X152891050Y-114677051D01*
X152264128Y-114768284D01*
X151632316Y-114833024D01*
X150996387Y-114871004D01*
X150357113Y-114881954D01*
X150209711Y-114880796D01*
X150059707Y-114878678D01*
X149924656Y-114875898D01*
X149822113Y-114872755D01*
X149822115Y-114872770D01*
X149369513Y-114848067D01*
X148919406Y-114810197D01*
X148472004Y-114759219D01*
X148027516Y-114695192D01*
X147586152Y-114618177D01*
X147148119Y-114528233D01*
X146713629Y-114425420D01*
X146282889Y-114309796D01*
X145856109Y-114181422D01*
X145433499Y-114040356D01*
X145015268Y-113886660D01*
X144601624Y-113720391D01*
X144192778Y-113541610D01*
X143788938Y-113350376D01*
X143390314Y-113146749D01*
X142997114Y-112930788D01*
X142688217Y-112750201D01*
X142384308Y-112562751D01*
X142085429Y-112368473D01*
X141791621Y-112167401D01*
X141502924Y-111959570D01*
X141219380Y-111745015D01*
X140941028Y-111523771D01*
X140667910Y-111295872D01*
X140400066Y-111061355D01*
X140137538Y-110820253D01*
X139880366Y-110572601D01*
X139628591Y-110318435D01*
X139382254Y-110057789D01*
X139141395Y-109790697D01*
X138906056Y-109517196D01*
X138676276Y-109237320D01*
X138600129Y-109143226D01*
X138535844Y-109065414D01*
X138490191Y-109011965D01*
X138476468Y-108996903D01*
X138472252Y-108992729D01*
X138469942Y-108990963D01*
X138463003Y-108987362D01*
X138451562Y-108980363D01*
X138417269Y-108957670D01*
X138371255Y-108925879D01*
X138317714Y-108887986D01*
X138260836Y-108846985D01*
X138204816Y-108805872D01*
X138153844Y-108767644D01*
X138112114Y-108735294D01*
X138060593Y-108693777D01*
X138013530Y-108654714D01*
X137970517Y-108617733D01*
X137931148Y-108582462D01*
X137895019Y-108548529D01*
X137861722Y-108515561D01*
X137830850Y-108483187D01*
X137801999Y-108451032D01*
X137776455Y-108421690D01*
X137766148Y-108409118D01*
X137761529Y-108403042D01*
X137757235Y-108396986D01*
X137753243Y-108390860D01*
X137749529Y-108384573D01*
X137746069Y-108378037D01*
X137742842Y-108371161D01*
X137739822Y-108363854D01*
X137736988Y-108356027D01*
X137734314Y-108347591D01*
X137731779Y-108338454D01*
X137729358Y-108328527D01*
X137727028Y-108317720D01*
X137724766Y-108305943D01*
X137722548Y-108293106D01*
X137720351Y-108279119D01*
X137718151Y-108263892D01*
X137713651Y-108229358D01*
X137708861Y-108188784D01*
X137703592Y-108141450D01*
X137690873Y-108023622D01*
X137668732Y-107818622D01*
X137536749Y-107598623D01*
X137328210Y-107240021D01*
X137130069Y-106876817D01*
X136942378Y-106509172D01*
X136765192Y-106137245D01*
X136598563Y-105761198D01*
X136442545Y-105381190D01*
X136297191Y-104997383D01*
X136162555Y-104609936D01*
X136038689Y-104219012D01*
X135925647Y-103824769D01*
X135823483Y-103427368D01*
X135732250Y-103026971D01*
X135652001Y-102623737D01*
X135582789Y-102217828D01*
X135524667Y-101809402D01*
X135477690Y-101398622D01*
X135449987Y-101087265D01*
X135428699Y-100769664D01*
X135413861Y-100447973D01*
X135405505Y-100124348D01*
X135403666Y-99800946D01*
X135408378Y-99479920D01*
X135419674Y-99163427D01*
X135437590Y-98853622D01*
X135508342Y-98103185D01*
X135615428Y-97361621D01*
X135758317Y-96629988D01*
X135936478Y-95909346D01*
X136149380Y-95200753D01*
X136396489Y-94505269D01*
X136677276Y-93823952D01*
X136991208Y-93157862D01*
X137337754Y-92508057D01*
X137716382Y-91875597D01*
X138126561Y-91261541D01*
X138567759Y-90666947D01*
X139039445Y-90092875D01*
X139541088Y-89540383D01*
X140072154Y-89010531D01*
X140632114Y-88504377D01*
X141224681Y-88020275D01*
X141837822Y-87569254D01*
X142470262Y-87151718D01*
X143120724Y-86768071D01*
X143787930Y-86418716D01*
X144470603Y-86104057D01*
X145167468Y-85824497D01*
X145877245Y-85580439D01*
X146598659Y-85372287D01*
X147330433Y-85200445D01*
X148071289Y-85065316D01*
X148819951Y-84967304D01*
X149575141Y-84906811D01*
X150335583Y-84884242D01*
X151100000Y-84900000D01*
%TD*%
M02*
