%TF.GenerationSoftware,KiCad,Pcbnew,(6.0.9)*%
%TF.CreationDate,2025-01-09T11:17:14-08:00*%
%TF.ProjectId,CactusCon_2025_CNet_SAO,43616374-7573-4436-9f6e-5f323032355f,rev?*%
%TF.SameCoordinates,Original*%
%TF.FileFunction,Drillmap*%
%TF.FilePolarity,Positive*%
%FSLAX45Y45*%
G04 Gerber Fmt 4.5, Leading zero omitted, Abs format (unit mm)*
G04 Created by KiCad (PCBNEW (6.0.9)) date 2025-01-09 11:17:14*
%MOMM*%
%LPD*%
G01*
G04 APERTURE LIST*
%ADD10C,0.200000*%
%ADD11C,0.090000*%
%ADD12C,0.100000*%
G04 APERTURE END LIST*
D10*
D11*
X14681116Y-10410554D02*
X14771116Y-10500554D01*
X14771116Y-10410554D02*
X14681116Y-10500554D01*
X14788461Y-10180352D02*
X14878461Y-10270352D01*
X14878461Y-10180352D02*
X14788461Y-10270352D01*
X15545000Y-9625000D02*
X15635000Y-9715000D01*
X15635000Y-9625000D02*
X15545000Y-9715000D01*
X15790345Y-9559260D02*
X15880345Y-9649260D01*
X15880345Y-9559260D02*
X15790345Y-9649260D01*
D12*
X15354230Y-10986033D02*
G75*
G03*
X15354230Y-10986033I-50000J0D01*
G01*
X15481230Y-11206003D02*
G75*
G03*
X15481230Y-11206003I-50000J0D01*
G01*
X15574201Y-10859033D02*
G75*
G03*
X15574201Y-10859033I-50000J0D01*
G01*
X15701201Y-11079003D02*
G75*
G03*
X15701201Y-11079003I-50000J0D01*
G01*
X15794171Y-10732033D02*
G75*
G03*
X15794171Y-10732033I-50000J0D01*
G01*
X15921171Y-10952003D02*
G75*
G03*
X15921171Y-10952003I-50000J0D01*
G01*
D10*
X13792986Y-11803671D02*
X13792986Y-11603671D01*
X13840605Y-11603671D01*
X13869176Y-11613195D01*
X13888224Y-11632243D01*
X13897747Y-11651291D01*
X13907271Y-11689386D01*
X13907271Y-11717957D01*
X13897747Y-11756052D01*
X13888224Y-11775100D01*
X13869176Y-11794148D01*
X13840605Y-11803671D01*
X13792986Y-11803671D01*
X13992986Y-11803671D02*
X13992986Y-11670338D01*
X13992986Y-11708433D02*
X14002509Y-11689386D01*
X14012033Y-11679862D01*
X14031081Y-11670338D01*
X14050128Y-11670338D01*
X14116795Y-11803671D02*
X14116795Y-11670338D01*
X14116795Y-11603671D02*
X14107271Y-11613195D01*
X14116795Y-11622719D01*
X14126319Y-11613195D01*
X14116795Y-11603671D01*
X14116795Y-11622719D01*
X14240605Y-11803671D02*
X14221557Y-11794148D01*
X14212033Y-11775100D01*
X14212033Y-11603671D01*
X14345367Y-11803671D02*
X14326319Y-11794148D01*
X14316795Y-11775100D01*
X14316795Y-11603671D01*
X14573938Y-11803671D02*
X14573938Y-11603671D01*
X14640605Y-11746529D01*
X14707271Y-11603671D01*
X14707271Y-11803671D01*
X14888224Y-11803671D02*
X14888224Y-11698910D01*
X14878700Y-11679862D01*
X14859652Y-11670338D01*
X14821557Y-11670338D01*
X14802509Y-11679862D01*
X14888224Y-11794148D02*
X14869176Y-11803671D01*
X14821557Y-11803671D01*
X14802509Y-11794148D01*
X14792986Y-11775100D01*
X14792986Y-11756052D01*
X14802509Y-11737005D01*
X14821557Y-11727481D01*
X14869176Y-11727481D01*
X14888224Y-11717957D01*
X14983462Y-11670338D02*
X14983462Y-11870338D01*
X14983462Y-11679862D02*
X15002509Y-11670338D01*
X15040605Y-11670338D01*
X15059652Y-11679862D01*
X15069176Y-11689386D01*
X15078700Y-11708433D01*
X15078700Y-11765576D01*
X15069176Y-11784624D01*
X15059652Y-11794148D01*
X15040605Y-11803671D01*
X15002509Y-11803671D01*
X14983462Y-11794148D01*
X15164414Y-11784624D02*
X15173938Y-11794148D01*
X15164414Y-11803671D01*
X15154890Y-11794148D01*
X15164414Y-11784624D01*
X15164414Y-11803671D01*
X15164414Y-11679862D02*
X15173938Y-11689386D01*
X15164414Y-11698910D01*
X15154890Y-11689386D01*
X15164414Y-11679862D01*
X15164414Y-11698910D01*
D11*
X13445367Y-12088195D02*
X13535367Y-12178195D01*
X13535367Y-12088195D02*
X13445367Y-12178195D01*
D10*
X13831081Y-12023671D02*
X13850128Y-12023671D01*
X13869176Y-12033195D01*
X13878700Y-12042719D01*
X13888224Y-12061767D01*
X13897747Y-12099862D01*
X13897747Y-12147481D01*
X13888224Y-12185576D01*
X13878700Y-12204624D01*
X13869176Y-12214148D01*
X13850128Y-12223671D01*
X13831081Y-12223671D01*
X13812033Y-12214148D01*
X13802509Y-12204624D01*
X13792986Y-12185576D01*
X13783462Y-12147481D01*
X13783462Y-12099862D01*
X13792986Y-12061767D01*
X13802509Y-12042719D01*
X13812033Y-12033195D01*
X13831081Y-12023671D01*
X13983462Y-12204624D02*
X13992986Y-12214148D01*
X13983462Y-12223671D01*
X13973938Y-12214148D01*
X13983462Y-12204624D01*
X13983462Y-12223671D01*
X14088224Y-12223671D02*
X14126319Y-12223671D01*
X14145367Y-12214148D01*
X14154890Y-12204624D01*
X14173938Y-12176052D01*
X14183462Y-12137957D01*
X14183462Y-12061767D01*
X14173938Y-12042719D01*
X14164414Y-12033195D01*
X14145367Y-12023671D01*
X14107271Y-12023671D01*
X14088224Y-12033195D01*
X14078700Y-12042719D01*
X14069176Y-12061767D01*
X14069176Y-12109386D01*
X14078700Y-12128433D01*
X14088224Y-12137957D01*
X14107271Y-12147481D01*
X14145367Y-12147481D01*
X14164414Y-12137957D01*
X14173938Y-12128433D01*
X14183462Y-12109386D01*
X14307271Y-12023671D02*
X14326319Y-12023671D01*
X14345367Y-12033195D01*
X14354890Y-12042719D01*
X14364414Y-12061767D01*
X14373938Y-12099862D01*
X14373938Y-12147481D01*
X14364414Y-12185576D01*
X14354890Y-12204624D01*
X14345367Y-12214148D01*
X14326319Y-12223671D01*
X14307271Y-12223671D01*
X14288224Y-12214148D01*
X14278700Y-12204624D01*
X14269176Y-12185576D01*
X14259652Y-12147481D01*
X14259652Y-12099862D01*
X14269176Y-12061767D01*
X14278700Y-12042719D01*
X14288224Y-12033195D01*
X14307271Y-12023671D01*
X14497747Y-12023671D02*
X14516795Y-12023671D01*
X14535843Y-12033195D01*
X14545367Y-12042719D01*
X14554890Y-12061767D01*
X14564414Y-12099862D01*
X14564414Y-12147481D01*
X14554890Y-12185576D01*
X14545367Y-12204624D01*
X14535843Y-12214148D01*
X14516795Y-12223671D01*
X14497747Y-12223671D01*
X14478700Y-12214148D01*
X14469176Y-12204624D01*
X14459652Y-12185576D01*
X14450128Y-12147481D01*
X14450128Y-12099862D01*
X14459652Y-12061767D01*
X14469176Y-12042719D01*
X14478700Y-12033195D01*
X14497747Y-12023671D01*
X14650128Y-12223671D02*
X14650128Y-12090338D01*
X14650128Y-12109386D02*
X14659652Y-12099862D01*
X14678700Y-12090338D01*
X14707271Y-12090338D01*
X14726319Y-12099862D01*
X14735843Y-12118910D01*
X14735843Y-12223671D01*
X14735843Y-12118910D02*
X14745367Y-12099862D01*
X14764414Y-12090338D01*
X14792986Y-12090338D01*
X14812033Y-12099862D01*
X14821557Y-12118910D01*
X14821557Y-12223671D01*
X14916795Y-12223671D02*
X14916795Y-12090338D01*
X14916795Y-12109386D02*
X14926319Y-12099862D01*
X14945367Y-12090338D01*
X14973938Y-12090338D01*
X14992986Y-12099862D01*
X15002509Y-12118910D01*
X15002509Y-12223671D01*
X15002509Y-12118910D02*
X15012033Y-12099862D01*
X15031081Y-12090338D01*
X15059652Y-12090338D01*
X15078700Y-12099862D01*
X15088224Y-12118910D01*
X15088224Y-12223671D01*
X15478700Y-12014148D02*
X15307271Y-12271291D01*
X15735843Y-12023671D02*
X15754890Y-12023671D01*
X15773938Y-12033195D01*
X15783462Y-12042719D01*
X15792986Y-12061767D01*
X15802509Y-12099862D01*
X15802509Y-12147481D01*
X15792986Y-12185576D01*
X15783462Y-12204624D01*
X15773938Y-12214148D01*
X15754890Y-12223671D01*
X15735843Y-12223671D01*
X15716795Y-12214148D01*
X15707271Y-12204624D01*
X15697747Y-12185576D01*
X15688224Y-12147481D01*
X15688224Y-12099862D01*
X15697747Y-12061767D01*
X15707271Y-12042719D01*
X15716795Y-12033195D01*
X15735843Y-12023671D01*
X15888224Y-12204624D02*
X15897747Y-12214148D01*
X15888224Y-12223671D01*
X15878700Y-12214148D01*
X15888224Y-12204624D01*
X15888224Y-12223671D01*
X16021557Y-12023671D02*
X16040605Y-12023671D01*
X16059652Y-12033195D01*
X16069176Y-12042719D01*
X16078700Y-12061767D01*
X16088224Y-12099862D01*
X16088224Y-12147481D01*
X16078700Y-12185576D01*
X16069176Y-12204624D01*
X16059652Y-12214148D01*
X16040605Y-12223671D01*
X16021557Y-12223671D01*
X16002509Y-12214148D01*
X15992986Y-12204624D01*
X15983462Y-12185576D01*
X15973938Y-12147481D01*
X15973938Y-12099862D01*
X15983462Y-12061767D01*
X15992986Y-12042719D01*
X16002509Y-12033195D01*
X16021557Y-12023671D01*
X16154890Y-12023671D02*
X16278700Y-12023671D01*
X16212033Y-12099862D01*
X16240605Y-12099862D01*
X16259652Y-12109386D01*
X16269176Y-12118910D01*
X16278700Y-12137957D01*
X16278700Y-12185576D01*
X16269176Y-12204624D01*
X16259652Y-12214148D01*
X16240605Y-12223671D01*
X16183462Y-12223671D01*
X16164414Y-12214148D01*
X16154890Y-12204624D01*
X16459652Y-12023671D02*
X16364414Y-12023671D01*
X16354890Y-12118910D01*
X16364414Y-12109386D01*
X16383462Y-12099862D01*
X16431081Y-12099862D01*
X16450128Y-12109386D01*
X16459652Y-12118910D01*
X16469176Y-12137957D01*
X16469176Y-12185576D01*
X16459652Y-12204624D01*
X16450128Y-12214148D01*
X16431081Y-12223671D01*
X16383462Y-12223671D01*
X16364414Y-12214148D01*
X16354890Y-12204624D01*
X16640605Y-12090338D02*
X16640605Y-12223671D01*
X16592986Y-12014148D02*
X16545367Y-12157005D01*
X16669176Y-12157005D01*
X16735843Y-12023671D02*
X16735843Y-12061767D01*
X16812033Y-12023671D02*
X16812033Y-12061767D01*
X17107271Y-12299862D02*
X17097748Y-12290338D01*
X17078700Y-12261767D01*
X17069176Y-12242719D01*
X17059652Y-12214148D01*
X17050129Y-12166529D01*
X17050129Y-12128433D01*
X17059652Y-12080814D01*
X17069176Y-12052243D01*
X17078700Y-12033195D01*
X17097748Y-12004624D01*
X17107271Y-11995100D01*
X17269176Y-12090338D02*
X17269176Y-12223671D01*
X17221557Y-12014148D02*
X17173938Y-12157005D01*
X17297748Y-12157005D01*
X17526319Y-12223671D02*
X17526319Y-12023671D01*
X17612033Y-12223671D02*
X17612033Y-12118910D01*
X17602509Y-12099862D01*
X17583462Y-12090338D01*
X17554890Y-12090338D01*
X17535843Y-12099862D01*
X17526319Y-12109386D01*
X17735843Y-12223671D02*
X17716795Y-12214148D01*
X17707271Y-12204624D01*
X17697748Y-12185576D01*
X17697748Y-12128433D01*
X17707271Y-12109386D01*
X17716795Y-12099862D01*
X17735843Y-12090338D01*
X17764414Y-12090338D01*
X17783462Y-12099862D01*
X17792986Y-12109386D01*
X17802509Y-12128433D01*
X17802509Y-12185576D01*
X17792986Y-12204624D01*
X17783462Y-12214148D01*
X17764414Y-12223671D01*
X17735843Y-12223671D01*
X17916795Y-12223671D02*
X17897748Y-12214148D01*
X17888224Y-12195100D01*
X17888224Y-12023671D01*
X18069176Y-12214148D02*
X18050129Y-12223671D01*
X18012033Y-12223671D01*
X17992986Y-12214148D01*
X17983462Y-12195100D01*
X17983462Y-12118910D01*
X17992986Y-12099862D01*
X18012033Y-12090338D01*
X18050129Y-12090338D01*
X18069176Y-12099862D01*
X18078700Y-12118910D01*
X18078700Y-12137957D01*
X17983462Y-12157005D01*
X18154890Y-12214148D02*
X18173938Y-12223671D01*
X18212033Y-12223671D01*
X18231081Y-12214148D01*
X18240605Y-12195100D01*
X18240605Y-12185576D01*
X18231081Y-12166529D01*
X18212033Y-12157005D01*
X18183462Y-12157005D01*
X18164414Y-12147481D01*
X18154890Y-12128433D01*
X18154890Y-12118910D01*
X18164414Y-12099862D01*
X18183462Y-12090338D01*
X18212033Y-12090338D01*
X18231081Y-12099862D01*
X18307271Y-12299862D02*
X18316795Y-12290338D01*
X18335843Y-12261767D01*
X18345367Y-12242719D01*
X18354890Y-12214148D01*
X18364414Y-12166529D01*
X18364414Y-12128433D01*
X18354890Y-12080814D01*
X18345367Y-12052243D01*
X18335843Y-12033195D01*
X18316795Y-12004624D01*
X18307271Y-11995100D01*
D12*
X13535367Y-12397195D02*
G75*
G03*
X13535367Y-12397195I-50000J0D01*
G01*
D10*
X13897747Y-12487671D02*
X13783462Y-12487671D01*
X13840605Y-12487671D02*
X13840605Y-12287671D01*
X13821557Y-12316243D01*
X13802509Y-12335291D01*
X13783462Y-12344814D01*
X13983462Y-12468624D02*
X13992986Y-12478148D01*
X13983462Y-12487671D01*
X13973938Y-12478148D01*
X13983462Y-12468624D01*
X13983462Y-12487671D01*
X14116795Y-12287671D02*
X14135843Y-12287671D01*
X14154890Y-12297195D01*
X14164414Y-12306719D01*
X14173938Y-12325767D01*
X14183462Y-12363862D01*
X14183462Y-12411481D01*
X14173938Y-12449576D01*
X14164414Y-12468624D01*
X14154890Y-12478148D01*
X14135843Y-12487671D01*
X14116795Y-12487671D01*
X14097747Y-12478148D01*
X14088224Y-12468624D01*
X14078700Y-12449576D01*
X14069176Y-12411481D01*
X14069176Y-12363862D01*
X14078700Y-12325767D01*
X14088224Y-12306719D01*
X14097747Y-12297195D01*
X14116795Y-12287671D01*
X14307271Y-12287671D02*
X14326319Y-12287671D01*
X14345367Y-12297195D01*
X14354890Y-12306719D01*
X14364414Y-12325767D01*
X14373938Y-12363862D01*
X14373938Y-12411481D01*
X14364414Y-12449576D01*
X14354890Y-12468624D01*
X14345367Y-12478148D01*
X14326319Y-12487671D01*
X14307271Y-12487671D01*
X14288224Y-12478148D01*
X14278700Y-12468624D01*
X14269176Y-12449576D01*
X14259652Y-12411481D01*
X14259652Y-12363862D01*
X14269176Y-12325767D01*
X14278700Y-12306719D01*
X14288224Y-12297195D01*
X14307271Y-12287671D01*
X14497747Y-12287671D02*
X14516795Y-12287671D01*
X14535843Y-12297195D01*
X14545367Y-12306719D01*
X14554890Y-12325767D01*
X14564414Y-12363862D01*
X14564414Y-12411481D01*
X14554890Y-12449576D01*
X14545367Y-12468624D01*
X14535843Y-12478148D01*
X14516795Y-12487671D01*
X14497747Y-12487671D01*
X14478700Y-12478148D01*
X14469176Y-12468624D01*
X14459652Y-12449576D01*
X14450128Y-12411481D01*
X14450128Y-12363862D01*
X14459652Y-12325767D01*
X14469176Y-12306719D01*
X14478700Y-12297195D01*
X14497747Y-12287671D01*
X14650128Y-12487671D02*
X14650128Y-12354338D01*
X14650128Y-12373386D02*
X14659652Y-12363862D01*
X14678700Y-12354338D01*
X14707271Y-12354338D01*
X14726319Y-12363862D01*
X14735843Y-12382910D01*
X14735843Y-12487671D01*
X14735843Y-12382910D02*
X14745367Y-12363862D01*
X14764414Y-12354338D01*
X14792986Y-12354338D01*
X14812033Y-12363862D01*
X14821557Y-12382910D01*
X14821557Y-12487671D01*
X14916795Y-12487671D02*
X14916795Y-12354338D01*
X14916795Y-12373386D02*
X14926319Y-12363862D01*
X14945367Y-12354338D01*
X14973938Y-12354338D01*
X14992986Y-12363862D01*
X15002509Y-12382910D01*
X15002509Y-12487671D01*
X15002509Y-12382910D02*
X15012033Y-12363862D01*
X15031081Y-12354338D01*
X15059652Y-12354338D01*
X15078700Y-12363862D01*
X15088224Y-12382910D01*
X15088224Y-12487671D01*
X15478700Y-12278148D02*
X15307271Y-12535291D01*
X15735843Y-12287671D02*
X15754890Y-12287671D01*
X15773938Y-12297195D01*
X15783462Y-12306719D01*
X15792986Y-12325767D01*
X15802509Y-12363862D01*
X15802509Y-12411481D01*
X15792986Y-12449576D01*
X15783462Y-12468624D01*
X15773938Y-12478148D01*
X15754890Y-12487671D01*
X15735843Y-12487671D01*
X15716795Y-12478148D01*
X15707271Y-12468624D01*
X15697747Y-12449576D01*
X15688224Y-12411481D01*
X15688224Y-12363862D01*
X15697747Y-12325767D01*
X15707271Y-12306719D01*
X15716795Y-12297195D01*
X15735843Y-12287671D01*
X15888224Y-12468624D02*
X15897747Y-12478148D01*
X15888224Y-12487671D01*
X15878700Y-12478148D01*
X15888224Y-12468624D01*
X15888224Y-12487671D01*
X16021557Y-12287671D02*
X16040605Y-12287671D01*
X16059652Y-12297195D01*
X16069176Y-12306719D01*
X16078700Y-12325767D01*
X16088224Y-12363862D01*
X16088224Y-12411481D01*
X16078700Y-12449576D01*
X16069176Y-12468624D01*
X16059652Y-12478148D01*
X16040605Y-12487671D01*
X16021557Y-12487671D01*
X16002509Y-12478148D01*
X15992986Y-12468624D01*
X15983462Y-12449576D01*
X15973938Y-12411481D01*
X15973938Y-12363862D01*
X15983462Y-12325767D01*
X15992986Y-12306719D01*
X16002509Y-12297195D01*
X16021557Y-12287671D01*
X16154890Y-12287671D02*
X16278700Y-12287671D01*
X16212033Y-12363862D01*
X16240605Y-12363862D01*
X16259652Y-12373386D01*
X16269176Y-12382910D01*
X16278700Y-12401957D01*
X16278700Y-12449576D01*
X16269176Y-12468624D01*
X16259652Y-12478148D01*
X16240605Y-12487671D01*
X16183462Y-12487671D01*
X16164414Y-12478148D01*
X16154890Y-12468624D01*
X16373938Y-12487671D02*
X16412033Y-12487671D01*
X16431081Y-12478148D01*
X16440605Y-12468624D01*
X16459652Y-12440052D01*
X16469176Y-12401957D01*
X16469176Y-12325767D01*
X16459652Y-12306719D01*
X16450128Y-12297195D01*
X16431081Y-12287671D01*
X16392986Y-12287671D01*
X16373938Y-12297195D01*
X16364414Y-12306719D01*
X16354890Y-12325767D01*
X16354890Y-12373386D01*
X16364414Y-12392433D01*
X16373938Y-12401957D01*
X16392986Y-12411481D01*
X16431081Y-12411481D01*
X16450128Y-12401957D01*
X16459652Y-12392433D01*
X16469176Y-12373386D01*
X16640605Y-12354338D02*
X16640605Y-12487671D01*
X16592986Y-12278148D02*
X16545367Y-12421005D01*
X16669176Y-12421005D01*
X16735843Y-12287671D02*
X16735843Y-12325767D01*
X16812033Y-12287671D02*
X16812033Y-12325767D01*
X17107271Y-12563862D02*
X17097748Y-12554338D01*
X17078700Y-12525767D01*
X17069176Y-12506719D01*
X17059652Y-12478148D01*
X17050129Y-12430529D01*
X17050129Y-12392433D01*
X17059652Y-12344814D01*
X17069176Y-12316243D01*
X17078700Y-12297195D01*
X17097748Y-12268624D01*
X17107271Y-12259100D01*
X17269176Y-12287671D02*
X17231081Y-12287671D01*
X17212033Y-12297195D01*
X17202509Y-12306719D01*
X17183462Y-12335291D01*
X17173938Y-12373386D01*
X17173938Y-12449576D01*
X17183462Y-12468624D01*
X17192986Y-12478148D01*
X17212033Y-12487671D01*
X17250129Y-12487671D01*
X17269176Y-12478148D01*
X17278700Y-12468624D01*
X17288224Y-12449576D01*
X17288224Y-12401957D01*
X17278700Y-12382910D01*
X17269176Y-12373386D01*
X17250129Y-12363862D01*
X17212033Y-12363862D01*
X17192986Y-12373386D01*
X17183462Y-12382910D01*
X17173938Y-12401957D01*
X17526319Y-12487671D02*
X17526319Y-12287671D01*
X17612033Y-12487671D02*
X17612033Y-12382910D01*
X17602509Y-12363862D01*
X17583462Y-12354338D01*
X17554890Y-12354338D01*
X17535843Y-12363862D01*
X17526319Y-12373386D01*
X17735843Y-12487671D02*
X17716795Y-12478148D01*
X17707271Y-12468624D01*
X17697748Y-12449576D01*
X17697748Y-12392433D01*
X17707271Y-12373386D01*
X17716795Y-12363862D01*
X17735843Y-12354338D01*
X17764414Y-12354338D01*
X17783462Y-12363862D01*
X17792986Y-12373386D01*
X17802509Y-12392433D01*
X17802509Y-12449576D01*
X17792986Y-12468624D01*
X17783462Y-12478148D01*
X17764414Y-12487671D01*
X17735843Y-12487671D01*
X17916795Y-12487671D02*
X17897748Y-12478148D01*
X17888224Y-12459100D01*
X17888224Y-12287671D01*
X18069176Y-12478148D02*
X18050129Y-12487671D01*
X18012033Y-12487671D01*
X17992986Y-12478148D01*
X17983462Y-12459100D01*
X17983462Y-12382910D01*
X17992986Y-12363862D01*
X18012033Y-12354338D01*
X18050129Y-12354338D01*
X18069176Y-12363862D01*
X18078700Y-12382910D01*
X18078700Y-12401957D01*
X17983462Y-12421005D01*
X18154890Y-12478148D02*
X18173938Y-12487671D01*
X18212033Y-12487671D01*
X18231081Y-12478148D01*
X18240605Y-12459100D01*
X18240605Y-12449576D01*
X18231081Y-12430529D01*
X18212033Y-12421005D01*
X18183462Y-12421005D01*
X18164414Y-12411481D01*
X18154890Y-12392433D01*
X18154890Y-12382910D01*
X18164414Y-12363862D01*
X18183462Y-12354338D01*
X18212033Y-12354338D01*
X18231081Y-12363862D01*
X18307271Y-12563862D02*
X18316795Y-12554338D01*
X18335843Y-12525767D01*
X18345367Y-12506719D01*
X18354890Y-12478148D01*
X18364414Y-12430529D01*
X18364414Y-12392433D01*
X18354890Y-12344814D01*
X18345367Y-12316243D01*
X18335843Y-12297195D01*
X18316795Y-12268624D01*
X18307271Y-12259100D01*
M02*
