%TF.GenerationSoftware,KiCad,Pcbnew,(6.0.9)*%
%TF.CreationDate,2025-01-09T11:17:18-08:00*%
%TF.ProjectId,CactusCon_2025_CNet_SAO,43616374-7573-4436-9f6e-5f323032355f,rev?*%
%TF.SameCoordinates,Original*%
%TF.FileFunction,Soldermask,Top*%
%TF.FilePolarity,Negative*%
%FSLAX46Y46*%
G04 Gerber Fmt 4.6, Leading zero omitted, Abs format (unit mm)*
G04 Created by KiCad (PCBNEW (6.0.9)) date 2025-01-09 11:17:18*
%MOMM*%
%LPD*%
G01*
G04 APERTURE LIST*
G04 Aperture macros list*
%AMHorizOval*
0 Thick line with rounded ends*
0 $1 width*
0 $2 $3 position (X,Y) of the first rounded end (center of the circle)*
0 $4 $5 position (X,Y) of the second rounded end (center of the circle)*
0 Add line between two ends*
20,1,$1,$2,$3,$4,$5,0*
0 Add two circle primitives to create the rounded ends*
1,1,$1,$2,$3*
1,1,$1,$4,$5*%
%AMRotRect*
0 Rectangle, with rotation*
0 The origin of the aperture is its center*
0 $1 length*
0 $2 width*
0 $3 Rotation angle, in degrees counterclockwise*
0 Add horizontal line*
21,1,$1,$2,0,0,$3*%
G04 Aperture macros list end*
%ADD10RotRect,1.700000X1.700000X120.000000*%
%ADD11HorizOval,1.700000X0.000000X0.000000X0.000000X0.000000X0*%
%ADD12RotRect,1.800000X1.800000X65.000000*%
%ADD13C,1.800000*%
%ADD14RotRect,1.800000X1.800000X15.000000*%
G04 APERTURE END LIST*
%TO.C,G\u002A\u002A\u002A*%
G36*
X144131211Y-101738753D02*
G01*
X144148839Y-101740566D01*
X144166192Y-101743506D01*
X144183221Y-101747543D01*
X144199876Y-101752651D01*
X144216107Y-101758799D01*
X144231867Y-101765960D01*
X144247105Y-101774105D01*
X144261771Y-101783205D01*
X144275817Y-101793233D01*
X144289193Y-101804160D01*
X144301850Y-101815957D01*
X144313738Y-101828596D01*
X144324808Y-101842048D01*
X144335011Y-101856286D01*
X144344297Y-101871280D01*
X144350142Y-101881991D01*
X144355343Y-101892610D01*
X144359896Y-101903126D01*
X144363802Y-101913531D01*
X144367060Y-101923816D01*
X144369668Y-101933971D01*
X144371626Y-101943988D01*
X144372933Y-101953857D01*
X144373588Y-101963570D01*
X144373590Y-101973116D01*
X144372938Y-101982488D01*
X144371631Y-101991675D01*
X144369669Y-102000670D01*
X144367050Y-102009462D01*
X144363773Y-102018042D01*
X144359838Y-102026402D01*
X144358007Y-102029499D01*
X144355483Y-102033081D01*
X144352308Y-102037107D01*
X144348529Y-102041533D01*
X144344190Y-102046316D01*
X144339336Y-102051413D01*
X144334011Y-102056781D01*
X144328262Y-102062378D01*
X144322132Y-102068159D01*
X144315666Y-102074083D01*
X144308910Y-102080106D01*
X144301908Y-102086185D01*
X144294705Y-102092277D01*
X144287345Y-102098339D01*
X144279875Y-102104328D01*
X144272338Y-102110202D01*
X144242418Y-102134153D01*
X144214588Y-102158473D01*
X144188802Y-102183247D01*
X144165014Y-102208564D01*
X144143178Y-102234510D01*
X144123247Y-102261173D01*
X144105175Y-102288638D01*
X144088915Y-102316994D01*
X144074421Y-102346327D01*
X144061647Y-102376724D01*
X144050546Y-102408273D01*
X144041071Y-102441060D01*
X144033178Y-102475172D01*
X144026818Y-102510696D01*
X144021946Y-102547720D01*
X144018515Y-102586329D01*
X144016082Y-102620221D01*
X144013728Y-102646395D01*
X144012414Y-102657114D01*
X144010922Y-102666535D01*
X144009184Y-102674870D01*
X144007136Y-102682328D01*
X144004710Y-102689120D01*
X144001841Y-102695457D01*
X143998462Y-102701549D01*
X143994508Y-102707608D01*
X143989912Y-102713844D01*
X143984608Y-102720466D01*
X143971613Y-102735717D01*
X143956009Y-102754074D01*
X143941805Y-102771529D01*
X143928919Y-102788269D01*
X143917269Y-102804480D01*
X143906772Y-102820349D01*
X143897348Y-102836063D01*
X143888913Y-102851808D01*
X143881385Y-102867770D01*
X143874683Y-102884137D01*
X143868724Y-102901095D01*
X143863426Y-102918830D01*
X143858707Y-102937529D01*
X143854485Y-102957378D01*
X143850678Y-102978564D01*
X143847203Y-103001275D01*
X143843979Y-103025695D01*
X143838628Y-103068221D01*
X143836225Y-103085679D01*
X143833848Y-103100984D01*
X143831382Y-103114425D01*
X143828711Y-103126288D01*
X143825719Y-103136863D01*
X143822291Y-103146438D01*
X143818311Y-103155300D01*
X143813663Y-103163738D01*
X143808231Y-103172040D01*
X143801900Y-103180494D01*
X143794554Y-103189388D01*
X143786077Y-103199010D01*
X143765267Y-103221591D01*
X143746245Y-103242630D01*
X143728823Y-103263182D01*
X143712949Y-103283374D01*
X143698570Y-103303333D01*
X143685637Y-103323187D01*
X143674098Y-103343062D01*
X143663901Y-103363084D01*
X143654995Y-103383382D01*
X143647329Y-103404081D01*
X143640852Y-103425310D01*
X143635512Y-103447193D01*
X143631258Y-103469860D01*
X143628038Y-103493436D01*
X143625802Y-103518048D01*
X143624498Y-103543824D01*
X143624075Y-103570889D01*
X143624075Y-103660279D01*
X143545637Y-103841578D01*
X143512619Y-103919862D01*
X143480701Y-103998994D01*
X143453524Y-104069742D01*
X143442850Y-104099088D01*
X143434726Y-104122876D01*
X143427306Y-104144873D01*
X143418650Y-104169083D01*
X143409072Y-104194714D01*
X143398885Y-104220972D01*
X143388403Y-104247062D01*
X143377939Y-104272191D01*
X143367805Y-104295566D01*
X143358317Y-104316392D01*
X143333677Y-104365730D01*
X143307592Y-104412062D01*
X143280211Y-104455277D01*
X143251679Y-104495264D01*
X143222145Y-104531912D01*
X143191755Y-104565109D01*
X143160656Y-104594745D01*
X143128996Y-104620709D01*
X143113001Y-104632278D01*
X143096922Y-104642888D01*
X143080775Y-104652524D01*
X143064580Y-104661173D01*
X143048355Y-104668819D01*
X143032119Y-104675451D01*
X143015890Y-104681053D01*
X142999685Y-104685612D01*
X142983524Y-104689113D01*
X142967426Y-104691544D01*
X142951407Y-104692890D01*
X142935488Y-104693137D01*
X142919685Y-104692271D01*
X142904019Y-104690279D01*
X142888506Y-104687146D01*
X142873165Y-104682858D01*
X142873163Y-104682862D01*
X142860703Y-104678415D01*
X142848350Y-104673082D01*
X142836145Y-104666901D01*
X142824124Y-104659906D01*
X142812327Y-104652136D01*
X142800793Y-104643627D01*
X142789559Y-104634416D01*
X142778665Y-104624539D01*
X142768149Y-104614033D01*
X142758049Y-104602934D01*
X142748405Y-104591280D01*
X142739253Y-104579108D01*
X142730634Y-104566453D01*
X142722586Y-104553352D01*
X142715147Y-104539843D01*
X142708355Y-104525962D01*
X142704115Y-104516562D01*
X142700288Y-104507697D01*
X142696857Y-104499272D01*
X142693800Y-104491194D01*
X142691099Y-104483370D01*
X142688734Y-104475706D01*
X142686684Y-104468110D01*
X142684931Y-104460487D01*
X142683455Y-104452745D01*
X142682237Y-104444790D01*
X142681256Y-104436528D01*
X142680493Y-104427867D01*
X142679928Y-104418713D01*
X142679542Y-104408973D01*
X142679228Y-104387361D01*
X142679423Y-104364374D01*
X142679759Y-104354283D01*
X142680302Y-104344933D01*
X142681087Y-104336177D01*
X142682150Y-104327869D01*
X142683526Y-104319864D01*
X142685253Y-104312015D01*
X142687364Y-104304178D01*
X142689896Y-104296205D01*
X142692885Y-104287951D01*
X142696366Y-104279270D01*
X142700375Y-104270017D01*
X142704948Y-104260045D01*
X142715928Y-104237361D01*
X142724495Y-104221047D01*
X142734279Y-104204237D01*
X142745215Y-104187003D01*
X142757238Y-104169420D01*
X142770282Y-104151560D01*
X142784284Y-104133498D01*
X142799178Y-104115306D01*
X142814900Y-104097058D01*
X142831383Y-104078827D01*
X142848565Y-104060688D01*
X142866380Y-104042713D01*
X142884762Y-104024977D01*
X142903647Y-104007551D01*
X142922971Y-103990511D01*
X142942668Y-103973929D01*
X142962673Y-103957879D01*
X142979408Y-103944598D01*
X142994245Y-103932305D01*
X143007306Y-103920716D01*
X143013208Y-103915095D01*
X143018712Y-103909543D01*
X143023832Y-103904023D01*
X143028585Y-103898500D01*
X143032985Y-103892938D01*
X143037047Y-103887302D01*
X143040787Y-103881555D01*
X143044221Y-103875661D01*
X143047362Y-103869586D01*
X143050227Y-103863292D01*
X143052831Y-103856745D01*
X143055188Y-103849909D01*
X143057315Y-103842747D01*
X143059227Y-103835225D01*
X143060938Y-103827306D01*
X143062464Y-103818954D01*
X143063820Y-103810134D01*
X143065022Y-103800810D01*
X143067022Y-103780506D01*
X143068587Y-103757757D01*
X143069838Y-103732276D01*
X143070898Y-103703776D01*
X143073004Y-103653790D01*
X143075841Y-103609947D01*
X143079521Y-103571564D01*
X143084156Y-103537958D01*
X143086866Y-103522732D01*
X143089857Y-103508445D01*
X143093143Y-103495010D01*
X143096738Y-103482342D01*
X143100655Y-103470356D01*
X143104909Y-103458966D01*
X143109513Y-103448086D01*
X143114483Y-103437633D01*
X143120212Y-103427328D01*
X143127203Y-103416650D01*
X143135353Y-103405688D01*
X143144560Y-103394529D01*
X143154722Y-103383261D01*
X143165738Y-103371973D01*
X143177504Y-103360752D01*
X143189920Y-103349685D01*
X143202883Y-103338862D01*
X143216291Y-103328370D01*
X143230043Y-103318296D01*
X143244036Y-103308730D01*
X143258169Y-103299758D01*
X143272339Y-103291468D01*
X143286444Y-103283950D01*
X143300383Y-103277289D01*
X143366623Y-103247569D01*
X143360173Y-103165219D01*
X143354156Y-103085402D01*
X143349806Y-103019531D01*
X143347110Y-102965452D01*
X143346056Y-102921007D01*
X143346631Y-102884039D01*
X143348822Y-102852393D01*
X143352617Y-102823912D01*
X143358004Y-102796439D01*
X143362254Y-102778310D01*
X143366790Y-102760844D01*
X143371672Y-102743921D01*
X143376957Y-102727420D01*
X143382704Y-102711220D01*
X143388972Y-102695201D01*
X143395820Y-102679243D01*
X143403305Y-102663226D01*
X143411487Y-102647027D01*
X143420423Y-102630529D01*
X143430174Y-102613609D01*
X143440796Y-102596147D01*
X143452350Y-102578023D01*
X143464893Y-102559116D01*
X143493181Y-102518474D01*
X143510155Y-102493615D01*
X143528552Y-102464633D01*
X143548178Y-102431880D01*
X143568834Y-102395709D01*
X143590324Y-102356472D01*
X143612451Y-102314521D01*
X143635018Y-102270208D01*
X143657829Y-102223885D01*
X143691353Y-102155885D01*
X143723147Y-102094029D01*
X143753436Y-102038078D01*
X143782448Y-101987789D01*
X143810409Y-101942921D01*
X143837544Y-101903233D01*
X143864082Y-101868482D01*
X143890247Y-101838428D01*
X143916267Y-101812830D01*
X143942369Y-101791444D01*
X143968777Y-101774031D01*
X143995720Y-101760349D01*
X144023423Y-101750155D01*
X144052112Y-101743210D01*
X144082015Y-101739270D01*
X144113358Y-101738095D01*
X144131211Y-101738753D01*
G37*
G36*
X159406676Y-103160639D02*
G01*
X159465511Y-103164128D01*
X159519815Y-103170545D01*
X159569359Y-103179884D01*
X159613914Y-103192137D01*
X159653250Y-103207297D01*
X159687138Y-103225356D01*
X159715350Y-103246306D01*
X159737656Y-103270141D01*
X159743581Y-103278265D01*
X159748705Y-103286088D01*
X159750966Y-103289905D01*
X159753026Y-103293671D01*
X159754886Y-103297392D01*
X159756544Y-103301076D01*
X159758001Y-103304731D01*
X159759257Y-103308365D01*
X159760312Y-103311984D01*
X159761165Y-103315598D01*
X159761817Y-103319213D01*
X159762267Y-103322838D01*
X159762515Y-103326479D01*
X159762562Y-103330145D01*
X159762406Y-103333843D01*
X159762048Y-103337582D01*
X159761488Y-103341368D01*
X159760726Y-103345209D01*
X159759761Y-103349114D01*
X159758594Y-103353089D01*
X159757224Y-103357143D01*
X159755651Y-103361283D01*
X159751897Y-103369852D01*
X159747331Y-103378857D01*
X159741950Y-103388361D01*
X159735756Y-103398425D01*
X159724024Y-103415536D01*
X159710195Y-103433288D01*
X159694155Y-103451772D01*
X159675791Y-103471078D01*
X159654989Y-103491297D01*
X159631635Y-103512520D01*
X159605616Y-103534837D01*
X159576818Y-103558340D01*
X159545128Y-103583119D01*
X159510431Y-103609264D01*
X159472615Y-103636867D01*
X159431565Y-103666017D01*
X159387169Y-103696807D01*
X159339311Y-103729325D01*
X159287879Y-103763664D01*
X159232760Y-103799914D01*
X159194811Y-103824984D01*
X159178560Y-103836125D01*
X159163617Y-103846827D01*
X159149602Y-103857456D01*
X159136134Y-103868379D01*
X159122834Y-103879961D01*
X159109319Y-103892570D01*
X159095210Y-103906572D01*
X159080127Y-103922334D01*
X159063688Y-103940223D01*
X159045514Y-103960605D01*
X159002437Y-104010314D01*
X158947851Y-104074395D01*
X158879522Y-104154730D01*
X158826062Y-104216704D01*
X158782642Y-104265087D01*
X158763187Y-104285671D01*
X158744431Y-104304645D01*
X158725770Y-104322605D01*
X158706600Y-104340147D01*
X158686317Y-104357867D01*
X158664317Y-104376361D01*
X158612754Y-104418054D01*
X158547079Y-104469994D01*
X158479921Y-104522500D01*
X158422418Y-104566320D01*
X158373329Y-104602280D01*
X158331407Y-104631203D01*
X158295410Y-104653914D01*
X158279244Y-104663197D01*
X158264092Y-104671237D01*
X158249800Y-104678136D01*
X158236210Y-104683997D01*
X158223169Y-104688924D01*
X158210520Y-104693019D01*
X158198039Y-104696609D01*
X158186471Y-104699669D01*
X158175703Y-104702190D01*
X158165621Y-104704165D01*
X158156111Y-104705585D01*
X158147061Y-104706444D01*
X158138357Y-104706732D01*
X158129885Y-104706444D01*
X158121532Y-104705569D01*
X158113185Y-104704101D01*
X158104730Y-104702033D01*
X158096054Y-104699355D01*
X158087044Y-104696061D01*
X158077586Y-104692142D01*
X158067566Y-104687590D01*
X158056872Y-104682399D01*
X158056851Y-104682393D01*
X158046470Y-104677147D01*
X158037078Y-104672115D01*
X158032668Y-104669575D01*
X158028404Y-104666964D01*
X158024251Y-104664240D01*
X158020176Y-104661361D01*
X158016146Y-104658287D01*
X158012125Y-104654975D01*
X158008080Y-104651384D01*
X158003978Y-104647473D01*
X157999785Y-104643199D01*
X157995466Y-104638521D01*
X157990989Y-104633398D01*
X157986318Y-104627788D01*
X157981420Y-104621650D01*
X157976262Y-104614941D01*
X157965028Y-104599647D01*
X157952346Y-104581574D01*
X157937943Y-104560390D01*
X157921550Y-104535761D01*
X157902896Y-104507355D01*
X157857720Y-104437882D01*
X157813703Y-104369470D01*
X157776997Y-104311053D01*
X157746578Y-104260771D01*
X157721420Y-104216763D01*
X157700498Y-104177170D01*
X157682786Y-104140130D01*
X157667259Y-104103785D01*
X157652891Y-104066274D01*
X157642432Y-104035856D01*
X157633685Y-104006580D01*
X157626655Y-103978413D01*
X157621343Y-103951322D01*
X157617754Y-103925274D01*
X157615892Y-103900235D01*
X157615760Y-103876175D01*
X157617361Y-103853058D01*
X157620700Y-103830852D01*
X157625779Y-103809525D01*
X157632603Y-103789044D01*
X157641174Y-103769375D01*
X157651497Y-103750486D01*
X157663575Y-103732343D01*
X157677412Y-103714915D01*
X157693010Y-103698167D01*
X157722421Y-103672286D01*
X157760031Y-103644831D01*
X157805220Y-103616059D01*
X157857369Y-103586227D01*
X157915857Y-103555592D01*
X157980064Y-103524411D01*
X158049372Y-103492941D01*
X158123160Y-103461439D01*
X158200807Y-103430162D01*
X158281696Y-103399366D01*
X158365204Y-103369309D01*
X158450714Y-103340248D01*
X158537605Y-103312440D01*
X158625256Y-103286141D01*
X158713049Y-103261609D01*
X158800364Y-103239100D01*
X158887200Y-103218881D01*
X158971339Y-103201651D01*
X159052550Y-103187404D01*
X159130605Y-103176132D01*
X159205274Y-103167827D01*
X159276328Y-103162482D01*
X159343538Y-103160088D01*
X159406676Y-103160639D01*
G37*
G36*
X155907614Y-92950791D02*
G01*
X155934088Y-92953149D01*
X155960516Y-92956830D01*
X155986725Y-92961780D01*
X156012543Y-92967943D01*
X156037799Y-92975267D01*
X156062319Y-92983696D01*
X156085934Y-92993176D01*
X156108470Y-93003652D01*
X156129756Y-93015071D01*
X156149620Y-93027377D01*
X156167890Y-93040517D01*
X156184395Y-93054436D01*
X156198961Y-93069079D01*
X156209628Y-93081271D01*
X156219413Y-93093286D01*
X156228343Y-93105194D01*
X156236444Y-93117068D01*
X156243744Y-93128979D01*
X156250268Y-93140998D01*
X156256043Y-93153198D01*
X156261097Y-93165648D01*
X156265456Y-93178422D01*
X156269147Y-93191590D01*
X156272196Y-93205223D01*
X156274630Y-93219394D01*
X156276476Y-93234174D01*
X156277760Y-93249635D01*
X156278510Y-93265846D01*
X156278751Y-93282882D01*
X156278285Y-93306464D01*
X156276782Y-93328359D01*
X156274089Y-93348770D01*
X156272248Y-93358484D01*
X156270052Y-93367904D01*
X156267481Y-93377055D01*
X156264516Y-93385963D01*
X156261138Y-93394655D01*
X156257328Y-93403154D01*
X156253066Y-93411488D01*
X156248333Y-93419682D01*
X156243110Y-93427760D01*
X156237377Y-93435750D01*
X156231116Y-93443675D01*
X156224307Y-93451563D01*
X156216930Y-93459438D01*
X156208967Y-93467327D01*
X156200398Y-93475254D01*
X156191204Y-93483246D01*
X156170864Y-93499525D01*
X156147792Y-93516368D01*
X156121835Y-93533981D01*
X156092839Y-93552568D01*
X156060648Y-93572333D01*
X156039193Y-93585000D01*
X156019151Y-93596190D01*
X156000341Y-93605932D01*
X155982577Y-93614253D01*
X155965675Y-93621179D01*
X155949452Y-93626737D01*
X155933724Y-93630956D01*
X155918306Y-93633861D01*
X155903015Y-93635480D01*
X155887667Y-93635840D01*
X155872078Y-93634968D01*
X155856063Y-93632892D01*
X155839440Y-93629637D01*
X155822023Y-93625233D01*
X155803629Y-93619704D01*
X155784075Y-93613080D01*
X155784073Y-93613081D01*
X155772778Y-93609042D01*
X155762735Y-93605308D01*
X155753752Y-93601704D01*
X155745636Y-93598053D01*
X155741842Y-93596155D01*
X155738194Y-93594179D01*
X155734666Y-93592103D01*
X155731235Y-93589906D01*
X155727876Y-93587565D01*
X155724566Y-93585057D01*
X155721280Y-93582362D01*
X155717995Y-93579457D01*
X155714686Y-93576320D01*
X155711329Y-93572929D01*
X155704377Y-93565297D01*
X155696945Y-93556385D01*
X155688841Y-93546017D01*
X155679874Y-93534015D01*
X155669850Y-93520205D01*
X155645865Y-93486454D01*
X155615966Y-93443260D01*
X155589837Y-93403434D01*
X155567448Y-93366673D01*
X155548774Y-93332676D01*
X155533786Y-93301140D01*
X155527666Y-93286202D01*
X155522457Y-93271765D01*
X155518157Y-93257794D01*
X155514760Y-93244249D01*
X155512265Y-93231093D01*
X155510667Y-93218288D01*
X155509963Y-93205797D01*
X155510150Y-93193582D01*
X155511225Y-93181605D01*
X155513183Y-93169829D01*
X155516022Y-93158215D01*
X155519737Y-93146727D01*
X155524327Y-93135325D01*
X155529786Y-93123973D01*
X155536112Y-93112633D01*
X155543302Y-93101267D01*
X155560256Y-93078306D01*
X155580623Y-93054789D01*
X155604374Y-93030413D01*
X155614342Y-93020872D01*
X155623867Y-93012297D01*
X155633161Y-93004611D01*
X155637788Y-93001080D01*
X155642437Y-92997743D01*
X155647134Y-92994592D01*
X155651907Y-92991618D01*
X155656781Y-92988811D01*
X155661783Y-92986162D01*
X155666941Y-92983662D01*
X155672279Y-92981302D01*
X155677825Y-92979073D01*
X155683606Y-92976964D01*
X155689647Y-92974968D01*
X155695976Y-92973074D01*
X155702619Y-92971274D01*
X155709602Y-92969559D01*
X155724697Y-92966344D01*
X155741472Y-92963356D01*
X155760140Y-92960521D01*
X155780913Y-92957766D01*
X155804005Y-92955017D01*
X155829626Y-92952199D01*
X155855211Y-92950262D01*
X155881264Y-92949811D01*
X155907614Y-92950791D01*
G37*
G36*
X137663764Y-107917544D02*
G01*
X137621457Y-107854502D01*
X137602322Y-107827050D01*
X137600829Y-107825314D01*
X137599442Y-107823769D01*
X137596957Y-107821025D01*
X137595846Y-107819711D01*
X137594814Y-107818359D01*
X137593853Y-107816913D01*
X137592957Y-107815315D01*
X137592118Y-107813509D01*
X137591331Y-107811436D01*
X137590588Y-107809040D01*
X137589882Y-107806264D01*
X137589206Y-107803051D01*
X137588554Y-107799343D01*
X137587919Y-107795083D01*
X137587294Y-107790214D01*
X137586672Y-107784680D01*
X137586046Y-107778422D01*
X137585409Y-107771384D01*
X137584754Y-107763508D01*
X137583366Y-107745017D01*
X137581824Y-107722489D01*
X137580076Y-107695469D01*
X137578065Y-107663500D01*
X137573037Y-107582883D01*
X137567588Y-107468662D01*
X137563660Y-107329818D01*
X137560386Y-107012774D01*
X137563259Y-106700785D01*
X137567014Y-106568258D01*
X137572323Y-106462882D01*
X137587744Y-106268466D01*
X137607508Y-106071506D01*
X137631397Y-105873984D01*
X137659191Y-105677882D01*
X137674896Y-105570095D01*
X137692311Y-105442943D01*
X137709317Y-105312301D01*
X137723794Y-105194047D01*
X137747598Y-104996529D01*
X137769254Y-104832598D01*
X137790351Y-104694450D01*
X137812480Y-104574279D01*
X137837231Y-104464281D01*
X137866192Y-104356651D01*
X137900954Y-104243585D01*
X137943105Y-104117276D01*
X137984148Y-104000264D01*
X138027522Y-103882365D01*
X138073434Y-103763079D01*
X138122087Y-103641903D01*
X138173688Y-103518337D01*
X138228442Y-103391880D01*
X138286553Y-103262031D01*
X138348227Y-103128289D01*
X138382906Y-103052692D01*
X138413523Y-102983314D01*
X138436762Y-102927845D01*
X138444578Y-102907729D01*
X138449306Y-102893973D01*
X138452777Y-102881317D01*
X138455752Y-102868391D01*
X138458229Y-102855184D01*
X138460210Y-102841685D01*
X138461693Y-102827883D01*
X138462679Y-102813766D01*
X138463167Y-102799325D01*
X138463158Y-102784546D01*
X138462650Y-102769421D01*
X138461644Y-102753936D01*
X138460140Y-102738083D01*
X138458137Y-102721848D01*
X138455636Y-102705221D01*
X138452635Y-102688192D01*
X138449135Y-102670749D01*
X138445136Y-102652881D01*
X138438055Y-102621877D01*
X138432045Y-102593388D01*
X138427134Y-102567062D01*
X138423348Y-102542544D01*
X138420716Y-102519481D01*
X138419265Y-102497520D01*
X138419024Y-102476306D01*
X138420019Y-102455487D01*
X138422278Y-102434710D01*
X138425829Y-102413619D01*
X138430700Y-102391863D01*
X138436919Y-102369087D01*
X138444512Y-102344937D01*
X138453508Y-102319062D01*
X138463934Y-102291106D01*
X138475818Y-102260716D01*
X138508178Y-102183082D01*
X138546403Y-102099383D01*
X138593484Y-102004030D01*
X138652413Y-101891431D01*
X138726181Y-101755995D01*
X138817778Y-101592131D01*
X138930196Y-101394249D01*
X139066426Y-101156756D01*
X139140802Y-101026374D01*
X139213087Y-100897670D01*
X139275018Y-100785480D01*
X139318328Y-100704638D01*
X139348142Y-100646164D01*
X139360072Y-100621297D01*
X139370098Y-100598649D01*
X139378279Y-100577695D01*
X139384676Y-100557913D01*
X139387224Y-100548299D01*
X139389349Y-100538782D01*
X139391057Y-100529297D01*
X139392357Y-100519778D01*
X139393256Y-100510160D01*
X139393761Y-100500379D01*
X139393880Y-100490368D01*
X139393620Y-100480063D01*
X139391995Y-100458306D01*
X139388946Y-100434587D01*
X139384532Y-100408384D01*
X139378814Y-100379172D01*
X139363706Y-100309638D01*
X139345412Y-100223710D01*
X139338488Y-100186932D01*
X139333082Y-100153850D01*
X139329223Y-100124141D01*
X139326938Y-100097483D01*
X139326256Y-100073554D01*
X139327205Y-100052033D01*
X139329812Y-100032596D01*
X139334106Y-100014923D01*
X139340114Y-99998691D01*
X139347864Y-99983578D01*
X139357385Y-99969263D01*
X139368704Y-99955423D01*
X139381849Y-99941736D01*
X139396849Y-99927880D01*
X139443594Y-99886109D01*
X139487257Y-99845876D01*
X139528012Y-99806958D01*
X139566037Y-99769129D01*
X139601507Y-99732162D01*
X139634599Y-99695832D01*
X139665489Y-99659914D01*
X139694354Y-99624183D01*
X139721369Y-99588412D01*
X139746712Y-99552375D01*
X139770557Y-99515849D01*
X139793082Y-99478606D01*
X139814464Y-99440421D01*
X139834877Y-99401069D01*
X139854499Y-99360323D01*
X139873505Y-99317960D01*
X139882711Y-99297216D01*
X139891879Y-99277641D01*
X139901198Y-99258982D01*
X139910859Y-99240984D01*
X139921048Y-99223393D01*
X139931956Y-99205958D01*
X139943772Y-99188423D01*
X139956684Y-99170535D01*
X139970881Y-99152042D01*
X139986552Y-99132688D01*
X140003887Y-99112221D01*
X140023074Y-99090387D01*
X140044301Y-99066932D01*
X140067759Y-99041603D01*
X140122120Y-98984309D01*
X140155245Y-98949405D01*
X140183345Y-98918902D01*
X140206962Y-98892119D01*
X140226640Y-98868375D01*
X140235171Y-98857429D01*
X140242921Y-98846988D01*
X140249958Y-98836965D01*
X140256348Y-98827277D01*
X140262161Y-98817838D01*
X140267464Y-98808562D01*
X140272325Y-98799365D01*
X140276811Y-98790161D01*
X140286343Y-98769397D01*
X140290208Y-98760442D01*
X140293512Y-98752172D01*
X140296286Y-98744387D01*
X140298559Y-98736888D01*
X140300362Y-98729474D01*
X140301725Y-98721945D01*
X140302679Y-98714103D01*
X140303252Y-98705746D01*
X140303475Y-98696676D01*
X140303378Y-98686692D01*
X140302992Y-98675595D01*
X140302347Y-98663185D01*
X140300397Y-98633625D01*
X140298780Y-98600672D01*
X140298589Y-98568153D01*
X140299823Y-98536076D01*
X140302480Y-98504445D01*
X140306557Y-98473269D01*
X140312053Y-98442555D01*
X140318966Y-98412307D01*
X140327293Y-98382534D01*
X140337033Y-98353243D01*
X140348183Y-98324439D01*
X140360741Y-98296129D01*
X140374706Y-98268320D01*
X140390075Y-98241020D01*
X140406846Y-98214234D01*
X140425017Y-98187969D01*
X140444587Y-98162231D01*
X140459912Y-98143895D01*
X140476557Y-98125694D01*
X140494380Y-98107724D01*
X140513240Y-98090082D01*
X140532997Y-98072864D01*
X140553511Y-98056168D01*
X140574641Y-98040090D01*
X140596246Y-98024726D01*
X140618186Y-98010173D01*
X140640320Y-97996527D01*
X140662507Y-97983886D01*
X140684607Y-97972346D01*
X140706479Y-97962004D01*
X140727983Y-97952955D01*
X140748978Y-97945298D01*
X140769323Y-97939128D01*
X140773434Y-97937935D01*
X140777551Y-97936580D01*
X140781648Y-97935078D01*
X140785698Y-97933444D01*
X140789675Y-97931694D01*
X140793553Y-97929842D01*
X140797304Y-97927906D01*
X140800902Y-97925899D01*
X140804321Y-97923838D01*
X140807535Y-97921737D01*
X140810516Y-97919612D01*
X140813238Y-97917479D01*
X140815675Y-97915352D01*
X140817800Y-97913248D01*
X140819587Y-97911182D01*
X140821010Y-97909168D01*
X140840791Y-97876036D01*
X140863233Y-97836130D01*
X140888018Y-97790068D01*
X140914831Y-97738468D01*
X140943354Y-97681947D01*
X140973271Y-97621126D01*
X141004266Y-97556621D01*
X141036023Y-97489051D01*
X141129639Y-97291944D01*
X141215149Y-97122883D01*
X141256426Y-97046501D01*
X141297553Y-96974286D01*
X141339152Y-96905292D01*
X141381850Y-96838571D01*
X141426271Y-96773174D01*
X141473041Y-96708155D01*
X141522784Y-96642564D01*
X141576125Y-96575456D01*
X141696102Y-96432891D01*
X141837971Y-96272880D01*
X141871443Y-96236072D01*
X141902351Y-96202840D01*
X141931193Y-96172836D01*
X141958465Y-96145712D01*
X141984664Y-96121119D01*
X142010286Y-96098709D01*
X142035829Y-96078134D01*
X142061788Y-96059046D01*
X142088661Y-96041097D01*
X142116944Y-96023938D01*
X142147133Y-96007221D01*
X142179727Y-95990599D01*
X142215221Y-95973722D01*
X142254111Y-95956243D01*
X142296895Y-95937813D01*
X142344070Y-95918084D01*
X142383126Y-95901616D01*
X142419382Y-95885643D01*
X142453047Y-95870021D01*
X142484328Y-95854603D01*
X142513433Y-95839241D01*
X142540569Y-95823790D01*
X142565943Y-95808103D01*
X142589764Y-95792035D01*
X142612238Y-95775437D01*
X142633574Y-95758164D01*
X142653979Y-95740070D01*
X142673660Y-95721008D01*
X142692824Y-95700831D01*
X142711681Y-95679394D01*
X142730436Y-95656549D01*
X142749298Y-95632151D01*
X142843670Y-95511322D01*
X142944950Y-95390259D01*
X143052577Y-95269432D01*
X143165992Y-95149309D01*
X143284636Y-95030360D01*
X143407949Y-94913053D01*
X143535373Y-94797858D01*
X143666348Y-94685243D01*
X143800315Y-94575678D01*
X143936713Y-94469631D01*
X144074985Y-94367572D01*
X144214571Y-94269969D01*
X144354912Y-94177292D01*
X144495447Y-94090010D01*
X144635619Y-94008591D01*
X144774867Y-93933505D01*
X144817236Y-93911185D01*
X144836127Y-93900841D01*
X144853898Y-93890754D01*
X144870855Y-93880711D01*
X144887304Y-93870496D01*
X144903550Y-93859894D01*
X144919900Y-93848692D01*
X144936661Y-93836674D01*
X144954138Y-93823625D01*
X144972637Y-93809331D01*
X144992465Y-93793578D01*
X145037330Y-93756833D01*
X145091183Y-93711673D01*
X145304969Y-93533671D01*
X145338689Y-93506364D01*
X146689348Y-93506364D01*
X146689995Y-93516782D01*
X146691336Y-93526772D01*
X146693377Y-93536372D01*
X146696125Y-93545624D01*
X146699587Y-93554566D01*
X146703770Y-93563240D01*
X146708681Y-93571685D01*
X146714326Y-93579940D01*
X146720712Y-93588046D01*
X146727847Y-93596044D01*
X146737159Y-93605457D01*
X146746945Y-93614480D01*
X146757188Y-93623112D01*
X146767875Y-93631349D01*
X146778989Y-93639186D01*
X146790515Y-93646623D01*
X146814744Y-93660279D01*
X146840440Y-93672291D01*
X146867482Y-93682636D01*
X146895746Y-93691288D01*
X146925111Y-93698222D01*
X146955456Y-93703415D01*
X146986658Y-93706840D01*
X147018596Y-93708474D01*
X147051148Y-93708291D01*
X147084191Y-93706267D01*
X147117605Y-93702377D01*
X147151267Y-93696596D01*
X147185055Y-93688900D01*
X147184973Y-93688898D01*
X147212216Y-93681453D01*
X147238982Y-93673193D01*
X147265311Y-93664093D01*
X147291242Y-93654132D01*
X147316816Y-93643286D01*
X147342071Y-93631533D01*
X147367049Y-93618849D01*
X147391788Y-93605213D01*
X147416329Y-93590600D01*
X147440712Y-93574989D01*
X147464976Y-93558356D01*
X147489161Y-93540678D01*
X147513307Y-93521933D01*
X147537454Y-93502098D01*
X147561642Y-93481150D01*
X147585911Y-93459066D01*
X147608109Y-93438776D01*
X147618110Y-93430021D01*
X147627586Y-93422066D01*
X147636695Y-93414815D01*
X147645591Y-93408174D01*
X147654431Y-93402045D01*
X147663371Y-93396335D01*
X147672566Y-93390948D01*
X147682172Y-93385787D01*
X147692346Y-93380759D01*
X147703243Y-93375767D01*
X147715019Y-93370716D01*
X147727831Y-93365510D01*
X147757182Y-93354254D01*
X147807815Y-93334853D01*
X147830013Y-93325888D01*
X147850416Y-93317248D01*
X147869234Y-93308810D01*
X147886679Y-93300451D01*
X147902963Y-93292048D01*
X147918297Y-93283477D01*
X147932893Y-93274615D01*
X147946963Y-93265339D01*
X147960718Y-93255525D01*
X147974371Y-93245051D01*
X147988131Y-93233793D01*
X148002212Y-93221628D01*
X148032182Y-93194082D01*
X148049669Y-93178151D01*
X148069928Y-93160781D01*
X148092234Y-93142531D01*
X148115861Y-93123960D01*
X148140084Y-93105629D01*
X148164178Y-93088096D01*
X148187416Y-93071922D01*
X148209073Y-93057665D01*
X148312202Y-92992027D01*
X148312346Y-92991844D01*
X148312461Y-92991511D01*
X148312605Y-92990411D01*
X148312638Y-92988759D01*
X148312563Y-92986585D01*
X148312384Y-92983921D01*
X148312105Y-92980798D01*
X148311264Y-92973299D01*
X148310072Y-92964338D01*
X148308559Y-92954165D01*
X148306759Y-92943028D01*
X148304702Y-92931178D01*
X148303288Y-92922842D01*
X148302084Y-92914552D01*
X148301092Y-92906239D01*
X148300313Y-92897836D01*
X148299749Y-92889273D01*
X148299402Y-92880481D01*
X148299273Y-92871394D01*
X148299364Y-92861941D01*
X148299677Y-92852054D01*
X148300213Y-92841665D01*
X148300973Y-92830705D01*
X148301960Y-92819105D01*
X148304618Y-92793713D01*
X148308202Y-92764941D01*
X148312235Y-92732585D01*
X148315183Y-92704008D01*
X148316839Y-92679006D01*
X148317117Y-92667782D01*
X148316994Y-92657376D01*
X148316444Y-92647762D01*
X148315440Y-92638914D01*
X148313957Y-92630807D01*
X148311968Y-92623416D01*
X148309448Y-92616714D01*
X148306371Y-92610677D01*
X148302710Y-92605280D01*
X148298439Y-92600496D01*
X148293533Y-92596300D01*
X148287965Y-92592667D01*
X148281710Y-92589571D01*
X148274741Y-92586986D01*
X148267032Y-92584888D01*
X148258558Y-92583251D01*
X148249291Y-92582049D01*
X148239207Y-92581257D01*
X148216482Y-92580800D01*
X148190172Y-92581677D01*
X148160071Y-92583684D01*
X148125969Y-92586616D01*
X148068020Y-92592533D01*
X148042173Y-92595720D01*
X148018043Y-92599163D01*
X147995355Y-92602938D01*
X147973831Y-92607124D01*
X147953198Y-92611796D01*
X147933178Y-92617033D01*
X147913496Y-92622912D01*
X147893877Y-92629510D01*
X147874043Y-92636904D01*
X147853720Y-92645172D01*
X147832632Y-92654390D01*
X147810502Y-92664636D01*
X147762016Y-92688521D01*
X147736592Y-92700985D01*
X147709209Y-92713637D01*
X147680729Y-92726127D01*
X147652012Y-92738105D01*
X147623921Y-92749221D01*
X147597317Y-92759124D01*
X147573062Y-92767465D01*
X147552016Y-92773893D01*
X147504661Y-92788560D01*
X147455098Y-92806586D01*
X147403819Y-92827664D01*
X147351320Y-92851487D01*
X147298092Y-92877745D01*
X147244629Y-92906133D01*
X147191425Y-92936342D01*
X147138974Y-92968063D01*
X147087768Y-93000990D01*
X147038301Y-93034815D01*
X146991067Y-93069230D01*
X146946559Y-93103927D01*
X146905270Y-93138599D01*
X146867694Y-93172937D01*
X146834325Y-93206634D01*
X146805655Y-93239383D01*
X146794587Y-93253187D01*
X146784285Y-93266446D01*
X146774710Y-93279228D01*
X146765826Y-93291600D01*
X146757595Y-93303630D01*
X146749981Y-93315384D01*
X146742947Y-93326931D01*
X146736456Y-93338337D01*
X146730471Y-93349671D01*
X146724955Y-93360998D01*
X146719871Y-93372387D01*
X146715182Y-93383906D01*
X146710851Y-93395620D01*
X146706841Y-93407599D01*
X146703116Y-93419908D01*
X146699638Y-93432616D01*
X146696269Y-93446445D01*
X146693554Y-93459606D01*
X146691497Y-93472139D01*
X146690105Y-93484083D01*
X146689387Y-93495478D01*
X146689348Y-93506364D01*
X145338689Y-93506364D01*
X145523363Y-93356815D01*
X145748429Y-93179543D01*
X145982230Y-93000294D01*
X146226829Y-92817506D01*
X146484291Y-92629618D01*
X146756680Y-92435067D01*
X147046058Y-92232291D01*
X147299072Y-92056524D01*
X147784072Y-91814362D01*
X148249524Y-91586108D01*
X148710650Y-91368442D01*
X149170172Y-91160210D01*
X149630815Y-90960254D01*
X150095303Y-90767419D01*
X150566359Y-90580547D01*
X151046708Y-90398482D01*
X151539072Y-90220068D01*
X151775431Y-90137575D01*
X152005416Y-90060928D01*
X152280786Y-89973303D01*
X152653301Y-89857873D01*
X153097144Y-89719785D01*
X153426760Y-89613703D01*
X153658588Y-89534191D01*
X153742970Y-89502700D01*
X153809071Y-89475814D01*
X153826602Y-89467856D01*
X153849664Y-89456746D01*
X153877274Y-89442992D01*
X153908445Y-89427100D01*
X153977539Y-89390928D01*
X154049070Y-89352284D01*
X154159533Y-89292698D01*
X154207483Y-89268111D01*
X154251733Y-89246696D01*
X154293152Y-89228229D01*
X154332605Y-89212485D01*
X154370959Y-89199241D01*
X154409081Y-89188272D01*
X154447837Y-89179355D01*
X154488094Y-89172264D01*
X154530718Y-89166776D01*
X154576577Y-89162666D01*
X154626537Y-89159711D01*
X154681465Y-89157686D01*
X154809689Y-89155529D01*
X155090307Y-89152880D01*
X155169687Y-89109967D01*
X155236033Y-89074679D01*
X155298423Y-89042670D01*
X155356563Y-89014071D01*
X155410162Y-88989016D01*
X155458928Y-88967637D01*
X155502569Y-88950066D01*
X155540792Y-88936436D01*
X155573305Y-88926880D01*
X155590986Y-88922740D01*
X155609116Y-88919165D01*
X155627776Y-88916155D01*
X155647052Y-88913710D01*
X155667025Y-88911830D01*
X155687778Y-88910515D01*
X155709395Y-88909767D01*
X155731959Y-88909586D01*
X155755552Y-88909971D01*
X155780258Y-88910923D01*
X155806160Y-88912443D01*
X155833341Y-88914531D01*
X155861883Y-88917188D01*
X155891870Y-88920413D01*
X155956511Y-88928570D01*
X156053951Y-88941909D01*
X156401510Y-88864803D01*
X156712444Y-88797242D01*
X156971949Y-88743087D01*
X157049831Y-88727218D01*
X157112318Y-88713578D01*
X157162616Y-88701089D01*
X157184196Y-88694939D01*
X157203930Y-88688673D01*
X157222220Y-88682156D01*
X157239467Y-88675254D01*
X157256071Y-88667830D01*
X157272433Y-88659752D01*
X157288953Y-88650884D01*
X157306033Y-88641090D01*
X157343474Y-88618191D01*
X157357137Y-88609823D01*
X157371288Y-88601538D01*
X157385517Y-88593551D01*
X157399413Y-88586078D01*
X157412567Y-88579334D01*
X157424569Y-88573536D01*
X157435008Y-88568899D01*
X157443474Y-88565637D01*
X157449216Y-88564100D01*
X157457153Y-88562664D01*
X157467338Y-88561326D01*
X157479826Y-88560085D01*
X157511929Y-88557886D01*
X157553894Y-88556052D01*
X157606157Y-88554567D01*
X157669151Y-88553417D01*
X157743310Y-88552586D01*
X157829069Y-88552058D01*
X158179070Y-88550608D01*
X158404070Y-88503823D01*
X158570145Y-88470393D01*
X158743637Y-88437512D01*
X159097585Y-88375910D01*
X159435333Y-88324033D01*
X159588575Y-88303310D01*
X159726299Y-88286900D01*
X159833531Y-88275197D01*
X159980864Y-88399038D01*
X160226751Y-88610614D01*
X160470143Y-88829827D01*
X160710486Y-89056122D01*
X160947232Y-89288946D01*
X161179827Y-89527744D01*
X161407721Y-89771963D01*
X161630364Y-90021049D01*
X161847202Y-90274448D01*
X161894193Y-90330797D01*
X161913004Y-90353892D01*
X161928900Y-90374170D01*
X161942036Y-90392055D01*
X161952570Y-90407975D01*
X161956909Y-90415330D01*
X161960655Y-90422354D01*
X161963829Y-90429100D01*
X161966449Y-90435620D01*
X161968535Y-90441968D01*
X161970107Y-90448198D01*
X161971183Y-90454362D01*
X161971784Y-90460514D01*
X161971929Y-90466707D01*
X161971637Y-90472995D01*
X161970928Y-90479430D01*
X161969822Y-90486065D01*
X161966493Y-90500153D01*
X161961808Y-90515682D01*
X161948990Y-90552772D01*
X161941395Y-90573032D01*
X161932998Y-90593043D01*
X161923813Y-90612794D01*
X161913853Y-90632275D01*
X161903130Y-90651476D01*
X161891658Y-90670386D01*
X161866515Y-90707289D01*
X161838529Y-90742903D01*
X161807800Y-90777141D01*
X161774433Y-90809920D01*
X161738529Y-90841156D01*
X161700192Y-90870764D01*
X161659525Y-90898659D01*
X161616630Y-90924759D01*
X161571611Y-90948978D01*
X161524569Y-90971233D01*
X161475609Y-90991438D01*
X161424832Y-91009510D01*
X161372341Y-91025364D01*
X161355049Y-91029329D01*
X161333973Y-91032828D01*
X161309726Y-91035856D01*
X161282922Y-91038406D01*
X161224103Y-91042047D01*
X161162427Y-91043700D01*
X161102809Y-91043313D01*
X161050160Y-91040836D01*
X161027985Y-91038797D01*
X161009395Y-91036217D01*
X160995004Y-91033088D01*
X160985426Y-91029404D01*
X160981274Y-91027195D01*
X160977030Y-91025243D01*
X160972685Y-91023551D01*
X160968232Y-91022122D01*
X160963664Y-91020957D01*
X160958973Y-91020060D01*
X160954151Y-91019431D01*
X160949191Y-91019075D01*
X160944086Y-91018994D01*
X160938826Y-91019189D01*
X160933406Y-91019663D01*
X160927817Y-91020420D01*
X160922053Y-91021460D01*
X160916104Y-91022787D01*
X160909964Y-91024402D01*
X160903625Y-91026309D01*
X160897079Y-91028510D01*
X160890319Y-91031007D01*
X160876127Y-91036900D01*
X160860987Y-91044006D01*
X160844839Y-91052345D01*
X160827621Y-91061937D01*
X160809274Y-91072801D01*
X160789735Y-91084957D01*
X160768946Y-91098423D01*
X160733095Y-91121709D01*
X160699366Y-91142876D01*
X160667579Y-91161991D01*
X160637553Y-91179121D01*
X160609109Y-91194333D01*
X160582066Y-91207694D01*
X160556245Y-91219270D01*
X160531464Y-91229129D01*
X160507544Y-91237337D01*
X160484304Y-91243961D01*
X160461565Y-91249068D01*
X160439146Y-91252725D01*
X160416868Y-91254998D01*
X160394549Y-91255955D01*
X160372009Y-91255662D01*
X160349070Y-91254186D01*
X160329345Y-91252183D01*
X160310076Y-91249679D01*
X160291190Y-91246649D01*
X160272615Y-91243066D01*
X160254277Y-91238904D01*
X160236104Y-91234138D01*
X160218023Y-91228743D01*
X160199960Y-91222692D01*
X160181843Y-91215959D01*
X160163600Y-91208520D01*
X160145156Y-91200347D01*
X160126440Y-91191416D01*
X160107378Y-91181701D01*
X160087898Y-91171175D01*
X160067926Y-91159814D01*
X160047390Y-91147591D01*
X160032020Y-91138799D01*
X160012863Y-91128722D01*
X159990684Y-91117717D01*
X159966246Y-91106136D01*
X159940312Y-91094336D01*
X159913647Y-91082670D01*
X159887014Y-91071493D01*
X159861178Y-91061159D01*
X159824158Y-91046960D01*
X159793695Y-91035869D01*
X159780423Y-91031371D01*
X159768190Y-91027508D01*
X159756797Y-91024233D01*
X159746044Y-91021500D01*
X159735730Y-91019260D01*
X159725657Y-91017467D01*
X159715625Y-91016074D01*
X159705432Y-91015032D01*
X159694880Y-91014296D01*
X159683769Y-91013818D01*
X159659069Y-91013446D01*
X159634728Y-91013636D01*
X159623943Y-91013985D01*
X159613866Y-91014551D01*
X159604333Y-91015371D01*
X159595183Y-91016481D01*
X159586255Y-91017918D01*
X159577384Y-91019718D01*
X159568411Y-91021917D01*
X159559171Y-91024551D01*
X159549503Y-91027657D01*
X159539246Y-91031271D01*
X159528235Y-91035430D01*
X159516311Y-91040170D01*
X159489069Y-91051536D01*
X159407755Y-91085702D01*
X159338638Y-91114039D01*
X159316485Y-91123598D01*
X159295717Y-91133995D01*
X159276326Y-91145238D01*
X159267146Y-91151180D01*
X159258306Y-91157338D01*
X159249808Y-91163712D01*
X159241649Y-91170304D01*
X159233829Y-91177115D01*
X159226347Y-91184147D01*
X159219203Y-91191401D01*
X159212394Y-91198877D01*
X159205920Y-91206578D01*
X159199781Y-91214504D01*
X159193974Y-91222657D01*
X159188501Y-91231037D01*
X159183358Y-91239647D01*
X159178546Y-91248488D01*
X159174064Y-91257560D01*
X159169910Y-91266865D01*
X159166084Y-91276404D01*
X159162585Y-91286179D01*
X159159412Y-91296190D01*
X159156563Y-91306439D01*
X159151838Y-91327657D01*
X159148400Y-91349841D01*
X159146244Y-91373002D01*
X159145604Y-91403897D01*
X159147513Y-91435327D01*
X159151836Y-91467037D01*
X159158437Y-91498771D01*
X159167182Y-91530275D01*
X159177936Y-91561292D01*
X159190562Y-91591568D01*
X159204926Y-91620846D01*
X159220894Y-91648873D01*
X159238329Y-91675391D01*
X159257096Y-91700147D01*
X159277061Y-91722885D01*
X159298088Y-91743349D01*
X159320043Y-91761284D01*
X159342789Y-91776435D01*
X159354417Y-91782886D01*
X159366192Y-91788546D01*
X159374209Y-91791993D01*
X159382049Y-91795122D01*
X159389829Y-91797951D01*
X159397667Y-91800498D01*
X159405680Y-91802783D01*
X159413987Y-91804823D01*
X159422706Y-91806638D01*
X159431953Y-91808247D01*
X159441846Y-91809667D01*
X159452504Y-91810917D01*
X159464043Y-91812016D01*
X159476583Y-91812983D01*
X159490239Y-91813837D01*
X159505131Y-91814595D01*
X159539089Y-91815900D01*
X159588505Y-91816777D01*
X159612037Y-91816525D01*
X159635314Y-91815735D01*
X159658732Y-91814350D01*
X159682689Y-91812313D01*
X159707579Y-91809566D01*
X159733801Y-91806052D01*
X159761750Y-91801713D01*
X159791823Y-91796492D01*
X159859927Y-91783173D01*
X159941285Y-91765635D01*
X160039068Y-91743418D01*
X160127575Y-91723377D01*
X160201602Y-91707867D01*
X160266339Y-91696316D01*
X160296845Y-91691846D01*
X160326974Y-91688149D01*
X160357376Y-91685156D01*
X160388698Y-91682793D01*
X160456699Y-91679675D01*
X160536167Y-91678220D01*
X160632292Y-91677856D01*
X160776491Y-91676873D01*
X160901191Y-91673572D01*
X161011163Y-91667383D01*
X161111180Y-91657734D01*
X161158947Y-91651434D01*
X161206015Y-91644054D01*
X161300438Y-91625771D01*
X161399222Y-91602315D01*
X161507139Y-91573112D01*
X161596257Y-91549565D01*
X161681107Y-91530540D01*
X161761675Y-91516033D01*
X161837945Y-91506042D01*
X161909903Y-91500565D01*
X161977534Y-91499598D01*
X162040823Y-91503139D01*
X162099755Y-91511185D01*
X162154316Y-91523734D01*
X162204491Y-91540783D01*
X162250265Y-91562329D01*
X162291623Y-91588370D01*
X162328550Y-91618902D01*
X162361033Y-91653924D01*
X162389055Y-91693432D01*
X162412602Y-91737424D01*
X162418414Y-91751488D01*
X162423534Y-91766850D01*
X162427956Y-91783349D01*
X162431677Y-91800823D01*
X162434692Y-91819110D01*
X162436997Y-91838050D01*
X162438589Y-91857482D01*
X162439463Y-91877244D01*
X162439614Y-91897175D01*
X162439039Y-91917114D01*
X162437734Y-91936899D01*
X162435693Y-91956370D01*
X162432914Y-91975364D01*
X162429392Y-91993722D01*
X162425122Y-92011281D01*
X162420101Y-92027880D01*
X162409080Y-92058088D01*
X162396526Y-92087741D01*
X162382500Y-92116769D01*
X162367063Y-92145101D01*
X162350277Y-92172665D01*
X162332202Y-92199392D01*
X162312900Y-92225209D01*
X162292432Y-92250048D01*
X162270860Y-92273835D01*
X162248244Y-92296502D01*
X162224646Y-92317976D01*
X162200128Y-92338187D01*
X162174749Y-92357065D01*
X162148573Y-92374538D01*
X162121659Y-92390536D01*
X162094069Y-92404987D01*
X162009070Y-92446576D01*
X161809069Y-92452536D01*
X161721514Y-92455719D01*
X161633125Y-92460086D01*
X161543450Y-92465676D01*
X161452035Y-92472524D01*
X161358425Y-92480668D01*
X161262167Y-92490145D01*
X161162807Y-92500991D01*
X161059893Y-92513244D01*
X160838508Y-92539060D01*
X160741740Y-92548838D01*
X160649487Y-92556912D01*
X160558170Y-92563568D01*
X160464213Y-92569094D01*
X160254068Y-92577905D01*
X160019730Y-92587069D01*
X159918000Y-92592603D01*
X159814072Y-92599712D01*
X159698582Y-92609098D01*
X159562162Y-92621467D01*
X159189068Y-92657968D01*
X158756458Y-92700547D01*
X158517668Y-92721050D01*
X158448358Y-92724530D01*
X158400387Y-92724301D01*
X158364715Y-92720964D01*
X158332304Y-92715124D01*
X158314201Y-92710875D01*
X158291782Y-92704705D01*
X158265932Y-92696907D01*
X158237537Y-92687774D01*
X158207485Y-92677599D01*
X158176661Y-92666675D01*
X158145951Y-92655293D01*
X158116242Y-92643747D01*
X158030596Y-92610506D01*
X157954719Y-92583177D01*
X157886754Y-92561308D01*
X157855159Y-92552280D01*
X157824846Y-92544447D01*
X157795584Y-92537752D01*
X157767140Y-92532140D01*
X157739284Y-92527554D01*
X157711782Y-92523937D01*
X157684404Y-92521232D01*
X157656916Y-92519383D01*
X157629088Y-92518334D01*
X157600687Y-92518028D01*
X157558200Y-92519112D01*
X157517539Y-92522264D01*
X157478594Y-92527548D01*
X157441257Y-92535026D01*
X157405419Y-92544762D01*
X157370971Y-92556817D01*
X157337803Y-92571255D01*
X157305808Y-92588139D01*
X157274875Y-92607531D01*
X157244897Y-92629494D01*
X157215764Y-92654091D01*
X157187368Y-92681385D01*
X157159599Y-92711438D01*
X157132348Y-92744313D01*
X157105507Y-92780074D01*
X157078966Y-92818782D01*
X157064584Y-92840582D01*
X157051697Y-92859652D01*
X157039897Y-92876161D01*
X157034278Y-92883508D01*
X157028779Y-92890278D01*
X157023350Y-92896492D01*
X157017938Y-92902171D01*
X157012494Y-92907337D01*
X157006968Y-92912011D01*
X157001307Y-92916213D01*
X156995461Y-92919965D01*
X156989380Y-92923288D01*
X156983013Y-92926203D01*
X156976309Y-92928732D01*
X156969218Y-92930895D01*
X156961688Y-92932713D01*
X156953669Y-92934208D01*
X156945110Y-92935401D01*
X156935961Y-92936313D01*
X156926171Y-92936965D01*
X156915688Y-92937378D01*
X156892443Y-92937573D01*
X156865822Y-92937066D01*
X156800823Y-92934623D01*
X156713517Y-92929677D01*
X156629299Y-92922257D01*
X156548355Y-92912430D01*
X156470870Y-92900264D01*
X156397028Y-92885828D01*
X156327015Y-92869187D01*
X156261016Y-92850412D01*
X156199216Y-92829569D01*
X156141800Y-92806726D01*
X156088953Y-92781950D01*
X156040860Y-92755311D01*
X155997706Y-92726875D01*
X155959677Y-92696711D01*
X155926956Y-92664886D01*
X155899730Y-92631468D01*
X155878183Y-92596524D01*
X155873011Y-92585505D01*
X155868671Y-92573883D01*
X155865158Y-92561718D01*
X155862469Y-92549072D01*
X155860599Y-92536002D01*
X155859544Y-92522570D01*
X155859301Y-92508836D01*
X155859865Y-92494859D01*
X155861231Y-92480699D01*
X155863397Y-92466417D01*
X155866358Y-92452072D01*
X155870110Y-92437725D01*
X155874648Y-92423435D01*
X155879969Y-92409262D01*
X155886069Y-92395267D01*
X155892943Y-92381509D01*
X155901176Y-92366902D01*
X155910358Y-92352190D01*
X155920473Y-92337383D01*
X155931506Y-92322490D01*
X155956271Y-92292493D01*
X155984534Y-92262281D01*
X156016180Y-92231937D01*
X156051091Y-92201544D01*
X156089150Y-92171185D01*
X156130241Y-92140941D01*
X156174246Y-92110897D01*
X156221049Y-92081135D01*
X156270533Y-92051738D01*
X156322580Y-92022789D01*
X156377075Y-91994370D01*
X156433899Y-91966565D01*
X156492936Y-91939456D01*
X156554070Y-91913125D01*
X156567684Y-91907155D01*
X156581463Y-91900568D01*
X156595027Y-91893581D01*
X156607999Y-91886412D01*
X156620000Y-91879278D01*
X156630651Y-91872395D01*
X156635352Y-91869115D01*
X156639573Y-91865980D01*
X156643268Y-91863015D01*
X156646389Y-91860249D01*
X156653761Y-91852793D01*
X156660661Y-91844798D01*
X156667074Y-91836307D01*
X156672985Y-91827366D01*
X156678379Y-91818019D01*
X156683241Y-91808311D01*
X156687557Y-91798288D01*
X156691311Y-91787993D01*
X156694488Y-91777471D01*
X156697074Y-91766767D01*
X156699054Y-91755926D01*
X156700413Y-91744992D01*
X156701136Y-91734010D01*
X156701208Y-91723026D01*
X156700614Y-91712083D01*
X156699878Y-91705819D01*
X157093209Y-91705819D01*
X157093500Y-91722193D01*
X157094661Y-91737944D01*
X157096702Y-91752932D01*
X157099629Y-91767020D01*
X157103452Y-91780072D01*
X157108178Y-91791948D01*
X157113815Y-91802513D01*
X157119063Y-91810420D01*
X157125191Y-91818624D01*
X157132124Y-91827058D01*
X157139785Y-91835658D01*
X157148096Y-91844357D01*
X157156982Y-91853090D01*
X157166365Y-91861791D01*
X157176169Y-91870395D01*
X157186316Y-91878836D01*
X157196731Y-91887049D01*
X157207337Y-91894968D01*
X157218056Y-91902528D01*
X157228812Y-91909662D01*
X157239528Y-91916306D01*
X157250128Y-91922394D01*
X157260534Y-91927861D01*
X157269683Y-91932000D01*
X157279494Y-91935639D01*
X157289893Y-91938776D01*
X157300802Y-91941409D01*
X157312147Y-91943535D01*
X157323851Y-91945152D01*
X157335839Y-91946259D01*
X157348034Y-91946854D01*
X157360362Y-91946933D01*
X157372747Y-91946496D01*
X157385111Y-91945539D01*
X157397381Y-91944062D01*
X157409479Y-91942062D01*
X157421330Y-91939536D01*
X157432859Y-91936483D01*
X157443989Y-91932901D01*
X157444019Y-91932900D01*
X157456266Y-91928143D01*
X157469129Y-91922305D01*
X157482569Y-91915416D01*
X157496549Y-91907505D01*
X157511028Y-91898603D01*
X157525969Y-91888739D01*
X157541332Y-91877943D01*
X157557079Y-91866243D01*
X157573171Y-91853670D01*
X157589568Y-91840253D01*
X157606233Y-91826022D01*
X157623126Y-91811007D01*
X157640209Y-91795236D01*
X157657442Y-91778740D01*
X157674787Y-91761548D01*
X157692206Y-91743690D01*
X157775335Y-91657034D01*
X157932205Y-91706685D01*
X158057201Y-91745657D01*
X158100306Y-91758369D01*
X158133072Y-91767213D01*
X158157442Y-91772676D01*
X158175359Y-91775244D01*
X158182505Y-91775594D01*
X158188766Y-91775404D01*
X158199606Y-91773642D01*
X158200984Y-91773130D01*
X158202720Y-91772201D01*
X158207227Y-91769134D01*
X158213045Y-91764522D01*
X158220092Y-91758449D01*
X158228286Y-91750996D01*
X158237546Y-91742246D01*
X158258936Y-91721182D01*
X158283606Y-91695915D01*
X158310904Y-91667104D01*
X158340175Y-91635406D01*
X158370764Y-91601479D01*
X158409705Y-91557478D01*
X158441648Y-91520662D01*
X158467095Y-91490377D01*
X158486549Y-91465967D01*
X158500511Y-91446776D01*
X158505590Y-91438933D01*
X158509484Y-91432149D01*
X158512257Y-91426343D01*
X158513971Y-91421431D01*
X158514689Y-91417333D01*
X158514473Y-91413966D01*
X158513267Y-91407095D01*
X158512271Y-91398542D01*
X158511482Y-91388466D01*
X158510897Y-91377028D01*
X158510326Y-91350699D01*
X158510536Y-91320830D01*
X158511499Y-91288697D01*
X158513193Y-91255574D01*
X158515593Y-91222737D01*
X158518673Y-91191462D01*
X158521178Y-91168663D01*
X158522085Y-91159285D01*
X158522737Y-91151111D01*
X158523112Y-91144033D01*
X158523192Y-91137941D01*
X158522956Y-91132729D01*
X158522385Y-91128288D01*
X158521459Y-91124509D01*
X158520158Y-91121284D01*
X158518462Y-91118506D01*
X158516352Y-91116066D01*
X158513808Y-91113856D01*
X158510810Y-91111767D01*
X158507338Y-91109692D01*
X158503372Y-91107522D01*
X158494221Y-91104840D01*
X158478444Y-91102757D01*
X158456803Y-91101248D01*
X158430056Y-91100292D01*
X158364289Y-91099941D01*
X158287221Y-91101517D01*
X158204933Y-91104834D01*
X158123504Y-91109704D01*
X158049014Y-91115941D01*
X158016271Y-91119513D01*
X157987543Y-91123357D01*
X157937103Y-91132168D01*
X157876800Y-91144674D01*
X157810352Y-91159925D01*
X157741477Y-91176968D01*
X157673893Y-91194853D01*
X157611318Y-91212626D01*
X157557470Y-91229337D01*
X157516068Y-91244035D01*
X157483859Y-91257466D01*
X157452110Y-91272165D01*
X157420949Y-91288027D01*
X157390506Y-91304948D01*
X157360911Y-91322827D01*
X157332295Y-91341559D01*
X157304785Y-91361040D01*
X157278513Y-91381168D01*
X157253608Y-91401838D01*
X157230200Y-91422949D01*
X157208418Y-91444395D01*
X157188392Y-91466074D01*
X157170252Y-91487882D01*
X157154128Y-91509716D01*
X157140149Y-91531472D01*
X157128445Y-91553047D01*
X157121262Y-91568851D01*
X157114878Y-91585268D01*
X157109299Y-91602162D01*
X157104535Y-91619394D01*
X157100593Y-91636827D01*
X157097481Y-91654324D01*
X157095208Y-91671746D01*
X157093781Y-91688957D01*
X157093209Y-91705819D01*
X156699878Y-91705819D01*
X156699339Y-91701226D01*
X156697610Y-91691196D01*
X156695380Y-91680782D01*
X156692696Y-91670095D01*
X156689605Y-91659247D01*
X156686156Y-91648349D01*
X156682396Y-91637513D01*
X156678373Y-91626850D01*
X156674133Y-91616473D01*
X156669725Y-91606493D01*
X156665196Y-91597021D01*
X156660594Y-91588169D01*
X156655966Y-91580050D01*
X156651360Y-91572773D01*
X156646824Y-91566452D01*
X156642404Y-91561198D01*
X156638149Y-91557122D01*
X156634916Y-91554693D01*
X156631416Y-91552564D01*
X156627635Y-91550739D01*
X156623558Y-91549224D01*
X156619169Y-91548023D01*
X156614453Y-91547140D01*
X156609394Y-91546580D01*
X156603977Y-91546347D01*
X156598187Y-91546448D01*
X156592008Y-91546885D01*
X156585425Y-91547664D01*
X156578423Y-91548789D01*
X156570986Y-91550265D01*
X156563099Y-91552097D01*
X156554747Y-91554289D01*
X156545913Y-91556845D01*
X156526742Y-91563072D01*
X156505464Y-91570814D01*
X156481955Y-91580107D01*
X156456092Y-91590990D01*
X156427753Y-91603500D01*
X156396815Y-91617672D01*
X156363154Y-91633546D01*
X156326649Y-91651156D01*
X156242315Y-91691861D01*
X156207183Y-91708287D01*
X156175998Y-91722257D01*
X156148206Y-91733892D01*
X156123250Y-91743312D01*
X156100573Y-91750638D01*
X156079620Y-91755992D01*
X156059834Y-91759494D01*
X156040659Y-91761265D01*
X156021540Y-91761426D01*
X156001920Y-91760098D01*
X155981243Y-91757401D01*
X155958953Y-91753458D01*
X155907309Y-91742311D01*
X155872303Y-91734698D01*
X155839556Y-91728453D01*
X155807255Y-91723387D01*
X155773591Y-91719312D01*
X155736750Y-91716039D01*
X155694923Y-91713379D01*
X155646298Y-91711143D01*
X155589064Y-91709143D01*
X155389063Y-91702883D01*
X155294064Y-91758735D01*
X155141471Y-91844662D01*
X154980369Y-91927939D01*
X154810026Y-92008874D01*
X154629710Y-92087775D01*
X154438688Y-92164949D01*
X154236228Y-92240705D01*
X154021597Y-92315350D01*
X153794064Y-92389192D01*
X153701760Y-92418956D01*
X153616767Y-92447775D01*
X153548522Y-92472359D01*
X153523628Y-92482036D01*
X153506460Y-92489420D01*
X153491312Y-92496993D01*
X153475536Y-92505678D01*
X153459184Y-92515437D01*
X153442305Y-92526226D01*
X153424952Y-92538007D01*
X153407174Y-92550739D01*
X153389022Y-92564381D01*
X153370546Y-92578891D01*
X153351798Y-92594231D01*
X153332828Y-92610359D01*
X153313687Y-92627234D01*
X153294425Y-92644816D01*
X153275093Y-92663064D01*
X153255742Y-92681938D01*
X153236422Y-92701397D01*
X153217184Y-92721400D01*
X153179295Y-92762908D01*
X153145511Y-92803009D01*
X153115848Y-92841638D01*
X153090319Y-92878731D01*
X153068940Y-92914224D01*
X153051725Y-92948055D01*
X153044684Y-92964326D01*
X153038689Y-92980158D01*
X153033743Y-92995541D01*
X153029847Y-93010470D01*
X153027002Y-93024934D01*
X153025212Y-93038926D01*
X153024477Y-93052439D01*
X153024800Y-93065464D01*
X153026183Y-93077993D01*
X153028626Y-93090019D01*
X153032133Y-93101533D01*
X153036704Y-93112527D01*
X153042342Y-93122993D01*
X153049049Y-93132924D01*
X153056826Y-93142311D01*
X153065675Y-93151147D01*
X153075598Y-93159423D01*
X153086597Y-93167131D01*
X153098674Y-93174264D01*
X153111830Y-93180813D01*
X153118782Y-93183884D01*
X153125586Y-93186665D01*
X153132320Y-93189168D01*
X153139063Y-93191406D01*
X153145892Y-93193389D01*
X153152886Y-93195131D01*
X153160123Y-93196643D01*
X153167680Y-93197937D01*
X153175637Y-93199026D01*
X153184070Y-93199920D01*
X153193059Y-93200632D01*
X153202681Y-93201175D01*
X153213014Y-93201560D01*
X153224137Y-93201798D01*
X153249064Y-93201886D01*
X153292041Y-93200057D01*
X153335945Y-93195105D01*
X153380586Y-93187125D01*
X153425771Y-93176215D01*
X153471309Y-93162471D01*
X153517009Y-93145991D01*
X153562678Y-93126872D01*
X153608125Y-93105210D01*
X153653159Y-93081102D01*
X153697588Y-93054645D01*
X153741220Y-93025937D01*
X153783865Y-92995073D01*
X153825329Y-92962151D01*
X153865423Y-92927268D01*
X153903953Y-92890521D01*
X153940729Y-92852006D01*
X153961233Y-92829944D01*
X153970837Y-92819989D01*
X153980070Y-92810701D01*
X153988977Y-92802043D01*
X153997605Y-92793976D01*
X154005997Y-92786463D01*
X154014201Y-92779466D01*
X154022260Y-92772948D01*
X154030222Y-92766870D01*
X154038130Y-92761194D01*
X154046031Y-92755884D01*
X154053969Y-92750901D01*
X154061992Y-92746207D01*
X154070143Y-92741765D01*
X154078468Y-92737537D01*
X154106437Y-92724814D01*
X154136755Y-92712905D01*
X154169313Y-92701825D01*
X154204003Y-92691591D01*
X154240715Y-92682218D01*
X154279340Y-92673723D01*
X154319769Y-92666120D01*
X154361893Y-92659427D01*
X154405603Y-92653658D01*
X154450790Y-92648830D01*
X154497345Y-92644958D01*
X154545159Y-92642059D01*
X154594123Y-92640147D01*
X154644128Y-92639240D01*
X154695065Y-92639352D01*
X154746824Y-92640500D01*
X154814247Y-92643265D01*
X154843126Y-92645057D01*
X154869154Y-92647231D01*
X154892610Y-92649869D01*
X154913773Y-92653053D01*
X154932919Y-92656865D01*
X154950329Y-92661387D01*
X154966280Y-92666701D01*
X154981050Y-92672890D01*
X154994918Y-92680036D01*
X155008162Y-92688220D01*
X155021061Y-92697524D01*
X155033892Y-92708032D01*
X155046935Y-92719824D01*
X155060467Y-92732983D01*
X155070816Y-92743626D01*
X155080640Y-92754365D01*
X155090006Y-92765321D01*
X155098982Y-92776613D01*
X155107635Y-92788363D01*
X155116034Y-92800689D01*
X155124247Y-92813714D01*
X155132340Y-92827556D01*
X155140383Y-92842338D01*
X155148443Y-92858178D01*
X155156588Y-92875198D01*
X155164886Y-92893517D01*
X155173404Y-92913257D01*
X155182211Y-92934537D01*
X155191375Y-92957479D01*
X155200962Y-92982202D01*
X155209460Y-93003619D01*
X155220330Y-93029788D01*
X155247393Y-93092319D01*
X155278566Y-93161673D01*
X155310267Y-93229729D01*
X155330208Y-93272295D01*
X155347448Y-93310683D01*
X155361979Y-93345227D01*
X155373791Y-93376264D01*
X155382875Y-93404127D01*
X155389220Y-93429153D01*
X155391364Y-93440707D01*
X155392819Y-93451677D01*
X155393585Y-93462105D01*
X155393662Y-93472034D01*
X155393046Y-93481504D01*
X155391738Y-93490558D01*
X155389737Y-93499239D01*
X155387040Y-93507587D01*
X155383648Y-93515644D01*
X155379558Y-93523454D01*
X155374770Y-93531056D01*
X155369282Y-93538495D01*
X155363094Y-93545810D01*
X155356203Y-93553045D01*
X155340312Y-93567439D01*
X155321600Y-93582014D01*
X155300057Y-93597103D01*
X155258001Y-93624392D01*
X155210650Y-93653182D01*
X155157882Y-93683529D01*
X155099577Y-93715492D01*
X154965873Y-93784491D01*
X154808571Y-93860632D01*
X154626705Y-93944371D01*
X154419309Y-94036164D01*
X154185418Y-94136466D01*
X153924065Y-94245732D01*
X153534820Y-94406182D01*
X153305143Y-94498867D01*
X153234518Y-94525927D01*
X153185038Y-94543401D01*
X153150451Y-94553741D01*
X153124508Y-94559398D01*
X153108877Y-94561645D01*
X153090357Y-94563493D01*
X153069493Y-94564924D01*
X153046827Y-94565919D01*
X153022903Y-94566461D01*
X152998264Y-94566532D01*
X152973454Y-94566113D01*
X152949015Y-94565187D01*
X152898806Y-94561412D01*
X152851095Y-94555170D01*
X152805914Y-94546485D01*
X152763297Y-94535380D01*
X152723278Y-94521879D01*
X152685889Y-94506005D01*
X152651166Y-94487783D01*
X152619140Y-94467237D01*
X152589845Y-94444389D01*
X152576233Y-94432109D01*
X152563316Y-94419264D01*
X152551099Y-94405854D01*
X152539585Y-94391885D01*
X152528779Y-94377357D01*
X152518686Y-94362276D01*
X152509309Y-94346642D01*
X152500652Y-94330460D01*
X152485518Y-94296462D01*
X152473315Y-94260305D01*
X152464079Y-94222013D01*
X152461537Y-94207921D01*
X152459635Y-94194547D01*
X152458406Y-94181765D01*
X152457884Y-94169451D01*
X152458102Y-94157476D01*
X152459092Y-94145716D01*
X152460888Y-94134045D01*
X152463523Y-94122335D01*
X152467030Y-94110462D01*
X152471441Y-94098298D01*
X152476790Y-94085719D01*
X152483110Y-94072597D01*
X152490434Y-94058807D01*
X152498795Y-94044223D01*
X152508225Y-94028718D01*
X152518759Y-94012167D01*
X152527777Y-93997710D01*
X152536200Y-93983181D01*
X152543842Y-93968972D01*
X152550517Y-93955477D01*
X152556041Y-93943087D01*
X152558313Y-93937429D01*
X152560227Y-93932195D01*
X152561761Y-93927433D01*
X152562892Y-93923193D01*
X152563595Y-93919524D01*
X152563849Y-93916474D01*
X152563707Y-93912696D01*
X152563230Y-93908702D01*
X152562426Y-93904506D01*
X152561307Y-93900123D01*
X152558164Y-93890848D01*
X152553883Y-93880987D01*
X152548546Y-93870648D01*
X152542235Y-93859941D01*
X152535033Y-93848976D01*
X152527022Y-93837863D01*
X152518285Y-93826710D01*
X152508904Y-93815628D01*
X152498962Y-93804726D01*
X152488540Y-93794114D01*
X152477722Y-93783901D01*
X152466590Y-93774197D01*
X152455226Y-93765110D01*
X152443712Y-93756752D01*
X152416756Y-93739658D01*
X152388766Y-93724704D01*
X152359900Y-93711896D01*
X152330319Y-93701237D01*
X152300181Y-93692733D01*
X152269645Y-93686388D01*
X152238870Y-93682207D01*
X152208017Y-93680196D01*
X152177243Y-93680358D01*
X152146708Y-93682698D01*
X152116572Y-93687222D01*
X152086993Y-93693934D01*
X152058131Y-93702839D01*
X152030145Y-93713941D01*
X152003193Y-93727246D01*
X151977436Y-93742758D01*
X151961556Y-93753834D01*
X151946611Y-93765434D01*
X151932581Y-93777595D01*
X151919444Y-93790353D01*
X151907179Y-93803746D01*
X151895763Y-93817809D01*
X151885176Y-93832579D01*
X151875396Y-93848093D01*
X151866401Y-93864386D01*
X151858169Y-93881496D01*
X151850680Y-93899460D01*
X151843912Y-93918313D01*
X151837842Y-93938092D01*
X151832450Y-93958834D01*
X151827714Y-93980575D01*
X151823612Y-94003352D01*
X151821906Y-94014583D01*
X151820509Y-94025735D01*
X151819441Y-94037121D01*
X151818719Y-94049052D01*
X151818359Y-94061841D01*
X151818380Y-94075799D01*
X151818799Y-94091238D01*
X151819634Y-94108470D01*
X151820902Y-94127808D01*
X151822621Y-94149562D01*
X151827481Y-94201572D01*
X151834355Y-94266993D01*
X151843382Y-94348323D01*
X151854379Y-94448126D01*
X151861966Y-94525438D01*
X151865997Y-94583578D01*
X151866632Y-94606497D01*
X151866322Y-94625868D01*
X151865049Y-94642106D01*
X151862794Y-94655626D01*
X151859539Y-94666843D01*
X151855265Y-94676173D01*
X151849954Y-94684030D01*
X151843587Y-94690829D01*
X151836146Y-94696985D01*
X151827612Y-94702914D01*
X151812095Y-94712297D01*
X151795783Y-94720571D01*
X151778524Y-94727743D01*
X151760165Y-94733821D01*
X151740555Y-94738812D01*
X151719542Y-94742723D01*
X151696972Y-94745563D01*
X151672694Y-94747338D01*
X151646556Y-94748057D01*
X151618404Y-94747727D01*
X151588088Y-94746355D01*
X151555455Y-94743948D01*
X151520352Y-94740516D01*
X151482628Y-94736064D01*
X151442129Y-94730601D01*
X151398705Y-94724133D01*
X151295530Y-94708914D01*
X151198584Y-94696441D01*
X151103872Y-94686439D01*
X151007402Y-94678634D01*
X150905180Y-94672749D01*
X150793212Y-94668510D01*
X150667506Y-94665642D01*
X150524066Y-94663869D01*
X150499954Y-94663860D01*
X150477548Y-94664283D01*
X150456722Y-94665177D01*
X150437348Y-94666576D01*
X150419299Y-94668518D01*
X150402447Y-94671039D01*
X150386667Y-94674175D01*
X150371829Y-94677964D01*
X150357807Y-94682440D01*
X150344474Y-94687642D01*
X150331702Y-94693604D01*
X150319364Y-94700365D01*
X150307332Y-94707960D01*
X150295480Y-94716425D01*
X150283681Y-94725798D01*
X150271806Y-94736114D01*
X150259388Y-94747648D01*
X150248234Y-94758750D01*
X150238281Y-94769598D01*
X150233735Y-94774983D01*
X150229466Y-94780369D01*
X150225466Y-94785781D01*
X150221727Y-94791239D01*
X150218242Y-94796767D01*
X150215002Y-94802385D01*
X150211999Y-94808117D01*
X150209227Y-94813983D01*
X150206676Y-94820007D01*
X150204340Y-94826211D01*
X150202209Y-94832616D01*
X150200278Y-94839244D01*
X150198537Y-94846118D01*
X150196979Y-94853260D01*
X150195596Y-94860692D01*
X150194380Y-94868435D01*
X150192419Y-94884946D01*
X150191032Y-94902970D01*
X150190158Y-94922683D01*
X150189733Y-94944262D01*
X150189695Y-94967883D01*
X150190127Y-94992448D01*
X150191170Y-95016225D01*
X150192853Y-95039329D01*
X150195209Y-95061875D01*
X150198269Y-95083979D01*
X150202063Y-95105755D01*
X150206622Y-95127319D01*
X150211977Y-95148786D01*
X150218158Y-95170270D01*
X150225198Y-95191888D01*
X150233127Y-95213753D01*
X150241976Y-95235982D01*
X150251775Y-95258689D01*
X150262556Y-95281990D01*
X150274349Y-95305999D01*
X150287186Y-95330832D01*
X150298134Y-95351939D01*
X150306792Y-95369616D01*
X150310303Y-95377292D01*
X150313289Y-95384259D01*
X150315767Y-95390567D01*
X150317752Y-95396265D01*
X150319261Y-95401402D01*
X150320309Y-95406029D01*
X150320912Y-95410194D01*
X150321086Y-95413947D01*
X150320848Y-95417338D01*
X150320213Y-95420417D01*
X150319197Y-95423232D01*
X150317816Y-95425833D01*
X150315380Y-95429072D01*
X150312101Y-95432277D01*
X150307956Y-95435453D01*
X150302923Y-95438603D01*
X150296978Y-95441731D01*
X150290100Y-95444843D01*
X150273452Y-95451028D01*
X150252795Y-95457191D01*
X150227949Y-95463363D01*
X150198731Y-95469577D01*
X150164960Y-95475864D01*
X150126454Y-95482256D01*
X150083032Y-95488785D01*
X150034511Y-95495483D01*
X149980711Y-95502382D01*
X149921448Y-95509514D01*
X149856542Y-95516910D01*
X149709073Y-95532623D01*
X149558465Y-95548514D01*
X149438378Y-95562364D01*
X149344972Y-95574939D01*
X149274408Y-95587007D01*
X149246491Y-95593091D01*
X149222844Y-95599335D01*
X149202988Y-95605837D01*
X149186442Y-95612691D01*
X149172726Y-95619994D01*
X149161360Y-95627842D01*
X149151864Y-95636330D01*
X149143758Y-95645555D01*
X149141544Y-95648718D01*
X149139037Y-95652936D01*
X149136263Y-95658137D01*
X149133251Y-95664250D01*
X149126625Y-95678931D01*
X149119385Y-95696416D01*
X149111757Y-95716140D01*
X149103964Y-95737539D01*
X149096233Y-95760049D01*
X149088788Y-95783106D01*
X149077012Y-95819213D01*
X149065121Y-95851861D01*
X149052739Y-95881349D01*
X149046247Y-95895002D01*
X149039493Y-95907978D01*
X149032429Y-95920315D01*
X149025009Y-95932049D01*
X149017185Y-95943220D01*
X149008912Y-95953863D01*
X149000142Y-95964017D01*
X148990829Y-95973719D01*
X148980926Y-95983008D01*
X148970385Y-95991919D01*
X148959161Y-96000492D01*
X148947207Y-96008763D01*
X148934475Y-96016771D01*
X148920919Y-96024552D01*
X148906493Y-96032145D01*
X148891149Y-96039586D01*
X148857521Y-96054166D01*
X148819662Y-96068591D01*
X148777198Y-96083164D01*
X148729754Y-96098184D01*
X148676956Y-96113953D01*
X148618597Y-96131366D01*
X148569891Y-96146758D01*
X148530041Y-96160463D01*
X148498252Y-96172817D01*
X148485132Y-96178591D01*
X148473728Y-96184154D01*
X148463941Y-96189546D01*
X148455671Y-96194810D01*
X148448820Y-96199987D01*
X148443287Y-96205119D01*
X148438973Y-96210248D01*
X148435779Y-96215417D01*
X148434838Y-96217584D01*
X148433858Y-96220454D01*
X148432847Y-96223980D01*
X148431814Y-96228114D01*
X148429709Y-96238017D01*
X148427608Y-96249783D01*
X148425573Y-96263033D01*
X148423670Y-96277386D01*
X148421960Y-96292464D01*
X148420508Y-96307887D01*
X148417137Y-96338976D01*
X148412294Y-96369533D01*
X148405971Y-96399564D01*
X148398162Y-96429074D01*
X148388860Y-96458070D01*
X148378059Y-96486557D01*
X148365753Y-96514540D01*
X148351933Y-96542027D01*
X148336594Y-96569022D01*
X148319729Y-96595532D01*
X148301332Y-96621562D01*
X148281395Y-96647119D01*
X148259912Y-96672207D01*
X148236875Y-96696833D01*
X148212280Y-96721003D01*
X148186118Y-96744723D01*
X148158383Y-96767998D01*
X148129069Y-96790834D01*
X148098169Y-96813237D01*
X148065675Y-96835213D01*
X148031582Y-96856767D01*
X147995883Y-96877906D01*
X147919638Y-96918961D01*
X147836887Y-96958424D01*
X147747578Y-96996342D01*
X147651655Y-97032761D01*
X147549067Y-97067728D01*
X147519144Y-97077884D01*
X147490843Y-97088489D01*
X147464118Y-97099577D01*
X147438921Y-97111185D01*
X147415208Y-97123346D01*
X147392933Y-97136096D01*
X147372048Y-97149470D01*
X147352510Y-97163503D01*
X147334270Y-97178230D01*
X147317285Y-97193686D01*
X147301507Y-97209905D01*
X147286890Y-97226923D01*
X147273390Y-97244775D01*
X147260959Y-97263496D01*
X147249552Y-97283120D01*
X147239123Y-97303683D01*
X147234581Y-97314108D01*
X147229605Y-97327038D01*
X147218564Y-97359621D01*
X147206424Y-97399840D01*
X147193610Y-97446101D01*
X147180548Y-97496812D01*
X147167663Y-97550382D01*
X147155379Y-97605216D01*
X147144122Y-97659722D01*
X147142186Y-97669302D01*
X147140297Y-97677895D01*
X147138353Y-97685644D01*
X147136250Y-97692691D01*
X147133886Y-97699179D01*
X147132572Y-97702258D01*
X147131155Y-97705251D01*
X147129620Y-97708176D01*
X147127955Y-97711050D01*
X147126147Y-97713892D01*
X147124183Y-97716718D01*
X147122050Y-97719548D01*
X147119736Y-97722399D01*
X147114509Y-97728235D01*
X147108399Y-97734369D01*
X147101303Y-97740943D01*
X147093118Y-97748101D01*
X147083740Y-97755986D01*
X147060992Y-97774504D01*
X147006222Y-97819797D01*
X146950701Y-97867993D01*
X146894647Y-97918849D01*
X146838279Y-97972121D01*
X146781815Y-98027569D01*
X146725473Y-98084949D01*
X146669471Y-98144020D01*
X146614029Y-98204538D01*
X146559363Y-98266262D01*
X146505693Y-98328949D01*
X146453237Y-98392357D01*
X146402213Y-98456244D01*
X146352839Y-98520366D01*
X146305333Y-98584483D01*
X146259915Y-98648350D01*
X146216802Y-98711727D01*
X146150456Y-98809715D01*
X146082455Y-98906402D01*
X146012546Y-99002120D01*
X145940471Y-99097199D01*
X145865976Y-99191971D01*
X145788805Y-99286764D01*
X145708704Y-99381911D01*
X145625416Y-99477742D01*
X145593166Y-99514457D01*
X145568592Y-99543124D01*
X145558858Y-99554956D01*
X145550653Y-99565396D01*
X145543847Y-99574650D01*
X145538309Y-99582924D01*
X145533910Y-99590425D01*
X145530520Y-99597360D01*
X145528007Y-99603935D01*
X145526244Y-99610356D01*
X145525098Y-99616830D01*
X145524441Y-99623564D01*
X145524143Y-99630764D01*
X145524072Y-99638636D01*
X145523708Y-99650235D01*
X145522649Y-99663236D01*
X145520946Y-99677436D01*
X145518651Y-99692634D01*
X145515813Y-99708629D01*
X145512483Y-99725220D01*
X145504553Y-99759382D01*
X145495266Y-99793510D01*
X145485027Y-99825991D01*
X145479678Y-99841111D01*
X145474244Y-99855216D01*
X145468775Y-99868104D01*
X145463322Y-99879573D01*
X145454198Y-99896617D01*
X145444564Y-99912808D01*
X145434424Y-99928143D01*
X145423781Y-99942619D01*
X145412641Y-99956231D01*
X145401006Y-99968977D01*
X145388882Y-99980853D01*
X145376272Y-99991855D01*
X145363182Y-100001980D01*
X145349614Y-100011225D01*
X145335573Y-100019587D01*
X145321063Y-100027061D01*
X145306089Y-100033644D01*
X145290655Y-100039334D01*
X145274765Y-100044126D01*
X145258422Y-100048016D01*
X145204072Y-100059297D01*
X145204072Y-100122867D01*
X145203642Y-100153644D01*
X145202363Y-100183343D01*
X145200251Y-100211908D01*
X145197323Y-100239284D01*
X145193594Y-100265418D01*
X145189081Y-100290256D01*
X145183801Y-100313743D01*
X145177768Y-100335824D01*
X145171001Y-100356447D01*
X145163515Y-100375555D01*
X145155326Y-100393096D01*
X145146451Y-100409015D01*
X145136905Y-100423257D01*
X145126706Y-100435768D01*
X145115869Y-100446494D01*
X145104410Y-100455381D01*
X145096299Y-100460437D01*
X145092119Y-100462716D01*
X145087840Y-100464828D01*
X145083447Y-100466774D01*
X145078928Y-100468555D01*
X145074268Y-100470169D01*
X145069456Y-100471617D01*
X145064478Y-100472900D01*
X145059320Y-100474017D01*
X145053969Y-100474969D01*
X145048413Y-100475755D01*
X145036629Y-100476832D01*
X145023862Y-100477248D01*
X145010007Y-100477004D01*
X144994957Y-100476100D01*
X144978607Y-100474539D01*
X144960852Y-100472320D01*
X144941584Y-100469444D01*
X144920698Y-100465911D01*
X144898089Y-100461724D01*
X144873650Y-100456881D01*
X144848248Y-100451939D01*
X144824297Y-100447781D01*
X144801726Y-100444412D01*
X144780465Y-100441836D01*
X144760444Y-100440058D01*
X144741592Y-100439082D01*
X144723839Y-100438913D01*
X144707115Y-100439555D01*
X144691350Y-100441013D01*
X144676473Y-100443292D01*
X144662414Y-100446396D01*
X144649103Y-100450330D01*
X144636470Y-100455097D01*
X144624444Y-100460704D01*
X144612956Y-100467153D01*
X144601934Y-100474451D01*
X144597085Y-100478213D01*
X144591425Y-100483131D01*
X144585025Y-100489126D01*
X144577952Y-100496119D01*
X144570278Y-100504030D01*
X144562072Y-100512780D01*
X144544342Y-100532481D01*
X144525318Y-100554587D01*
X144505559Y-100578465D01*
X144485622Y-100603480D01*
X144466064Y-100629000D01*
X144431040Y-100675269D01*
X144398994Y-100716433D01*
X144369198Y-100752950D01*
X144340928Y-100785274D01*
X144313459Y-100813863D01*
X144299798Y-100826899D01*
X144286066Y-100839173D01*
X144272170Y-100850740D01*
X144258022Y-100861659D01*
X144243530Y-100871985D01*
X144228603Y-100881777D01*
X144213151Y-100891091D01*
X144197084Y-100899985D01*
X144180309Y-100908514D01*
X144162738Y-100916737D01*
X144124842Y-100932491D01*
X144082669Y-100947702D01*
X144035495Y-100962826D01*
X143982593Y-100978320D01*
X143923240Y-100994640D01*
X143856709Y-101012242D01*
X143781084Y-101032345D01*
X143718153Y-101049902D01*
X143666294Y-101065493D01*
X143623887Y-101079701D01*
X143589313Y-101093105D01*
X143574456Y-101099687D01*
X143560950Y-101106287D01*
X143548591Y-101112976D01*
X143537178Y-101119828D01*
X143516377Y-101134309D01*
X143507416Y-101141337D01*
X143499312Y-101148170D01*
X143495557Y-101151564D01*
X143491989Y-101154970D01*
X143488598Y-101158409D01*
X143485375Y-101161900D01*
X143482310Y-101165464D01*
X143479395Y-101169121D01*
X143476620Y-101172892D01*
X143473975Y-101176796D01*
X143471452Y-101180854D01*
X143469042Y-101185087D01*
X143466734Y-101189514D01*
X143464520Y-101194155D01*
X143462391Y-101199032D01*
X143460337Y-101204164D01*
X143458349Y-101209571D01*
X143456418Y-101215275D01*
X143454535Y-101221294D01*
X143452690Y-101227650D01*
X143449078Y-101241451D01*
X143445508Y-101256841D01*
X143441907Y-101273981D01*
X143438200Y-101293034D01*
X143434314Y-101314162D01*
X143427173Y-101351542D01*
X143419385Y-101387875D01*
X143410908Y-101423263D01*
X143401700Y-101457810D01*
X143391720Y-101491618D01*
X143380925Y-101524790D01*
X143369274Y-101557430D01*
X143356725Y-101589639D01*
X143343236Y-101621522D01*
X143328765Y-101653181D01*
X143313271Y-101684719D01*
X143296712Y-101716238D01*
X143279046Y-101747843D01*
X143260230Y-101779635D01*
X143240224Y-101811719D01*
X143218985Y-101844195D01*
X143205946Y-101864183D01*
X143193781Y-101883765D01*
X143182757Y-101902447D01*
X143173140Y-101919732D01*
X143165198Y-101935126D01*
X143159194Y-101948133D01*
X143157003Y-101953587D01*
X143155397Y-101958258D01*
X143154409Y-101962085D01*
X143154072Y-101965005D01*
X143154172Y-101968744D01*
X143154474Y-101972573D01*
X143154982Y-101976496D01*
X143155699Y-101980521D01*
X143157778Y-101988897D01*
X143160739Y-101997748D01*
X143164613Y-102007121D01*
X143169430Y-102017063D01*
X143175219Y-102027622D01*
X143182010Y-102038845D01*
X143189833Y-102050779D01*
X143198718Y-102063472D01*
X143208695Y-102076969D01*
X143219793Y-102091320D01*
X143232042Y-102106571D01*
X143245472Y-102122768D01*
X143260113Y-102139961D01*
X143275995Y-102158194D01*
X143309860Y-102197383D01*
X143323971Y-102214377D01*
X143336296Y-102229823D01*
X143346903Y-102243861D01*
X143355865Y-102256630D01*
X143363252Y-102268270D01*
X143369133Y-102278920D01*
X143373580Y-102288721D01*
X143376663Y-102297811D01*
X143378452Y-102306330D01*
X143379018Y-102314418D01*
X143378431Y-102322215D01*
X143376763Y-102329859D01*
X143374082Y-102337490D01*
X143370461Y-102345248D01*
X143363240Y-102358405D01*
X143355087Y-102371681D01*
X143345891Y-102385187D01*
X143335540Y-102399032D01*
X143323922Y-102413327D01*
X143310926Y-102428182D01*
X143296441Y-102443708D01*
X143280354Y-102460015D01*
X143262555Y-102477212D01*
X143242932Y-102495410D01*
X143221373Y-102514721D01*
X143197767Y-102535252D01*
X143172002Y-102557116D01*
X143143967Y-102580422D01*
X143080641Y-102631803D01*
X143007280Y-102691451D01*
X142943799Y-102745020D01*
X142889677Y-102793027D01*
X142844394Y-102835985D01*
X142824905Y-102855732D01*
X142807429Y-102874409D01*
X142791904Y-102892082D01*
X142778263Y-102908814D01*
X142766441Y-102924671D01*
X142756374Y-102939716D01*
X142747996Y-102954013D01*
X142741242Y-102967627D01*
X142738022Y-102975000D01*
X142735186Y-102982011D01*
X142732722Y-102988859D01*
X142730613Y-102995739D01*
X142728847Y-103002851D01*
X142727409Y-103010389D01*
X142726285Y-103018552D01*
X142725461Y-103027537D01*
X142724923Y-103037539D01*
X142724656Y-103048758D01*
X142724647Y-103061389D01*
X142724881Y-103075629D01*
X142725344Y-103091676D01*
X142726022Y-103109727D01*
X142727967Y-103152627D01*
X142731224Y-103213946D01*
X142735092Y-103277182D01*
X142739085Y-103334890D01*
X142742718Y-103379621D01*
X142744301Y-103398824D01*
X142745465Y-103417393D01*
X142746215Y-103435284D01*
X142746555Y-103452452D01*
X142746490Y-103468853D01*
X142746025Y-103484441D01*
X142745165Y-103499172D01*
X142743914Y-103513001D01*
X142742278Y-103525885D01*
X142740260Y-103537778D01*
X142737867Y-103548635D01*
X142735102Y-103558413D01*
X142731971Y-103567066D01*
X142728478Y-103574550D01*
X142724628Y-103580820D01*
X142720426Y-103585832D01*
X142719068Y-103587127D01*
X142717646Y-103588358D01*
X142716148Y-103589526D01*
X142714563Y-103590633D01*
X142712877Y-103591682D01*
X142711080Y-103592672D01*
X142709160Y-103593605D01*
X142707103Y-103594484D01*
X142704900Y-103595310D01*
X142702537Y-103596084D01*
X142700004Y-103596807D01*
X142697287Y-103597482D01*
X142694375Y-103598110D01*
X142691256Y-103598692D01*
X142687919Y-103599230D01*
X142684351Y-103599725D01*
X142676475Y-103600595D01*
X142667534Y-103601312D01*
X142657433Y-103601890D01*
X142646076Y-103602340D01*
X142633367Y-103602675D01*
X142619213Y-103602907D01*
X142603517Y-103603049D01*
X142586185Y-103603112D01*
X142561893Y-103603377D01*
X142538898Y-103604114D01*
X142517067Y-103605361D01*
X142496265Y-103607152D01*
X142476356Y-103609522D01*
X142457206Y-103612507D01*
X142438681Y-103616142D01*
X142420645Y-103620462D01*
X142402964Y-103625502D01*
X142385503Y-103631299D01*
X142368128Y-103637886D01*
X142350704Y-103645300D01*
X142333095Y-103653575D01*
X142315168Y-103662747D01*
X142296788Y-103672851D01*
X142277820Y-103683923D01*
X142256064Y-103697576D01*
X142235303Y-103711881D01*
X142215532Y-103726857D01*
X142196746Y-103742526D01*
X142178939Y-103758906D01*
X142162106Y-103776018D01*
X142146242Y-103793882D01*
X142131342Y-103812517D01*
X142117399Y-103831943D01*
X142104409Y-103852180D01*
X142092367Y-103873248D01*
X142081267Y-103895168D01*
X142071104Y-103917958D01*
X142061872Y-103941640D01*
X142053567Y-103966232D01*
X142046183Y-103991754D01*
X142039714Y-104018227D01*
X142034156Y-104045671D01*
X142029503Y-104074105D01*
X142025750Y-104103549D01*
X142022891Y-104134024D01*
X142020921Y-104165548D01*
X142019835Y-104198143D01*
X142019628Y-104231827D01*
X142020294Y-104266621D01*
X142021828Y-104302545D01*
X142027479Y-104377861D01*
X142036538Y-104457935D01*
X142048962Y-104542926D01*
X142057674Y-104594572D01*
X142067857Y-104650291D01*
X142079690Y-104710937D01*
X142093353Y-104777362D01*
X142126888Y-104930965D01*
X142169895Y-105117927D01*
X142194367Y-105225621D01*
X142212267Y-105313836D01*
X142218797Y-105351859D01*
X142223738Y-105386479D01*
X142227109Y-105418183D01*
X142228927Y-105447459D01*
X142229211Y-105474797D01*
X142227979Y-105500685D01*
X142225249Y-105525612D01*
X142221039Y-105550066D01*
X142215367Y-105574536D01*
X142208251Y-105599510D01*
X142199710Y-105625478D01*
X142189762Y-105652926D01*
X142143072Y-105779149D01*
X142103148Y-105891440D01*
X142069272Y-105992218D01*
X142040728Y-106083896D01*
X142016798Y-106168890D01*
X141996763Y-106249616D01*
X141979908Y-106328489D01*
X141965514Y-106407926D01*
X141959570Y-106442235D01*
X141953946Y-106470864D01*
X141951109Y-106483485D01*
X141948176Y-106495213D01*
X141945088Y-106506220D01*
X141941789Y-106516684D01*
X141938218Y-106526778D01*
X141934317Y-106536679D01*
X141930029Y-106546561D01*
X141925293Y-106556599D01*
X141920053Y-106566969D01*
X141914248Y-106577847D01*
X141900713Y-106601823D01*
X141875073Y-106648378D01*
X141851287Y-106696201D01*
X141829370Y-106745212D01*
X141809340Y-106795332D01*
X141791212Y-106846484D01*
X141775004Y-106898588D01*
X141760731Y-106951565D01*
X141748411Y-107005337D01*
X141738059Y-107059824D01*
X141729693Y-107114949D01*
X141723328Y-107170631D01*
X141718982Y-107226794D01*
X141716670Y-107283356D01*
X141716410Y-107340241D01*
X141718217Y-107397369D01*
X141722109Y-107454661D01*
X141725208Y-107485884D01*
X141729464Y-107521674D01*
X141734687Y-107560772D01*
X141740686Y-107601919D01*
X141747271Y-107643855D01*
X141754250Y-107685321D01*
X141761432Y-107725056D01*
X141768628Y-107761802D01*
X141783213Y-107830326D01*
X141789924Y-107859075D01*
X141796450Y-107884530D01*
X141802947Y-107906974D01*
X141809565Y-107926695D01*
X141816460Y-107943977D01*
X141823782Y-107959106D01*
X141831687Y-107972368D01*
X141840326Y-107984047D01*
X141849854Y-107994430D01*
X141860422Y-108003801D01*
X141872185Y-108012447D01*
X141885295Y-108020652D01*
X141899905Y-108028702D01*
X141916168Y-108036883D01*
X141939738Y-108047830D01*
X141963645Y-108057851D01*
X141988086Y-108066977D01*
X142013258Y-108075239D01*
X142039357Y-108082667D01*
X142066580Y-108089290D01*
X142095122Y-108095139D01*
X142125181Y-108100244D01*
X142156952Y-108104634D01*
X142190633Y-108108342D01*
X142226419Y-108111395D01*
X142264508Y-108113825D01*
X142305095Y-108115662D01*
X142348376Y-108116935D01*
X142394550Y-108117676D01*
X142443811Y-108117913D01*
X142546585Y-108116539D01*
X142649579Y-108112358D01*
X142753630Y-108105278D01*
X142859577Y-108095211D01*
X142968257Y-108082066D01*
X143080507Y-108065753D01*
X143197167Y-108046182D01*
X143319073Y-108023263D01*
X143399940Y-108007548D01*
X143465266Y-107995885D01*
X143493798Y-107991475D01*
X143520480Y-107987961D01*
X143545990Y-107985302D01*
X143571009Y-107983461D01*
X143596214Y-107982396D01*
X143622283Y-107982070D01*
X143649896Y-107982443D01*
X143679731Y-107983475D01*
X143748781Y-107987361D01*
X143834862Y-107993413D01*
X143956223Y-108001274D01*
X144008269Y-108003435D01*
X144055803Y-108004151D01*
X144099758Y-108003225D01*
X144141069Y-108000458D01*
X144180669Y-107995651D01*
X144219490Y-107988608D01*
X144258467Y-107979129D01*
X144298533Y-107967016D01*
X144340621Y-107952071D01*
X144385666Y-107934095D01*
X144434600Y-107912891D01*
X144488357Y-107888261D01*
X144614073Y-107827926D01*
X144707120Y-107783410D01*
X144794137Y-107743290D01*
X144865380Y-107711965D01*
X144892040Y-107700977D01*
X144911100Y-107693837D01*
X144983129Y-107669436D01*
X145111101Y-107688096D01*
X145270614Y-107710048D01*
X145407233Y-107725597D01*
X145468371Y-107730963D01*
X145525484Y-107734719D01*
X145579137Y-107736861D01*
X145629896Y-107737386D01*
X145678328Y-107736291D01*
X145724998Y-107733574D01*
X145770472Y-107729229D01*
X145815316Y-107723255D01*
X145860096Y-107715648D01*
X145905379Y-107706404D01*
X145999715Y-107682996D01*
X146065794Y-107663297D01*
X146140956Y-107637724D01*
X146225290Y-107606239D01*
X146318885Y-107568806D01*
X146421829Y-107525390D01*
X146534211Y-107475952D01*
X146656119Y-107420457D01*
X146787643Y-107358869D01*
X146916211Y-107297919D01*
X147092642Y-107297820D01*
X147199092Y-107296594D01*
X147247171Y-107294976D01*
X147292426Y-107292579D01*
X147335313Y-107289319D01*
X147376286Y-107285115D01*
X147415799Y-107279883D01*
X147454309Y-107273541D01*
X147492269Y-107266007D01*
X147530136Y-107257198D01*
X147568363Y-107247032D01*
X147607406Y-107235425D01*
X147647720Y-107222296D01*
X147689759Y-107207562D01*
X147780835Y-107172948D01*
X147845597Y-107147794D01*
X147901941Y-107126900D01*
X147950394Y-107110111D01*
X147991480Y-107097277D01*
X148025724Y-107088245D01*
X148040445Y-107085107D01*
X148053652Y-107082862D01*
X148065412Y-107081492D01*
X148075790Y-107080978D01*
X148084851Y-107081299D01*
X148092661Y-107082438D01*
X148100292Y-107083755D01*
X148111904Y-107085339D01*
X148126921Y-107087131D01*
X148144768Y-107089071D01*
X148186651Y-107093151D01*
X148232948Y-107097098D01*
X148291207Y-107100529D01*
X148347494Y-107101461D01*
X148401770Y-107099907D01*
X148453994Y-107095882D01*
X148504127Y-107089400D01*
X148552128Y-107080476D01*
X148597958Y-107069122D01*
X148641576Y-107055354D01*
X148682942Y-107039185D01*
X148722016Y-107020630D01*
X148758758Y-106999703D01*
X148793128Y-106976418D01*
X148825086Y-106950789D01*
X148854591Y-106922830D01*
X148881605Y-106892556D01*
X148906086Y-106859981D01*
X148909349Y-106855415D01*
X148912852Y-106850840D01*
X148916565Y-106846283D01*
X148920454Y-106841776D01*
X148924488Y-106837346D01*
X148928634Y-106833025D01*
X148932860Y-106828840D01*
X148937135Y-106824822D01*
X148941425Y-106821000D01*
X148945699Y-106817404D01*
X148949924Y-106814062D01*
X148954069Y-106811005D01*
X148958101Y-106808262D01*
X148961987Y-106805862D01*
X148965697Y-106803835D01*
X148969196Y-106802211D01*
X148982210Y-106797551D01*
X148998044Y-106793321D01*
X149016910Y-106789510D01*
X149039018Y-106786111D01*
X149064580Y-106783114D01*
X149093807Y-106780510D01*
X149126909Y-106778291D01*
X149164098Y-106776448D01*
X149205586Y-106774971D01*
X149251582Y-106773853D01*
X149357947Y-106772654D01*
X149484880Y-106772781D01*
X149634071Y-106774161D01*
X149842301Y-106776033D01*
X149985232Y-106775486D01*
X150036796Y-106774229D01*
X150077537Y-106772277D01*
X150109290Y-106769598D01*
X150133888Y-106766162D01*
X150208708Y-106752912D01*
X150246928Y-106682912D01*
X150270540Y-106641927D01*
X150296031Y-106602059D01*
X150323452Y-106563263D01*
X150352856Y-106525496D01*
X150384291Y-106488713D01*
X150417811Y-106452870D01*
X150453465Y-106417924D01*
X150491304Y-106383830D01*
X150531379Y-106350544D01*
X150573741Y-106318022D01*
X150618441Y-106286220D01*
X150665531Y-106255095D01*
X150715060Y-106224602D01*
X150767080Y-106194696D01*
X150821642Y-106165335D01*
X150878796Y-106136474D01*
X150950360Y-106101703D01*
X150980621Y-106087597D01*
X151008382Y-106075431D01*
X151034530Y-106065020D01*
X151059950Y-106056180D01*
X151085529Y-106048727D01*
X151112153Y-106042476D01*
X151140707Y-106037243D01*
X151172079Y-106032843D01*
X151207153Y-106029093D01*
X151246816Y-106025806D01*
X151291954Y-106022801D01*
X151343453Y-106019890D01*
X151469078Y-106013619D01*
X151723777Y-106002337D01*
X151818097Y-105998933D01*
X151872736Y-105997729D01*
X151946396Y-105997909D01*
X152012735Y-106066609D01*
X152026914Y-106080938D01*
X152041786Y-106095329D01*
X152056910Y-106109394D01*
X152071842Y-106122745D01*
X152086139Y-106134993D01*
X152099358Y-106145750D01*
X152111056Y-106154628D01*
X152116197Y-106158241D01*
X152120791Y-106161239D01*
X152151086Y-106178387D01*
X152182767Y-106193116D01*
X152215637Y-106205430D01*
X152249500Y-106215335D01*
X152284157Y-106222834D01*
X152319413Y-106227933D01*
X152355071Y-106230637D01*
X152390934Y-106230950D01*
X152426806Y-106228877D01*
X152462489Y-106224423D01*
X152497787Y-106217593D01*
X152532502Y-106208392D01*
X152566440Y-106196824D01*
X152599401Y-106182894D01*
X152631191Y-106166608D01*
X152661612Y-106147969D01*
X152674553Y-106139051D01*
X152686654Y-106130111D01*
X152697981Y-106121063D01*
X152708596Y-106111819D01*
X152718563Y-106102292D01*
X152727946Y-106092395D01*
X152736810Y-106082040D01*
X152745217Y-106071141D01*
X152753232Y-106059610D01*
X152760919Y-106047360D01*
X152768340Y-106034305D01*
X152775561Y-106020356D01*
X152782645Y-106005427D01*
X152789656Y-105989430D01*
X152796657Y-105972278D01*
X152803713Y-105953885D01*
X152810931Y-105935106D01*
X152818243Y-105917261D01*
X152825715Y-105900253D01*
X152833412Y-105883984D01*
X152841399Y-105868357D01*
X152849743Y-105853275D01*
X152858508Y-105838642D01*
X152867760Y-105824358D01*
X152877564Y-105810329D01*
X152887986Y-105796455D01*
X152899092Y-105782641D01*
X152910946Y-105768788D01*
X152923614Y-105754800D01*
X152937161Y-105740579D01*
X152951654Y-105726029D01*
X152967157Y-105711051D01*
X152989568Y-105690344D01*
X153012631Y-105670175D01*
X153036376Y-105650525D01*
X153060832Y-105631378D01*
X153086028Y-105612716D01*
X153111993Y-105594520D01*
X153138755Y-105576774D01*
X153166344Y-105559460D01*
X153194788Y-105542559D01*
X153224117Y-105526055D01*
X153254359Y-105509930D01*
X153285543Y-105494166D01*
X153317698Y-105478745D01*
X153350853Y-105463650D01*
X153385037Y-105448863D01*
X153420279Y-105434367D01*
X153474765Y-105413565D01*
X153529196Y-105394820D01*
X153582690Y-105378353D01*
X153634363Y-105364384D01*
X153683333Y-105353136D01*
X153728720Y-105344828D01*
X153749794Y-105341845D01*
X153769640Y-105339681D01*
X153788150Y-105338362D01*
X153805212Y-105337916D01*
X153827932Y-105336488D01*
X153866570Y-105332393D01*
X153919034Y-105325919D01*
X153983232Y-105317354D01*
X154138455Y-105295096D01*
X154315497Y-105267917D01*
X154759552Y-105197917D01*
X154759664Y-105197848D01*
X154759792Y-105197645D01*
X154760095Y-105196846D01*
X154760457Y-105195547D01*
X154760873Y-105193775D01*
X154761850Y-105188920D01*
X154762990Y-105182497D01*
X154764256Y-105174719D01*
X154765613Y-105165804D01*
X154767024Y-105155964D01*
X154768452Y-105145417D01*
X154770353Y-105133341D01*
X154773117Y-105119120D01*
X154776614Y-105103276D01*
X154780712Y-105086333D01*
X154785278Y-105068813D01*
X154790182Y-105051238D01*
X154795290Y-105034131D01*
X154800472Y-105018014D01*
X154808393Y-104995520D01*
X154816837Y-104973754D01*
X154825805Y-104952714D01*
X154835299Y-104932401D01*
X154845319Y-104912813D01*
X154855867Y-104893948D01*
X154866944Y-104875808D01*
X154878551Y-104858390D01*
X154890690Y-104841694D01*
X154903360Y-104825720D01*
X154916564Y-104810466D01*
X154930303Y-104795931D01*
X154944578Y-104782115D01*
X154959389Y-104769017D01*
X154974739Y-104756636D01*
X154990627Y-104744972D01*
X155007056Y-104734023D01*
X155024026Y-104723789D01*
X155041539Y-104714269D01*
X155059596Y-104705462D01*
X155078197Y-104697367D01*
X155097345Y-104689984D01*
X155117040Y-104683312D01*
X155137282Y-104677350D01*
X155158075Y-104672097D01*
X155179418Y-104667553D01*
X155201312Y-104663716D01*
X155223759Y-104660586D01*
X155246761Y-104658162D01*
X155270317Y-104656443D01*
X155319100Y-104655118D01*
X155367407Y-104656127D01*
X155391226Y-104657362D01*
X155414989Y-104659113D01*
X155438823Y-104661401D01*
X155462852Y-104664249D01*
X155487201Y-104667678D01*
X155511997Y-104671710D01*
X155537365Y-104676367D01*
X155563430Y-104681670D01*
X155618155Y-104694302D01*
X155677176Y-104709780D01*
X155741497Y-104728278D01*
X155873896Y-104767749D01*
X156101498Y-104716918D01*
X156321783Y-104665968D01*
X156527619Y-104614917D01*
X156710917Y-104565848D01*
X156791587Y-104542706D01*
X156863590Y-104520841D01*
X156921833Y-104502729D01*
X156972847Y-104487190D01*
X157011134Y-104475879D01*
X157031195Y-104470450D01*
X157037058Y-104469627D01*
X157043342Y-104469546D01*
X157050021Y-104470183D01*
X157057067Y-104471514D01*
X157064452Y-104473516D01*
X157072149Y-104476164D01*
X157080130Y-104479437D01*
X157088368Y-104483309D01*
X157105505Y-104492757D01*
X157123338Y-104504319D01*
X157141648Y-104517808D01*
X157160216Y-104533031D01*
X157178820Y-104549802D01*
X157197241Y-104567929D01*
X157215259Y-104587224D01*
X157232653Y-104607498D01*
X157249205Y-104628560D01*
X157264693Y-104650222D01*
X157278898Y-104672294D01*
X157291599Y-104694587D01*
X157303000Y-104717053D01*
X157307843Y-104727557D01*
X157312082Y-104737620D01*
X157315694Y-104747274D01*
X157318654Y-104756552D01*
X157320938Y-104765488D01*
X157322521Y-104774115D01*
X157323381Y-104782466D01*
X157323492Y-104790574D01*
X157322830Y-104798472D01*
X157321372Y-104806194D01*
X157319092Y-104813772D01*
X157315968Y-104821240D01*
X157311975Y-104828631D01*
X157307088Y-104835978D01*
X157301285Y-104843313D01*
X157294539Y-104850671D01*
X157286828Y-104858085D01*
X157278127Y-104865587D01*
X157268413Y-104873211D01*
X157257660Y-104880989D01*
X157245845Y-104888956D01*
X157232944Y-104897143D01*
X157218932Y-104905585D01*
X157203786Y-104914315D01*
X157169993Y-104932768D01*
X157131372Y-104952769D01*
X157087731Y-104974582D01*
X157026241Y-105005678D01*
X156973661Y-105033956D01*
X156950548Y-105047153D01*
X156929464Y-105059784D01*
X156910346Y-105071895D01*
X156893126Y-105083531D01*
X156877738Y-105094739D01*
X156864118Y-105105565D01*
X156852199Y-105116055D01*
X156841915Y-105126255D01*
X156833200Y-105136211D01*
X156825990Y-105145969D01*
X156820217Y-105155576D01*
X156815817Y-105165076D01*
X156814624Y-105168560D01*
X156813304Y-105173219D01*
X156810339Y-105185748D01*
X156807033Y-105202036D01*
X156803496Y-105221456D01*
X156799838Y-105243382D01*
X156796171Y-105267185D01*
X156792604Y-105292240D01*
X156789248Y-105317920D01*
X156781150Y-105377445D01*
X156772209Y-105432463D01*
X156762314Y-105483422D01*
X156751350Y-105530765D01*
X156739206Y-105574941D01*
X156725769Y-105616395D01*
X156710927Y-105655572D01*
X156694567Y-105692920D01*
X156686149Y-105710253D01*
X156677586Y-105726646D01*
X156668845Y-105742133D01*
X156659895Y-105756748D01*
X156650705Y-105770525D01*
X156641243Y-105783498D01*
X156631477Y-105795700D01*
X156621377Y-105807167D01*
X156610911Y-105817931D01*
X156600047Y-105828027D01*
X156588754Y-105837488D01*
X156577001Y-105846350D01*
X156564756Y-105854645D01*
X156551988Y-105862407D01*
X156538665Y-105869672D01*
X156524756Y-105876471D01*
X156516080Y-105880409D01*
X156507900Y-105883932D01*
X156500088Y-105887062D01*
X156492518Y-105889821D01*
X156485061Y-105892231D01*
X156477590Y-105894312D01*
X156469977Y-105896086D01*
X156462097Y-105897574D01*
X156453820Y-105898798D01*
X156445019Y-105899780D01*
X156435568Y-105900540D01*
X156425339Y-105901100D01*
X156414204Y-105901482D01*
X156402035Y-105901707D01*
X156374090Y-105901771D01*
X156352428Y-105901330D01*
X156327235Y-105900249D01*
X156299418Y-105898599D01*
X156269885Y-105896452D01*
X156239545Y-105893877D01*
X156209304Y-105890947D01*
X156180071Y-105887731D01*
X156152754Y-105884301D01*
X156113777Y-105878875D01*
X156082227Y-105873895D01*
X156068689Y-105871410D01*
X156056351Y-105868841D01*
X156044993Y-105866122D01*
X156034397Y-105863189D01*
X156024343Y-105859977D01*
X156014612Y-105856419D01*
X156004986Y-105852452D01*
X155995244Y-105848009D01*
X155985170Y-105843026D01*
X155974542Y-105837437D01*
X155950752Y-105824181D01*
X155924004Y-105809576D01*
X155896884Y-105796012D01*
X155869482Y-105783511D01*
X155841890Y-105772094D01*
X155814198Y-105761782D01*
X155786497Y-105752596D01*
X155758877Y-105744556D01*
X155731429Y-105737683D01*
X155704243Y-105731998D01*
X155677411Y-105727522D01*
X155651023Y-105724276D01*
X155625169Y-105722281D01*
X155599941Y-105721557D01*
X155575428Y-105722125D01*
X155551722Y-105724006D01*
X155528914Y-105727221D01*
X155502780Y-105732230D01*
X155477526Y-105738023D01*
X155453063Y-105744651D01*
X155429298Y-105752166D01*
X155406140Y-105760618D01*
X155383497Y-105770059D01*
X155361280Y-105780538D01*
X155339395Y-105792108D01*
X155317753Y-105804819D01*
X155296261Y-105818722D01*
X155274829Y-105833868D01*
X155253365Y-105850308D01*
X155231778Y-105868092D01*
X155209977Y-105887273D01*
X155187869Y-105907900D01*
X155165365Y-105930024D01*
X155149622Y-105946420D01*
X155132614Y-105965098D01*
X155114882Y-105985408D01*
X155096962Y-106006700D01*
X155079394Y-106028323D01*
X155062715Y-106049627D01*
X155047463Y-106069960D01*
X155034178Y-106088674D01*
X155016083Y-106114563D01*
X154998808Y-106138103D01*
X154982067Y-106159491D01*
X154965575Y-106178924D01*
X154949046Y-106196600D01*
X154932196Y-106212716D01*
X154923560Y-106220251D01*
X154914737Y-106227470D01*
X154905691Y-106234398D01*
X154896386Y-106241059D01*
X154886786Y-106247479D01*
X154876855Y-106253682D01*
X154855861Y-106265535D01*
X154833118Y-106276815D01*
X154808339Y-106287722D01*
X154781240Y-106298451D01*
X154751536Y-106309201D01*
X154718940Y-106320168D01*
X154683167Y-106331552D01*
X154650545Y-106341958D01*
X154623146Y-106351339D01*
X154611136Y-106355774D01*
X154600108Y-106360107D01*
X154589954Y-106364388D01*
X154580568Y-106368670D01*
X154571840Y-106373003D01*
X154563664Y-106377439D01*
X154555932Y-106382029D01*
X154548536Y-106386824D01*
X154541367Y-106391875D01*
X154534319Y-106397235D01*
X154527284Y-106402953D01*
X154520153Y-106409081D01*
X154507457Y-106420938D01*
X154495341Y-106433664D01*
X154483782Y-106447309D01*
X154472759Y-106461921D01*
X154462250Y-106477548D01*
X154452233Y-106494241D01*
X154442685Y-106512047D01*
X154433584Y-106531014D01*
X154424908Y-106551192D01*
X154416636Y-106572630D01*
X154408744Y-106595376D01*
X154401211Y-106619478D01*
X154394015Y-106644986D01*
X154387133Y-106671947D01*
X154380544Y-106700412D01*
X154374226Y-106730428D01*
X154370684Y-106747222D01*
X154369029Y-106754260D01*
X154367410Y-106760460D01*
X154365798Y-106765871D01*
X154364162Y-106770546D01*
X154362471Y-106774534D01*
X154360695Y-106777887D01*
X154358803Y-106780655D01*
X154357805Y-106781836D01*
X154356766Y-106782890D01*
X154355683Y-106783822D01*
X154354552Y-106784641D01*
X154353370Y-106785351D01*
X154352132Y-106785960D01*
X154349475Y-106786897D01*
X154346550Y-106787504D01*
X154343327Y-106787831D01*
X154339775Y-106787929D01*
X154288759Y-106784734D01*
X154166775Y-106776036D01*
X153782984Y-106747449D01*
X153565087Y-106731691D01*
X153386034Y-106720239D01*
X153259860Y-106713910D01*
X153220987Y-106712921D01*
X153200598Y-106713519D01*
X153184998Y-106716185D01*
X153168794Y-106720021D01*
X153152070Y-106724980D01*
X153134911Y-106731014D01*
X153117400Y-106738075D01*
X153099622Y-106746115D01*
X153081662Y-106755087D01*
X153063603Y-106764942D01*
X153045529Y-106775632D01*
X153027526Y-106787111D01*
X153009676Y-106799329D01*
X152992065Y-106812239D01*
X152974776Y-106825793D01*
X152957894Y-106839944D01*
X152941504Y-106854642D01*
X152925688Y-106869842D01*
X152900376Y-106896317D01*
X152874786Y-106925591D01*
X152848966Y-106957581D01*
X152822963Y-106992203D01*
X152796826Y-107029376D01*
X152770602Y-107069016D01*
X152744338Y-107111040D01*
X152718083Y-107155367D01*
X152691885Y-107201913D01*
X152665790Y-107250595D01*
X152639847Y-107301331D01*
X152614104Y-107354039D01*
X152588608Y-107408634D01*
X152563407Y-107465036D01*
X152538549Y-107523160D01*
X152514082Y-107582925D01*
X152503309Y-107609392D01*
X152492654Y-107634766D01*
X152482393Y-107658442D01*
X152472804Y-107679817D01*
X152464163Y-107698285D01*
X152456746Y-107713244D01*
X152450830Y-107724088D01*
X152448522Y-107727779D01*
X152446692Y-107730214D01*
X152444047Y-107732972D01*
X152441013Y-107735720D01*
X152433819Y-107741177D01*
X152425185Y-107746560D01*
X152415186Y-107751848D01*
X152403897Y-107757019D01*
X152391394Y-107762048D01*
X152377751Y-107766914D01*
X152363045Y-107771594D01*
X152347350Y-107776065D01*
X152330741Y-107780304D01*
X152313295Y-107784290D01*
X152295086Y-107787999D01*
X152276189Y-107791409D01*
X152256681Y-107794496D01*
X152236635Y-107797239D01*
X152216128Y-107799615D01*
X152192791Y-107801692D01*
X152167212Y-107803237D01*
X152109209Y-107804720D01*
X152041891Y-107804055D01*
X151965028Y-107801230D01*
X151878394Y-107796236D01*
X151781758Y-107789062D01*
X151674894Y-107779698D01*
X151557572Y-107768134D01*
X151408644Y-107753554D01*
X151281383Y-107742947D01*
X151174070Y-107736296D01*
X151084989Y-107733586D01*
X151012423Y-107734800D01*
X150981797Y-107736874D01*
X150954656Y-107739924D01*
X150930786Y-107743946D01*
X150909971Y-107748940D01*
X150891998Y-107754903D01*
X150876652Y-107761834D01*
X150872800Y-107764173D01*
X150867009Y-107768129D01*
X150850075Y-107780522D01*
X150826788Y-107798278D01*
X150798087Y-107820659D01*
X150764910Y-107846928D01*
X150728194Y-107876350D01*
X150688879Y-107908188D01*
X150647902Y-107941705D01*
X150597963Y-107983088D01*
X150554618Y-108019738D01*
X150517535Y-108051960D01*
X150486382Y-108080061D01*
X150460827Y-108104348D01*
X150440539Y-108125126D01*
X150425186Y-108142703D01*
X150419257Y-108150386D01*
X150414437Y-108157384D01*
X150400362Y-108178062D01*
X150385188Y-108197953D01*
X150368945Y-108217036D01*
X150351664Y-108235294D01*
X150333374Y-108252705D01*
X150314105Y-108269250D01*
X150293886Y-108284909D01*
X150272748Y-108299664D01*
X150250719Y-108313493D01*
X150227830Y-108326378D01*
X150204110Y-108338299D01*
X150179589Y-108349236D01*
X150154297Y-108359169D01*
X150128263Y-108368079D01*
X150101518Y-108375946D01*
X150074090Y-108382750D01*
X150054936Y-108386540D01*
X150033398Y-108389836D01*
X150009713Y-108392637D01*
X149984121Y-108394943D01*
X149928169Y-108398065D01*
X149867450Y-108399199D01*
X149803872Y-108398339D01*
X149739345Y-108395481D01*
X149675777Y-108390619D01*
X149644949Y-108387436D01*
X149615077Y-108383750D01*
X149501064Y-108368470D01*
X149468495Y-108397071D01*
X149460428Y-108403745D01*
X149451823Y-108410052D01*
X149442606Y-108416015D01*
X149432705Y-108421657D01*
X149422046Y-108427001D01*
X149410558Y-108432073D01*
X149398168Y-108436893D01*
X149384804Y-108441488D01*
X149370392Y-108445879D01*
X149354860Y-108450090D01*
X149338137Y-108454145D01*
X149320148Y-108458068D01*
X149300822Y-108461881D01*
X149280087Y-108465609D01*
X149257868Y-108469275D01*
X149234095Y-108472901D01*
X149155336Y-108485540D01*
X149120710Y-108492069D01*
X149088882Y-108498895D01*
X149059573Y-108506136D01*
X149032505Y-108513911D01*
X149007399Y-108522337D01*
X148983978Y-108531533D01*
X148961961Y-108541617D01*
X148941072Y-108552707D01*
X148921032Y-108564921D01*
X148901562Y-108578378D01*
X148882384Y-108593195D01*
X148863220Y-108609491D01*
X148843790Y-108627384D01*
X148823817Y-108646993D01*
X148808998Y-108662438D01*
X148794690Y-108678377D01*
X148780894Y-108694807D01*
X148767611Y-108711730D01*
X148754841Y-108729143D01*
X148742583Y-108747046D01*
X148730839Y-108765439D01*
X148719610Y-108784321D01*
X148708894Y-108803691D01*
X148698693Y-108823548D01*
X148689008Y-108843892D01*
X148679837Y-108864722D01*
X148671183Y-108886037D01*
X148663045Y-108907837D01*
X148655424Y-108930121D01*
X148648319Y-108952887D01*
X148644521Y-108965180D01*
X148640552Y-108977109D01*
X148636533Y-108988381D01*
X148632579Y-108998703D01*
X148628810Y-109007779D01*
X148625341Y-109015317D01*
X148622292Y-109021021D01*
X148620961Y-109023094D01*
X148619780Y-109024598D01*
X148610851Y-109030137D01*
X148591774Y-109038809D01*
X148527176Y-109064185D01*
X148433984Y-109097996D01*
X148320198Y-109137509D01*
X148193816Y-109179995D01*
X148062839Y-109222721D01*
X147935265Y-109262957D01*
X147819094Y-109297971D01*
X147683228Y-109335984D01*
X147526673Y-109377098D01*
X147194422Y-109458553D01*
X147040190Y-109493859D01*
X146908194Y-109522195D01*
X146809166Y-109541043D01*
X146753838Y-109547885D01*
X146749942Y-109548019D01*
X146744972Y-109548414D01*
X146732115Y-109549929D01*
X146715876Y-109552325D01*
X146696866Y-109555495D01*
X146675694Y-109559332D01*
X146652969Y-109563730D01*
X146629300Y-109568583D01*
X146605298Y-109573785D01*
X146528266Y-109592786D01*
X146441177Y-109617576D01*
X146240424Y-109683050D01*
X146010225Y-109767265D01*
X145757768Y-109867279D01*
X145490239Y-109980149D01*
X145214826Y-110102934D01*
X144938715Y-110232690D01*
X144669093Y-110366477D01*
X144579116Y-110412416D01*
X144503753Y-110452211D01*
X144466227Y-110473155D01*
X144425966Y-110496585D01*
X144380837Y-110523841D01*
X144328713Y-110556263D01*
X144194956Y-110641969D01*
X144007654Y-110764426D01*
X143404255Y-111162490D01*
X142804247Y-111557729D01*
X142548043Y-111724669D01*
X142547397Y-111724804D01*
X142546632Y-111724761D01*
X142545754Y-111724544D01*
X142544767Y-111724158D01*
X142543673Y-111723606D01*
X142542478Y-111722892D01*
X142541184Y-111722022D01*
X142539796Y-111720997D01*
X142536752Y-111718505D01*
X142533377Y-111715449D01*
X142529700Y-111711861D01*
X142525754Y-111707774D01*
X142521568Y-111703221D01*
X142517173Y-111698234D01*
X142512601Y-111692846D01*
X142507881Y-111687089D01*
X142503044Y-111680996D01*
X142498122Y-111674600D01*
X142493144Y-111667933D01*
X142488141Y-111661029D01*
X142488120Y-111661027D01*
X142457284Y-111619183D01*
X142421740Y-111573503D01*
X142381364Y-111523840D01*
X142336029Y-111470046D01*
X142285610Y-111411975D01*
X142229980Y-111349479D01*
X142169013Y-111282412D01*
X142102584Y-111210626D01*
X142022405Y-111124215D01*
X141954966Y-111050424D01*
X141898316Y-110986934D01*
X141850503Y-110931427D01*
X141809572Y-110881585D01*
X141773572Y-110835091D01*
X141740549Y-110789626D01*
X141708552Y-110742871D01*
X141677702Y-110695018D01*
X141648760Y-110646771D01*
X141621640Y-110597958D01*
X141596258Y-110548407D01*
X141572530Y-110497946D01*
X141550370Y-110446403D01*
X141529694Y-110393606D01*
X141510419Y-110339383D01*
X141496338Y-110298708D01*
X141483885Y-110264478D01*
X141478690Y-110250903D01*
X141474408Y-110240288D01*
X141471209Y-110233082D01*
X141470067Y-110230898D01*
X141469259Y-110229735D01*
X141467995Y-110228372D01*
X141467412Y-110227768D01*
X141466802Y-110227258D01*
X141466474Y-110227048D01*
X141466124Y-110226872D01*
X141465745Y-110226735D01*
X141465332Y-110226641D01*
X141464880Y-110226594D01*
X141464384Y-110226596D01*
X141463837Y-110226653D01*
X141463235Y-110226768D01*
X141462572Y-110226945D01*
X141461843Y-110227187D01*
X141461042Y-110227500D01*
X141460164Y-110227885D01*
X141459203Y-110228348D01*
X141458153Y-110228892D01*
X141455769Y-110230240D01*
X141452966Y-110231958D01*
X141449702Y-110234079D01*
X141445932Y-110236632D01*
X141441615Y-110239648D01*
X141436704Y-110243159D01*
X141431158Y-110247196D01*
X141424933Y-110251789D01*
X141417984Y-110256968D01*
X141410269Y-110262766D01*
X141401744Y-110269213D01*
X141382089Y-110284175D01*
X141358671Y-110302103D01*
X141331140Y-110323243D01*
X141262350Y-110376147D01*
X141195646Y-110427457D01*
X141168554Y-110447791D01*
X141144837Y-110464737D01*
X141123894Y-110478415D01*
X141114276Y-110484065D01*
X141105126Y-110488943D01*
X141096370Y-110493064D01*
X141087933Y-110496443D01*
X141079740Y-110499094D01*
X141071715Y-110501032D01*
X141063785Y-110502273D01*
X141055873Y-110502831D01*
X141047906Y-110502721D01*
X141039807Y-110501959D01*
X141031502Y-110500559D01*
X141022917Y-110498535D01*
X141013975Y-110495904D01*
X141004603Y-110492680D01*
X140984266Y-110484512D01*
X140961306Y-110474151D01*
X140905118Y-110447328D01*
X140832283Y-110411222D01*
X140753309Y-110369124D01*
X140663912Y-110318442D01*
X140559813Y-110256586D01*
X140436728Y-110180963D01*
X140290377Y-110088984D01*
X140116477Y-109978056D01*
X139910748Y-109845590D01*
X139639455Y-109671538D01*
X139540882Y-109609639D01*
X139461863Y-109561403D01*
X139398526Y-109524518D01*
X139347000Y-109496667D01*
X139303413Y-109475535D01*
X139263893Y-109458808D01*
X139173494Y-109419614D01*
X139060676Y-109365438D01*
X138934823Y-109301372D01*
X138805318Y-109232508D01*
X138681546Y-109163938D01*
X138572890Y-109100754D01*
X138488735Y-109048048D01*
X138458777Y-109027215D01*
X138438463Y-109010911D01*
X138422398Y-108994449D01*
X138400925Y-108969679D01*
X138343613Y-108897804D01*
X138270249Y-108800460D01*
X138184554Y-108682826D01*
X138090249Y-108550075D01*
X137991054Y-108407383D01*
X137890690Y-108259928D01*
X137826669Y-108163682D01*
X138401680Y-108163682D01*
X138478525Y-108245372D01*
X138504643Y-108272457D01*
X138529253Y-108296463D01*
X138552575Y-108317450D01*
X138574831Y-108335478D01*
X138585628Y-108343401D01*
X138596241Y-108350606D01*
X138606697Y-108357102D01*
X138617025Y-108362895D01*
X138627252Y-108367992D01*
X138637406Y-108372402D01*
X138647513Y-108376132D01*
X138657603Y-108379189D01*
X138667701Y-108381581D01*
X138677837Y-108383314D01*
X138688037Y-108384398D01*
X138698330Y-108384838D01*
X138708742Y-108384643D01*
X138719301Y-108383820D01*
X138730035Y-108382376D01*
X138740972Y-108380319D01*
X138752139Y-108377656D01*
X138763564Y-108374395D01*
X138775275Y-108370543D01*
X138787298Y-108366107D01*
X138812393Y-108355516D01*
X138839072Y-108342681D01*
X138878107Y-108323163D01*
X138893715Y-108314930D01*
X138900659Y-108310954D01*
X138907074Y-108306980D01*
X138912992Y-108302939D01*
X138918449Y-108298762D01*
X138923477Y-108294379D01*
X138928108Y-108289723D01*
X138932378Y-108284723D01*
X138936319Y-108279312D01*
X138939965Y-108273420D01*
X138943348Y-108266977D01*
X138946503Y-108259917D01*
X138949462Y-108252168D01*
X138952259Y-108243663D01*
X138954928Y-108234333D01*
X138957502Y-108224108D01*
X138960013Y-108212920D01*
X138964985Y-108187377D01*
X138970110Y-108157154D01*
X138975655Y-108121698D01*
X138989074Y-108032884D01*
X139004421Y-107936145D01*
X139019196Y-107850165D01*
X139031718Y-107784294D01*
X139036610Y-107761822D01*
X139040307Y-107747884D01*
X139049512Y-107715266D01*
X139056246Y-107681639D01*
X139060567Y-107647253D01*
X139062532Y-107612356D01*
X139062199Y-107577195D01*
X139059626Y-107542020D01*
X139054870Y-107507079D01*
X139047989Y-107472621D01*
X139039041Y-107438893D01*
X139028083Y-107406146D01*
X139015173Y-107374626D01*
X139000369Y-107344583D01*
X138983728Y-107316265D01*
X138965309Y-107289920D01*
X138945168Y-107265797D01*
X138923364Y-107244145D01*
X138913325Y-107235513D01*
X138903079Y-107227477D01*
X138892632Y-107220038D01*
X138881990Y-107213195D01*
X138871160Y-107206947D01*
X138860146Y-107201295D01*
X138848956Y-107196239D01*
X138837595Y-107191777D01*
X138826069Y-107187909D01*
X138814385Y-107184637D01*
X138802549Y-107181958D01*
X138790566Y-107179873D01*
X138778443Y-107178381D01*
X138766186Y-107177483D01*
X138753801Y-107177178D01*
X138741294Y-107177465D01*
X138728670Y-107178345D01*
X138715937Y-107179817D01*
X138703101Y-107181880D01*
X138690166Y-107184536D01*
X138677140Y-107187782D01*
X138664028Y-107191619D01*
X138650837Y-107196048D01*
X138637572Y-107201066D01*
X138624241Y-107206675D01*
X138610847Y-107212873D01*
X138597399Y-107219661D01*
X138583902Y-107227039D01*
X138556785Y-107243560D01*
X138529544Y-107262435D01*
X138475717Y-107301995D01*
X138469377Y-107407441D01*
X138467576Y-107432397D01*
X138464878Y-107462979D01*
X138457320Y-107536253D01*
X138447755Y-107617732D01*
X138437239Y-107697885D01*
X138431957Y-107737912D01*
X138426836Y-107780795D01*
X138417585Y-107869782D01*
X138410490Y-107954171D01*
X138408066Y-107991304D01*
X138406560Y-108023284D01*
X138401680Y-108163682D01*
X137826669Y-108163682D01*
X137792879Y-108112884D01*
X137663764Y-107917544D01*
G37*
%TD*%
D10*
%TO.C,J1*%
X157441714Y-107320328D03*
D11*
X158711714Y-109520033D03*
X155242009Y-108590328D03*
X156512009Y-110790033D03*
X153042305Y-109860328D03*
X154312305Y-112060033D03*
%TD*%
D12*
%TO.C,D2*%
X147261162Y-104555543D03*
D13*
X148334612Y-102253521D03*
%TD*%
D14*
%TO.C,D1*%
X155900000Y-96700000D03*
D13*
X158353452Y-96042600D03*
%TD*%
M02*
